<svg xmlns="http://www.w3.org/2000/svg" width="449.651" height="529.087" viewBox="0 0 449.651 529.087"><path d="M305.951,348.463,352.7,583.474l224.515,83.767a238.473,238.473,0,0,0,10.5-130.516C561.892,406.932,435.744,322.644,305.951,348.463Z" transform="translate(-195.29 -146.808)" fill="#f2f2f2"/><path d="M272.35,817.521c7.346,13.624,22.937,19.472,22.937,19.472s3.681-16.24-3.665-29.864-22.937-19.472-22.937-19.472S265,803.9,272.35,817.521Z" transform="translate(-181.391 -308.351)" fill="#3f3d56"/><path d="M265.942,824.367c13.263,7.979,18.371,23.829,18.371,23.829s-16.4,2.912-29.658-5.067S236.284,819.3,236.284,819.3,252.679,816.388,265.942,824.367Z" transform="translate(-169.934 -319.679)" fill="#f9a826"/><path d="M303.98,728.427c20.779-54.655,23.781-125.376,19.418-202.762q-.1-1.832-.21-3.676-.983-16.734-2.392-33.844h45.356q-.925,17.765-1.317,35.186c-.019.77-.032,1.533-.051,2.29-1.45,74.365,5.209,143.464,26.9,202.807Z" transform="translate(-194.573 -199.34)" fill="#3f3d56"/><path d="M682.823,806.332q-21.257-3.6-40.885-6.185l5.173-10.03c-1.744-.606-9.408,5.138-9.408,5.138l6.789-29.114c-8.773,1.058-13.234,30.785-13.234,30.785l-9.8-10.051,4.745,11.3a905.012,905.012,0,0,0-103.731-6.528l4.428-8.585c-1.744-.606-9.408,5.138-9.408,5.138l6.789-29.114c-8.773,1.058-13.234,30.786-13.234,30.786l-9.8-10.051,5.026,11.968a582.7,582.7,0,0,0-59.631,4.051c4.478-13.373,19.692-26.092,19.692-26.092-11.618,3.455-17.713,9.246-20.9,14.644a234.488,234.488,0,0,1,13.553-81.019s-24.015,52.258-20.95,87.336l.367,6.229c-20.359,2.915-28.368,9.764-28.368,9.764Z" transform="translate(-233.173 -277.674)" fill="#3f3d56"/><path d="M428.39,235.293c-1.579,91.314-68.484,122.046-150.327,120.631q-2.852-.049-5.675-.15-5.688-.2-11.253-.619c-73.793-5.556-130.608-40.064-129.14-124.986C133.513,142.285,276.743,42.1,287.181,34.075,287.19,34.075,429.968,143.986,428.39,235.293Z" transform="translate(-131.966 -34.075)" fill="#fca310"/><circle cx="18.214" cy="18.214" r="18.214" transform="translate(227.4 379.152)" fill="#2f2e41"/><circle cx="18.214" cy="18.214" r="18.214" transform="translate(207.669 355.171)" fill="#2f2e41"/><path d="M457.737,635.089a18.215,18.215,0,0,0,28.127-9.564,18.215,18.215,0,1,1-35.53-7.469A18.208,18.208,0,0,0,457.737,635.089Z" transform="translate(-247.564 -246.623)" fill="#2f2e41"/><circle cx="14.875" cy="14.875" r="14.875" transform="translate(235.445 389.625)" fill="#ffb8b8"/><path d="M515.922,686.008s-6.071,9.107-5.161,13.053c0,0,3.946,1.821,3.946,2.428s3.643,6.375,3.643,6.375l4.25,5.768,1.821,7.589h-8.8l-9.714-7.589-9.41-10.321s-6.375-3.036-9.714-.607l-1.821,1.518s6.375-8.5,9.41-10.321c0,0,5.464-6.678,4.857-13.357Z" transform="translate(-260.443 -269.366)" fill="#ffb8b8"/><path d="M528.607,709.18s6.071,3.339,8.5,9.714,13.357,27.624,13.357,27.624.911,13.66.3,14.267-7.589-6.071-8.8-7.893-6.071-23.678-6.071-23.678L528,716.465l-1.518-7.285Z" transform="translate(-275.555 -279.788)" fill="#ffb8b8"/><path d="M559.891,752.316l2.732-.911s16.7-10.321,17.607-14.875S594.5,716.8,594.8,725s-9.714,17.3-9.714,17.3-21.856,30.66-23.071,21.856Z" transform="translate(-287.715 -284.676)" fill="#ffb8b8"/><path d="M466.083,728.006s-.3,8.5-12.142,11.535c0,0-12.143,16.392-13.357,23.678S407.5,807.843,407.5,807.843s-29.445,3.643-29.445,0,24.589-6.678,24.589-6.678,25.8-38.249,27.017-43.409,12.75-43.409,18.214-43.106c0,0,5.161-2.429,8.2-.607S466.083,728.006,466.083,728.006Z" transform="translate(-221.532 -281.311)" fill="#ffb8b8"/><path d="M569.52,771.989s21.249-28.535,25.8-30.356,10.321-3.036,13.66,1.214,42.8,54.034,42.8,54.034,13.964,14.267,20.946,11.535c0,0,3.643,3.036-4.857,3.643a50.649,50.649,0,0,1-16.392-1.821s-5.161.911-8.8,1.821-8.2,1.214-7.893-1.214L636,801.131s-31.267-25.8-32.178-36.731c0,0,.607-5.161,0-4.553s-13.357,14.267-19.124,17.3-20.035,7.285-20.035,7.285Z" transform="translate(-289.452 -290.992)" fill="#ffb8b8"/><path d="M569.52,771.989s21.249-28.535,25.8-30.356,10.321-3.036,13.66,1.214,42.8,54.034,42.8,54.034,13.964,14.267,20.946,11.535c0,0,3.643,3.036-4.857,3.643a50.649,50.649,0,0,1-16.392-1.821s-5.161.911-8.8,1.821-8.2,1.214-7.893-1.214L636,801.131s-31.267-25.8-32.178-36.731c0,0,.607-5.161,0-4.553s-13.357,14.267-19.124,17.3-20.035,7.285-20.035,7.285Z" transform="translate(-289.452 -290.992)" opacity="0.1"/><path d="M565.139,786.58s27.928-10.625,31.57-13.053,16.7-7.286,23.374-1.821,39.159,30.66,50.088,33.088,29.749,8.2,29.749,8.2,12.142.911-.911,6.071c0,0-16.089,1.518-18.821,3.946s-11.839,5.464-12.446,1.518-2.429-9.107-5.768-9.714-43.409-11.535-49.481-23.374c0,0-13.66,7.589-22.16,16.392S561.8,821.49,561.8,821.49Z" transform="translate(-288.41 -301.637)" fill="#ffb8b8"/><path d="M534.034,781.247s13.307,3.537,14.394,2.224,6.855,5.972,1.391,20.543-4.25,21.249-7.285,23.374-17.3-1.214-21.553.3-9.714,2.732-11.535-6.071-6.375-24.285-5.464-26.41,5.768-6.982,5.768-6.982l10.018-5.161Z" transform="translate(-267.323 -306.018)" fill="#2f2e41"/><path d="M478.733,720.78s2.113-5.92,6.036-7.03a10.1,10.1,0,0,0,.979-.321,7.474,7.474,0,0,1,9.225,2.646c3.946,5.464,7.589,11.839,4.553,15.482s-9.107,5.768-9.107,5.768l-4.553,5.768s9.107,16.392,9.107,23.981c0,0,.3,3.036,5.464-2.428s26.279-9.242,26.279-9.242-4.423-5.936-1.083-8.668,6.4-13.614-1.507-17.887l-13.519-19.906-2.429.3s3.187,2.884,3.491,4.4,12.446,12.142,7.589,13.964-12.75-2.125-16.089-6.678c-1.837-2.5-4.408-5.927-7.663-8.1a11.35,11.35,0,0,0-11.353-.609l-1.019.51h0a13,13,0,0,0-4.5,5.531l-.362.844Z" transform="translate(-258.011 -279.701)" fill="#2f2e41"/><circle cx="13.357" cy="13.357" r="13.357" transform="translate(227.4 387.045)" fill="#2f2e41"/><ellipse cx="11.839" cy="9.259" rx="11.839" ry="9.259" transform="translate(240.15 386.134)" fill="#2f2e41"/><ellipse cx="1.973" cy="3.491" rx="1.973" ry="3.491" transform="translate(245.614 406.473)" fill="#a0616a"/><path d="M515.982,629.432v24.176h6.982V629.432a1.627,1.627,0,0,0-1.627-1.627h-3.728a1.627,1.627,0,0,0-1.627,1.627Z" transform="translate(-271.734 -250.171)" fill="#ff6584"/><circle cx="7.589" cy="7.589" r="7.589" transform="translate(240.15 400.705)" fill="#f9a826"/><circle cx="3.339" cy="3.339" r="3.339" transform="translate(244.4 404.955)" fill="#f2f2f2"/><circle cx="0.911" cy="0.911" r="0.911" transform="translate(246.828 407.383)" fill="#ff6584"/><path d="M515.982,629.432v1.1h6.982v-1.1a1.627,1.627,0,0,0-1.627-1.627h-3.728a1.627,1.627,0,0,0-1.627,1.627Z" transform="translate(-271.734 -250.171)" opacity="0.1"/><path d="M620.8,713.735l-17.874-17.874a3.334,3.334,0,0,0-4.715,0l-16.079,16.079a3.334,3.334,0,0,0,0,4.715l16.7,16.7a3.334,3.334,0,0,0,4.537.165l17.253-14.905a3.334,3.334,0,0,0,.178-4.88Z" transform="translate(-295.454 -274.586)" fill="#2f2e41"/><path d="M487.243,685.965l-15.634-15.633-12.9,12.9,15.026,15.026Z" transform="translate(-166.953 -243.976)" fill="#f2f2f2"/><circle cx="7.471" cy="7.471" r="7.471" transform="translate(298.248 432.697)" fill="#f9a826"/><path d="M613.5,728.216a7.471,7.471,0,0,0-7.61-12.487,7.471,7.471,0,1,1,6.78,13.161A7.54,7.54,0,0,0,613.5,728.216Z" transform="translate(-304.458 -281.68)" opacity="0.1"/><path d="M606.488,723.659c-.891.837-.938,3.851.422,5.3s3.613.782,4.5-.055.083-1.528-1.278-2.976S607.379,722.822,606.488,723.659Z" transform="translate(-304.442 -284.976)" fill="#f2f2f2"/><circle cx="2.214" cy="2.214" r="2.214" transform="translate(307.417 438.076)" fill="#2f2e41"/><circle cx="2.214" cy="2.214" r="2.214" transform="translate(303.438 433.841)" fill="#2f2e41"/><circle cx="0.553" cy="0.553" r="0.553" transform="translate(309.077 439.736)" fill="#f2f2f2"/><circle cx="0.277" cy="0.277" r="0.277" transform="translate(309.592 438.65)" fill="#f2f2f2"/><circle cx="0.277" cy="0.277" r="0.277" transform="translate(305.613 434.415)" fill="#f2f2f2"/><circle cx="0.553" cy="0.553" r="0.553" transform="translate(305.098 435.502)" fill="#f2f2f2"/><path d="M361.5,358.066l-1.056-11.061-5.19-24.125-11.436-53.173L394.5,176.993l-50.489,80.955.547-33.691,34.931-67.083L344.7,215.333l.986-60.6,37.4-53.4L345.845,145.2l.611-110.658v-.471l-.019.477-3.683,140.322-37.876-57.956,37.418,69.85-3.543,67.687-.108-1.794L294.81,191.405l43.7,67.6-.439,8.459-.083.134.038.693-11.22,54.585-6.958,33.844q.114,1.841.21,3.676c6.379.14,37.215-.089,41.387-.045Z" transform="translate(-191.235 -34.075)" fill="#3f3d56"/></svg>