<svg xmlns="http://www.w3.org/2000/svg" width="1098" height="791.322" viewBox="0 0 1098 791.322"><g transform="translate(0 0.425)"><line x2="176.616" transform="translate(0 790.372)" fill="none" stroke="#3f3d56" stroke-miterlimit="10" stroke-width="1"/><rect width="784.134" height="530.913" rx="19.398" transform="translate(258.541 137.636)" fill="#13213c"/><rect width="784.134" height="530.913" rx="19.398" transform="translate(234.602 104.122)" fill="none" stroke="#3f3d56" stroke-miterlimit="10" stroke-width="1"/><line x2="784.134" transform="translate(234.602 155.021)" fill="none" stroke="#3f3d56" stroke-miterlimit="10" stroke-width="1"/><rect width="213.855" height="32.983" rx="7.093" transform="translate(703.273 274.354)" fill="#e5e5e5" opacity="0.3"/><rect width="295.779" height="26.599" rx="7.093" transform="translate(662.311 365.854)" fill="#e5e5e5" opacity="0.3"/><rect width="295.779" height="26.599" rx="7.093" transform="translate(662.311 438.203)" fill="#e5e5e5" opacity="0.3"/><rect width="295.779" height="26.599" rx="7.093" transform="translate(662.311 510.552)" fill="#e5e5e5" opacity="0.3"/><rect width="213.855" height="32.983" rx="7.093" transform="translate(713.913 263.715)" fill="none" stroke="#3f3d56" stroke-miterlimit="10" stroke-width="1"/><rect width="295.779" height="26.599" rx="7.093" transform="translate(672.951 355.215)" fill="none" stroke="#3f3d56" stroke-miterlimit="10" stroke-width="1"/><rect width="295.779" height="26.599" rx="7.093" transform="translate(672.951 427.563)" fill="none" stroke="#3f3d56" stroke-miterlimit="10" stroke-width="1"/><rect width="295.779" height="26.599" rx="7.093" transform="translate(672.951 499.912)" fill="none" stroke="#3f3d56" stroke-miterlimit="10" stroke-width="1"/><circle cx="15.959" cy="15.959" r="15.959" transform="translate(278.224 120.081)" fill="#fca310" opacity="0.3"/><circle cx="15.959" cy="15.959" r="15.959" transform="translate(322.91 120.081)" fill="#fca310" opacity="0.3"/><circle cx="15.959" cy="15.959" r="15.959" transform="translate(367.596 120.081)" fill="#fca310" opacity="0.3"/><circle cx="15.959" cy="15.959" r="15.959" transform="translate(284.608 113.697)" fill="none" stroke="#3f3d56" stroke-miterlimit="10" stroke-width="1"/><circle cx="15.959" cy="15.959" r="15.959" transform="translate(329.294 113.697)" fill="none" stroke="#3f3d56" stroke-miterlimit="10" stroke-width="1"/><circle cx="15.959" cy="15.959" r="15.959" transform="translate(373.98 113.697)" fill="none" stroke="#3f3d56" stroke-miterlimit="10" stroke-width="1"/><path d="M540.306,659.733c-2.672-12.308-3.38-29.12-2.482-40.814,0,0-13.51-59.354-24.141-64.892l0,0c-.163.209-5.322,6.973-5.976,27.9-.664,21.261-8.192,35.213-8.192,35.213s2.436,26.5,1.043,42.588Z" transform="translate(-57.958 -47.042)" fill="#e5e5e5"/><path d="M646.487,298.379h-245.2A25.292,25.292,0,0,0,376,323.671v327.12a25.292,25.292,0,0,0,25.292,25.292h86.026c-2.873-11.916-6.444-30.525-2.827-43.465l0-.008,0,.006c.169-.6.348-1.2.549-1.777a67.561,67.561,0,0,0,2.438-25.911,53.848,53.848,0,0,0,0-22.59c-2.657-12.4-4.518-24.583-4.518-24.583s-1.465-16.387-.186-26.433c.028-.221.061-.43.092-.644-.451-.1-.7-.162-.7-.162s3.765-17.053,5.094-27.9c.314-2.562.727-5.809,1.174-9.272a22.3,22.3,0,0,1-3.61-.915c-11.959-4.208-15.724-42.3-15.724-42.3v-12.07s-3.986-18.492,9.966-26.687c13.436-7.891,18.8-10.05,19.179-10.2.1-.073.2-.14.307-.221a11.768,11.768,0,0,0,3.5-4.5q.028-.456.013-.907c-.227-4.327-3.239-8.262-6.1-11.7l-7.313-8.785a8.591,8.591,0,0,1-1.884-3.048,7.027,7.027,0,0,1-.2-1.919q0-.359,0-.716.06-3.275.178-6.549c.069-1.907.549-4.313,2.416-4.7.971-.2,2.257.152,2.77-.7a1.664,1.664,0,0,0,.124-1.128c-.006.028-.008.058-.016.086-.006-.036-.012-.071-.019-.106a23.878,23.878,0,0,1-.692-4.667,6.215,6.215,0,0,1,.3-2.1c1.082-3.165,4.807-4.464,8.1-5.062s6.987-1.111,9.052-3.742a28.708,28.708,0,0,1,1.8-2.526,7.053,7.053,0,0,1,3.368-1.7,18.616,18.616,0,0,1,12.242,1.086c1.592.727,3.192,1.705,4.938,1.594,1.814-.115,3.364-1.392,5.155-1.7,2.893-.5,5.659,1.666,7.084,4.233a10.48,10.48,0,0,1,1.312,5.344,7.355,7.355,0,0,1-1.877,5.044c-1.245,1.321-3.1,2.228-3.62,3.968-.21.708-.162,1.471-.348,2.186-.023.089-.061.173-.092.259.034.044.071.087.105.131a22.589,22.589,0,0,1-10.993,35.131c-.009.224-.017.448-.016.673a9.76,9.76,0,0,0,3.021,7.517l19.733,8.092s11.88-1.44,16.167,16.289a30.68,30.68,0,0,1,.734,9c-.156,2.673.208,7.379,3.253,13.47,4.872,9.745,3.765,32.113-6.2,34.327-9.439,2.1-13.112,1.216-13.474,1.117l-.021.391c.156,4.2,1.649,40.4,7.073,44.778,1.5,1.211,1.213,2.029-.017,2.581l0,0s.01.233.033.651c.163,2.648,1,12.73,4.631,18.467,4.209,6.644,3.767,44.96,3.767,44.96l2.877,22.59s-1.771,13.952,0,16.387c1.006,1.381,2.224,22.772,3.091,41.036h73.977a25.292,25.292,0,0,0,25.292-25.292V323.671A25.292,25.292,0,0,0,646.487,298.379Z" transform="translate(-65.858 -63.391)" fill="#e5e5e5"/><rect width="295.779" height="377.703" rx="23.772" transform="translate(284.608 206.261)" fill="none" stroke="#3f3d56" stroke-miterlimit="10" stroke-width="1"/><path d="M186.08,400.831s-9.921-2.933-12.048.259,2.9,26.33,2.9,26.33l21.86,1.328-7.629-19.264Z" transform="translate(-78.808 -56.918)" fill="#2f2e41"/><path d="M114.447,579.347s19.89,43.667,4.572,42.3-21.262-42.3-21.262-42.3Z" transform="translate(-83.652 -45.423)" fill="#a0616a"/><path d="M235.867,575.314s-8.726,47.184,5.8,42.144,10.389-46.185,10.389-46.185Z" transform="translate(-74.986 -45.939)" fill="#a0616a"/><path d="M183.93,390.948s-.229,21.948,8.23,23.091-4.8,12.8-4.8,12.8l-15.089,2.972-21.719-1.6-9.6-12.346s16.918-8,9.6-32.922Z" transform="translate(-80.89 -57.983)" fill="#a0616a"/><path d="M183.93,390.948s-.229,21.948,8.23,23.091-4.8,12.8-4.8,12.8l-15.089,2.972-21.719-1.6-9.6-12.346s16.918-8,9.6-32.922Z" transform="translate(-80.89 -57.983)" opacity="0.1"/><path d="M223.777,564.953s10.745,23.091,2.286,95.565c0,0,2.515,25.606.457,30.407s-18.976,69.958-18.976,69.958-21.719,4.8-24.691-9.6c0,0,2.972-20.576,2.743-23.777s4.8-38.18,4.8-38.18l-10.288-67.673-7.773,61.042s0,17.6-2.515,21.491,0,82.076,0,82.076,7.087,11.888-3.658,12.117-20.348-.229-21.262-7.773-1.372-15.089-3.658-19.662-5.258-56.927-4.572-75.217-15.089-112.255-10.06-122.085S223.777,564.953,223.777,564.953Z" transform="translate(-81.87 -46.346)" fill="#13213c"/><circle cx="27.435" cy="27.435" r="27.435" transform="translate(63.946 286.325)" fill="#a0616a"/><path d="M145.454,414.786s16.69,12.346,40.924,2.515c0,0,8-3.887,7.316-9.831s16.69,47.782,16.69,47.782l17.6,93.507-.915,38.18s-7.773-3.887-32.007,4.8-63.786-9.831-63.786-9.831l1.372-98.079,1.372-57.156,3.658-12.574S139.51,410.67,145.454,414.786Z" transform="translate(-81.508 -56.444)" fill="#13213c"/><path d="M182.063,399.895s4.039-.656,7.925,5.517S203.02,415.47,203.02,415.47s22.176,1.372,25.377,13.26,11.2,28.121,15.089,58.07,11.66,77.732,12.8,81.619-1.6,15.775,1.6,19.433-22.634,3.658-22.634,3.658-2.286-18.747-3.887-18.747-1.143,12.574.457,21.719-11.66,0-11.66,0-10.288-41.838-20.119-79.561-15.546-58.528-13.717-66.987,6.859-32.693,3.2-34.979S182.063,399.895,182.063,399.895Z" transform="translate(-78.26 -56.901)" fill="#fca310"/><path d="M155.01,399.874s-5.973,3.251-21.062,14-25.377,18.976-25.377,18.976-5.944,4.573-9.6,31.779S87.08,562.247,90.281,571.163s4.344,14.175,3.2,19.433,24.005,5.03,24.463,3.887-.686-21.948.457-22.405,7.316,12.346,8.459,23.091,14.4,19.2,17.375,19.2,18.29-61.957,18.518-104.252-5.03-77.961-8.916-82.99S155.01,399.874,155.01,399.874Z" transform="translate(-84.177 -56.901)" fill="#fca310"/><path d="M190.09,752.583s1.829-5.03,8.23-3.429,10.745-4.115,10.745-4.115,3.429-.457,1.143,3.887-4.115,7.316-4.115,7.316,13.717,31.321,4.8,38.866-19.2,2.972-19.2,2.972-10.059-7.087-9.6-25.835c0,0-.457-5.944-5.944-15.546s-9.6-24.234-2.972-26.978,8.337-2.845,8.337-2.845-3.1,14.19,4.911,19.149Z" transform="translate(-79.048 -35.988)" fill="#fca310"/><path d="M149.3,785.081s-5.487-10.288,3.658-11.432,18.976-1.829,18.519,2.972-1.6,12.117-1.6,12.117l1.6,5.258s.457,13.032,2.058,14.632,10.288,15.318-8.23,15.318-24.005-2.058-22.405-6.4,2.058-25.834,2.058-25.834Z" transform="translate(-80.782 -33.049)" fill="#fca310"/><path d="M164.481,353.032s12.8,3.429,19.433,4.8,5.944-2.515,5.944-2.515,8.688,1.143,8.23.229,3.658-5.716-1.143-11.2-3.429-9.6-3.429-9.6H189.4l-1.143-1.6h-6.4s-4.8-1.829-17.375,0-29.721,2.286-31.093,9.831-8.459,16.918-5.944,21.262,16.918,22.177,18.29,29.721,7.777,9.221,7.546,4.5-6.632-21.186-1.145-21.871S167,361.949,164.481,353.032Z" transform="translate(-81.788 -61.22)" fill="#13213c"/><path d="M1020.758,86.584a24.452,24.452,0,0,0-21.077,14.737c-5.271,12.74,1.516,27.7,11.7,36.994s23.272,14.6,35.162,21.58c15.969,9.375,30.319,22.389,38.31,39.094s8.84,37.4-.552,53.357c-8.717,14.813-24.569,23.678-39.687,31.854" transform="translate(-26.088 -76.936)" fill="none" stroke="#3f3d56" stroke-miterlimit="10" stroke-width="1"/><ellipse cx="18.5" cy="10.5" rx="18.5" ry="10.5" transform="translate(988 -0.425)" fill="#fca310"/><ellipse cx="18" cy="7.5" rx="18" ry="7.5" transform="translate(1004 62.575)" fill="#fca310"/><ellipse cx="18" cy="8" rx="18" ry="8" transform="translate(973 72.575)" fill="#fca310"/><ellipse cx="18" cy="10.5" rx="18" ry="10.5" transform="translate(1025 119.575)" fill="#fca310"/><ellipse cx="18.5" cy="10.5" rx="18.5" ry="10.5" transform="translate(1061 119.575)" fill="#fca310"/></g></svg>