<svg id="donation" xmlns="http://www.w3.org/2000/svg" xmlns:xlink="http://www.w3.org/1999/xlink" width="1119" height="732.13" viewBox="0 0 1119 732.13">
  <defs>
    <linearGradient id="linear-gradient" x1="0.5" y1="1" x2="0.5" gradientUnits="objectBoundingBox">
      <stop offset="0" stop-color="gray" stop-opacity="0.251"/>
      <stop offset="0.54" stop-color="gray" stop-opacity="0.122"/>
      <stop offset="1" stop-color="gray" stop-opacity="0.102"/>
    </linearGradient>
    <linearGradient id="linear-gradient-2" x1="-2.497" y1="1" x2="-2.497" y2="0" xlink:href="#linear-gradient"/>
  </defs>
  <ellipse id="Ellipse_58" data-name="Ellipse 58" cx="559.5" cy="88" rx="559.5" ry="88" transform="translate(0 556.13)" fill="#fff" opacity="0.1"/>
  <path id="Pfad_265" data-name="Pfad 265" d="M927.33,472.98v61L911.2,566.52h0l-.51,1.03L868,564.73l-16.41-1.09-38.09-2.51V488.16l38.09,1.07,17.03.48,43.09,1.22Z" fill="#f86d70"/>
  <path id="Pfad_266" data-name="Pfad 266" d="M927.33,476.58v57.4l-3.95,7.95h0l-4.03,8.15h0l-8.15,16.44.91-61,.18-12.31,7.75-8.57h0l3.38-3.74Z" opacity="0.1"/>
  <path id="Pfad_267" data-name="Pfad 267" d="M929.51,456.78v21.31l-2.18,3.49-3.92,6.23-3.46,5.52-7.66,12.2-.18-.01-101.97-5.25V479.26l.26-.28,12.17-13.18,4.41-4.77,7.97-8.62Z" fill="#f86d70"/>
  <path id="Pfad_268" data-name="Pfad 268" d="M912.29,484.51v21.02l-102.15-5.26V479.26l.26-.28Z" opacity="0.1"/>
  <path id="Pfad_269" data-name="Pfad 269" d="M929.51,456.78v21.31l-17.22,27.44V484.51Z" opacity="0.15"/>
  <path id="Pfad_270" data-name="Pfad 270" d="M923.43,466.59l-.01,14.31-.01,6.91-.03,54.12h0l-4.03,8.15.6-56.75.09-8.69h0l.14-12.82-97.61-6.02,4.41-4.77Z" fill="#13213c"/>
  <path id="Pfad_271" data-name="Pfad 271" d="M875.52,467.29l-6.84,14.85-.06,7.57L868,564.73l-16.41-1.09V481.15l8.75-13.86Z" fill="#13213c"/>
  <path id="Pfad_272" data-name="Pfad 272" d="M893.5,552.22a21.62,21.62,0,0,1-12.24.43,4.9,4.9,0,0,1-2.14-1,5.58,5.58,0,0,1-1.33-2.63,20.689,20.689,0,0,1-1.17-6.29,7,7,0,0,1,2.62-5.62,6.133,6.133,0,0,0,1-.75,4.22,4.22,0,0,0,.77-1.56c1.2-3.57,3.51-7.33,7.23-7.91,3.43-.52,6.55,1.87,9.2,4.12l5.8,4.94a9.15,9.15,0,0,1,17.07-.23,32.37,32.37,0,0,1,12.9-8.86,4,4,0,0,1,3.39-.13,3.78,3.78,0,0,1,1.35,1.81,27.849,27.849,0,0,1,2.52,11,1.93,1.93,0,0,1,2.24.77,5.089,5.089,0,0,1,.74,2.42,33.411,33.411,0,0,1,.23,4,6,6,0,0,1-1,4c-1.18,1.38-3.23,1.52-5,1.56.88.78.45,2.35-.52,3a5.84,5.84,0,0,1-3.39.66c-4.51,0-9.31-.17-13.07-2.67-1.48-1-2.72-2.31-4.21-3.3-3.64-2.41-8.22-2.52-12.43-2.32C900.14,547.85,897.12,551,893.5,552.22Z" transform="translate(-40.5 -83.93)" fill="#13213c"/>
  <path id="Pfad_273" data-name="Pfad 273" d="M892.67,551.23s-37.65,5.25-42.91,28l7.89-1.16,5.54,9.92s5.84-22.18,23.06-27.44,23.35-6.12,23.35-6.12,12,2.91,22.76,37.65l6.13-8.47,10.8,2.34s-7.88-27.15-29.19-34.73Z" transform="translate(-40.5 -83.93)" fill="#13213c"/>
  <path id="Pfad_274" data-name="Pfad 274" d="M874.71,496.84v82.4l-21.78,43.94v.01l-.69,1.39-57.67-3.81L772.4,619.3l-51.45-3.4V517.34l51.45,1.45,23.01.65,58.21,1.64Z" fill="#fca310"/>
  <path id="Pfad_275" data-name="Pfad 275" d="M874.71,501.7v77.54l-5.32,10.73v.01l-5.46,11h0l-11,22.2,1.23-82.4.25-16.62,10.46-11.57v-.01l4.56-5.04Z" opacity="0.1"/>
  <path id="Pfad_276" data-name="Pfad 276" d="M877.67,474.95v28.79l-2.96,4.71-5.28,8.41-4.68,7.46L854.41,540.8l-.25-.02L716.42,533.7V505.31l.34-.37,16.45-17.8,5.95-6.45,10.77-11.65Z" fill="#fca310"/>
  <path id="Pfad_277" data-name="Pfad 277" d="M854.41,512.41V540.8l-137.99-7.1V505.31l.34-.37Z" opacity="0.1"/>
  <path id="Pfad_278" data-name="Pfad 278" d="M877.67,474.95v28.79L854.41,540.8V512.41Z" fill="#150f04" opacity="0.15"/>
  <path id="Pfad_279" data-name="Pfad 279" d="M869.45,488.2l-.02,19.34v9.32l-.04,73.11v.01l-5.46,11,.82-76.66.12-11.73v-.01l.19-17.32-131.85-8.12,5.95-6.45Z" fill="#13213c"/>
  <path id="Pfad_280" data-name="Pfad 280" d="M804.73,489.15l-9.24,20.06-.08,10.23-.84,101.33L772.4,619.3V507.88l11.83-18.73Z" fill="#13213c"/>
  <path id="Pfad_281" data-name="Pfad 281" d="M814.81,574.43a29.261,29.261,0,0,1-16.53.58,6.57,6.57,0,0,1-2.89-1.34,7.51,7.51,0,0,1-1.8-3.55,28,28,0,0,1-1.58-8.51c.07-2.89,1.17-5.91,3.54-7.58a9.4,9.4,0,0,0,1.34-1,5.56,5.56,0,0,0,1-2.11c1.61-4.82,4.74-9.91,9.77-10.68,4.63-.71,8.85,2.52,12.42,5.56l7.83,6.67a12.37,12.37,0,0,1,23.06-.31,43.781,43.781,0,0,1,17.43-12c1.49-.56,3.23-1,4.59-.18a5.21,5.21,0,0,1,1.82,2.44,37.74,37.74,0,0,1,3.4,14.86,2.6,2.6,0,0,1,3,1,6.89,6.89,0,0,1,1,3.28,46.257,46.257,0,0,1,.32,5.39c0,1.9-.18,4-1.42,5.4-1.6,1.86-4.37,2.06-6.82,2.12,1.18,1.05.6,3.16-.71,4.05a7.86,7.86,0,0,1-4.58.89c-6.1-.06-12.58-.23-17.65-3.62-2-1.33-3.68-3.11-5.69-4.44-4.92-3.26-11.1-3.41-16.8-3.14C823.78,568.52,819.7,572.79,814.81,574.43Z" transform="translate(-40.5 -83.93)" fill="#13213c"/>
  <path id="Pfad_282" data-name="Pfad 282" d="M813.69,573.08s-50.86,7.1-58,37.85l10.65-1.58,7.49,13.41s7.89-30,31.15-37.06,31.54-8.28,31.54-8.28,16.16,3.94,30.75,50.86l8.28-11.44L890.18,620s-10.65-36.67-39.43-46.92Z" transform="translate(-40.5 -83.93)" fill="#13213c"/>
  <path id="Pfad_283" data-name="Pfad 283" d="M957.25,537.77v51l-13.48,27.2h0l-.43.86-35.69-2.36-13.72-.91-31.84-2.1v-61l31.84.89,14.24.4,36.03,1.02Z" fill="#13213c"/>
  <path id="Pfad_284" data-name="Pfad 284" d="M957.25,540.77v48l-3.29,6.64h0l-3.38,6.81v.01l-6.81,13.74.76-51,.16-10.29,6.47-7.17h0l2.83-3.12Z" opacity="0.1"/>
  <path id="Pfad_285" data-name="Pfad 285" d="M959.08,524.22v17.82l-1.83,2.91-3.27,5.21-2.89,4.62-6.4,10.19h-.16l-85.25-4.39V543.01l.21-.23,10.18-11.02,3.69-3.98,6.66-7.22Z" fill="#13213c"/>
  <path id="Pfad_286" data-name="Pfad 286" d="M944.69,547.4v17.57l-85.41-4.39V543.01l.21-.23Z" opacity="0.1"/>
  <path id="Pfad_287" data-name="Pfad 287" d="M959.08,524.22v17.82l-14.39,22.93V547.4Z" opacity="0.15"/>
  <path id="Pfad_288" data-name="Pfad 288" d="M953.99,532.42v11.97l-.01,5.77-.02,45.25h0l-3.38,6.81.51-47.44.07-7.27h0l.12-10.72-81.61-5.03,3.69-3.98Z" fill="#fca310"/>
  <path id="Pfad_289" data-name="Pfad 289" d="M913.94,533.01l-5.72,12.42-.05,6.32-.52,62.72-13.72-.91V544.6l7.32-11.59Z" fill="#fca310"/>
  <path id="Pfad_290" data-name="Pfad 290" d="M935.61,617.78a18.181,18.181,0,0,1-10.23.36,4.169,4.169,0,0,1-1.79-.84,4.71,4.71,0,0,1-1.11-2.19,17.35,17.35,0,0,1-1-5.27,5.85,5.85,0,0,1,2.19-4.69,5,5,0,0,0,.83-.63,3.442,3.442,0,0,0,.64-1.3c1-3,2.94-6.13,6.05-6.61,2.87-.44,5.48,1.56,7.69,3.44l4.85,4.13A7.65,7.65,0,0,1,958,604a27.222,27.222,0,0,1,10.79-7.4,3.32,3.32,0,0,1,2.83-.11,3.18,3.18,0,0,1,1.13,1.51,23.2,23.2,0,0,1,2.1,9.2,1.6,1.6,0,0,1,1.87.64,4.319,4.319,0,0,1,.63,2,28.769,28.769,0,0,1,.19,3.34,5,5,0,0,1-.88,3.34c-1,1.16-2.7,1.28-4.22,1.31a1.7,1.7,0,0,1-.43,2.51,4.9,4.9,0,0,1-2.84.55c-3.77,0-7.79-.14-10.93-2.24-1.24-.82-2.28-1.92-3.52-2.75-3-2-6.87-2.11-10.39-1.94C941.16,614.12,938.64,616.76,935.61,617.78Z" transform="translate(-40.5 -83.93)" fill="#fca310"/>
  <path id="Pfad_291" data-name="Pfad 291" d="M934.92,616.94s-31.48,4.39-35.87,23.43l6.59-1,4.63,8.3s4.88-18.55,19.28-22.94,19.52-5.12,19.52-5.12,10,2.44,19,31.47l5.13-7.07,9,2s-6.59-22.69-24.4-29Z" transform="translate(-40.5 -83.93)" fill="#fca310"/>
  <path id="Pfad_292" data-name="Pfad 292" d="M871.58,249.86c-1.12-6.7-21.9-21.2-21.9-21.2s-9.17-5-14-10.79c-3.11-3.68-4.08-3.64-4.37-3.14a1.5,1.5,0,0,0-.68-.23c-.19-.14-.38-.27-.56-.42h0a1.34,1.34,0,0,0-.77-1.37,7.679,7.679,0,0,1-.71-.5c-1.58-2.68-2.14-6.5-2.33-9.82-.23-4.2-5-3.14-6.51-2.68-1.1-2.09-2.18-4.28-3.19-6.46A11.484,11.484,0,0,0,817.6,191c2.9-6.4,2.26-13.73,3.52-20.49.91-4.9,2.79-10,2.42-14.77v-.35a.171.171,0,0,1,0,.07,12.92,12.92,0,0,0-.8-3.48c-.83-2.15-2.29-4-3-6.23-1.05-3.22-.38-6.78-1.25-10.06-1.09-4.14-4.54-7.35-8.44-9.18s-8.22-2.46-12.49-3c-10.68-1.36-22-2.17-31.75,2.39a5.56,5.56,0,0,1-3,.81,8.88,8.88,0,0,1-2.7-1.27c-2.62-1.32-5.91-.48-8.24,1.29s-3.92,4.3-5.48,6.76-3.23,5-5.65,6.61c-2.85,1.93-6.61,2.58-8.83,5.19a8.39,8.39,0,0,0-1.84,4.32.171.171,0,0,0,0-.07v1.41a10.765,10.765,0,0,0,0,1.27,27.617,27.617,0,0,0,1.89,7.1,9.9,9.9,0,0,0,2.58,4.46c3.42,2.84,8.82.16,13,1.74a9.878,9.878,0,0,1,1,.47l-.15.48a34,34,0,0,0,32.92,43.45,18.432,18.432,0,0,0,2.1-.08c.1.37.21.74.3,1.11a37.573,37.573,0,0,1,1,12.72l-.21-1.85a9.482,9.482,0,0,0-1.42-.56,12.6,12.6,0,0,0-4.25-.65c-4.65-.07-11.66,1.84-19.13,11.06,0,0-9.54,5.4-12.35,6.7a1.39,1.39,0,0,0-.52.6h0S734.21,258.6,732.9,266l-.18,1-21.4-1a39.511,39.511,0,0,0-3.6-15.41,5.51,5.51,0,0,0-1.94-2.58c-1.43-.87-3.29-.4-4.87.19a46.57,46.57,0,0,0-18.53,12.63,13.18,13.18,0,0,0-24.51.33l-8.33-7c-3.79-3.21-8.27-6.63-13.2-5.88-5.34.82-8.67,6.19-10.39,11.28a5.829,5.829,0,0,1-1.1,2.23,3.9,3.9,0,0,1-.31.26l-6.56-.3-11.44,12.3-6.33,6.81-17.48,18.8-.37.39v18.78A34.149,34.149,0,0,0,581.1,323l1.26-.19v7.26l4.82.25v86.57l54.69,3.59L665.44,422l41.65,2.73c0,3.93,1.64,9.45,5.13,11.62a9.6,9.6,0,0,1,2.3,2.07c-.18.35-.36.71-.53,1.07-1.67,3.45-3.15,7.3-2.89,9.69a13.28,13.28,0,0,1-2,8.65S696.5,497.58,696.78,509s-4.49,36.53-4.49,36.53-5.2,16.18-2.11,20.78,6.6,24.69,6.6,24.69,2.39,4.6,2.24,8.51,2.25,11,2.25,11l7.86,28.87s-.84,7.67,2.11,13.11,2.66,3.76,1.26,13.25,1.68,18.27,6.74,21.06c2,1.08,2.06,2.73,1.45,4.34h-.05c-1.29-.51-2.36,2.2-3,4.39-.39.4-.65.63-.65.63l.44.11c-.28,1.05-.44,1.84-.44,1.84s-13.19,11.16-14,15.2-10.11,6.14-10.11,6.14-14,3.9-17.69,5.86a6.73,6.73,0,0,0-3.87,5.41,15.2,15.2,0,0,0,.5,5.46c1.41,5.72,21.06,6.28,30.46,4.75s28.92-7.12,28.92-7.12,20.49-2,26.53-4.46,1.26-8.92,1.26-8.92v-.61c.15-2.33.57-10.79-.88-13.06-1.1-1.72-1.06-6-.91-8.73,4.1-7.5-4.71-30-4.71-30s1.69-22,.56-25.24-5.89-30.54-5.89-30.54-2.95-12.42-1.83-14.51-.7-8.09-.7-8.09-4.77-6.69-4.35-8.78-1.4-5.86-1.4-5.86,14.32-21.76,13.05-25.8.56-10.6.56-10.6l4-6.77c2.66-4.52,5.88-9.95,7-11.64,1.38-2.15,4.7-11.3,6.55-16.58.78-2.24,1.31-3.78,1.31-3.78s2.25,41,4.21,45.19,4.92,37.23,4.92,37.23a23.2,23.2,0,0,1,1.4,9.21c-.28,5.16,4.49,27.61,4.49,27.61s2.11,15.9.7,20.08-.28,35-.28,35-7.72,6-9.68,10.59.28,17.16.28,17.16l.9.43a26.159,26.159,0,0,0-1.6,5.42c-.28,2.65-4.5,14.65-4.07,16.32s-1.83,6.83-2.11,9.48-3.79,6.56-4.07,8a33.868,33.868,0,0,1-1.55,3.68,36.318,36.318,0,0,0-1.82,5.67c-1.4,5.85,15.3,6.83,15.3,6.83,24.7,4.6,29.2-14.22,29.2-14.22s3.08-16.74,4.21-18a2.08,2.08,0,0,0,.19-1.6h0a21.811,21.811,0,0,0-3.56-7.89c-.79-.92-.85-3.32-.71-5.46a11.3,11.3,0,0,0,2.11-.39c10-2.93,5.9-19.81,5.9-19.81s6.73-11.15,6.73-15.48,2.39-17.57,2.39-17.57c8.56-15.62,5.19-53.55,6.6-56.62s-2.95-14.5-6.46-19.66-2.1-19.11,0-23.15-2.1-18-2.1-18,4.07-27.06,3.93-31.24,3.5-16.6,3.5-16.6,3.65-6.41,2.81-8.36,2.81-7,1.83-9.21.84-9.06,2.66-13.11c.94-2.07,2.1-7.78,3-12.85l.3-1.67c4.09,2.63,7.81,4.59,9.2,4.06,2.5-1-1.48-14-4.22-22.12.47-.35.66-.62.47-.75-1.68-1.11.19-6.14.19-6.14,9.92-6,6.55-10.41,3.37-13s-1.12-10-2.06-13,1.12-16.55,2.81-26.4a19.18,19.18,0,0,0-.06-6.47c1.81-2.78,3.67-5.7,5.3-8.41,5.61-9.29,17.59-53.55,17.59-53.55l-.08-.23c1.17-2.35,2-4.26,2.51-5.53C879.44,285.56,872.7,256.55,871.58,249.86Zm-87.23-25.48.26-.13v.22ZM729.9,699.09a4.431,4.431,0,0,1-1.78-.35Z" transform="translate(-40.5 -83.93)" fill="url(#linear-gradient)"/>
  <path id="Pfad_293" data-name="Pfad 293" d="M621.06,377.29c8.22,3.12,27.36,3.47,35.86,3.46h4.18l5.45-11.09-5.45-9.25s-5-1.37-11.64-2.57c-9.8-1.77-23.21-3.15-29.6.82C609.14,365.28,610.34,373.22,621.06,377.29Z" transform="translate(-40.5 -83.93)" fill="#fec2be"/>
  <path id="Pfad_294" data-name="Pfad 294" d="M656.92,380.75h4.18l5.45-11.09-5.45-9.25s-5-1.37-11.64-2.57C654.85,361.78,667.81,370.37,656.92,380.75Z" transform="translate(-40.5 -83.93)" opacity="0.1"/>
  <path id="Pfad_295" data-name="Pfad 295" d="M747.18,244.52l-2.41-2.77s-9.864,15.45-11.154,22.85-5.526,20.06-5.526,20.06-3.09,9.6-5.09,13.86-3.88,8.32-4.06,10.17.74,5.92-3.15,8.5-4.81,9.62-4.81,9.62-14,13.68-21.45,14.05-28.66,4.07-27.92,7.77-8.88,5.92-12.76,6.84,25,12,8.14,26.26c0,0,10.72,2.22,11.83,4.81s12.39-1.48,12.39-1.48,2.41-5.73,10.73-6.1,12.57-4.07,12.57-4.63,8.32-5.17,12.95-6.47,10.72-1.85,10.91-3.14,27.73-120.2,27.73-120.2Z" transform="translate(-40.5 -83.93)" fill="#e5e5e5"/>
  <path id="Pfad_297" data-name="Pfad 297" d="M776,757.67c24.41,4.58,28.85-14.14,28.85-14.14s3-16.64,4.16-17.89a2.05,2.05,0,0,0,.19-1.59h0a21.692,21.692,0,0,0-3.52-7.84c-1.53-1.81-.28-9.3-.28-9.3l-28.29-7.21s-2.5,5.69-2.77,8.32-4.44,14.57-4,16.23-1.8,6.8-2.08,9.43-3.74,6.52-4,7.91a34,34,0,0,1-1.53,3.65,35.726,35.726,0,0,0-1.8,5.64C759.48,756.7,776,757.67,776,757.67Z" transform="translate(-40.5 -83.93)" fill="#ca8496"/>
  <path id="Pfad_298" data-name="Pfad 298" d="M776,757.67c24.41,4.58,28.85-14.14,28.85-14.14s3-16.64,4.16-17.89a2.05,2.05,0,0,0,.19-1.59l-5.88,16.84s-4.85,10.13-22.88,8.6c-10.26-.86-15.31-2.77-17.76-4.25a35.726,35.726,0,0,0-1.8,5.64C759.48,756.7,776,757.67,776,757.67Z" transform="translate(-40.5 -83.93)" opacity="0.1"/>
  <path id="Pfad_299" data-name="Pfad 299" d="M795,731.32s-6.1.14-6.52-4.85Z" transform="translate(-40.5 -83.93)" opacity="0.1"/>
  <path id="Pfad_300" data-name="Pfad 300" d="M688.88,567.39c3,4.58,6.52,24.55,6.52,24.55s2.36,4.58,2.22,8.46,2.22,11,2.22,11l7.77,28.71s-.84,7.62,2.08,13,2.63,3.75,1.24,13.18,1.67,18.17,6.66,20.94-2.22,9.29-2.22,9.29,31.9,8.6,38.56,3.33-3.47-31.34-3.47-31.34,1.66-21.92.56-25.11-5.83-30.4-5.83-30.4-2.91-12.34-1.8-14.42-.7-8.05-.7-8.05-4.71-6.65-4.3-8.73S737,576,737,576s14.14-21.64,12.9-25.66.55-10.54.55-10.54,1.79-3.07,3.94-6.73c2.63-4.5,5.81-9.89,6.88-11.57,1.36-2.15,4.64-11.25,6.47-16.49l1.3-3.76s2.21,40.77,4.16,44.93,4.85,37,4.85,37a23.24,23.24,0,0,1,1.39,9.16c-.28,5.13,4.44,27.46,4.44,27.46s2.08,15.81.69,20-.28,34.81-.28,34.81-7.63,6-9.57,10.54.28,17.06.28,17.06,22.19,11.09,32,8.18,5.82-19.69,5.82-19.69,6.66-11.1,6.66-15.4,2.36-17.47,2.36-17.47c8.46-15.54,5.13-53.26,6.51-56.31S825.49,587.09,822,582s-2.08-19,0-23-2.06-18-2.06-18,4-26.91,3.89-31.07,3.47-16.5,3.47-16.5,3.6-6.38,2.77-8.32,2.77-6.94,1.8-9.16.83-9,2.64-13c.92-2.07,2.07-7.74,3-12.78.85-4.79,1.48-9,1.48-9L816.1,422.73l-57.14-15-21.5-6.94-20.94,33s-2.16,3.45-4.08,7.43c-1.64,3.43-3.11,7.26-2.85,9.63a13.311,13.311,0,0,1-1.94,8.6S695.12,499,695.4,510.39s-4.4,36.34-4.4,36.34S685.83,562.81,688.88,567.39Z" transform="translate(-40.5 -83.93)" fill="#e5e5e5"/>
  <path id="Pfad_301" data-name="Pfad 301" d="M708.11,209.76v86.55l-22.88,46.16h0l-.73,1.46-60.57-4-23.28-1.54-54.04-3.57V231.29l54.04,1.53,24.17.68,61.13,1.73Z" fill="#fca310"/>
  <path id="Pfad_302" data-name="Pfad 302" d="M708.11,214.87v81.44l-5.59,11.27v.01l-5.74,11.55v.01l-11.55,23.32,1.29-86.55.26-17.46,10.99-12.16h0l4.79-5.3Z" opacity="0.1"/>
  <path id="Pfad_303" data-name="Pfad 303" d="M711.21,186.78v30.23l-3.1,4.95-5.55,8.84-4.92,7.83-10.86,17.3-.26-.01-144.67-7.44V218.66l.36-.39,17.27-18.7,6.26-6.76,11.3-12.24Z" fill="#fca310"/>
  <path id="Pfad_304" data-name="Pfad 304" d="M686.78,226.12v29.81l-144.93-7.45V218.66l.36-.39Z" opacity="0.1"/>
  <path id="Pfad_305" data-name="Pfad 305" d="M711.21,186.78v30.23l-24.43,38.92V226.12Z" opacity="0.15"/>
  <path id="Pfad_306" data-name="Pfad 306" d="M702.58,200.69,702.56,221v9.8l-.04,76.78v.01l-5.74,11.55.86-80.51.13-12.33h0l.2-18.19-138.49-8.54,6.26-6.76Z" fill="#13213c"/>
  <path id="Pfad_307" data-name="Pfad 307" d="M634.61,201.69l-9.71,21.07-.08,10.74-.89,106.43-23.28-1.54V221.35l12.42-19.66Z" fill="#13213c"/>
  <path id="Pfad_308" data-name="Pfad 308" d="M643.15,287a30.78,30.78,0,0,1-17.35.61,7.07,7.07,0,0,1-3-1.41,7.92,7.92,0,0,1-1.88-3.73,29.55,29.55,0,0,1-1.66-8.93c.07-3,1.23-6.22,3.71-8a8.134,8.134,0,0,0,1.41-1.06,5.659,5.659,0,0,0,1.09-2.21c1.7-5.06,5-10.41,10.26-11.22,4.87-.74,9.3,2.66,13.05,5.85l8.23,7a13,13,0,0,1,24.22-.33,45.941,45.941,0,0,1,18.31-12.56c1.56-.58,3.39-1.06,4.81-.19a5.51,5.51,0,0,1,1.91,2.57,39.469,39.469,0,0,1,3.57,15.6,2.73,2.73,0,0,1,3.17,1.1,7.17,7.17,0,0,1,1.06,3.44,48.734,48.734,0,0,1,.33,5.67c0,2-.19,4.15-1.49,5.67-1.68,1.95-4.58,2.16-7.16,2.22,1.24,1.1.63,3.32-.74,4.26a8.32,8.32,0,0,1-4.82.93c-6.4-.06-13.21-.24-18.54-3.8-2.1-1.4-3.86-3.27-6-4.67-5.17-3.42-11.66-3.58-17.64-3.3C652.58,280.83,648.29,285.32,643.15,287Z" transform="translate(-40.5 -83.93)" fill="#13213c"/>
  <path id="Pfad_309" data-name="Pfad 309" d="M642,285.62s-53.42,7.45-60.88,39.75l11.19-1.65,7.86,14.08s8.29-31.48,32.72-38.93,33.12-8.7,33.12-8.7,17,4.15,32.3,53.42l8.7-12,15.32,3.32s-11.18-38.51-41.41-49.28Z" transform="translate(-40.5 -83.93)" fill="#13213c"/>
  <path id="Pfad_310" data-name="Pfad 310" d="M773.37,245.9c.88-.36,61.21-25.27,52.9-30.23-4.93-2.94-11-15.39-15.16-25.14-2.9-6.82-4.87-12.3-4.87-12.3s-48.42-8.6-31.09,21.08a54.87,54.87,0,0,1,6.11,14.62C786.2,234.14,773.77,245.53,773.37,245.9Z" transform="translate(-40.5 -83.93)" fill="#fec2be"/>
  <path id="Pfad_311" data-name="Pfad 311" d="M775.15,199.31a54.87,54.87,0,0,1,6.11,14.62,33.84,33.84,0,0,0,28.59-20.1,32,32,0,0,0,1.26-3.3c-2.9-6.82-4.87-12.3-4.87-12.3S757.82,169.63,775.15,199.31Z" transform="translate(-40.5 -83.93)" opacity="0.1"/>
  <path id="Pfad_312" data-name="Pfad 312" d="M745.05,179.06a33.84,33.84,0,0,0,64.8,13.66,33.5,33.5,0,0,0,2.88-13.66,33.84,33.84,0,0,0-67.68,0Z" transform="translate(-40.5 -83.93)" fill="#fec2be"/>
  <path id="Pfad_313" data-name="Pfad 313" d="M712.4,441.26c3.55,3.22,4.91,9.35,4.91,9.35S734,462,732.85,454.77s8.6-36.33,8.6-36.33l-1.11,39.66s53.25-2.49,57.14-6.38,26.63-11.37,26.63-11.37,7,5.59,13.36,9.83c.85-4.79,1.48-9,1.48-9l-22.89-18.44-57.14-15-21.5-6.94-20.94,33S714.32,437.28,712.4,441.26Z" transform="translate(-40.5 -83.93)" opacity="0.1"/>
  <path id="Pfad_314" data-name="Pfad 314" d="M710.66,438.13c4.43,2.78,6.1,10.27,6.1,10.27s16.64,11.37,15.53,4.16,8.6-36.34,8.6-36.34l-1.11,39.66s53.26-2.49,57.14-6.38,26.63-11.37,26.63-11.37,19.69,15.81,23.3,14.43-6.38-28.3-6.38-28.3L830.21,266.71s2.77-46.88-1.39-48.54a6,6,0,0,1-1.75-1.09c-2.74-2.47-3.56-7.47-3.8-11.67-.27-5-6.93-2.5-6.93-2.5l3.88,5L785.85,228.8l-.3.19a39.154,39.154,0,0,0-4.13-1.88c-3-1.17-7.09-2.27-9.74-1.17a9.39,9.39,0,0,0-3.64,3.27,41.2,41.2,0,0,0-4.68,9.49l-12.48,21.08s-6.38,28-6.38,29.12-1.94,26.63-4.16,29.4-4.44,16.65-3.61,20.81-1.39,19.69-1.39,19.69c-9.15,7.49-13.87,33-13.87,33s-14.42,28.57-15.53,31.9S706.22,435.36,710.66,438.13Z" transform="translate(-40.5 -83.93)" fill="#fff"/>
  <path id="Pfad_315" data-name="Pfad 315" d="M785.85,229.91c3.37,5,13.11,12,13.11,12l28.11-23.74c-2.74-2.47-3.56-7.47-3.8-11.67-.27-5-6.93-2.5-6.93-2.5l.8,1a4.47,4.47,0,0,1-1.2,6.56Z" transform="translate(-40.5 -83.93)" opacity="0.1"/>
  <path id="Pfad_316" data-name="Pfad 316" d="M785.85,228.8c3.37,5,13.11,12,13.11,12l28.11-23.74c-2.74-2.47-3.56-7.47-3.8-11.67-.27-5-6.93-2.5-6.93-2.5l.8,1a4.47,4.47,0,0,1-1.2,6.56Z" transform="translate(-40.5 -83.93)" fill="#fff"/>
  <path id="Pfad_317" data-name="Pfad 317" d="M772.85,232.54c3.63,4.35,8.78,9.27,8.54,6.8s3.07-7.91,5.18-10.35a15.35,15.35,0,0,0-10.08.27,9.5,9.5,0,0,0-3.64,3.28Z" transform="translate(-40.5 -83.93)" opacity="0.1"/>
  <path id="Pfad_318" data-name="Pfad 318" d="M772.29,230.88c3.64,4.34,8.78,9.27,8.54,6.8s2.73-6.46,4.84-8.9c-3-1.17-7.08-2.27-9.74-1.18a9.339,9.339,0,0,0-3.64,3.28Z" transform="translate(-40.5 -83.93)" fill="#fff"/>
  <circle id="Ellipse_59" data-name="Ellipse 59" cx="2.22" cy="2.22" r="2.22" transform="translate(738.67 165.58)" fill="#ff718d"/>
  <circle id="Ellipse_60" data-name="Ellipse 60" cx="2.22" cy="2.22" r="2.22" transform="translate(721.84 225.49)" fill="#ff718d"/>
  <circle id="Ellipse_61" data-name="Ellipse 61" cx="2.22" cy="2.22" r="2.22" transform="translate(702.79 286.15)" fill="#ff718d"/>
  <circle id="Ellipse_62" data-name="Ellipse 62" cx="2.22" cy="2.22" r="2.22" transform="translate(702.24 352.16)" fill="#ff718d"/>
  <circle id="Ellipse_63" data-name="Ellipse 63" cx="2.22" cy="2.22" r="2.22" transform="translate(728.87 193.87)" fill="#ff718d"/>
  <circle id="Ellipse_64" data-name="Ellipse 64" cx="2.22" cy="2.22" r="2.22" transform="translate(713.89 255.45)" fill="#ff718d"/>
  <circle id="Ellipse_65" data-name="Ellipse 65" cx="2.22" cy="2.22" r="2.22" transform="translate(699.28 315.92)" fill="#ff718d"/>
  <circle id="Ellipse_66" data-name="Ellipse 66" cx="2.22" cy="2.22" r="2.22" transform="translate(702.61 359.56)" fill="#ff718d"/>
  <path id="Pfad_319" data-name="Pfad 319" d="M827.06,218.45s-.37-3.33,4.44,2.4,13.87,10.73,13.87,10.73S865.9,246,867,252.66s7.76,35.5,4.25,45.12-30.33,55.66-30.33,55.66,7,8.32,5.37,18.12-3.7,23.3-2.78,26.26-1.11,10.35,2,12.94,6.47,7-3.33,12.95c0,0-1.85,5-.19,6.1s-24.59,12.58-34.95,6.47-29-54.92-29.4-65.83,5.73-47,9.06-55.48,13.32-41.6,17.57-49S827.06,218.45,827.06,218.45Z" transform="translate(-40.5 -83.93)" opacity="0.1"/>
  <path id="Pfad_320" data-name="Pfad 320" d="M828.17,218.45s-.37-3.33,4.44,2.4,13.87,10.73,13.87,10.73S867,246,868.12,252.66s7.76,35.5,4.25,45.12S842,353.44,842,353.44s7,8.32,5.37,18.12-3.7,23.3-2.78,26.26-1.11,10.35,2,12.94,6.47,7-3.33,12.95c0,0-1.85,5-.19,6.1s-24.59,12.58-34.95,6.47-29-54.92-29.4-65.83,5.73-47,9.06-55.48,13.32-41.6,17.57-49S828.17,218.45,828.17,218.45Z" transform="translate(-40.5 -83.93)" fill="#e5e5e5"/>
  <path id="Pfad_321" data-name="Pfad 321" d="M835.57,249.88s-15.9,17.57-15.35,29.22C820.22,279.1,820,260.24,835.57,249.88Z" transform="translate(-40.5 -83.93)" opacity="0.1"/>
  <path id="Pfad_322" data-name="Pfad 322" d="M813.56,278.73c0,.56-10.72,40.5-10.17,45.49S800.25,344,800.25,344l-5-1.3s3.88-20.52,4.62-28.1S813.56,278.73,813.56,278.73Z" transform="translate(-40.5 -83.93)" opacity="0.1"/>
  <path id="Pfad_323" data-name="Pfad 323" d="M809.31,392.64c.37.56,25.34,28.85,18.31,30.88S809.31,392.64,809.31,392.64Z" transform="translate(-40.5 -83.93)" opacity="0.1"/>
  <path id="Pfad_324" data-name="Pfad 324" d="M829.84,385.43c.55.37,10,20.34,11.09,15s-8.13,14.61-9.61-.19Z" transform="translate(-40.5 -83.93)" opacity="0.1"/>
  <path id="Pfad_325" data-name="Pfad 325" d="M781.9,224.73s-10.31-6.28-23.26,9.8c0,0-9.43,5.37-12.2,6.66s-5.92,35.69-5.92,35.69-6.1,14.79-4.44,23.3-4.8,37.73-4.8,37.73-10.73,52.51-10.36,54,10.91-16.46,10.72-25.33,8.88-36.62,10.18-38.28S752,279.1,752,279.1s7.21-20.16,11.83-26.81,10.36-19.23,12.76-21.45a24.22,24.22,0,0,1,5.73-3.7Z" transform="translate(-40.5 -83.93)" opacity="0.1"/>
  <path id="Pfad_326" data-name="Pfad 326" d="M782,224.73s-11.56-6.28-24.51,9.8c0,0-9.43,5.37-12.2,6.66s-5.92,35.69-5.92,35.69-6.1,14.79-4.44,23.3-4.8,37.73-4.8,37.73-10.73,52.51-10.36,54,10.91-16.46,10.73-25.33,8.87-36.62,10.17-38.28,10.17-49.19,10.17-49.19,7.21-20.16,11.83-26.81,10.36-19.23,12.76-21.45,6.84-3.7,6.84-3.7Z" transform="translate(-40.5 -83.93)" fill="#e5e5e5"/>
  <path id="Pfad_327" data-name="Pfad 327" d="M731.28,340.31s-22-14.42-32.64-7.31-28,17.2-10.91,24.51,40.77,5.91,40.77,5.91Z" transform="translate(-40.5 -83.93)" fill="#fec2be"/>
  <path id="Pfad_328" data-name="Pfad 328" d="M746.58,479.46c3.28,7,6,42.39,7.82,53.6,2.63-4.5,5.81-9.89,6.88-11.57,1.36-2.15,4.64-11.25,6.47-16.49-2.09-5.08-7.86-19.64-7.86-25,0-6.52-10.54-14.7-10.54-14.7S742.69,471.14,746.58,479.46Z" transform="translate(-40.5 -83.93)" opacity="0.1"/>
  <path id="Pfad_329" data-name="Pfad 329" d="M817.31,588.06s-24.41-10.41-31.62-3S817.31,588.06,817.31,588.06Z" transform="translate(-40.5 -83.93)" opacity="0.1"/>
  <path id="Pfad_330" data-name="Pfad 330" d="M803.58,592.22s24.69,13.87,16.23,16.22S803.58,592.22,803.58,592.22Z" transform="translate(-40.5 -83.93)" opacity="0.1"/>
  <path id="Pfad_331" data-name="Pfad 331" d="M729.8,580.15s10.54.69,6.51,2.77S729.8,580.15,729.8,580.15Z" transform="translate(-40.5 -83.93)" opacity="0.1"/>
  <path id="Pfad_332" data-name="Pfad 332" d="M716.62,583.34c.14.69,30.65,10.54,24.69,15S716.62,583.34,716.62,583.34Z" transform="translate(-40.5 -83.93)" opacity="0.1"/>
  <path id="Pfad_333" data-name="Pfad 333" d="M813.7,668.22c-4.57-.69-30.09-12.48-20.11-4S813.7,668.22,813.7,668.22Z" transform="translate(-40.5 -83.93)" opacity="0.1"/>
  <path id="Pfad_334" data-name="Pfad 334" d="M801.08,677.51s-2.22,8.6-10.68,7.49S801.08,677.51,801.08,677.51Z" transform="translate(-40.5 -83.93)" opacity="0.1"/>
  <path id="Pfad_335" data-name="Pfad 335" d="M808.16,695c-1.53-.42-19.7-8.74-20.11-4.86s17.33,10.68,18.72,8.6a7.42,7.42,0,0,0,1.39-3.74Z" transform="translate(-40.5 -83.93)" opacity="0.1"/>
  <path id="Pfad_336" data-name="Pfad 336" d="M749.35,685c-2.22-.14-23-6.79-27.18-.83Z" transform="translate(-40.5 -83.93)" opacity="0.1"/>
  <path id="Pfad_337" data-name="Pfad 337" d="M730.49,688.88s-3.61-3.19-7.21-1.52S730.49,688.88,730.49,688.88Z" transform="translate(-40.5 -83.93)" opacity="0.1"/>
  <path id="Pfad_338" data-name="Pfad 338" d="M776.53,723.28a6.18,6.18,0,0,1-4.71,4.85Z" transform="translate(-40.5 -83.93)" opacity="0.1"/>
  <path id="Pfad_339" data-name="Pfad 339" d="M670.71,736.32c1.39,5.68,20.81,6.24,30.1,4.71S729.38,734,729.38,734s20.25-1.94,26.21-4.44,1.25-8.88,1.25-8.88v-.59c.14-2.32.56-10.73-.87-13-1.67-2.63-.7-11.23-.7-11.23s-28.7,5.55-29.26,2.91-5-6.38-7.07-7.21-3.61,6.93-3.61,6.93-13,11.1-13.87,15.12-10,6.1-10,6.1-13.87,3.89-17.48,5.83a6.73,6.73,0,0,0-3.83,5.38,15.341,15.341,0,0,0,.56,5.4Z" transform="translate(-40.5 -83.93)" fill="#ca8496"/>
  <path id="Pfad_340" data-name="Pfad 340" d="M670.71,736.32c1.39,5.68,20.81,6.24,30.1,4.71S729.38,734,729.38,734s20.25-1.94,26.21-4.44,1.25-8.88,1.25-8.88v-.59l-29,6.42s-14.28,6.1-23.43,6.1c-8,0-25.9,3.28-34.21-1.69A15.338,15.338,0,0,0,670.71,736.32Z" transform="translate(-40.5 -83.93)" opacity="0.1"/>
  <path id="Pfad_341" data-name="Pfad 341" d="M710,714.4s1.39,9.16,6.94,12.21Z" transform="translate(-40.5 -83.93)" opacity="0.1"/>
  <path id="Pfad_342" data-name="Pfad 342" d="M746.37,169.69a9,9,0,0,0,1.64.68c2.61.7,5.15-1.05,7.46-2.45s5.5-2.44,7.5-.63c2.61,2.37.72,7.44,3.41,9.72,1.7,1.45,4.4,1,6.29,2.15s2.46,3.79,2.94,6.05,1.43,4.82,3.64,5.48,4.25-.79,6.42-.71c.45,0,1,.07,1.28-.26a1.34,1.34,0,0,0,.21-1,21.391,21.391,0,0,1,.71-8c.89-2.55,3-4.87,5.63-5.28,3.9-.6,7.17,2.82,9.46,6A98.282,98.282,0,0,1,809.52,192a7.813,7.813,0,0,1,.33.73,33.5,33.5,0,0,0,2.88-13.66,33.84,33.84,0,0,0-66.36-9.37Z" transform="translate(-40.5 -83.93)" opacity="0.1"/>
  <path id="Pfad_343" data-name="Pfad 343" d="M803,180.88c-2.29-3.21-5.56-6.62-9.46-6-2.67.41-4.74,2.72-5.63,5.27a21.239,21.239,0,0,0-.7,8,1.38,1.38,0,0,1-.23,1c-.3.33-.82.28-1.27.26-2.17-.08-4.33,1.33-6.42.71s-3.16-3.22-3.64-5.48-1-4.82-2.94-6-4.59-.7-6.29-2.15c-2.69-2.29-.8-7.36-3.41-9.72-2-1.82-5.19-.78-7.5.62s-4.85,3.15-7.46,2.46c-.88-.24-1.67-.75-2.53-1.08-4.11-1.56-9.44,1.09-12.82-1.73a9.85,9.85,0,0,1-2.56-4.43,28.222,28.222,0,0,1-1.87-7.06,9.44,9.44,0,0,1,1.88-6.89c2.2-2.6,5.92-3.24,8.73-5.16,2.39-1.63,4-4.13,5.58-6.58s3.11-5,5.41-6.73,5.56-2.58,8.14-1.27a9.17,9.17,0,0,0,2.67,1.26,5.55,5.55,0,0,0,3-.81c9.62-4.53,20.82-3.73,31.37-2.38,4.22.54,8.5,1.18,12.35,3s7.25,5,8.33,9.13c.86,3.26.2,6.8,1.24,10,.7,2.18,2.14,4,3,6.19,2.25,5.84-.44,12.26-1.58,18.42-1.25,6.73-.62,14-3.48,20.39-.56,1.25-1.19,3.44-2.6,2.61-1-.61-2.06-4.16-2.66-5.26A97.306,97.306,0,0,0,803,180.88Z" transform="translate(-40.5 -83.93)" fill="#9a5e7f"/>
  <path id="Pfad_344" data-name="Pfad 344" d="M863.86,289.27l5,14.24s-11.84,44-17.39,53.26-13.68,21.08-13.68,21.08-13.68,6.84-29.59,3.7-62.32-11.47-62.32-11.47-3.88.74-5.91-2.22-12.58-4.44-12.58-4.44-12.2-17.75,2.78-25.15c0,0,1.84,4.07,9.8,1.3s10.35,2.22,10.35,2.22,12.95,2.59,20.16,1.66,25.15-1.29,27-2.77a2.37,2.37,0,0,1,3.33.18s4.43-1.66,5.91-3.32,3.52,1.84,3.52,1.84,2.59-1.47,1.85-3.32,2.4-8.88,2.4-8.88,1.48-4.62.55-8.32,4.63-17,4.63-17a23.533,23.533,0,0,0-.74-6.66c-.93-3.33,7-10,7-10s7.77-37.72,24.23-25.33S863.86,289.27,863.86,289.27Z" transform="translate(-40.5 -83.93)" opacity="0.1"/>
  <path id="Pfad_345" data-name="Pfad 345" d="M865,289.27l5,14.24s-11.84,44-17.39,53.26-13.68,21.08-13.68,21.08-13.69,6.84-29.59,3.7S747,370.08,747,370.08s-3.88.74-5.91-2.22-12.58-4.44-12.58-4.44-12.2-17.75,2.78-25.15c0,0,1.84,4.07,9.8,1.3s10.35,2.22,10.35,2.22,13,2.59,20.16,1.66,25.15-1.29,27-2.77a2.36,2.36,0,0,1,3.32.18s4.44-1.66,5.92-3.32,3.52,1.84,3.52,1.84,2.58-1.47,1.84-3.32,2.41-8.88,2.41-8.88,1.48-4.62.55-8.32,4.63-17,4.63-17a23.535,23.535,0,0,0-.74-6.66c-.93-3.33,7-10,7-10s7.77-37.72,24.23-25.33S865,289.27,865,289.27Z" transform="translate(-40.5 -83.93)" fill="#e5e5e5"/>
  <path id="Pfad_346" data-name="Pfad 346" d="M744.77,348.82c.19,1.29,4.26,6.47,2.78,7.39s-3.89.37-1.67,3.33,2,7.4.56,6.84-3.88-7.21-3.88-9.8S744.77,348.82,744.77,348.82Z" transform="translate(-40.5 -83.93)" opacity="0.1"/>
  <path id="Pfad_347" data-name="Pfad 347" d="M799.7,345.86s1.11,12.94,10.17,16.64S799.7,345.86,799.7,345.86Z" transform="translate(-40.5 -83.93)" opacity="0.1"/>
  <path id="Pfad_348" data-name="Pfad 348" d="M818.56,341.42c.55.18,12.94,6.84,7.39,10.72S818.56,341.42,818.56,341.42Z" transform="translate(-40.5 -83.93)" opacity="0.1"/>
  <path id="Pfad_349" data-name="Pfad 349" d="M819.3,332.17s18.12,3.7,12,6.84S819.3,332.17,819.3,332.17Z" transform="translate(-40.5 -83.93)" opacity="0.1"/>
  <g id="Gruppe_6" data-name="Gruppe 6" opacity="0.1">
    <path id="Pfad_350" data-name="Pfad 350" d="M787.87,177c.89-2.55,3-4.86,5.63-5.27,3.9-.6,7.17,2.81,9.46,6a97.182,97.182,0,0,1,6.56,10.55c.6,1.11,1.62,4.66,2.66,5.27,1.41.83,2-1.37,2.6-2.62,2.86-6.36,2.23-13.65,3.48-20.38.73-3.93,2.08-8,2.38-11.89.42,4.83-1.47,9.92-2.38,14.85-1.25,6.73-.62,14-3.48,20.38-.56,1.25-1.19,3.44-2.6,2.62-1-.61-2.06-4.16-2.66-5.27A97.185,97.185,0,0,0,803,180.7c-2.29-3.22-5.56-6.62-9.46-6-2.67.41-4.74,2.72-5.63,5.27a14.672,14.672,0,0,0-.74,4.16,19.131,19.131,0,0,1,.7-7.13Z" transform="translate(-40.5 -83.93)"/>
    <path id="Pfad_351" data-name="Pfad 351" d="M730.1,159.44a9.91,9.91,0,0,0,2.56,4.43c3.38,2.82,8.71.16,12.82,1.73a25.2,25.2,0,0,0,2.53,1.07c2.61.7,5.15-1,7.46-2.45s5.5-2.44,7.5-.63c2.61,2.37.72,7.44,3.41,9.72,1.7,1.46,4.4,1,6.29,2.15s2.46,3.79,2.94,6,1.43,4.82,3.64,5.48,4.25-.79,6.42-.71c.45,0,1,.07,1.27-.26a.739.739,0,0,0,.16-.27c0,.74,0,1.48.07,2.22a1.4,1.4,0,0,1-.23,1c-.3.33-.82.28-1.27.26-2.17-.08-4.33,1.33-6.42.71s-3.16-3.23-3.64-5.48-1-4.82-2.94-6.05-4.59-.7-6.29-2.15c-2.69-2.28-.8-7.35-3.41-9.72-2-1.81-5.19-.77-7.5.63s-4.85,3.15-7.46,2.45c-.88-.24-1.67-.74-2.53-1.07-4.11-1.57-9.44,1.09-12.82-1.73a9.889,9.889,0,0,1-2.56-4.44,28,28,0,0,1-1.87-7.06,11.431,11.431,0,0,1,.06-2.48,30,30,0,0,0,1.81,6.65Z" transform="translate(-40.5 -83.93)"/>
  </g>
  <path id="Pfad_352" data-name="Pfad 352" d="M274.06,647.13c0,62.42,36.23,113,80.92,113s80.92-50.6,80.92-113-36.23-113-80.92-113S274.06,584.72,274.06,647.13Zm5.58-1.51c0-54.64,31.86-98.94,71.15-98.94S422,591,422,645.62s-31.86,98.94-71.16,98.94-71.2-44.3-71.2-98.94Z" transform="translate(-40.5 -83.93)" fill="#35323e"/>
  <path id="Pfad_353" data-name="Pfad 353" d="M345.21,400.18l5.58,94.88H460.45a38,38,0,0,1,25.78,9.75,34.36,34.36,0,0,1,11.06,22.34V669.46h-14l.1-9.77H345.16v-14H483.58l1.14-114.18a18.54,18.54,0,0,0-.44-4.27c-.86-3.76-3.27-10.62-9.72-14.47a18.121,18.121,0,0,0-9.3-2.42H341l-7-99.06H292.2V400.18Z" transform="translate(-40.5 -83.93)" fill="#464353"/>
  <path id="Pfad_354" data-name="Pfad 354" d="M345.21,400.18l5.58,94.88H460.45a38,38,0,0,1,25.78,9.75,34.36,34.36,0,0,1,11.06,22.34V669.46h-14l.1-9.77H345.16v-14H483.58l1.14-114.18a18.54,18.54,0,0,0-.44-4.27c-.86-3.76-3.27-10.62-9.72-14.47a18.121,18.121,0,0,0-9.3-2.42H341l-7-99.06H292.2V400.18Z" transform="translate(-40.5 -83.93)" opacity="0.1"/>
  <path id="Pfad_355" data-name="Pfad 355" d="M301.23,367.17l-105.34-3.48,5.58,146.49L454,512.97l-6.28-59.29L310.29,476.7Z" fill="#35323e"/>
  <rect id="Rechteck_44" data-name="Rechteck 44" width="139.52" height="13.95" transform="translate(205.65 561.8)" fill="#464353"/>
  <path id="Pfad_356" data-name="Pfad 356" d="M341,635.16v-41h11.16v41c4.13,3.09,7,9.47,7,16.86,0,10.4-5.63,18.83-12.56,18.83s-12.56-8.43-12.56-18.83C334.05,644.63,336.9,638.25,341,635.16Z" transform="translate(-40.5 -83.93)" fill="#464353"/>
  <path id="Pfad_357" data-name="Pfad 357" d="M395.85,670.07a13.12,13.12,0,0,0-17.15-.61h0s-16.74,11.16-1.4,58.6c0,0,11.17,7,5.58-15.35s-2.79-36.28,2.79-36.28,12.56,15.35,12.56,15.35L408,687.6S403.59,677.31,395.85,670.07Z" transform="translate(-40.5 -83.93)" fill="#464353"/>
  <path id="Pfad_358" data-name="Pfad 358" d="M500.49,670.07a13.12,13.12,0,0,0-17.15-.61h0s-16.74,11.16-1.4,58.6c0,0,11.17,7,5.59-15.35s-2.8-36.28,2.79-36.28,12.55,15.35,12.55,15.35l9.77-4.18S508.23,677.31,500.49,670.07Z" transform="translate(-40.5 -83.93)" fill="#464353"/>
  <ellipse id="Ellipse_67" data-name="Ellipse 67" cx="31.39" cy="41.86" rx="31.39" ry="41.86" transform="translate(427.49 598.08)" fill="#35323e"/>
  <ellipse id="Ellipse_68" data-name="Ellipse 68" cx="31.39" cy="41.86" rx="31.39" ry="41.86" transform="translate(322.85 598.08)" fill="#35323e"/>
  <path id="Pfad_359" data-name="Pfad 359" d="M582,721c-3.23-3.29-8.15-5.73-11.12-5.73-6.25,0-30.89-29.24-32.53-33.38-.6-1.51-1.6-1-2.62.33-2-4.73-4.62-11.39-5.32-16.15,2.64-.67,4.33-1.16,4.33-1.16s.32-9.42-2-10.4h-.06c-2.24-1.32-2.24-20.75-2.24-20.75s-5.25-17.17-4.59-23.37S512.74,557,512.74,557s-3.61-28.37-10.18-31.24c-5.55-2.43-52.3-15.77-66.74-19.87-.31-.7-2.55-5.1-9.81-5.1-7.89,0-31.54.33-39.42-8.77a18.229,18.229,0,0,1-2.43-3.94c3.9-7.17,4.15-19,2.75-21.73-2-3.9-3.28-11.7-3.28-11.7s-1-18.84-2.32-23.72-6.88-44.84-6.88-44.84-11.17-10.65-19.06-12.95a33,33,0,0,1-9.55-5c.12-.65.24-1.24.33-1.74a29.53,29.53,0,0,0,10-16.74,4.71,4.71,0,0,0,.32-1.11,11.271,11.271,0,0,0,.08-1.54c.1-.94.16-1.89.17-2.85v-.62a3.812,3.812,0,0,1,.55-1.3c1.15-1.65,3.52-2,5.41-2.82a8.208,8.208,0,0,0,.83-.44l.24-.16c.18-.11.35-.22.51-.34l.28-.23.41-.35.27-.27c.12-.12.24-.24.35-.37l.26-.31c.1-.13.2-.25.29-.38l.24-.35a4,4,0,0,0,.24-.38c.08-.13.16-.26.23-.4s.13-.25.19-.37.15-.3.21-.45a3.443,3.443,0,0,0,.14-.34c.07-.17.14-.34.2-.51l.09-.27c.06-.2.13-.4.19-.61v-.06a15.63,15.63,0,0,0,.46-5.19h0a8.088,8.088,0,0,0-.15-1.3c-.49-3-1.57-6.09-1.21-9.05h0a4.234,4.234,0,0,1,.13-.78v-.09a7.936,7.936,0,0,1,.22-.8c.41-1.19,1.11-2.28,1.49-3.47h0a6.863,6.863,0,0,0,.19-.75v-.2c0-.21.06-.42.07-.63v-.15a7.592,7.592,0,0,0-.11-1.64h0a10.73,10.73,0,0,0-3.57-6c-2.71-2.38-6.26-3.69-9.75-4.84-9-3-18.37-5.84-27.9-6.45-4.18-.27-9.65-1.56-13,1-3.91,3-6.35,5.25-11.21,7.29-3.51,1.47-7.17,3.73-8,7.28a28,28,0,0,0-.17,4.76c-.16,3.2-1.7,6.18-2.69,9.24a14,14,0,0,0-.74,5.58v.09a3.518,3.518,0,0,0,.1.65v.11a7.458,7.458,0,0,0,.43,1.39c0,.06.05.11.07.17s.16.33.25.49l.09.17c.13.21.26.41.41.61.61.81,1.43,1.49,2,2.34a9.58,9.58,0,0,1,1.14,4.31c.16,1.52.31,3.05.47,4.57v.34c-.05.67-.08,1.35-.08,2a30.308,30.308,0,0,0,.38,4.7c-3.33,2.51-6.76,5.52-7.47,7.72a3.73,3.73,0,0,0-.79,2.2h0c-3.13,2.45-16.43,1-16.43,1s-10.84,5.85-14.78,3.57-27.6,15.92-27.6,15.92-6.24.33-6.57,2.93c0,0-7.88,5.85-13.8,5.85s-9.53,7.47-9.53,7.47-9.85,4.55-13.14,5.2-8.87,3.9-7.22,5.2-.33,4.22-3.29,6.5-7.56,14-3.61,15.59,14.78,4.88,17.74,6.5a6.409,6.409,0,0,0,3.68.69,9.411,9.411,0,0,0,4.2-.69l.46-.57c3.86,2.93,8.89,5.94,13.73,6.42,7.62.76,24,3.88,30.94,5.23v1.29c-.06,12.14.51,24.72,2.85,28.57,4.93,8.13,5.58,71.81,5.58,71.81s15.44,2.28,20.7,7.15c5,4.6,30.18,13,35.15,2.09l1.58.68c12.8,5.55,29.79,13.45,31.74,17,3.15,5.85,25.82,15.6,25.82,15.6s14.79.32,10.51,14S406,649.92,406,649.92a9,9,0,0,0,1.88,5.73,9.341,9.341,0,0,0,1.4,1.42c1.31,1,5.39,2.83,10.12,3.64,1.21,2.72,2.17,5.08,2,5.46s1.42,1.79,3.51,3.63h0a74.254,74.254,0,0,0,5.65,10.31h0a8.52,8.52,0,0,0,2.93,2.95c3.2,1.3,36.54,21.12,42.79,21.77,5.81.61,17.61,3.46,28.23-4.81l-1.71,13.86-.57,4.6s16.76,6.82,23.66,6.82,30.22,11.05,30.22,11.05,15.44,3.25,25.63-3.57C587.07,729.21,585.56,724.57,582,721ZM476,570.32c-1.65,3.57-.58,10.07.2,10.07s4.4,5.2,2.43,11.05,12.81,59.13,19.38,66.28a1.519,1.519,0,0,1-.12.49c-.48,2.17-1.86,11,7.35,11.53h1.05c.7,5.56,1.75,14.31,2.39,21.57-1.48-4.31-7.19-8.68-12.89-12.12a113.779,113.779,0,0,0-13.22-6.74s-18.4-4.38-22.34-8-15.69-10.11-15.69-10.11h0c-1.85-1.67-3.93-3.55-5.89-5.35.11-.76.18-1.56.22-2.41a38.526,38.526,0,0,0-1.74-5c-.77-1.75-1.76-3.45-2.86-4.14-2.62-1.62-11.5-35.09-11.5-39s-5.58-22.42-7.55-25.67-4.27-11.4-4.27-11.4,29.89,4.58,57.82,2C468.72,563.49,477.59,566.74,476,570.32ZM244.66,420.2v.38l-1.74-.43C244,420.2,244.66,420.2,244.66,420.2Zm94.84-49.59v1.81l-.34-.35c-.28-.31-.54-.63-.81-.95a8.964,8.964,0,0,0,1.15-.51ZM371.65,439c-.33-1.91-.51-3-.51-3l.12-1.83Zm-152-23.07a9.558,9.558,0,0,1,2.14-.46,5.3,5.3,0,0,1,1.83.5c.77.36,1.57.7,2.38,1l-5.73-1a3.181,3.181,0,0,0-.61-.03Z" transform="translate(-40.5 -83.93)" fill="url(#linear-gradient-2)"/>
  <path id="Pfad_360" data-name="Pfad 360" d="M414.17,650.59s6.6,13.66,6.28,14.63,14.18,12.57,14.18,12.57l15.8-11.28-1.61-7.74s-17.73-16-19-17.83S414.17,650.59,414.17,650.59Z" transform="translate(-40.5 -83.93)" fill="#a1616a"/>
  <path id="Pfad_361" data-name="Pfad 361" d="M504.28,696.82c-11,10.64-23.86,7.41-30,6.77s-38.85-20.32-42-21.61a8.32,8.32,0,0,1-2.87-2.92h0a75.421,75.421,0,0,1-5.54-10.24c.22.06,10.95,3.12,13.66,0,0,0,4.51-5.54,5.48-5.54s.07-9.71.07-9.71,11.54,6.49,15.41,10,21.92,7.9,21.92,7.9a111.309,111.309,0,0,1,13,6.69C502,683.41,510.52,690.77,504.28,696.82Z" transform="translate(-40.5 -83.93)" fill="#67647e"/>
  <path id="Pfad_362" data-name="Pfad 362" d="M504.28,696.82c-11,10.64-23.86,7.41-30,6.77s-38.85-20.32-42-21.61a8.32,8.32,0,0,1-2.87-2.92c3.82-2.28,28.74,13.57,35.72,16.47s24.62,1.29,34.62-2.9c5-2.09-.07-8.52-6.37-14.44C502,683.41,510.52,690.77,504.28,696.82Z" transform="translate(-40.5 -83.93)" opacity="0.1"/>
  <path id="Pfad_363" data-name="Pfad 363" d="M503,663.28s4.6,34.5,3.43,39,28.82-15.48,28.82-15.48-10.49-21.62-7.42-26.59S503,663.28,503,663.28Z" transform="translate(-40.5 -83.93)" fill="#a1616a"/>
  <path id="Pfad_364" data-name="Pfad 364" d="M531.69,663.93s-18.7,5.48-29,4.83c-9-.56-7.69-9.28-7.21-11.44.07-.31.12-.49.12-.49-6.45-7.09-21-60-19-65.78s-1.61-11-2.38-11-1.81-6.45-.2-10-7.09-6.77-7.09-6.77c-27.41,2.58-56.75-2-56.75-2s2.25,8.1,4.19,11.32,7.42,21.61,7.42,25.48,8.7,37.08,11.28,38.69c1.08.68,2.05,2.37,2.81,4.1a39.143,39.143,0,0,1,1.71,4.93c-1,21.6-25.48,13.22-29,10.32a8.84,8.84,0,0,1-3.22-7.1s-32-32.49-27.81-46.02-10.32-13.86-10.32-13.86-22.24-9.7-25.34-15.5c-1.91-3.57-18.6-11.41-31.16-16.92-7.87-3.45-14.12-6-14.12-6L301.85,532,306,517.21l7.76-2.92L338.54,505l44.55-6.13,4.08.53,43.27,5.6s63.2,18.05,69.65,20.9,10,31,10,31,13.54,46.76,12.9,52.91S527.5,633,527.5,633s0,19.29,2.19,20.6h.07C532,654.58,531.69,663.93,531.69,663.93Z" transform="translate(-40.5 -83.93)" fill="#e5e5e5"/>
  <path id="Pfad_365" data-name="Pfad 365" d="M466.88,563.32c-27.41,2.58-56.75-2-56.75-2-1.94-6.09-29-22.86-29-22.86C403.32,533,466.88,563.32,466.88,563.32Z" transform="translate(-40.5 -83.93)" opacity="0.1"/>
  <path id="Pfad_366" data-name="Pfad 366" d="M437.54,645.87c-1,21.6-25.48,13.22-29,10.32a9.049,9.049,0,0,1-1.37-1.41c8.57,3.16,23.75,5.59,28.69-13.84A39.142,39.142,0,0,1,437.54,645.87Z" transform="translate(-40.5 -83.93)" fill="#444053"/>
  <path id="Pfad_367" data-name="Pfad 367" d="M531.69,663.93s-18.7,5.48-29,4.83c-9-.56-7.69-9.28-7.21-11.44,9.47-.3,25.77-1.19,34.23-3.75h.07C532,654.58,531.69,663.93,531.69,663.93Z" transform="translate(-40.5 -83.93)" fill="#444053"/>
  <path id="Pfad_368" data-name="Pfad 368" d="M437.54,645.87c-1,21.6-25.48,13.22-29,10.32a9.049,9.049,0,0,1-1.37-1.41c8.57,3.16,23.75,5.59,28.69-13.84A39.142,39.142,0,0,1,437.54,645.87Z" transform="translate(-40.5 -83.93)" fill="#13213c" opacity="0.1"/>
  <path id="Pfad_369" data-name="Pfad 369" d="M531.69,663.93s-18.7,5.48-29,4.83c-9-.56-7.69-9.28-7.21-11.44,9.47-.3,25.77-1.19,34.23-3.75h.07C532,654.58,531.69,663.93,531.69,663.93Z" transform="translate(-40.5 -83.93)" fill="#13213c" opacity="0.1"/>
  <path id="Pfad_370" data-name="Pfad 370" d="M577.8,731.32c-10,6.77-25.15,3.55-25.15,3.55s-22.89-11-29.66-11-23.22-6.77-23.22-6.77l.55-4.56L503,690.69s25.12-.64,26.12-2.9c0,0,4.52-11.11,6.13-7s25.8,33.13,31.92,33.13c2.92,0,7.75,2.42,10.92,5.68C581.56,723.17,583,727.78,577.8,731.32Z" transform="translate(-40.5 -83.93)" fill="#67647e"/>
  <path id="Pfad_371" data-name="Pfad 371" d="M491.06,540.75s-21,13.22-15.15,16.12S491.06,540.75,491.06,540.75Z" transform="translate(-40.5 -83.93)" opacity="0.1"/>
  <path id="Pfad_372" data-name="Pfad 372" d="M499.77,566.22s-18.06,17.15-11.29,17.6S499.77,566.22,499.77,566.22Z" transform="translate(-40.5 -83.93)" opacity="0.1"/>
  <path id="Pfad_373" data-name="Pfad 373" d="M519.12,620.72S510,638,513.4,640.94,519.12,620.72,519.12,620.72Z" transform="translate(-40.5 -83.93)" opacity="0.1"/>
  <path id="Pfad_374" data-name="Pfad 374" d="M418.19,638.13c3.22,3.23-30.64-10.64-22.9-11.29S418.19,638.13,418.19,638.13Z" transform="translate(-40.5 -83.93)" opacity="0.1"/>
  <path id="Pfad_375" data-name="Pfad 375" d="M350.47,396.29l-1.07-.16c-4-.62-18.55-2.9-31.59-5.73-3.18-.69-6.26-1.41-9.09-2.15-10-2.62-16.69-5.45-12.42-7.76,5.66-3.07,8.64-8.65,10.21-13.45q.23-.71.42-1.38a35.569,35.569,0,0,0,1.3-7.42s36.44-12.9,29.34,0c-3.48,6.33-1.14,11.49,2.15,15.11a28.33,28.33,0,0,0,7.85,5.85Z" transform="translate(-40.5 -83.93)" fill="#a1616a"/>
  <path id="Pfad_376" data-name="Pfad 376" d="M311.46,386.29s13,9.35,26.34,1.61,30.73,68.37,30.73,68.37l18.06,44.49s11.7,9.68-2.86,13.87-46.85-4.19-55.05,8.06S305,536.88,303.37,536.88s-7.73-46.11-7.73-46.11L294,424Z" transform="translate(-40.5 -83.93)" opacity="0.1"/>
  <path id="Pfad_377" data-name="Pfad 377" d="M383.09,512.05c-14.56,4.19-46.86-4.19-55,8.06a31.56,31.56,0,0,1-13.88,11.17,36.459,36.459,0,0,1-11.44,3c-.21,0-.51-.85-.87-2.31-2.27-9.33-6.86-43.8-6.86-43.8l-1.59-66.75,15.32-33.19,2.09-4.54a27.58,27.58,0,0,0,6.64,3.23,23.4,23.4,0,0,0,19.71-1.61c3.91-2.27,8.17,2.67,12.24,10.8,9.79,19.56,18.48,57.56,18.48,57.56l18.06,44.49a15.7,15.7,0,0,1,1.23,1.18C389.73,502.06,394.54,508.75,383.09,512.05Z" transform="translate(-40.5 -83.93)" fill="#f3f5f9"/>
  <path id="Pfad_378" data-name="Pfad 378" d="M313.73,514.29a84,84,0,0,1,.43,17,197.724,197.724,0,0,1-3,24,8,8,0,0,1-.39,1.46c-7.87-3.45-14.12-6-14.12-6l5.2-18.75c-2.27-9.33-6.86-43.8-6.86-43.8l-1.59-66.75,15.32-33.19c-10-2.62-16.69-5.45-12.42-7.76,6.2-3.37,9.19-9.76,10.63-14.83a54.111,54.111,0,0,0,9.16,9.86l.2.17,1.16,11.25.36,3.46.74,7.18s-3.55,84.8-6.13,89.64-1.29,14.19,1,25.15C313.52,513,313.63,513.63,313.73,514.29Z" transform="translate(-40.5 -83.93)" opacity="0.1"/>
  <path id="Pfad_379" data-name="Pfad 379" d="M312.1,511.08c2.26,11,.32,29-2.26,42.89s-30,4.84-35.14,0-20.32-7.09-20.32-7.09-.64-63.21-5.48-71.27c-2.3-3.82-2.85-16.3-2.79-28.35,0-10.83.58-21.31.78-24.87.05-.82.07-1.27.07-1.27s-21-35.47-20.63-38.05,6.45-2.9,6.45-2.9,23.21-18.06,27.08-15.8,14.51-3.55,14.51-3.55,13.49,1.53,16.27-1.07a1.42,1.42,0,0,0,.5-1.19c-.32-4.13,13.74-12.94,14.18-13.21-11.85,10.66,7.31,27.08,9.48,28.88l.2.17,2.26,21.89s-3.55,84.8-6.13,89.64S309.84,500.12,312.1,511.08Z" transform="translate(-40.5 -83.93)" fill="#fca310"/>
  <circle id="Ellipse_69" data-name="Ellipse 69" cx="1.61" cy="1.61" r="1.61" transform="translate(268.74 333.42)" fill="#444053"/>
  <path id="Pfad_380" data-name="Pfad 380" d="M314.16,375.52l-9.8,9.48L290,361a1.45,1.45,0,0,0,.5-1.19c-.32-4.13,13.74-12.94,14.17-13.21C292.82,357.3,312,373.72,314.16,375.52Z" transform="translate(-40.5 -83.93)" opacity="0.1"/>
  <circle id="Ellipse_70" data-name="Ellipse 70" cx="1.61" cy="1.61" r="1.61" transform="translate(265.52 385.01)" opacity="0.1"/>
  <circle id="Ellipse_71" data-name="Ellipse 71" cx="1.61" cy="1.61" r="1.61" transform="translate(265.52 384.36)" fill="#444053"/>
  <path id="Pfad_381" data-name="Pfad 381" d="M314.8,374.23l-9.8,9.48-14.37-24a1.42,1.42,0,0,0,.5-1.19c-.32-4.13,13.74-12.94,14.18-13.21C293.47,356,312.63,372.43,314.8,374.23Z" transform="translate(-40.5 -83.93)" fill="#fca310"/>
  <path id="Pfad_382" data-name="Pfad 382" d="M434,508.18c-8.06,3.55-60.95-5.8-68.68-8.06s-19-19.67-13.55-32.25S349.83,443,349.83,443s-11.61-24.82-14.19-29.66-8-18.92-8.71-21.28a2,2,0,0,1,.46-1.48c2.1-3.19,10.18-8.84,10.18-8.84,2.28.82,2.56-5.7,2.47-10.49-.05-2.68-.21-4.82-.21-4.82s1.07,1.09,2.82,2.57c.64.54,1.37,1.13,2.17,1.74a33.609,33.609,0,0,0,10.18,5.6c7.74,2.28,18.7,12.85,18.7,12.85l-3.23,49.53s7.42,46.57,15.16,55.6,31,8.7,38.69,8.7S434,508.18,434,508.18Z" transform="translate(-40.5 -83.93)" opacity="0.1"/>
  <path id="Pfad_383" data-name="Pfad 383" d="M434.63,506.25c-8.06,3.54-60.94-5.81-68.68-8.07s-19-19.67-13.54-32.24-1.94-24.83-1.94-24.83-11.61-24.83-14.19-29.67-7.95-18.92-8.7-21.28a1.86,1.86,0,0,1,.46-1.47c2.09-3.2,10.18-8.85,10.18-8.85,2.28.83,2.56-5.69,2.47-10.48-.05-2.69-.21-4.83-.21-4.83s1.07,1.09,2.81,2.58c.64.53,1.37,1.13,2.18,1.74a33.319,33.319,0,0,0,10.16,5.55c7.74,2.29,18.7,12.86,18.7,12.86l-3.22,49.52s7.42,46.57,15.15,55.6,31,8.71,38.7,8.71S434.63,506.25,434.63,506.25Z" transform="translate(-40.5 -83.93)" fill="#fca310"/>
  <path id="Pfad_384" data-name="Pfad 384" d="M346.93,365.82s-.31,1.71-.82,4.32c-1.73,8.85-5.87,28.19-8.86,27.44-2.14-.54-5.76-4.33-8.57-7.6,2.1-3.2,10.18-8.85,10.18-8.85,2.28.83,2.56-5.69,2.47-10.48l2.61-2.25Z" transform="translate(-40.5 -83.93)" opacity="0.1"/>
  <path id="Pfad_385" data-name="Pfad 385" d="M346.28,364.53s-.3,1.71-.81,4.32c-1.74,8.85-5.88,28.19-8.86,27.44-2.14-.54-5.76-4.33-8.57-7.6,2.09-3.2,10.18-8.85,10.18-8.85,2.28.83,2.56-5.69,2.47-10.48l2.6-2.25Z" transform="translate(-40.5 -83.93)" fill="#fca310"/>
  <path id="Pfad_386" data-name="Pfad 386" d="M304.46,329.83v32.72L295.81,380h0l-.27.55-22.9-1.51-8.8-.59-20.43-1.35V337.97l20.43.58,9.14.26,23.1.65Z" fill="#f86d70"/>
  <path id="Pfad_387" data-name="Pfad 387" d="M304.46,331.76v30.79l-2.11,4.26h0l-2.17,4.37h0L295.81,380l.49-32.72.1-6.6,4.15-4.59v-.01l1.81-2Z" opacity="0.1"/>
  <path id="Pfad_388" data-name="Pfad 388" d="M305.63,321.15v11.42l-1.17,1.87-2.1,3.35-1.86,2.96-4.1,6.54-.1-.01-54.68-2.81V333.2l.13-.15,6.53-7.07,2.37-2.55,4.27-4.63Z" fill="#f86d70"/>
  <path id="Pfad_389" data-name="Pfad 389" d="M296.4,336.02v11.27l-54.78-2.82V333.2l.13-.15Z" opacity="0.1"/>
  <path id="Pfad_390" data-name="Pfad 390" d="M305.63,321.15v11.42l-9.23,14.72V336.02Z" opacity="0.15"/>
  <path id="Pfad_391" data-name="Pfad 391" d="M302.37,326.4l-.01,7.68v3.71l-.01,29.02h0l-2.17,4.37.32-30.43.05-4.66v-.01l.08-6.87-52.35-3.23,2.37-2.55Z" fill="#3f3d56"/>
  <path id="Pfad_392" data-name="Pfad 392" d="M276.68,326.78l-3.67,7.97-.03,4.06-.34,40.23-8.8-.59V334.22l4.7-7.44Z" fill="#3f3d56"/>
  <path id="Pfad_393" data-name="Pfad 393" d="M305.1,411.25a11.54,11.54,0,0,1-6.56.23,2.59,2.59,0,0,1-1.15-.53,2.91,2.91,0,0,1-.71-1.41,10.921,10.921,0,0,1-.63-3.38,3.72,3.72,0,0,1,1.4-3,3.508,3.508,0,0,0,.53-.4,2.15,2.15,0,0,0,.42-.84c.64-1.91,1.88-3.93,3.87-4.24s3.52,1,4.94,2.21l3.11,2.65a4.91,4.91,0,0,1,9.15-.13,17.34,17.34,0,0,1,6.92-4.74,2.16,2.16,0,0,1,1.82-.08,2.22,2.22,0,0,1,.73,1,15,15,0,0,1,1.34,5.9,1,1,0,0,1,1.2.42,2.65,2.65,0,0,1,.4,1.3,16.994,16.994,0,0,1,.13,2.14,3.19,3.19,0,0,1-.57,2.14,3.53,3.53,0,0,1-2.7.84,1.09,1.09,0,0,1-.28,1.61,3.13,3.13,0,0,1-1.82.36c-2.42,0-5-.1-7-1.44-.8-.53-1.46-1.24-2.26-1.76-1.95-1.3-4.41-1.36-6.67-1.25C308.66,408.9,307,410.6,305.1,411.25Z" transform="translate(-40.5 -83.93)" fill="#3f3d56"/>
  <path id="Pfad_394" data-name="Pfad 394" d="M304.65,410.72s-20.19,2.81-23,15l4.22-.62,3,5.32s3.13-11.9,12.36-14.72,12.52-3.28,12.52-3.28,6.42,1.56,12.21,20.19l3.29-4.54,5.79,1.25s-4.23-14.56-15.65-18.62Z" transform="translate(-40.5 -83.93)" fill="#3f3d56"/>
  <path id="Pfad_395" data-name="Pfad 395" d="M366.92,459.49s-16.13-3.22-20.64-10.32-35.22-13.22-31.48-5.8,31.48,31.68,31.48,31.68l12,17.21,16-4.07,6.76-13.14Z" transform="translate(-40.5 -83.93)" fill="#a1616a"/>
  <path id="Pfad_396" data-name="Pfad 396" d="M328.77,477.89s15.62,5.8,18,13.54S328.77,477.89,328.77,477.89Z" transform="translate(-40.5 -83.93)" opacity="0.1"/>
  <path id="Pfad_397" data-name="Pfad 397" d="M319.19,486.9s-1.42,8.06,18.16,7.41Z" transform="translate(-40.5 -83.93)" opacity="0.1"/>
  <path id="Pfad_398" data-name="Pfad 398" d="M234.71,383.71l-7.09-.64s-7.74,5.8-13.55,5.8-9.35,7.42-9.35,7.42-9.67,4.51-12.9,5.16-8.7,3.87-7.09,5.16-.32,4.19-3.22,6.45-7.42,13.86-3.55,15.47,14.51,4.84,17.41,6.45,6.45,0,6.45,0,17.08-22.25,25.79-18.05,20.64,4.19,20.64,4.19l9.36-19.67Z" transform="translate(-40.5 -83.93)" opacity="0.1"/>
  <path id="Pfad_399" data-name="Pfad 399" d="M383.09,489.81a8.62,8.62,0,0,1-6,4.18,45.57,45.57,0,0,1-18.77-1.73s32.48-10.32,1.2-35.41h8.38l2.8-1.06-1.28-6.68-1.84-60.24,6.77-1.61s5.45,39.66,6.76,44.5,2.27,23.54,2.27,23.54,1.29,7.74,3.23,11.61C388,469.82,387.67,482.93,383.09,489.81Z" transform="translate(-40.5 -83.93)" fill="#fca310"/>
  <path id="Pfad_400" data-name="Pfad 400" d="M381.8,489.81a8.63,8.63,0,0,1-6,4.18,45.6,45.6,0,0,1-18.8-1.73s32.48-10.32,1.2-35.41h8.39l2.79-1.06C374,463.92,381.21,478.39,381.8,489.81Z" transform="translate(-40.5 -83.93)" opacity="0.1"/>
  <path id="Pfad_401" data-name="Pfad 401" d="M383.09,489.81a8.62,8.62,0,0,1-6,4.18,45.57,45.57,0,0,1-18.77-1.73s32.48-10.32,1.2-35.41h8.38l2.8-1.06C375.27,463.92,382.5,478.39,383.09,489.81Z" transform="translate(-40.5 -83.93)" fill="none"/>
  <path id="Pfad_402" data-name="Pfad 402" d="M383.09,489.81a8.62,8.62,0,0,1-6,4.18,45.57,45.57,0,0,1-18.77-1.73s32.48-10.32,1.2-35.41h8.38l2.8-1.06C375.27,463.92,382.5,478.39,383.09,489.81Z" transform="translate(-40.5 -83.93)" fill="#fca310"/>
  <path id="Pfad_403" data-name="Pfad 403" d="M339.72,373.35A29.36,29.36,0,0,1,306.51,367q.23-.71.42-1.38a35.571,35.571,0,0,0,1.3-7.42s36.44-12.9,29.34,0C334.09,364.57,336.43,369.73,339.72,373.35Z" transform="translate(-40.5 -83.93)" opacity="0.1"/>
  <path id="Pfad_404" data-name="Pfad 404" d="M356.92,345.34v.28a25.813,25.813,0,0,1-.16,2.83c-.1.93-.23,1.77-.4,2.64a29.36,29.36,0,0,1-56.54,3.79c-.19-.57-.37-1.14-.53-1.72a29.23,29.23,0,0,1-1.06-7.82,16.47,16.47,0,0,1,.08-2,29.34,29.34,0,0,1,58.61,2Z" transform="translate(-40.5 -83.93)" fill="#a1616a"/>
  <path id="Pfad_405" data-name="Pfad 405" d="M356.92,345.62a13.151,13.151,0,0,0-.16,2.83,11.121,11.121,0,0,1-.08,1.53,4.4,4.4,0,0,1-.32,1.11c-1.19,2.78-5.06,4.58-7.61,2.79a8.26,8.26,0,0,1-2.29-3c-2.71-5-6.48-10.83-12.41-10.93-2.53-.05-4.91,1-7.36,1.64s-5.34.7-7.17-1c-1.4-1.28-2.06-3.47-3.94-3.92s-3.62,1.28-4.48,3-1.55,3.67-3.29,4.55c-.78.38-1.69.49-2.45.9-3.51,1.93-1.9,8.66-5.54,9.75l-.35.08-.18-1.8-1-9.84a29.34,29.34,0,0,1,58.61,2Z" transform="translate(-40.5 -83.93)" opacity="0.1"/>
  <path id="Pfad_406" data-name="Pfad 406" d="M304.79,301.54c-3.44,1.46-7,3.71-7.81,7.23a28.55,28.55,0,0,0-.16,4.72c-.16,3.18-1.68,6.13-2.64,9.17s-1.32,6.6.62,9.19c.61.81,1.41,1.48,1.95,2.33a9.5,9.5,0,0,1,1.13,4.27l1.59,15.87c4.1-.76,2.27-7.85,5.89-9.83.76-.41,1.67-.53,2.45-.91,1.74-.87,2.42-2.86,3.29-4.55s2.57-3.42,4.48-3,2.54,2.64,3.94,3.91c1.83,1.67,4.74,1.59,7.18,1s4.82-1.69,7.35-1.65c5.93.1,9.7,5.9,12.41,10.93a8.38,8.38,0,0,0,2.29,3c2.88,2,7.43-.53,7.93-3.91.27-1.89-.32-4,.78-5.61s3.45-2,5.3-2.8c4.71-2.17,6.17-8.05,5.39-13-.57-3.55-2-7.22-.82-10.64.4-1.18,1.09-2.26,1.46-3.44,1-3.32-.66-7-3.32-9.34s-6.14-3.66-9.56-4.81c-8.8-2.94-18-5.79-27.39-6.4-4.1-.26-9.47-1.54-12.72,1C312,297.31,309.56,299.52,304.79,301.54Z" transform="translate(-40.5 -83.93)" fill="#464353"/>
  <circle id="Ellipse_72" data-name="Ellipse 72" cx="1.61" cy="1.61" r="1.61" transform="translate(270.35 307.94)" opacity="0.1"/>
  <circle id="Ellipse_73" data-name="Ellipse 73" cx="1.61" cy="1.61" r="1.61" transform="translate(270.35 307.3)" fill="#444053"/>
  <circle id="Ellipse_74" data-name="Ellipse 74" cx="1.61" cy="1.61" r="1.61" transform="translate(260.04 409.19)" opacity="0.1"/>
  <circle id="Ellipse_75" data-name="Ellipse 75" cx="1.61" cy="1.61" r="1.61" transform="translate(260.04 408.55)" fill="#444053"/>
  <circle id="Ellipse_76" data-name="Ellipse 76" cx="1.61" cy="1.61" r="1.61" transform="translate(265.52 435.96)" opacity="0.1"/>
  <circle id="Ellipse_77" data-name="Ellipse 77" cx="1.61" cy="1.61" r="1.61" transform="translate(265.52 435.31)" fill="#444053"/>
  <path id="Pfad_407" data-name="Pfad 407" d="M363.05,419s3.55,24.08,0,28.28S363.05,419,363.05,419Z" transform="translate(-40.5 -83.93)" opacity="0.1"/>
  <path id="Pfad_408" data-name="Pfad 408" d="M257.61,463.68s-6.78,14.59,0,28.58,11,19.67,8.7,28.6S257.61,463.68,257.61,463.68Z" transform="translate(-40.5 -83.93)" opacity="0.1"/>
  <path id="Pfad_409" data-name="Pfad 409" d="M577.8,731.32c-10,6.77-25.15,3.55-25.15,3.55s-22.89-11-29.66-11-23.22-6.77-23.22-6.77l.55-4.56c6.69,1.29,21.88,4.35,23.63,5.85,2.26,1.94,30,11.29,30,11.29s18.88-2.36,24.14-10.12C581.56,723.17,583,727.78,577.8,731.32Z" transform="translate(-40.5 -83.93)" opacity="0.1"/>
  <g id="Gruppe_7" data-name="Gruppe 7" opacity="0.1">
    <path id="Pfad_410" data-name="Pfad 410" d="M296.82,310.92v.15A.77.77,0,0,0,296.82,310.92Z" transform="translate(-40.5 -83.93)"/>
    <path id="Pfad_411" data-name="Pfad 411" d="M362.76,338.34c-1.85.86-4.18,1.16-5.3,2.8s-.51,3.72-.78,5.61c-.5,3.38-5.05,5.93-7.93,3.91a8.3,8.3,0,0,1-2.29-3c-2.71-5-6.48-10.83-12.41-10.93-2.53,0-4.91,1-7.35,1.65s-5.35.7-7.18-1c-1.4-1.27-2.06-3.46-3.94-3.91s-3.61,1.27-4.48,3-1.55,3.68-3.29,4.55c-.78.38-1.69.5-2.45.91-3.61,2-1.79,9.07-5.89,9.83l-1.59-15.87a9.5,9.5,0,0,0-1.13-4.27c-.54-.85-1.34-1.52-1.95-2.33a7.17,7.17,0,0,1-1.32-3.41,8.27,8.27,0,0,0,1.32,6c.61.81,1.41,1.48,1.95,2.33a9.5,9.5,0,0,1,1.13,4.27l1.59,15.87c4.1-.76,2.28-7.85,5.89-9.83.76-.41,1.67-.53,2.45-.91,1.74-.87,2.43-2.86,3.29-4.55s2.57-3.42,4.48-3,2.54,2.64,3.94,3.91c1.83,1.67,4.74,1.59,7.18,1s4.82-1.69,7.35-1.65c5.93.1,9.7,5.9,12.41,10.93a8.38,8.38,0,0,0,2.29,3c2.88,2,7.43-.53,7.93-3.91.27-1.89-.32-4,.78-5.61s3.45-2,5.3-2.8c4.31-2,5.89-7.07,5.53-11.7C368,333,366.28,336.72,362.76,338.34Z" transform="translate(-40.5 -83.93)"/>
    <path id="Pfad_412" data-name="Pfad 412" d="M368.79,311.27c-.37,1.18-1.06,2.26-1.46,3.44A10,10,0,0,0,367,319a8.1,8.1,0,0,1,.37-1.66c.4-1.18,1.09-2.26,1.46-3.44a7.27,7.27,0,0,0,.19-3.37,7.552,7.552,0,0,1-.23.74Z" transform="translate(-40.5 -83.93)"/>
  </g>
  <path id="Pfad_413" data-name="Pfad 413" d="M274.05,454.64c-7.42-1.62-24.83-6.76-24.83-6.76l-3.11-.62c0-10.83.58-21.31.78-24.87h.07s14.84,4.83,18.38,7.41,14.51,1.94,14.51,1.94,17.09,1,31.28,16.77S281.47,456.27,274.05,454.64Z" transform="translate(-40.5 -83.93)" opacity="0.1"/>
  <path id="Pfad_414" data-name="Pfad 414" d="M201.57,425.86a4.3,4.3,0,0,0-1,7.23c3.92,3.25,9.66,7.15,15.13,7.7,9.14.92,31.12,5.33,33.31,5.77l.34.08c1.81.53,17.67,5.18,24.66,6.71,7.42,1.63,51.27,9.69,37.08-6.11-13.06-14.55-28.57-16.52-31-16.75a5.43,5.43,0,0,0-.57,0c-1.66.08-11,.4-14.26-2a30.617,30.617,0,0,0-5.33-2.65,102,102,0,0,0-21.8-6.29L223,417a4.38,4.38,0,0,0-2.55.32Z" transform="translate(-40.5 -83.93)" fill="#a1616a"/>
  <path id="Pfad_415" data-name="Pfad 415" d="M233.42,383.71l-7.09-.64s-7.74,5.8-13.55,5.8-9.35,7.42-9.35,7.42-9.67,4.51-12.9,5.16-8.7,3.87-7.09,5.16-.32,4.19-3.22,6.45-7.42,13.86-3.55,15.47,14.51,4.84,17.41,6.45,6.45,0,6.45,0,17.08-22.25,25.79-18.05S247,421.12,247,421.12l9.36-19.67Z" transform="translate(-40.5 -83.93)" fill="#fca310"/>
  <path id="Pfad_416" data-name="Pfad 416" d="M248.94,502v83.71H382.88v14H250.34v60h-14V502Z" transform="translate(-40.5 -83.93)" fill="#464353"/>
  <path id="Pfad_417" data-name="Pfad 417" d="M187.55,400.18h53l5.58,94.88H355.81a38,38,0,0,1,25.78,9.75,34.36,34.36,0,0,1,11.06,22.34V669.46H378.7l1.38-137.9a18.538,18.538,0,0,0-.44-4.27c-.86-3.76-3.27-10.62-9.72-14.47a18.121,18.121,0,0,0-9.3-2.42H236.39l-7-99.06H187.55Z" transform="translate(-40.5 -83.93)" fill="#464353"/>
  <path id="Pfad_418" data-name="Pfad 418" d="M169.42,647.13c0,62.42,36.23,113,80.92,113s80.92-50.6,80.92-113-36.23-113-80.92-113S169.42,584.72,169.42,647.13Zm5.58-1.51c0-54.64,31.86-98.94,71.15-98.94s71.16,44.3,71.16,98.94-31.86,98.94-71.16,98.94S175,700.26,175,645.62Z" transform="translate(-40.5 -83.93)" fill="#35323e"/>
  <ellipse id="Ellipse_78" data-name="Ellipse 78" cx="12.56" cy="18.84" rx="12.56" ry="18.84" transform="translate(188.91 547.85)" fill="#35323e"/>
  <ellipse id="Ellipse_79" data-name="Ellipse 79" cx="2.79" cy="5.58" rx="2.79" ry="5.58" transform="translate(195.89 561.81)" fill="#464353"/>
  <path id="Pfad_419" data-name="Pfad 419" d="M389.86,623.42v15.34c4.38-2.73,9.19-2,13.44-.16A25.34,25.34,0,0,1,417.23,655c3.38,11.7,10,34.72,15.88,56.36C441.48,742,456.83,735,456.83,735l106.73,7.68,45.35-23v-14H494.5s-26.51,9.77-37.67,14-7-4.19-21.71-56.83S389.86,623.42,389.86,623.42Z" transform="translate(-40.5 -83.93)" fill="#464353"/>
  <path id="Pfad_420" data-name="Pfad 420" d="M416.33,651.1l106.73,7.67,45.35-23.02-111.62-1.39Z" opacity="0.1"/>
  <ellipse id="Ellipse_80" data-name="Ellipse 80" cx="59.47" cy="11.44" rx="59.47" ry="11.44" transform="translate(965.61 623.67)" fill="#fca310"/>
  <ellipse id="Ellipse_81" data-name="Ellipse 81" cx="6.92" cy="9.06" rx="6.92" ry="9.06" transform="translate(1017.17 621.19)" fill="#13213c"/>
  <ellipse id="Ellipse_82" data-name="Ellipse 82" cx="6.92" cy="9.06" rx="6.92" ry="9.06" transform="translate(1017.17 610.11)" fill="#13213c"/>
  <ellipse id="Ellipse_83" data-name="Ellipse 83" cx="6.92" cy="9.06" rx="6.92" ry="9.06" transform="translate(1017.17 599.04)" fill="#13213c"/>
  <ellipse id="Ellipse_84" data-name="Ellipse 84" cx="6.92" cy="9.06" rx="6.92" ry="9.06" transform="translate(1017.17 587.96)" fill="#13213c"/>
  <ellipse id="Ellipse_85" data-name="Ellipse 85" cx="6.92" cy="9.06" rx="6.92" ry="9.06" transform="translate(1017.17 576.88)" fill="#13213c"/>
  <ellipse id="Ellipse_86" data-name="Ellipse 86" cx="6.92" cy="9.06" rx="6.92" ry="9.06" transform="translate(1017.17 565.8)" fill="#3f3d56"/>
  <ellipse id="Ellipse_87" data-name="Ellipse 87" cx="6.92" cy="9.06" rx="6.92" ry="9.06" transform="translate(1017.17 554.72)" fill="#3f3d56"/>
  <path id="Pfad_421" data-name="Pfad 421" d="M1090.51,571.91a34.3,34.3,0,0,0,2.58-3.8l-18.2-3,19.68.14a33.249,33.249,0,0,0,.63-26.27l-26.39,13.69,24.34-17.9a33.17,33.17,0,1,0-54.78,37.12,33.574,33.574,0,0,0-3.78,6.05l23.62,12.27L1033,581.78a33.19,33.19,0,0,0,5.34,31.14,33.16,33.16,0,1,0,52.14,0,33.2,33.2,0,0,0,0-41Z" transform="translate(-40.5 -83.93)" fill="#fca310"/>
  <path id="Pfad_422" data-name="Pfad 422" d="M1031.28,592.41a33,33,0,0,0,7.09,20.51,33.16,33.16,0,1,0,52.14,0C1095,607.28,1031.28,588.69,1031.28,592.41Z" transform="translate(-40.5 -83.93)" opacity="0.1"/>
  <ellipse id="Ellipse_88" data-name="Ellipse 88" cx="40.92" cy="7.87" rx="40.92" ry="7.87" transform="translate(52.16 629.7)" fill="#fca310"/>
  <ellipse id="Ellipse_89" data-name="Ellipse 89" cx="4.76" cy="6.24" rx="4.76" ry="6.24" transform="translate(87.64 627.99)" fill="#13213c"/>
  <ellipse id="Ellipse_90" data-name="Ellipse 90" cx="4.76" cy="6.24" rx="4.76" ry="6.24" transform="translate(87.64 620.37)" fill="#13213c"/>
  <ellipse id="Ellipse_91" data-name="Ellipse 91" cx="4.76" cy="6.24" rx="4.76" ry="6.24" transform="translate(87.64 612.75)" fill="#13213c"/>
  <ellipse id="Ellipse_92" data-name="Ellipse 92" cx="4.76" cy="6.24" rx="4.76" ry="6.24" transform="translate(87.64 605.12)" fill="#13213c"/>
  <ellipse id="Ellipse_93" data-name="Ellipse 93" cx="4.76" cy="6.24" rx="4.76" ry="6.24" transform="translate(87.64 597.5)" fill="#13213c"/>
  <ellipse id="Ellipse_94" data-name="Ellipse 94" cx="4.76" cy="6.24" rx="4.76" ry="6.24" transform="translate(87.64 589.88)" fill="#3f3d56"/>
  <ellipse id="Ellipse_95" data-name="Ellipse 95" cx="4.76" cy="6.24" rx="4.76" ry="6.24" transform="translate(87.64 582.26)" fill="#3f3d56"/>
  <path id="Pfad_423" data-name="Pfad 423" d="M150.73,620.27a23.515,23.515,0,0,0,1.78-2.61l-12.52-2,13.54.1a22.81,22.81,0,0,0,.43-18.08L135.8,607.1l16.75-12.31a22.82,22.82,0,1,0-37.69,25.53,23.21,23.21,0,0,0-2.6,4.16l16.25,8.45-17.33-5.82a23,23,0,0,0-1.2,7.32,22.7,22.7,0,0,0,4.88,14.11,22.83,22.83,0,1,0,35.87,0,22.8,22.8,0,0,0,0-28.22Z" transform="translate(-40.5 -83.93)" fill="#fca310"/>
  <path id="Pfad_424" data-name="Pfad 424" d="M110,634.38a22.7,22.7,0,0,0,4.88,14.11,22.83,22.83,0,1,0,35.87,0C153.79,644.61,110,631.82,110,634.38Z" transform="translate(-40.5 -83.93)" opacity="0.1"/>
  <ellipse id="Ellipse_96" data-name="Ellipse 96" cx="29.92" cy="5.75" rx="29.92" ry="5.75" transform="translate(578.16 607.31)" fill="#fca310"/>
  <ellipse id="Ellipse_97" data-name="Ellipse 97" cx="3.48" cy="4.56" rx="3.48" ry="4.56" transform="translate(604.1 606.05)" fill="#13213c"/>
  <ellipse id="Ellipse_98" data-name="Ellipse 98" cx="3.48" cy="4.56" rx="3.48" ry="4.56" transform="translate(604.1 600.48)" fill="#13213c"/>
  <ellipse id="Ellipse_99" data-name="Ellipse 99" cx="3.48" cy="4.56" rx="3.48" ry="4.56" transform="translate(604.1 594.91)" fill="#13213c"/>
  <ellipse id="Ellipse_100" data-name="Ellipse 100" cx="3.48" cy="4.56" rx="3.48" ry="4.56" transform="translate(604.1 589.34)" fill="#13213c"/>
  <ellipse id="Ellipse_101" data-name="Ellipse 101" cx="3.48" cy="4.56" rx="3.48" ry="4.56" transform="translate(604.1 583.76)" fill="#13213c"/>
  <ellipse id="Ellipse_102" data-name="Ellipse 102" cx="3.48" cy="4.56" rx="3.48" ry="4.56" transform="translate(604.1 578.19)" fill="#3f3d56"/>
  <ellipse id="Ellipse_103" data-name="Ellipse 103" cx="3.48" cy="4.56" rx="3.48" ry="4.56" transform="translate(604.1 572.62)" fill="#3f3d56"/>
  <path id="Pfad_425" data-name="Pfad 425" d="M661.12,623a16.369,16.369,0,0,0,1.3-1.9l-9.15-1.51,9.9.08a16.79,16.79,0,0,0,1.52-7,16.59,16.59,0,0,0-1.21-6.24l-13.28,6.89,12.25-9A16.68,16.68,0,1,0,634.9,623a16.809,16.809,0,0,0-1.91,3l11.88,6.17-12.66-4.25a16.7,16.7,0,0,0,2.69,15.67,16.68,16.68,0,1,0,26.22,0,16.7,16.7,0,0,0,0-20.64Z" transform="translate(-40.5 -83.93)" fill="#fca310"/>
  <path id="Pfad_426" data-name="Pfad 426" d="M631.33,633.29a16.61,16.61,0,0,0,3.57,10.32,16.68,16.68,0,1,0,26.22,0C663.36,640.77,631.33,631.42,631.33,633.29Z" transform="translate(-40.5 -83.93)" opacity="0.1"/>
  <circle id="Ellipse_104" data-name="Ellipse 104" cx="15.27" cy="15.27" r="15.27" transform="translate(452.66 78.42)" fill="#fff" opacity="0.1"/>
  <circle id="Ellipse_105" data-name="Ellipse 105" cx="25.6" cy="25.6" r="25.6" transform="translate(496.96 0)" fill="#fff" opacity="0.1"/>
  <circle id="Ellipse_106" data-name="Ellipse 106" cx="25.6" cy="25.6" r="25.6" transform="translate(463.08 124.22)" fill="#fff" opacity="0.1"/>
  <circle id="Ellipse_107" data-name="Ellipse 107" cx="15.27" cy="15.27" r="15.27" transform="translate(948.16 239.42)" fill="#fff" opacity="0.1"/>
  <circle id="Ellipse_108" data-name="Ellipse 108" cx="25.6" cy="25.6" r="25.6" transform="translate(883.19 161)" fill="#fff" opacity="0.1"/>
  <circle id="Ellipse_109" data-name="Ellipse 109" cx="25.6" cy="25.6" r="25.6" transform="translate(917.08 285.22)" fill="#fff" opacity="0.1"/>
  <circle id="Ellipse_110" data-name="Ellipse 110" cx="8.65" cy="8.65" r="8.65" transform="translate(91.62 273.7)" fill="#fff" opacity="0.1"/>
  <circle id="Ellipse_111" data-name="Ellipse 111" cx="14.5" cy="14.5" r="14.5" transform="translate(122.85 235.11)" fill="#fff" opacity="0.1"/>
  <circle id="Ellipse_112" data-name="Ellipse 112" cx="14.5" cy="14.5" r="14.5" transform="translate(53.45 257.6)" fill="#fff" opacity="0.1"/>
  <circle id="Ellipse_113" data-name="Ellipse 113" cx="36.25" cy="36.25" r="36.25" transform="translate(179.83 83.07)" fill="#fff" opacity="0.1"/>
  <circle id="Ellipse_114" data-name="Ellipse 114" cx="20.92" cy="20.92" r="20.92" transform="translate(404.16 282.4)" fill="#fff" opacity="0.1"/>
  <circle id="Ellipse_115" data-name="Ellipse 115" cx="20.92" cy="20.92" r="20.92" transform="translate(558.16 382.4)" fill="#fff" opacity="0.1"/>
</svg>
