<svg xmlns="http://www.w3.org/2000/svg" width="174.971" height="122.643" viewBox="0 0 174.971 122.643">
  <g id="donation-credits" transform="translate(-1.534 -14.835)">
    <path id="Pfad_81" data-name="Pfad 81" d="M854.059,435.945s.34,1.132-1.585,2.152-2.491,4.869-.227,6,2.944,2.6,1.812,3.624-3.171,3.737-.453,4.416,3.057,2.038,2.265,2.6,1.812-1.019,1.812-1.019.453,2.718,2.831,2.038,9.059-13.589,5.662-15.4S854.059,435.945,854.059,435.945Z" transform="translate(-711.328 -369.047)" fill="#13213c"/>
    <path id="Pfad_82" data-name="Pfad 82" d="M872.3,490.987s1.175,4.111-.881,4.4a8.024,8.024,0,0,0-3.524,1.468l3.818,4.992h7.048l4.4-4.4s-5.873-4.4-4.7-7.048S872.3,490.987,872.3,490.987Z" transform="translate(-725.465 -413.154)" fill="#ffb9b9"/>
    <path id="Pfad_83" data-name="Pfad 83" d="M872.3,490.987s1.175,4.111-.881,4.4a8.024,8.024,0,0,0-3.524,1.468l3.818,4.992h7.048l4.4-4.4s-5.873-4.4-4.7-7.048S872.3,490.987,872.3,490.987Z" transform="translate(-725.465 -413.154)" opacity="0.1"/>
    <path id="Pfad_84" data-name="Pfad 84" d="M852.787,720.239l6.754,2.349,4.7.294-.294-4.111-9.691-2.866Z" transform="translate(-704.189 -591.308)" fill="#ffb9b9"/>
    <path id="Pfad_85" data-name="Pfad 85" d="M953,768.4s0,4.111.587,4.111,8.516-.881,10.865,0,5.873-2.349,4.111-4.111-4.636-4.405-6.429-3.818S953,766.634,953,766.634Z" transform="translate(-795.742 -640.347)" fill="#575a89"/>
    <path id="Pfad_86" data-name="Pfad 86" d="M819.74,764.974s-3.524,7.048-1.175,7.635a8.148,8.148,0,0,0,5.286-.587c.294-.294,4.4-1.468,4.992-.881s.587-2.349.587-2.349Z" transform="translate(-684.063 -640.742)" fill="#575a89"/>
    <path id="Pfad_87" data-name="Pfad 87" d="M831.867,709.359s-5.58,7.635-1.468,9.691,23.787,2.056,25.255,0,2.056-8.516,0-9.1S831.867,709.359,831.867,709.359Z" transform="translate(-693.253 -594.818)" fill="#2f2e41"/>
    <path id="Pfad_88" data-name="Pfad 88" d="M831.867,709.359s-5.58,7.635-1.468,9.691,23.787,2.056,25.255,0,2.056-8.516,0-9.1S831.867,709.359,831.867,709.359Z" transform="translate(-693.253 -594.818)" opacity="0.2"/>
    <circle id="Ellipse_35" data-name="Ellipse 35" cx="6.754" cy="6.754" r="6.754" transform="translate(142.431 66.38)" fill="#ffb9b9"/>
    <path id="Pfad_89" data-name="Pfad 89" d="M845.987,526.836l5.873-1.175s1.468,4.7,6.167,3.818,5.873-3.818,5.873-3.818,3.524,1.468,3.818,1.468,4.111,1.468,4.111,2.349-4.4,9.691-4.4,9.691l.587,15.858-21.731-.587,1.468-15.564Z" transform="translate(-707.373 -443.13)" fill="#fca310"/>
    <path id="Pfad_90" data-name="Pfad 90" d="M822.752,576.22s-1.762,15.564-.587,16.739,5.873,4.405,5.873,4.405V593.84l-2.349-4.4,2.349-10.278Z" transform="translate(-687.369 -484.879)" fill="#ffb9b9"/>
    <path id="Pfad_91" data-name="Pfad 91" d="M973.348,573.692s-1.028,16-1.028,16.592-2.643,2.643-3.524,2.643-1.468-1.468-1.468-1.468l2.056-2.349-1.468-12.04Z" transform="translate(-807.571 -482.792)" fill="#ffb9b9"/>
    <path id="Pfad_92" data-name="Pfad 92" d="M921.158,687.155s13.215-7.342,13.508,0-6.754,10.278-6.754,10.278-18.207,5.46-18.941,3.464-2.2-5.226-1.028-5.52,2.643-.881,3.23-.294,7.929-4.4,7.929-4.4Z" transform="translate(-758.171 -573.789)" fill="#13213c"/>
    <path id="Pfad_93" data-name="Pfad 93" d="M982.292,697.562a16.7,16.7,0,0,0-3.524,2.056c-.881.881-4.7,2.349-4.7,2.349" transform="translate(-813.138 -585.077)" fill="none" stroke="#000" stroke-miterlimit="10" stroke-width="2" opacity="0.2"/>
    <path id="Pfad_94" data-name="Pfad 94" d="M824.96,532.99,823.2,532.4s-6.461,6.754-4.4,8.516,3.23,2.349,3.818,2.937,3.524.881,3.524.881Z" transform="translate(-684.585 -448.697)" fill="#fca310"/>
    <path id="Pfad_95" data-name="Pfad 95" d="M959.642,544.2l2.643.587a43.089,43.089,0,0,0,2.643,4.992c.587.587-.881.294-1.762,1.468s-1.762,3.23-3.524,3.23-4.111-2.937-4.111-2.937Z" transform="translate(-797.83 -458.438)" fill="#fca310"/>
    <path id="Pfad_96" data-name="Pfad 96" d="M776.124,697.777s-11.159-7.929-14.977-2.056,16.445,13.8,19.382,14.977,5.58,2.349,5.58,2.349,2.643-6.461,2.643-7.635-2.056-1.175-2.643-1.175-3.23-.587-3.818-1.468S776.124,697.777,776.124,697.777Z" transform="translate(-636.923 -581.768)" fill="#13213c"/>
    <path id="Pfad_97" data-name="Pfad 97" d="M813.966,705.988a17,17,0,0,0,5.58,2.937,5.457,5.457,0,0,1,3.524,2.056" transform="translate(-680.932 -592.035)" fill="none" stroke="#000" stroke-miterlimit="10" stroke-width="2" opacity="0.2"/>
    <path id="Pfad_98" data-name="Pfad 98" d="M837.731,635.106l.235,12.434a1.557,1.557,0,0,0,1.574,1.527l23.139-.26a1.556,1.556,0,0,0,1.536-1.467l.7-12.174a1.556,1.556,0,0,0-1.554-1.646H839.287a1.556,1.556,0,0,0-1.556,1.586Z" transform="translate(-700.556 -532.195)" fill="#575a89"/>
    <path id="Pfad_99" data-name="Pfad 99" d="M891.49,423.04s.376,1.255-1.756,2.384-2.76,5.394-.251,6.649,3.262,2.885,2.007,4.014-3.512,4.14-.5,4.892,3.387,2.258,2.509,2.885,2.007-1.129,2.007-1.129.5,3.011,3.136,2.258,5.263-14.435,2.326-17.959C898.236,423.758,891.49,423.04,891.49,423.04Z" transform="translate(-741.943 -358.39)" fill="#13213c"/>
    <path id="Pfad_100" data-name="Pfad 100" d="M904.13,411.569c0-1.838,5.5-.517,7.857,2.049,1.632,1.777,4.112,4.45,2.034,6.335s3.562,4.355,5.074,5.1,4.5,3.039,1.8,4.576-2.653,3.088-1.638,3.455-2.237-.546-2.237-.546.328,3.035-2.411,3.02-10.6-15.072-8.722-19.257C907.634,412.413,904.13,411.569,904.13,411.569Z" transform="translate(-755.385 -348.211)" fill="#13213c"/>
    <path id="Pfad_101" data-name="Pfad 101" d="M872.623,413.2c-7.353-.443-8.091,5.092-8.091,5.092.051,3.2,5.137,1.642,6.55,2.12,1.7-1.226,4.99-3.546,7.339-5.2A11.113,11.113,0,0,0,872.623,413.2Z" transform="translate(-722.687 -350.243)" fill="#13213c"/>
    <path id="Pfad_102" data-name="Pfad 102" d="M672.049,363.256s-6.6-30.912-47.879-53.336" transform="translate(-524.208 -264.982)" fill="none" stroke="#3f3d56" stroke-miterlimit="10" stroke-width="2"/>
    <path id="Pfad_103" data-name="Pfad 103" d="M573.794,254.891l.083.339-1.67.4.526,1.636-.332.107-.64-1.993Z" transform="translate(-472.131 -210.627)" fill="#3f3d56"/>
    <path id="Pfad_104" data-name="Pfad 104" d="M69.7,755.115c0,3.915-2.327,5.282-5.2,5.282l-.2,0q-.2,0-.395-.018c-2.591-.183-4.6-1.621-4.6-5.262,0-3.768,4.815-8.523,5.177-8.875h0l.021-.02S69.7,751.2,69.7,755.115Z" transform="translate(-57.771 -625.256)" fill="#fca310"/>
    <path id="Pfad_105" data-name="Pfad 105" d="M78.151,759.8l1.9-2.657-1.906,2.948-.005.305c-.133,0-.265-.009-.395-.018l.2-3.917,0-.03,0-.006.019-.37L76.061,753.1l1.917,2.678,0,.078.155-2.959L76.5,749.841l1.656,2.535.161-6.136v0l-.027,4.839,1.629-1.918-1.635,2.335-.043,2.65,1.521-2.543-1.527,2.933-.024,1.473,2.208-3.54L78.2,756.522Z" transform="translate(-71.607 -625.256)" fill="#3f3d56"/>
    <path id="Pfad_106" data-name="Pfad 106" d="M213.434,787.535l1.112-.826s.736,4.112-.085,4.728-3.9,1.643-3.9,2.875-6.982,2.875-7.187,1.027a4.072,4.072,0,0,1,.616-2.875s3.286-3.286,3.7-3.9,1.437-1.848,1.437-1.848Z" transform="translate(-176.707 -658.69)" fill="#13213c"/>
    <path id="Pfad_107" data-name="Pfad 107" d="M167,487.309s.031.181.084.511c.049.294.117.708.2,1.22.862,5.263,3.378,20.756,3.208,21.268-.205.616-1.643,2.875,0,3.491a1.274,1.274,0,0,1,.511.557,11.934,11.934,0,0,1,.869,2.049,90.041,90.041,0,0,1,2.633,10.541c.265,1.384.446,2.5.5,3.08a1.674,1.674,0,0,1,.006.406c-.205.821,1.232,3.7,1.848,4.518s1.643,1.643,1.437,2.464,5.134,3.08,5.75,1.643a26.2,26.2,0,0,0,.821-2.669c.205-.411.411-3.286-.616-3.7s-.411-7.6-1.437-9.035a19.733,19.733,0,0,1-1.415-4.047c-.216-.764-.433-1.577-.647-2.392-.867-3.341-1.635-6.7-1.635-6.7l.205-24.026-11.294-1.437-.29.639-.577,1.267Z" transform="translate(-146.697 -409.596)" fill="#13213c"/>
    <path id="Pfad_108" data-name="Pfad 108" d="M127.017,720.818s-1.643-1.643-2.464,0-1.643,8.009-3.08,9.446-3.286,8.625-1.232,9.035,4.312-.616,4.518-1.848,4.518-7.6,4.518-8.214-2.875-2.875-2.875-2.875Z" transform="translate(-107.333 -603.678)" fill="#13213c"/>
    <path id="Pfad_109" data-name="Pfad 109" d="M181.642,430.525s-2.669,24.026-3.286,26.284-3.9,10.883-4.928,12.321-7.6,13.142-8.419,13.758-2.464,2.259-2.464,2.259-3.08,3.08-3.491,3.7-3.9-1.232-4.107-2.464a12.66,12.66,0,0,1,.411-4.107c.205-.821-.411-2.054.205-2.67s3.7-3.7,3.7-5.134,5.339-9.857,7.392-11.7,1.643-4.928,1.643-4.928V445.31L157,441.819s.616-9.857,2.053-9.857S179.383,428.677,181.642,430.525Z" transform="translate(-136.701 -364.106)" fill="#13213c"/>
    <circle id="Ellipse_36" data-name="Ellipse 36" cx="6.776" cy="6.776" r="6.776" transform="translate(21.532 18.574)" fill="#9f616a"/>
    <path id="Pfad_110" data-name="Pfad 110" d="M183.1,211.577s.821,3.08,1.848,3.9-2.67,4.312-2.67,4.312l-6.982.411-1.232-3.9s2.259-4.518,1.643-7.392S183.1,211.577,183.1,211.577Z" transform="translate(-152.536 -180.888)" fill="#9f616a"/>
    <path id="Pfad_111" data-name="Pfad 111" d="M180.139,248.18s-1.848.205-2.259.821-3.286,2.464-5.544,2.053-3.7-1.027-4.107-.821S167,254.751,167,254.751l2.259,6.571-.411,18.071-.616,4.928s-1.232-1.643,3.7-.616,11.294-.821,13.348-1.027,5.544-.821,5.75-2.053-.616-5.75-.616-5.75l-3.286-13.758-2.053-7.392Z" transform="translate(-146.697 -214)" fill="#fca310"/>
    <path id="Pfad_112" data-name="Pfad 112" d="M231.271,240.772s1.737-.921,2.353-.1,8.419,2.053,8.419,2.669,1.643,17.249,1.232,18.687a4.185,4.185,0,0,0,.821,3.08l1.437,6.16s3.9,11.7,2.259,12.115a10.691,10.691,0,0,1-3.7,0c-.616,0-.411-7.8-2.053-9.857s-3.9-7.187-4.312-8.214-5.544-15.2-5.339-16.838S231.271,240.772,231.271,240.772Z" transform="translate(-199.772 -207.519)" fill="#d0cde1"/>
    <path id="Pfad_113" data-name="Pfad 113" d="M141.446,248.18s-1.643,0-1.848.411a22.473,22.473,0,0,1-3.08,3.7c-.821.616-3.7,3.286-3.7,3.9s5.955,5.134,5.955,5.134,2.464,12.115,1.232,16.222-3.08,13.964-2.259,14.58,2.67.821,2.67,0,1.232-9.651,2.259-11.5,4.107-13.553,2.875-16.838S141.446,248.18,141.446,248.18Z" transform="translate(-118.477 -214)" fill="#d0cde1"/>
    <path id="Pfad_114" data-name="Pfad 114" d="M268.782,364.847s.205,6.366-2.053,9.651a39.025,39.025,0,0,0-3.7,6.982s-3.7-1.027-4.312-2.259-4.518-.205-4.518-.616,4.723-2.464,5.134-2.875,1.848-.411,2.669-1.232a5.435,5.435,0,0,0,1.027-2.67l.821-5.339Z" transform="translate(-218.707 -310.338)" fill="#9f616a"/>
    <path id="Pfad_115" data-name="Pfad 115" d="M175.312,143.5a3.905,3.905,0,0,0,1.52-.348,2.035,2.035,0,0,0,.52-3.013,3.894,3.894,0,0,0-.722-.581l-1.561-1.062a7.637,7.637,0,0,0-2.2-1.169,6.875,6.875,0,0,0-2.251-.133,15.212,15.212,0,0,0-4.312.784,7.217,7.217,0,0,0-3.494,2.557,7.681,7.681,0,0,0-.612,6.7,22.723,22.723,0,0,0,3.473,6.013l.707-3.449a1.273,1.273,0,0,1,.4-.826c.635-.452,1.412.476,2.191.47a1.313,1.313,0,0,0,1.111-.879,5.011,5.011,0,0,0,.246-1.476c.093-1.057.462-2.527,1.463-3.11C172.721,143.432,174.264,143.592,175.312,143.5Z" transform="translate(-142.336 -122.325)" fill="#13213c"/>
    <path id="Pfad_116" data-name="Pfad 116" d="M231.462,498.666s-.694,20.061-1.1,20.677,0-20.74,0-20.74Z" transform="translate(-198.867 -420.787)" opacity="0.1"/>
    <path id="Pfad_117" data-name="Pfad 117" d="M283.664,257.607h1.643s6.982,9.446,6.16,10.062,0,2.259,0,2.259l1.643,3.08s2.053,1.848,1.437,2.259a7.5,7.5,0,0,0-1.437,2.053s-4.107-.616-5.339,1.848l-2.663-3.362Z" transform="translate(-243.035 -221.785)" fill="#d0cde1"/>
    <rect id="Rechteck_29" data-name="Rechteck 29" width="6.099" height="11.365" transform="translate(35.572 41.189) rotate(-22.438)" fill="#13213c"/>
    <ellipse id="Ellipse_37" data-name="Ellipse 37" cx="1.22" cy="1.121" rx="1.22" ry="1.121" transform="translate(38.566 43.416) rotate(-22.438)" fill="#fca310"/>
    <path id="Pfad_118" data-name="Pfad 118" d="M175.182,310.046s-14.785,12.321-17.249,8.419,2.67-7.187,2.67-7.187a18.088,18.088,0,0,0,9.651-3.08l5.134-2.259s4.687-6.691,6.284-4.143S178.945,308.778,175.182,310.046Z" transform="translate(-138.66 -257.795)" fill="#9f616a"/>
    <path id="Pfad_119" data-name="Pfad 119" d="M131.187,289.426l-2.259.821v6.16l-.821,1.232s.205,2.464.821,3.08,1.848.411,1.437,1.848a7.783,7.783,0,0,0-.205,2.875s3.7,4.723,3.9,4.107,3.08-8.214,3.491-8.214-4.107-11.91-4.107-11.91Z" transform="translate(-114.584 -248.059)" fill="#d0cde1"/>
    <path id="Pfad_120" data-name="Pfad 120" d="M280.064,451.034s2.123-2.054,1.062-2.156-4.758-2.156-5.374-1.129S280.064,451.034,280.064,451.034Z" transform="translate(-236.457 -378.557)" fill="#2f2e41"/>
    <ellipse id="Ellipse_38" data-name="Ellipse 38" cx="3" cy="1.5" rx="3" ry="1.5" transform="translate(81.25 30.582)" fill="#57b894"/>
    <path id="Pfad_121" data-name="Pfad 121" d="M502.539,218.342a27.475,27.475,0,0,0-20.039,0v-8.19a34.682,34.682,0,0,1,20.039,0Z" transform="translate(-407.224 -181.378)" fill="none" stroke="#3f3d56" stroke-miterlimit="10" stroke-width="2"/>
    <path id="Pfad_122" data-name="Pfad 122" d="M512.963,221.372a19.83,19.83,0,0,0-14.463,0v-5.911a25.031,25.031,0,0,1,14.463,0Z" transform="translate(-420.436 -186.101)" fill="none" stroke="#3f3d56" stroke-miterlimit="10" stroke-width="2"/>
    <ellipse id="Ellipse_39" data-name="Ellipse 39" cx="3" cy="1.5" rx="3" ry="1.5" transform="translate(81.25 28.582)" fill="none" stroke="#3f3d56" stroke-miterlimit="10" stroke-width="2"/>
    <ellipse id="Ellipse_40" data-name="Ellipse 40" cx="2.962" cy="1.568" rx="2.962" ry="1.568" transform="matrix(0.98, -0.2, 0.2, 0.98, 82.637, 40.646)" fill="#57b894"/>
    <path id="Pfad_123" data-name="Pfad 123" d="M512.082,268.384a27.475,27.475,0,0,0-19.634,4.007l-1.638-8.024a34.682,34.682,0,0,1,19.634-4.007Z" transform="translate(-414.087 -223.937)" fill="none" stroke="#3f3d56" stroke-miterlimit="10" stroke-width="2"/>
    <path id="Pfad_124" data-name="Pfad 124" d="M522.512,272.833a19.829,19.829,0,0,0-14.171,2.892l-1.182-5.792a25.032,25.032,0,0,1,14.171-2.892Z" transform="translate(-427.586 -229.488)" fill="none" stroke="#3f3d56" stroke-miterlimit="10" stroke-width="2"/>
    <ellipse id="Ellipse_41" data-name="Ellipse 41" cx="2.962" cy="1.568" rx="2.962" ry="1.568" transform="matrix(0.98, -0.2, 0.2, 0.98, 83.522, 39.754)" fill="none" stroke="#3f3d56" stroke-miterlimit="10" stroke-width="2"/>
    <ellipse id="Ellipse_42" data-name="Ellipse 42" cx="1.568" cy="2.962" rx="1.568" ry="2.962" transform="translate(82.175 52.696) rotate(-86.019)" fill="#57b894"/>
    <path id="Pfad_125" data-name="Pfad 125" d="M507.7,331.685a27.475,27.475,0,0,0-19.99-1.391l.569-8.17a34.682,34.682,0,0,1,19.99,1.391Z" transform="translate(-411.529 -274.346)" fill="none" stroke="#3f3d56" stroke-miterlimit="10" stroke-width="2"/>
    <path id="Pfad_126" data-name="Pfad 126" d="M518.777,334.624a19.83,19.83,0,0,0-14.428-1l.41-5.9a25.032,25.032,0,0,1,14.428,1Z" transform="translate(-425.266 -279.168)" fill="none" stroke="#3f3d56" stroke-miterlimit="10" stroke-width="2"/>
    <ellipse id="Ellipse_43" data-name="Ellipse 43" cx="1.568" cy="2.962" rx="1.568" ry="2.962" transform="translate(83.266 52.073) rotate(-86.019)" fill="none" stroke="#3f3d56" stroke-miterlimit="10" stroke-width="2"/>
    <path id="Pfad_127" data-name="Pfad 127" d="M361.392,263.954s-12.807-1.752-21.952,3.608" transform="translate(-289.092 -226.799)" fill="none" stroke="#3f3d56" stroke-miterlimit="10" stroke-width="2"/>
    <path id="Pfad_128" data-name="Pfad 128" d="M287.71,224.459l.333.105-.52,1.638,1.672.4-.081.339-2.036-.486Z" transform="translate(-237.054 -185.498)" fill="#3f3d56"/>
  </g>
</svg>
