<svg xmlns="http://www.w3.org/2000/svg" xmlns:xlink="http://www.w3.org/1999/xlink" width="1113.556" height="844.085" viewBox="0 0 1113.556 844.085">
  <defs>
    <linearGradient id="linear-gradient" x1="0.5" y1="1" x2="0.5" gradientUnits="objectBoundingBox">
      <stop offset="0" stop-color="gray" stop-opacity="0.251"/>
      <stop offset="0.54" stop-color="gray" stop-opacity="0.122"/>
      <stop offset="1" stop-color="gray" stop-opacity="0.102"/>
    </linearGradient>
    <linearGradient id="linear-gradient-2" y1="1" y2="0" xlink:href="#linear-gradient"/>
    <linearGradient id="linear-gradient-3" x1="0" y1="0.5" x2="1" y2="0.5" xlink:href="#linear-gradient"/>
    <linearGradient id="linear-gradient-4" x1="2.581" y1="1" x2="2.581" y2="0" xlink:href="#linear-gradient"/>
    <linearGradient id="linear-gradient-5" y1="1" y2="0" xlink:href="#linear-gradient"/>
    <linearGradient id="linear-gradient-6" x1="-25.357" y1="1.001" x2="-25.357" y2="0" xlink:href="#linear-gradient"/>
  </defs>
  <g id="explore" transform="translate(0 0.006)">
    <path id="Pfad_175" data-name="Pfad 175" d="M1090.2,482.08c-39.15,53.72-26.23,130.4-3.6,191.49,7.58,20.45,16.19,42.08,12.26,64.33-4.8,27.2-27.36,47.58-50.81,58.68-42.75,20.23-93.25,17-131.49-8.49-33-22-56.23-58.56-89.87-79.51-56.3-35.05-129.39-19.39-192.05,7.37-44.33,18.93-92.89,43.31-136.09,25.83-30.4-12.3-50.87-43.61-61.64-77.08-5.2-16.16-8.84-33.7-19.2-46.35-6.16-7.52-14.3-12.76-22.67-17.14-76.39-40-174.65-15-248.71-59.63-50-30.14-81.12-88.63-94.05-150.12s-9.73-126.4-4.58-190.2c3.66-45.34,9.45-93.79,36.71-129.42C113.24,34.17,161.56,19.2,204.77,25.1S286.72,55,320.61,83.65C363,119.39,402,164.26,454.72,177.83c35.91,9.24,74.06,2.7,111.39-.19,62.4-4.82,124.58.73,186.38,7,59.16,6,118.73,12.7,174.76,32.37,39.65,13.92,71.08,40.23,108.41,58.21,24.33,11.72,51.1,14.44,74,29.58,28.26,18.65,53.8,51.69,45.51,91.34C1147.34,433.83,1111,453.57,1090.2,482.08Z" transform="translate(-43.2 -23.86)" fill="#13213c" opacity="0.1"/>
    <g id="Gruppe_3" data-name="Gruppe 3" opacity="0.5">
      <path id="Pfad_176" data-name="Pfad 176" d="M898.19,727.1s3.3-97.76,56.19-153c22.2-23.18,36.78-52.62,40.64-84.48a249.264,249.264,0,0,0,1.24-45.57" transform="translate(-43.2 -23.86)" fill="none" stroke="#535461" stroke-miterlimit="10" stroke-width="2"/>
      <path id="Pfad_177" data-name="Pfad 177" d="M1029.39,409.06c-3.62,10.92-33.88,36-33.88,36s-9.27-38.21-5.65-49.12a20.824,20.824,0,1,1,39.53,13.11Z" transform="translate(-43.2 -23.86)" fill="#13213c"/>
      <path id="Pfad_178" data-name="Pfad 178" d="M1042,480.36c-9,7.2-48,11.82-48,11.82s13-37.11,22-44.3a20.82,20.82,0,1,1,26,32.48Z" transform="translate(-43.2 -23.86)" fill="#13213c"/>
      <path id="Pfad_179" data-name="Pfad 179" d="M1006.32,583.2c-11.38,1.68-47.41-14-47.41-14s29.94-25.48,41.32-27.16a20.824,20.824,0,0,1,6.09,41.2Z" transform="translate(-43.2 -23.86)" fill="#13213c"/>
      <path id="Pfad_180" data-name="Pfad 180" d="M961.79,654.94c-10.93,3.58-49.1-5.82-49.1-5.82s25.21-30.17,36.14-33.75a20.825,20.825,0,0,1,13,39.57Z" transform="translate(-43.2 -23.86)" fill="#13213c"/>
      <path id="Pfad_181" data-name="Pfad 181" d="M951.79,480.53C957.1,490.73,991,510.7,991,510.7s3.08-39.19-2.23-49.4a20.82,20.82,0,1,0-36.94,19.22Z" transform="translate(-43.2 -23.86)" fill="#13213c"/>
      <path id="Pfad_182" data-name="Pfad 182" d="M900.78,565.08c8.12,8.15,46.4,17.07,46.4,17.07s-8.79-38.32-16.9-46.47a20.821,20.821,0,0,0-29.5,29.39Z" transform="translate(-43.2 -23.86)" fill="#13213c"/>
      <path id="Pfad_183" data-name="Pfad 183" d="M862.48,654.07c6.62,9.4,42.85,24.67,42.85,24.67s-2.18-39.25-8.81-48.66a20.82,20.82,0,1,0-34,24Z" transform="translate(-43.2 -23.86)" fill="#13213c"/>
      <path id="Pfad_184" data-name="Pfad 184" d="M909.81,686.64s-30-43.64-24.74-84.7a80.241,80.241,0,0,0-9.48-49.86,135,135,0,0,0-14.12-20.24" transform="translate(-43.2 -23.86)" fill="none" stroke="#535461" stroke-miterlimit="10" stroke-width="2"/>
      <path id="Pfad_185" data-name="Pfad 185" d="M864.64,505.94c1.93,5.92-3.17,26.58-3.17,26.58s-16.33-13.66-18.26-19.57a11.272,11.272,0,1,1,21.43-7Z" transform="translate(-43.2 -23.86)" fill="#6c63ff"/>
      <path id="Pfad_186" data-name="Pfad 186" d="M893.07,532.93c-1.59,6-17.11,20.59-17.11,20.59s-6.28-20.34-4.69-26.36a11.275,11.275,0,1,1,21.8,5.77Z" transform="translate(-43.2 -23.86)" fill="#6c63ff"/>
      <path id="Pfad_187" data-name="Pfad 187" d="M910.61,589.19c-4.41,4.39-25.16,9.14-25.16,9.14s4.84-20.73,9.26-25.12a11.278,11.278,0,0,1,15.9,16Z" transform="translate(-43.2 -23.86)" fill="#6c63ff"/>
      <path id="Pfad_188" data-name="Pfad 188" d="M914.3,634.76C910.69,639.83,891,648,891,648s1.27-21.25,4.88-26.32a11.274,11.274,0,0,1,18.38,13.06Z" transform="translate(-43.2 -23.86)" fill="#6c63ff"/>
      <path id="Pfad_189" data-name="Pfad 189" d="M853.84,562c5.59,2.74,26.76.54,26.76.54s-11.27-18.06-16.86-20.79a11.27,11.27,0,1,0-9.9,20.25Z" transform="translate(-43.2 -23.86)" fill="#6c63ff"/>
      <path id="Pfad_190" data-name="Pfad 190" d="M858.83,615.25c6.16.94,25.7-7.49,25.7-7.49S868.37,593.9,862.22,593a11.273,11.273,0,1,0-3.39,22.29Z" transform="translate(-43.2 -23.86)" fill="#6c63ff"/>
      <path id="Pfad_191" data-name="Pfad 191" d="M870.77,666.32c5.91,2,26.6-3,26.6-3s-13.58-16.39-19.49-18.36a11.275,11.275,0,1,0-7.11,21.4Z" transform="translate(-43.2 -23.86)" fill="#6c63ff"/>
      <path id="Pfad_192" data-name="Pfad 192" d="M864.64,505.94c1.93,5.92-3.17,26.58-3.17,26.58s-16.33-13.66-18.26-19.57a11.272,11.272,0,1,1,21.43-7Z" transform="translate(-43.2 -23.86)" fill="#fff" opacity="0.5"/>
      <path id="Pfad_193" data-name="Pfad 193" d="M893.07,532.93c-1.59,6-17.11,20.59-17.11,20.59s-6.28-20.34-4.69-26.36a11.275,11.275,0,1,1,21.8,5.77Z" transform="translate(-43.2 -23.86)" fill="#13213c" opacity="0.5"/>
      <path id="Pfad_194" data-name="Pfad 194" d="M910.61,589.19c-4.41,4.39-25.16,9.14-25.16,9.14s4.84-20.73,9.26-25.12a11.278,11.278,0,0,1,15.9,16Z" transform="translate(-43.2 -23.86)" fill="#13213c" opacity="0.5"/>
      <path id="Pfad_195" data-name="Pfad 195" d="M914.3,634.76C910.69,639.83,891,648,891,648s1.27-21.25,4.88-26.32a11.274,11.274,0,0,1,18.38,13.06Z" transform="translate(-43.2 -23.86)" fill="#13213c" opacity="0.5"/>
      <path id="Pfad_196" data-name="Pfad 196" d="M853.84,562c5.59,2.74,26.76.54,26.76.54s-11.27-18.06-16.86-20.79a11.27,11.27,0,1,0-9.9,20.25Z" transform="translate(-43.2 -23.86)" fill="#13213c" opacity="0.5"/>
      <path id="Pfad_197" data-name="Pfad 197" d="M858.83,615.25c6.16.94,25.7-7.49,25.7-7.49S868.37,593.9,862.22,593a11.273,11.273,0,1,0-3.39,22.29Z" transform="translate(-43.2 -23.86)" fill="#13213c" opacity="0.5"/>
      <path id="Pfad_198" data-name="Pfad 198" d="M870.77,666.32c5.91,2,26.6-3,26.6-3s-13.58-16.39-19.49-18.36a11.275,11.275,0,1,0-7.11,21.4Z" transform="translate(-43.2 -23.86)" fill="#13213c" opacity="0.5"/>
      <path id="Pfad_199" data-name="Pfad 199" d="M811.1,781.11h85.33l21.34-130.13h-128Z" fill="#474059"/>
      <path id="Pfad_200" data-name="Pfad 200" d="M806.1,650.98l19.93,121.6h71.8l-1.4,8.53H811.1L789.77,650.98Z" opacity="0.1"/>
    </g>
    <rect id="Rechteck_32" data-name="Rechteck 32" width="626" height="755.3" transform="translate(201.28 39.29)" fill="url(#linear-gradient)"/>
    <rect id="Rechteck_33" data-name="Rechteck 33" width="610" height="736" transform="translate(209.28 48.95)" fill="#fff"/>
    <rect id="Rechteck_34" data-name="Rechteck 34" width="246" height="12" transform="translate(446.28 131.95)" fill="#13213c"/>
    <rect id="Rechteck_35" data-name="Rechteck 35" width="246" height="12" transform="translate(446.28 169.95)" fill="#13213c"/>
    <rect id="Rechteck_36" data-name="Rechteck 36" width="128" height="12" transform="translate(505.28 207.95)" fill="#13213c"/>
    <rect id="Rechteck_37" data-name="Rechteck 37" width="246" height="12" transform="translate(446.28 372.95)" fill="#13213c" opacity="0.5"/>
    <rect id="Rechteck_38" data-name="Rechteck 38" width="246" height="12" transform="translate(446.28 410.95)" fill="#13213c" opacity="0.5"/>
    <rect id="Rechteck_39" data-name="Rechteck 39" width="128" height="12" transform="translate(505.28 448.95)" fill="#13213c" opacity="0.5"/>
    <rect id="Rechteck_40" data-name="Rechteck 40" width="246" height="12" transform="translate(446.28 613.95)" fill="#13213c" opacity="0.5"/>
    <rect id="Rechteck_41" data-name="Rechteck 41" width="246" height="12" transform="translate(446.28 651.95)" fill="#13213c" opacity="0.5"/>
    <rect id="Rechteck_42" data-name="Rechteck 42" width="128" height="12" transform="translate(505.28 689.95)" fill="#13213c" opacity="0.5"/>
    <g id="Gruppe_4" data-name="Gruppe 4" opacity="0.5">
      <path id="Pfad_201" data-name="Pfad 201" d="M421.48,440.8a67.68,67.68,0,0,1-16.37,44.25c-.52.61-1.06,1.21-1.61,1.8q-.41.46-.84.9a66.721,66.721,0,0,1-7.26,6.59l-.18.13a66.461,66.461,0,0,1-12.9,7.92h0a67.012,67.012,0,0,1-7.24,2.9l-.91.29c-.56.19-1.14.36-1.71.52l-.23.07a68.33,68.33,0,0,1-37.55,0h-.1c-1-.29-2-.59-2.92-.92l-.85-.3a65.939,65.939,0,0,1-9.4-4.16l-.19-.1a68.261,68.261,0,0,1-13.32-9.43l-.33-.31a63.549,63.549,0,0,1-5.81-6c-.24-.27-.47-.55-.7-.83-.44-.52-.86-1.06-1.28-1.6a68,68,0,1,1,121.7-41.72Z" transform="translate(-43.2 -23.86)" fill="#e5e5e5"/>
      <path id="Pfad_202" data-name="Pfad 202" d="M402.87,463.74l-5.16-2.32a20.469,20.469,0,0,0,.1-2.36,18.535,18.535,0,0,0,0-2c-.51-5.26-3.86-9.84-6.23-14.65a41.61,41.61,0,0,1-4.07-14c-.63-6,0-12.22-2.2-17.86-1.79-4.55-5.33-8.35-9.12-11.71a46.29,46.29,0,0,0-14.65-9.29c-5.54-2-11.91-2.51-17.45-.47-5,1.84-8.85,5.51-12.57,9.08a42.25,42.25,0,0,0-7.1,8.08c-2.27,3.72-3.24,8-4,12.22a186.939,186.939,0,0,0-2.46,20.42c-.39,5.71-1,12.19-5.88,15.69-2.38,1.71-5.73,2.67-6.82,5.26a5.379,5.379,0,0,0-.36,2.45,9,9,0,0,0,.15,2.07c.07.4.15.79.25,1.19a87.733,87.733,0,0,0-3.52,10.68c-.73,2.7-1.4,5.35-2,7.92h2.48l9.32.22h.13l10,.23h.05l9.32.22h.23L334,485h.88l37.27.86h.2l2.48.06h.87l7.46.17h0l11,.25h.08l8.28.2h2.58l-.44-8.68C406.48,464.57,402.87,463.74,402.87,463.74ZM361,462.68c0,7.36-7.88,16.37-7.88,16.37l-7.93-10.8.29-.42,7.64,10.4s7.88-9,7.88-16.37a8.647,8.647,0,0,1,.63-1.08l.18.56A10.616,10.616,0,0,0,361,462.68Zm12.12,28.88a6.021,6.021,0,0,0-.07-1.12c-.07-.37-.06-.7-.11-1.06s-.09-.71-.14-1.07-.12-.71-.19-1.07-.14-.71-.22-1.07a1.675,1.675,0,0,0-.08-.36q-.165-.705-.36-1.41c-.13-.47-.21-.76-.33-1.13a1.537,1.537,0,0,0-.16-.5c-.06-.16-.17-.54-.26-.81l-.18-.52c-.08-.23-.16-.47-.25-.7-.15-.42-.31-.83-.47-1.25s-.33-.83-.5-1.24c-.34-.84-.71-1.67-1.08-2.51-1.45-3.24-3.08-6.43-4.58-9.59a51,51,0,0,1-2.14-5.08l-.19.25a10.613,10.613,0,0,0-.81,1.35c0,7.36-7.88,16.37-7.88,16.37l-7.93-10.8-6.94,10c-1,.5-2,2.2-2.78,4.62-.22.65-.43,1.37-.63,2.12-.14.51-.27,1-.39,1.57-.07.27-.13.54-.19.82l-.18.85v.13c-.12.58-.24,1.18-.35,1.79s-.24,1.31-.35,2q-.12.65-.21,1.29c-.14.83-.26,1.67-.38,2.51-.07.49-.14,1-.2,1.45l-.24,1.86c.51,1.53,1.08,3,1.67,4.54a7.14,7.14,0,0,1,.65,2.57,72.88,72.88,0,0,0,37.55,0,.339.339,0,0,1,0-.09,10.44,10.44,0,0,1-.24-2.55h0a65.893,65.893,0,0,1,1-7.16,24.474,24.474,0,0,0,.19-3.52v-.42c-.03-.38-.04-.72-.05-1.05Zm0,0a6.021,6.021,0,0,0-.07-1.12c-.07-.37-.06-.7-.11-1.06s-.09-.71-.14-1.07-.12-.71-.19-1.07-.14-.71-.22-1.07a1.675,1.675,0,0,0-.08-.36q-.165-.705-.36-1.41c-.13-.47-.21-.76-.33-1.13a1.537,1.537,0,0,0-.16-.5c-.06-.16-.17-.54-.26-.81l-.18-.52c-.08-.23-.16-.47-.25-.7-.15-.42-.31-.83-.47-1.25s-.33-.83-.5-1.24c-.34-.84-.71-1.67-1.08-2.51-1.45-3.24-3.08-6.43-4.58-9.59a51,51,0,0,1-2.14-5.08l-.19.25a10.613,10.613,0,0,0-.81,1.35c0,7.36-7.88,16.37-7.88,16.37l-7.93-10.8-6.94,10c-1,.5-2,2.2-2.78,4.62-.22.65-.43,1.37-.63,2.12-.14.51-.27,1-.39,1.57-.07.27-.13.54-.19.82l-.18.85v.13c-.12.58-.24,1.18-.35,1.79s-.24,1.31-.35,2q-.12.65-.21,1.29c-.14.83-.26,1.67-.38,2.51-.07.49-.14,1-.2,1.45l-.24,1.86c.51,1.53,1.08,3,1.67,4.54a7.14,7.14,0,0,1,.65,2.57,72.88,72.88,0,0,0,37.55,0,.339.339,0,0,1,0-.09,10.44,10.44,0,0,1-.24-2.55h0a65.893,65.893,0,0,1,1-7.16,24.474,24.474,0,0,0,.19-3.52v-.42c-.03-.38-.04-.72-.05-1.05Zm0,0a6.021,6.021,0,0,0-.07-1.12c-.07-.37-.06-.7-.11-1.06s-.09-.71-.14-1.07-.12-.71-.19-1.07-.14-.71-.22-1.07a1.675,1.675,0,0,0-.08-.36q-.165-.705-.36-1.41c-.13-.47-.21-.76-.33-1.13a1.537,1.537,0,0,0-.16-.5c-.06-.16-.17-.54-.26-.81l-.18-.52c-.08-.23-.16-.47-.25-.7-.15-.42-.31-.83-.47-1.25s-.33-.83-.5-1.24c-.34-.84-.71-1.67-1.08-2.51-1.45-3.24-3.08-6.43-4.58-9.59a51,51,0,0,1-2.14-5.08l-.19.25a10.613,10.613,0,0,0-.81,1.35c0,7.36-7.88,16.37-7.88,16.37l-7.93-10.8-6.94,10c-1,.5-2,2.2-2.78,4.62-.22.65-.43,1.37-.63,2.12-.14.51-.27,1-.39,1.57-.07.27-.13.54-.19.82l-.18.85v.13c-.12.58-.24,1.18-.35,1.79s-.24,1.31-.35,2q-.12.65-.21,1.29c-.14.83-.26,1.67-.38,2.51-.07.49-.14,1-.2,1.45l-.24,1.86c.51,1.53,1.08,3,1.67,4.54a7.14,7.14,0,0,1,.65,2.57,72.88,72.88,0,0,0,37.55,0,.339.339,0,0,1,0-.09,10.44,10.44,0,0,1-.24-2.55h0a65.893,65.893,0,0,1,1-7.16,24.474,24.474,0,0,0,.19-3.52v-.42c-.03-.38-.04-.72-.05-1.05Zm0,0a6.021,6.021,0,0,0-.07-1.12c-.07-.37-.06-.7-.11-1.06s-.09-.71-.14-1.07-.12-.71-.19-1.07-.14-.71-.22-1.07a1.675,1.675,0,0,0-.08-.36q-.165-.705-.36-1.41c-.13-.47-.21-.76-.33-1.13a1.537,1.537,0,0,0-.16-.5c-.06-.16-.17-.54-.26-.81l-.18-.52c-.08-.23-.16-.47-.25-.7-.15-.42-.31-.83-.47-1.25s-.33-.83-.5-1.24c-.34-.84-.71-1.67-1.08-2.51-1.45-3.24-3.08-6.43-4.58-9.59a51,51,0,0,1-2.14-5.08l-.19.25a10.613,10.613,0,0,0-.81,1.35c0,7.36-7.88,16.37-7.88,16.37l-7.93-10.8-6.94,10c-1,.5-2,2.2-2.78,4.62-.22.65-.43,1.37-.63,2.12-.14.51-.27,1-.39,1.57-.07.27-.13.54-.19.82l-.18.85v.13c-.12.58-.24,1.18-.35,1.79s-.24,1.31-.35,2q-.12.65-.21,1.29c-.14.83-.26,1.67-.38,2.51-.07.49-.14,1-.2,1.45l-.24,1.86c.51,1.53,1.08,3,1.67,4.54a7.14,7.14,0,0,1,.65,2.57,72.88,72.88,0,0,0,37.55,0,.339.339,0,0,1,0-.09,10.44,10.44,0,0,1-.24-2.55h0a65.893,65.893,0,0,1,1-7.16,24.474,24.474,0,0,0,.19-3.52v-.42c-.03-.38-.04-.72-.05-1.05Z" transform="translate(-43.2 -23.86)" fill="url(#linear-gradient-2)"/>
      <rect id="Rechteck_43" data-name="Rechteck 43" width="46" height="31" transform="translate(284.28 397.95)" fill="#493545"/>
      <path id="Pfad_203" data-name="Pfad 203" d="M381.12,456l-19.25,27.12-20.12-1.75S315.5,483.11,333,463c8.41-9.67,11.16-17.73,11.75-23.48.64-6.22-1.25-9.76-1.25-9.76l21.87-2.62a16.32,16.32,0,0,0-.36,9.13C367.75,447.63,381.12,456,381.12,456Z" transform="translate(-43.2 -23.86)" fill="#c77485"/>
      <path id="Pfad_204" data-name="Pfad 204" d="M365,436.24a21.86,21.86,0,0,1-20.26,3.26c.64-6.22-1.25-9.76-1.25-9.76l21.87-2.62a16.32,16.32,0,0,0-.36,9.12Z" transform="translate(-43.2 -23.86)" opacity="0.1"/>
      <circle id="Ellipse_53" data-name="Ellipse 53" cx="21.87" cy="21.87" r="21.87" transform="translate(286.74 372.2)" fill="#c77485"/>
      <path id="Pfad_205" data-name="Pfad 205" d="M380.32,457.12l-.51-2-.44-1.76-.65-2.6-.12-.48-.1-.4s.52-1.57-2.91-1.06l-.64.11c-.54.11-1.17.26-1.89.46l-.65.2-.86.27h0a18.75,18.75,0,0,0-7.26,4.38,16.348,16.348,0,0,0-2.43,2.94c-.07.1-.12.19-.18.27a9.441,9.441,0,0,0-.63,1.16c0,7.88-7.88,17.5-7.88,17.5L345.48,465l-.15-.22-1.83-2.66-.65-.86-.22-.3-4-5.37-1-1.34-.33-.45-.49-.65-1.15-1.53-4.5,2.63-6,3.5-3.5,22.75v.63l.11,1.88.73,12.36v.17l-1.28,5.12.19.1a65.942,65.942,0,0,0,9.4,4.16l.85.3c1,.33,1.94.63,2.92.92a3.547,3.547,0,0,1,.08.45c0-.14,0-.29,0-.43a68.33,68.33,0,0,0,37.55,0l.23-.07c.57-.16,1.15-.33,1.71-.52l.91-.29a66.991,66.991,0,0,0,7.24-2.9l.84-17.9.6-12.91v-.74Z" transform="translate(-43.2 -23.86)" opacity="0.1"/>
      <path id="Pfad_206" data-name="Pfad 206" d="M373.12,490.37a6.9,6.9,0,0,0-.07-1.2c-.07-.4-.06-.75-.11-1.13s-.09-.76-.14-1.14-.12-.76-.19-1.14-.14-.76-.22-1.14a1.718,1.718,0,0,0-.08-.38c-.11-.5-.23-1-.36-1.51s-.21-.81-.33-1.21a1.7,1.7,0,0,0-.16-.53c-.06-.17-.17-.58-.26-.87l-.18-.56c-.08-.25-.16-.5-.25-.75-.15-.45-.31-.89-.47-1.34s-.33-.89-.5-1.33c-.34-.9-.71-1.79-1.08-2.68-1.45-3.46-3.08-6.87-4.58-10.25a56.673,56.673,0,0,1-2.14-5.43l-.19.27a11.552,11.552,0,0,0-.81,1.44c0,7.87-7.88,17.5-7.88,17.5l-7.93-11.55-6.94,10.67c-1,.53-2,2.35-2.78,4.94-.22.7-.43,1.46-.63,2.27-.14.54-.27,1.11-.39,1.68-.07.29-.13.58-.19.88l-.18.91v.14c-.12.62-.24,1.26-.35,1.91s-.24,1.4-.35,2.11q-.12.69-.21,1.38c-.14.89-.26,1.79-.38,2.68-.07.52-.14,1-.2,1.55l-.24,2c.51,1.64,1.08,3.26,1.67,4.85a8.06,8.06,0,0,1,.65,2.75,68.33,68.33,0,0,0,37.55,0,.381.381,0,0,1,0-.1,11.908,11.908,0,0,1-.24-2.73h0a75.008,75.008,0,0,1,1-7.65,28,28,0,0,0,.19-3.76v-.45C373.14,491.09,373.13,490.73,373.12,490.37Zm0,0a6.9,6.9,0,0,0-.07-1.2c-.07-.4-.06-.75-.11-1.13s-.09-.76-.14-1.14-.12-.76-.19-1.14-.14-.76-.22-1.14a1.718,1.718,0,0,0-.08-.38c-.11-.5-.23-1-.36-1.51s-.21-.81-.33-1.21a1.7,1.7,0,0,0-.16-.53c-.06-.17-.17-.58-.26-.87l-.18-.56c-.08-.25-.16-.5-.25-.75-.15-.45-.31-.89-.47-1.34s-.33-.89-.5-1.33c-.34-.9-.71-1.79-1.08-2.68-1.45-3.46-3.08-6.87-4.58-10.25a56.673,56.673,0,0,1-2.14-5.43l-.19.27a11.552,11.552,0,0,0-.81,1.44c0,7.87-7.88,17.5-7.88,17.5l-7.93-11.55-6.94,10.67c-1,.53-2,2.35-2.78,4.94-.22.7-.43,1.46-.63,2.27-.14.54-.27,1.11-.39,1.68-.07.29-.13.58-.19.88l-.18.91v.14c-.12.62-.24,1.26-.35,1.91s-.24,1.4-.35,2.11q-.12.69-.21,1.38c-.14.89-.26,1.79-.38,2.68-.07.52-.14,1-.2,1.55l-.24,2c.51,1.64,1.08,3.26,1.67,4.85a8.06,8.06,0,0,1,.65,2.75,68.33,68.33,0,0,0,37.55,0,.381.381,0,0,1,0-.1,11.908,11.908,0,0,1-.24-2.73h0a75.008,75.008,0,0,1,1-7.65,28,28,0,0,0,.19-3.76v-.45C373.14,491.09,373.13,490.73,373.12,490.37Zm0,0a6.9,6.9,0,0,0-.07-1.2c-.07-.4-.06-.75-.11-1.13s-.09-.76-.14-1.14-.12-.76-.19-1.14-.14-.76-.22-1.14a1.718,1.718,0,0,0-.08-.38c-.11-.5-.23-1-.36-1.51s-.21-.81-.33-1.21a1.7,1.7,0,0,0-.16-.53c-.06-.17-.17-.58-.26-.87l-.18-.56c-.08-.25-.16-.5-.25-.75-.15-.45-.31-.89-.47-1.34s-.33-.89-.5-1.33c-.34-.9-.71-1.79-1.08-2.68-1.45-3.46-3.08-6.87-4.58-10.25a56.673,56.673,0,0,1-2.14-5.43l-.19.27a11.552,11.552,0,0,0-.81,1.44c0,7.87-7.88,17.5-7.88,17.5l-7.93-11.55-6.94,10.67c-1,.53-2,2.35-2.78,4.94-.22.7-.43,1.46-.63,2.27-.14.54-.27,1.11-.39,1.68-.07.29-.13.58-.19.88l-.18.91v.14c-.12.62-.24,1.26-.35,1.91s-.24,1.4-.35,2.11q-.12.69-.21,1.38c-.14.89-.26,1.79-.38,2.68-.07.52-.14,1-.2,1.55l-.24,2c.51,1.64,1.08,3.26,1.67,4.85a8.06,8.06,0,0,1,.65,2.75,68.33,68.33,0,0,0,37.55,0,.381.381,0,0,1,0-.1,11.908,11.908,0,0,1-.24-2.73h0a75.008,75.008,0,0,1,1-7.65,28,28,0,0,0,.19-3.76v-.45C373.14,491.09,373.13,490.73,373.12,490.37Zm10.6-18.77-3.57-14.25-.61-2.44-.17-.67h0l-.87-3.48a.656.656,0,0,0,0-.09h0a.8.8,0,0,0-.07-.45c-.13-.26-.46-.53-1.23-.6a6.223,6.223,0,0,0-.88,0h0a15.229,15.229,0,0,0-2.57.48c-.41.11-.85.23-1.32.38l-.86.27h-.08a19.08,19.08,0,0,0-6.3,3.5,17,17,0,0,0-3.2,3.54l-.19.27a11.554,11.554,0,0,0-.81,1.44c0,7.87-7.88,17.5-7.88,17.5l-7.93-11.55-.45-.65-.08-.11L343.5,463l-.87-1.16-.23-.3-4.1-5.47h0L337,454.3v-.06l-.45-.61-.86-1.14-3,1.75-7.5,4.37-3.46,22.51v.24l.1,1.64.74,12.53v.71l-1.13,4.51a65.941,65.941,0,0,0,9.4,4.16l.85.3c1,.33,1.94.63,2.92.92a3.536,3.536,0,0,1,.08.45v-.43a68.33,68.33,0,0,0,37.55,0l.23-.07c.57-.16,1.15-.33,1.71-.52l.91-.29a67,67,0,0,0,7.24-2.9h0l.83-17.88.6-12.77Zm-49.18,34.53a3.547,3.547,0,0,1,.08.45c0-.14,0-.29,0-.43Zm38.58-15.76a6.9,6.9,0,0,0-.07-1.2c-.07-.4-.06-.75-.11-1.13s-.09-.76-.14-1.14-.12-.76-.19-1.14-.14-.76-.22-1.14a1.718,1.718,0,0,0-.08-.38c-.11-.5-.23-1-.36-1.51s-.21-.81-.33-1.21a1.7,1.7,0,0,0-.16-.53c-.06-.17-.17-.58-.26-.87l-.18-.56c-.08-.25-.16-.5-.25-.75-.15-.45-.31-.89-.47-1.34s-.33-.89-.5-1.33c-.34-.9-.71-1.79-1.08-2.68-1.45-3.46-3.08-6.87-4.58-10.25a56.673,56.673,0,0,1-2.14-5.43l-.19.27a11.552,11.552,0,0,0-.81,1.44c0,7.87-7.88,17.5-7.88,17.5l-7.93-11.55-6.94,10.67c-1,.53-2,2.35-2.78,4.94-.22.7-.43,1.46-.63,2.27-.14.54-.27,1.11-.39,1.68-.07.29-.13.58-.19.88l-.18.91v.14c-.12.62-.24,1.26-.35,1.91s-.24,1.4-.35,2.11q-.12.69-.21,1.38c-.14.89-.26,1.79-.38,2.68-.07.52-.14,1-.2,1.55l-.24,2c.51,1.64,1.08,3.26,1.67,4.85a8.06,8.06,0,0,1,.65,2.75,68.33,68.33,0,0,0,37.55,0,.381.381,0,0,1,0-.1,11.908,11.908,0,0,1-.24-2.73h0a75.008,75.008,0,0,1,1-7.65,28,28,0,0,0,.19-3.76v-.45C373.14,491.09,373.13,490.73,373.12,490.37Zm0,0a6.9,6.9,0,0,0-.07-1.2c-.07-.4-.06-.75-.11-1.13s-.09-.76-.14-1.14-.12-.76-.19-1.14-.14-.76-.22-1.14a1.718,1.718,0,0,0-.08-.38c-.11-.5-.23-1-.36-1.51s-.21-.81-.33-1.21a1.7,1.7,0,0,0-.16-.53c-.06-.17-.17-.58-.26-.87l-.18-.56c-.08-.25-.16-.5-.25-.75-.15-.45-.31-.89-.47-1.34s-.33-.89-.5-1.33c-.34-.9-.71-1.79-1.08-2.68-1.45-3.46-3.08-6.87-4.58-10.25a56.673,56.673,0,0,1-2.14-5.43l-.19.27a11.552,11.552,0,0,0-.81,1.44c0,7.87-7.88,17.5-7.88,17.5l-7.93-11.55-6.94,10.67c-1,.53-2,2.35-2.78,4.94-.22.7-.43,1.46-.63,2.27-.14.54-.27,1.11-.39,1.68-.07.29-.13.58-.19.88l-.18.91v.14c-.12.62-.24,1.26-.35,1.91s-.24,1.4-.35,2.11q-.12.69-.21,1.38c-.14.89-.26,1.79-.38,2.68-.07.52-.14,1-.2,1.55l-.24,2c.51,1.64,1.08,3.26,1.67,4.85a8.06,8.06,0,0,1,.65,2.75,68.33,68.33,0,0,0,37.55,0,.381.381,0,0,1,0-.1,11.908,11.908,0,0,1-.24-2.73h0a75.008,75.008,0,0,1,1-7.65,28,28,0,0,0,.19-3.76v-.45C373.14,491.09,373.13,490.73,373.12,490.37Zm0,0a6.9,6.9,0,0,0-.07-1.2c-.07-.4-.06-.75-.11-1.13s-.09-.76-.14-1.14-.12-.76-.19-1.14-.14-.76-.22-1.14a1.718,1.718,0,0,0-.08-.38c-.11-.5-.23-1-.36-1.51s-.21-.81-.33-1.21a1.7,1.7,0,0,0-.16-.53c-.06-.17-.17-.58-.26-.87l-.18-.56c-.08-.25-.16-.5-.25-.75-.15-.45-.31-.89-.47-1.34s-.33-.89-.5-1.33c-.34-.9-.71-1.79-1.08-2.68-1.45-3.46-3.08-6.87-4.58-10.25a56.673,56.673,0,0,1-2.14-5.43l-.19.27a11.552,11.552,0,0,0-.81,1.44c0,7.87-7.88,17.5-7.88,17.5l-7.93-11.55-6.94,10.67c-1,.53-2,2.35-2.78,4.94-.22.7-.43,1.46-.63,2.27-.14.54-.27,1.11-.39,1.68-.07.29-.13.58-.19.88l-.18.91v.14c-.12.62-.24,1.26-.35,1.91s-.24,1.4-.35,2.11q-.12.69-.21,1.38c-.14.89-.26,1.79-.38,2.68-.07.52-.14,1-.2,1.55l-.24,2c.51,1.64,1.08,3.26,1.67,4.85a8.06,8.06,0,0,1,.65,2.75,68.33,68.33,0,0,0,37.55,0,.381.381,0,0,1,0-.1,11.908,11.908,0,0,1-.24-2.73h0a75.008,75.008,0,0,1,1-7.65,28,28,0,0,0,.19-3.76v-.45C373.14,491.09,373.13,490.73,373.12,490.37Zm0,0a6.9,6.9,0,0,0-.07-1.2c-.07-.4-.06-.75-.11-1.13s-.09-.76-.14-1.14-.12-.76-.19-1.14-.14-.76-.22-1.14a1.718,1.718,0,0,0-.08-.38c-.11-.5-.23-1-.36-1.51s-.21-.81-.33-1.21a1.7,1.7,0,0,0-.16-.53c-.06-.17-.17-.58-.26-.87l-.18-.56c-.08-.25-.16-.5-.25-.75-.15-.45-.31-.89-.47-1.34s-.33-.89-.5-1.33c-.34-.9-.71-1.79-1.08-2.68-1.45-3.46-3.08-6.87-4.58-10.25a56.673,56.673,0,0,1-2.14-5.43l-.19.27a11.552,11.552,0,0,0-.81,1.44c0,7.87-7.88,17.5-7.88,17.5l-7.93-11.55-6.94,10.67c-1,.53-2,2.35-2.78,4.94-.22.7-.43,1.46-.63,2.27-.14.54-.27,1.11-.39,1.68-.07.29-.13.58-.19.88l-.18.91v.14c-.12.62-.24,1.26-.35,1.91s-.24,1.4-.35,2.11q-.12.69-.21,1.38c-.14.89-.26,1.79-.38,2.68-.07.52-.14,1-.2,1.55l-.24,2c.51,1.64,1.08,3.26,1.67,4.85a8.06,8.06,0,0,1,.65,2.75,68.33,68.33,0,0,0,37.55,0,.381.381,0,0,1,0-.1,11.908,11.908,0,0,1-.24-2.73h0a75.008,75.008,0,0,1,1-7.65,28,28,0,0,0,.19-3.76v-.45C373.14,491.09,373.13,490.73,373.12,490.37Zm0,0a6.9,6.9,0,0,0-.07-1.2c-.07-.4-.06-.75-.11-1.13s-.09-.76-.14-1.14-.12-.76-.19-1.14-.14-.76-.22-1.14a1.718,1.718,0,0,0-.08-.38c-.11-.5-.23-1-.36-1.51s-.21-.81-.33-1.21a1.7,1.7,0,0,0-.16-.53c-.06-.17-.17-.58-.26-.87l-.18-.56c-.08-.25-.16-.5-.25-.75-.15-.45-.31-.89-.47-1.34s-.33-.89-.5-1.33c-.34-.9-.71-1.79-1.08-2.68-1.45-3.46-3.08-6.87-4.58-10.25a56.673,56.673,0,0,1-2.14-5.43l-.19.27a11.552,11.552,0,0,0-.81,1.44c0,7.87-7.88,17.5-7.88,17.5l-7.93-11.55-6.94,10.67c-1,.53-2,2.35-2.78,4.94-.22.7-.43,1.46-.63,2.27-.14.54-.27,1.11-.39,1.68-.07.29-.13.58-.19.88l-.18.91v.14c-.12.62-.24,1.26-.35,1.91s-.24,1.4-.35,2.11q-.12.69-.21,1.38c-.14.89-.26,1.79-.38,2.68-.07.52-.14,1-.2,1.55l-.24,2c.51,1.64,1.08,3.26,1.67,4.85a8.06,8.06,0,0,1,.65,2.75,68.33,68.33,0,0,0,37.55,0,.381.381,0,0,1,0-.1,11.908,11.908,0,0,1-.24-2.73h0a75.008,75.008,0,0,1,1-7.65,28,28,0,0,0,.19-3.76v-.45C373.14,491.09,373.13,490.73,373.12,490.37Zm0,0a6.9,6.9,0,0,0-.07-1.2c-.07-.4-.06-.75-.11-1.13s-.09-.76-.14-1.14-.12-.76-.19-1.14-.14-.76-.22-1.14a1.718,1.718,0,0,0-.08-.38c-.11-.5-.23-1-.36-1.51s-.21-.81-.33-1.21a1.7,1.7,0,0,0-.16-.53c-.06-.17-.17-.58-.26-.87l-.18-.56c-.08-.25-.16-.5-.25-.75-.15-.45-.31-.89-.47-1.34s-.33-.89-.5-1.33c-.34-.9-.71-1.79-1.08-2.68-1.45-3.46-3.08-6.87-4.58-10.25a56.673,56.673,0,0,1-2.14-5.43l-.19.27a11.552,11.552,0,0,0-.81,1.44c0,7.87-7.88,17.5-7.88,17.5l-7.93-11.55-6.94,10.67c-1,.53-2,2.35-2.78,4.94-.22.7-.43,1.46-.63,2.27-.14.54-.27,1.11-.39,1.68-.07.29-.13.58-.19.88l-.18.91v.14c-.12.62-.24,1.26-.35,1.91s-.24,1.4-.35,2.11q-.12.69-.21,1.38c-.14.89-.26,1.79-.38,2.68-.07.52-.14,1-.2,1.55l-.24,2c.51,1.64,1.08,3.26,1.67,4.85a8.06,8.06,0,0,1,.65,2.75,68.33,68.33,0,0,0,37.55,0,.381.381,0,0,1,0-.1,11.908,11.908,0,0,1-.24-2.73h0a75.008,75.008,0,0,1,1-7.65,28,28,0,0,0,.19-3.76v-.45C373.14,491.09,373.13,490.73,373.12,490.37Zm0,0a6.9,6.9,0,0,0-.07-1.2c-.07-.4-.06-.75-.11-1.13s-.09-.76-.14-1.14-.12-.76-.19-1.14-.14-.76-.22-1.14a1.718,1.718,0,0,0-.08-.38c-.11-.5-.23-1-.36-1.51s-.21-.81-.33-1.21a1.7,1.7,0,0,0-.16-.53c-.06-.17-.17-.58-.26-.87l-.18-.56c-.08-.25-.16-.5-.25-.75-.15-.45-.31-.89-.47-1.34s-.33-.89-.5-1.33c-.34-.9-.71-1.79-1.08-2.68-1.45-3.46-3.08-6.87-4.58-10.25a56.673,56.673,0,0,1-2.14-5.43l-.19.27a11.552,11.552,0,0,0-.81,1.44c0,7.87-7.88,17.5-7.88,17.5l-7.93-11.55-6.94,10.67c-1,.53-2,2.35-2.78,4.94-.22.7-.43,1.46-.63,2.27-.14.54-.27,1.11-.39,1.68-.07.29-.13.58-.19.88l-.18.91v.14c-.12.62-.24,1.26-.35,1.91s-.24,1.4-.35,2.11q-.12.69-.21,1.38c-.14.89-.26,1.79-.38,2.68-.07.52-.14,1-.2,1.55l-.24,2c.51,1.64,1.08,3.26,1.67,4.85a8.06,8.06,0,0,1,.65,2.75,68.33,68.33,0,0,0,37.55,0,.381.381,0,0,1,0-.1,11.908,11.908,0,0,1-.24-2.73h0a75.008,75.008,0,0,1,1-7.65,28,28,0,0,0,.19-3.76v-.45C373.14,491.09,373.13,490.73,373.12,490.37Zm0,0a6.9,6.9,0,0,0-.07-1.2c-.07-.4-.06-.75-.11-1.13s-.09-.76-.14-1.14-.12-.76-.19-1.14-.14-.76-.22-1.14a1.718,1.718,0,0,0-.08-.38c-.11-.5-.23-1-.36-1.51s-.21-.81-.33-1.21a1.7,1.7,0,0,0-.16-.53c-.06-.17-.17-.58-.26-.87l-.18-.56c-.08-.25-.16-.5-.25-.75-.15-.45-.31-.89-.47-1.34s-.33-.89-.5-1.33c-.34-.9-.71-1.79-1.08-2.68-1.45-3.46-3.08-6.87-4.58-10.25a56.673,56.673,0,0,1-2.14-5.43l-.19.27a11.552,11.552,0,0,0-.81,1.44c0,7.87-7.88,17.5-7.88,17.5l-7.93-11.55-6.94,10.67c-1,.53-2,2.35-2.78,4.94-.22.7-.43,1.46-.63,2.27-.14.54-.27,1.11-.39,1.68-.07.29-.13.58-.19.88l-.18.91v.14c-.12.62-.24,1.26-.35,1.91s-.24,1.4-.35,2.11q-.12.69-.21,1.38c-.14.89-.26,1.79-.38,2.68-.07.52-.14,1-.2,1.55l-.24,2c.51,1.64,1.08,3.26,1.67,4.85a8.06,8.06,0,0,1,.65,2.75,68.33,68.33,0,0,0,37.55,0,.381.381,0,0,1,0-.1,11.908,11.908,0,0,1-.24-2.73h0a75.008,75.008,0,0,1,1-7.65,28,28,0,0,0,.19-3.76v-.45C373.14,491.09,373.13,490.73,373.12,490.37Z" transform="translate(-43.2 -23.86)" fill="#fff"/>
      <path id="Pfad_207" data-name="Pfad 207" d="M345.33,464.77l-.67-.09a24.363,24.363,0,0,1-3-.6l-.37-.1c-2.44-.69-5.11-1.93-5.71-4.11a3.89,3.89,0,0,1,.06-2.13A18.264,18.264,0,0,1,337,454.3v-.06a4.769,4.769,0,0,1,.25-.45,10,10,0,0,1,3.61-3.93l-1.2.19L329.5,451.7l-15.75,2.54s-2.8-.56-6.61,9.94a1.623,1.623,0,0,1-.13.39c-.92,2.57-1.89,5.78-2.89,9.79-.69,2.78-1.32,5.51-1.9,8.16-.17.8-.34,1.59-.5,2.37a63.537,63.537,0,0,0,5.81,6l.33.31a68.261,68.261,0,0,0,13.32,9.43l.19.1a65.935,65.935,0,0,0,9.4,4.16l.85.3c.18-1.85.38-3.9.62-6a1.709,1.709,0,0,1,.08-.63l.24-2c.06-.51.13-1,.2-1.55.12-.89.24-1.79.38-2.68q.09-.69.21-1.38c.11-.71.23-1.42.35-2.11s.23-1.29.35-1.91v-.14l.18-.91c.06-.3.12-.59.19-.88.12-.57.25-1.14.39-1.68.2-.81.41-1.57.63-2.27.8-2.59,1.73-4.41,2.78-4.94l6.94-10.67.29-.45.13-.2Z" transform="translate(-43.2 -23.86)" opacity="0.1"/>
      <path id="Pfad_208" data-name="Pfad 208" d="M344.74,464.79l-7.37,11.32c-1,.51-1.94,2.28-2.73,4.79-.23.74-.46,1.55-.68,2.4a119.572,119.572,0,0,0-2.26,13.09,1.555,1.555,0,0,1-.08.6c-.34,2.78-.62,5.51-.85,7.92a65.938,65.938,0,0,1-9.4-4.16l-.19-.1a68.261,68.261,0,0,1-13.32-9.43l-.33-.31a63.538,63.538,0,0,1-5.81-6c-.24-.27-.47-.55-.7-.83.11-.52.22-1,.34-1.56.57-2.65,1.2-5.37,1.89-8.14a98.53,98.53,0,0,1,3.4-11.2,3.062,3.062,0,0,1,.13-.32c3.54-9.11,6.09-8.6,6.09-8.6l16.63-2.68,10.5-1.7-.33.19a10.649,10.649,0,0,0-2.89,3.08l-.29.49c-.12.19-.23.4-.35.61a17.723,17.723,0,0,0-1.38,3.5,3.68,3.68,0,0,0,.24,2.86c1,1.94,3.84,3,6.17,3.58l.39.1A25.079,25.079,0,0,0,344.74,464.79Z" transform="translate(-43.2 -23.86)" fill="#444176"/>
      <path id="Pfad_209" data-name="Pfad 209" d="M402.53,485l-.41-8.88c1.75-14-1.75-14.87-1.75-14.87l-4.16-2h-.11l-16.73-8.11-.65-.32-.2-.09h0l-2.18-1.06h0l-1.38-.67-2.58-1.25-.87-.42v3.47c0,1,.09,2.17.17,3.53.18,3.42.51,8,1.1,13.4.33,3.13.75,6.55,1.27,10.22.31,2.17.53,4.33.67,6.44a113.331,113.331,0,0,1-.66,21.3l.91-.29a67,67,0,0,0,7.24-2.9h0a66.459,66.459,0,0,0,12.9-7.92l.18-.13a66.721,66.721,0,0,0,7.26-6.59Z" transform="translate(-43.2 -23.86)" opacity="0.1"/>
      <path id="Pfad_210" data-name="Pfad 210" d="M403.41,485l-.41-8.9c1.75-14-1.75-14.87-1.75-14.87l-5-2.42h-.1l-16.78-8.14-.77-.37-.15-.07-1.23-.6-1.63-.79-3.22-1.56v1.42h0v1.76c0,1,.09,2.31.18,3.8.17,3.19.47,7.37,1,12.34.36,3.41.81,7.2,1.4,11.28q.46,3.27.66,6.47a113.181,113.181,0,0,1-.62,21,67,67,0,0,0,7.24-2.9h0a66.456,66.456,0,0,0,12.9-7.92l.18-.13a66.721,66.721,0,0,0,7.26-6.59q.44-.44.84-.9Z" transform="translate(-43.2 -23.86)" fill="#444176"/>
      <path id="Pfad_211" data-name="Pfad 211" d="M332.7,393.94c-1,1.38-.92,3.28-1.37,5-1.07,3.91-5.31,6.36-6.28,10.3-.57,2.3.09,4.74-.3,7.08-.71,4.31-4.65,7.23-6.85,11a14.84,14.84,0,0,0-.91,12.9,20.679,20.679,0,0,1,1.27,3.26,11.91,11.91,0,0,1-.31,5c-.75,3.56-1.52,7.48.2,10.69,1.45,2.71,4.46,4.3,7.49,4.8a29.11,29.11,0,0,0,9.17-.42c3.31-.51,6.7-1.1,9.58-2.8l-10.83-26.14c-1.09-2.64-2.21-5.37-2.2-8.23a18.089,18.089,0,0,1,1.35-6.14,53.2,53.2,0,0,1,9-15.55c1.57,1.82,1.45,4.59,2.76,6.61a10.43,10.43,0,0,0,4.46,3.33,147.756,147.756,0,0,0,15.79,6.6,2.07,2.07,0,0,1,1.54,3.08l-4.08,16.84c-.9,3.71-1.69,8,.62,11s7.52,4.42,7.55,8.29a13.257,13.257,0,0,0,0,1.84c.27,1.81,2.42,2.68,4.25,2.77a12.67,12.67,0,0,0,12.71-10.37c1-6.62-3.38-12.72-5.21-19.17-3.08-10.85,1-23.58-5.05-33.11-4.9-7.73-13.83-9.83-22.31-10.79C348.79,390.91,336.89,388.41,332.7,393.94Z" transform="translate(-43.2 -23.86)" opacity="0.1"/>
      <path id="Pfad_212" data-name="Pfad 212" d="M332.7,392.94c-1,1.38-.92,3.28-1.37,5-1.07,3.91-5.31,6.36-6.28,10.3-.57,2.3.09,4.74-.3,7.08-.71,4.31-4.65,7.23-6.85,11a14.84,14.84,0,0,0-.91,12.9,20.68,20.68,0,0,1,1.27,3.26,11.91,11.91,0,0,1-.31,5c-.75,3.56-1.52,7.48.2,10.69,1.45,2.71,4.46,4.3,7.49,4.8a29.111,29.111,0,0,0,9.17-.42c3.31-.51,6.7-1.1,9.58-2.8l-10.83-26.14c-1.09-2.64-2.21-5.37-2.2-8.23a18.089,18.089,0,0,1,1.35-6.14,53.2,53.2,0,0,1,9-15.55c1.57,1.82,1.45,4.59,2.76,6.61a10.43,10.43,0,0,0,4.46,3.33,147.752,147.752,0,0,0,15.79,6.6,2.07,2.07,0,0,1,1.54,3.08l-4.08,16.84c-.9,3.71-1.69,8,.62,11s7.52,4.42,7.55,8.29a13.256,13.256,0,0,0,0,1.84c.27,1.81,2.42,2.68,4.25,2.77a12.67,12.67,0,0,0,12.71-10.37c1-6.62-3.38-12.72-5.21-19.17-3.08-10.85,1-23.58-5.05-33.11-4.9-7.73-13.83-9.83-22.31-10.79C348.79,389.91,336.89,387.41,332.7,392.94Z" transform="translate(-43.2 -23.86)" fill="#493545"/>
    </g>
    <g id="Gruppe_5" data-name="Gruppe 5" opacity="0.5">
      <path id="Pfad_213" data-name="Pfad 213" d="M421.48,681.8a67.68,67.68,0,0,1-16.37,44.25c-.52.61-1.06,1.21-1.61,1.8q-.41.46-.84.9a66.716,66.716,0,0,1-7.26,6.59l-.18.13a66.457,66.457,0,0,1-12.9,7.92h0a66.994,66.994,0,0,1-7.24,2.9l-.91.29c-.56.19-1.14.36-1.71.52l-.23.07a68.33,68.33,0,0,1-37.55,0h-.1c-1-.29-2-.59-2.92-.92l-.85-.3a65.939,65.939,0,0,1-9.4-4.16l-.19-.1a68.255,68.255,0,0,1-13.32-9.43l-.33-.31a63.535,63.535,0,0,1-5.81-6c-.24-.27-.47-.55-.7-.83-.44-.52-.86-1.06-1.28-1.6a68,68,0,1,1,121.7-41.72Z" transform="translate(-43.2 -23.86)" fill="#e5e5e5"/>
      <path id="Pfad_214" data-name="Pfad 214" d="M403.41,725.62l-.41-9c1.75-14.23-1.75-15.12-1.75-15.12l-5-2.46-.1-.05-16.78-8.27-.77-.38-.1-.41s.33-1-1.33-1.17a6.09,6.09,0,0,1-.42-2.55c.17-1.92,1.62-3.43,2.75-5a20.54,20.54,0,0,0,3.29-14.57,34.27,34.27,0,0,0-5.58-14.08l-.32-.47a16.943,16.943,0,0,0,.59-4.42c0-11.51-11.64-20.84-26-20.84-13,0-23.83,7.69-25.71,17.72a9.113,9.113,0,0,0-.79,1.24c-2.64,4.94,1.44,8.63,1.57,13.56.09,3.4-2.19,6.31-4,9.19s-3.15,6.71-1.29,9.55c.61.94,1.53,1.65,2.08,2.63,1.93,3.41-1.28,7.32-2.45,11.06a10.582,10.582,0,0,0-.32,1.33l-7.72,1.26s-2.55-.52-6.09,8.74a3.138,3.138,0,0,0-.13.33,101.376,101.376,0,0,0-3.4,11.39q-1.035,4.23-1.89,8.27c-.12.53-.23,1.06-.34,1.59.23.28.46.57.7.84a64.139,64.139,0,0,0,5.81,6.12l.33.32a68.278,68.278,0,0,0,13.32,9.59l.19.1a65.408,65.408,0,0,0,9.4,4.23l.85.3c1,.34,1.94.64,2.92.94a3.645,3.645,0,0,1,.08.46v-.44a67.26,67.26,0,0,0,37.55,0l.23-.07c.57-.16,1.15-.34,1.71-.53l.91-.29a67.436,67.436,0,0,0,20.14-11l.18-.13a67.131,67.131,0,0,0,7.26-6.7q.44-.44.84-.91Z" transform="translate(-43.2 -23.86)" fill="url(#linear-gradient-3)"/>
      <path id="Pfad_215" data-name="Pfad 215" d="M326.55,660.79c.09,3.35-2.19,6.21-4,9s-3.15,6.6-1.29,9.39c.61.92,1.53,1.63,2.08,2.59,1.93,3.35-1.28,7.2-2.45,10.88-1.35,4.25.22,9,3.06,12.45s6.76,5.78,10.72,7.83a95.671,95.671,0,0,0,26.52,9.44c4.84.89,10,1.29,14.54-.65a15.46,15.46,0,0,0,8.73-17c-1.15-5.26-5-9.49-7-14.46a6.77,6.77,0,0,1-.66-3.13c.17-1.89,1.62-3.37,2.75-4.9A20,20,0,0,0,382.79,668a33.4,33.4,0,0,0-5.58-13.86,15.18,15.18,0,0,0-4-4.4c-2.18-1.47-4.88-1.89-7.48-2.26-10.86-1.52-22.11-3.18-33.06-3.74-3.46-.18-6,.5-7.71,3.74C322.35,652.31,326.42,655.94,326.55,660.79Z" transform="translate(-43.2 -23.86)" fill="#444176"/>
      <path id="Pfad_216" data-name="Pfad 216" d="M382.48,694.8l-20.61,29.31-20.12-1.75s-.66,7-8.75-18.37c-4.52-14.19,4.67-9.26,6.48-13.19s5-7.4,5.27-10.3c.64-6.22-1.25-9.76-1.25-9.76l21.87-2.62a16.32,16.32,0,0,0-.36,9.13C367.75,688.63,382.48,694.8,382.48,694.8Z" transform="translate(-43.2 -23.86)" fill="#c77485"/>
      <ellipse id="Ellipse_54" data-name="Ellipse 54" cx="26" cy="20.5" rx="26" ry="20.5" transform="translate(282.28 604.95)" fill="#444176"/>
      <path id="Pfad_217" data-name="Pfad 217" d="M365,677.24a21.86,21.86,0,0,1-20.26,3.26c.64-6.22-1.25-9.76-1.25-9.76l21.87-2.62a16.32,16.32,0,0,0-.36,9.12Z" transform="translate(-43.2 -23.86)" opacity="0.1"/>
      <circle id="Ellipse_55" data-name="Ellipse 55" cx="21.87" cy="21.87" r="21.87" transform="translate(286.74 613.2)" fill="#c77485"/>
      <path id="Pfad_218" data-name="Pfad 218" d="M380.32,698.12l-.51-2-.44-1.76-.65-2.6-.12-.48-.1-.4s.52-1.57-2.91-1.06l-.64.11c-.54.11-1.17.26-1.89.46l-.65.2-.86.27h0a18.751,18.751,0,0,0-7.26,4.38,16.347,16.347,0,0,0-2.43,2.94c-.07.1-.12.19-.18.27a9.438,9.438,0,0,0-.63,1.16c0,7.88-7.88,17.5-7.88,17.5L345.48,706l-.15-.22-1.83-2.66-.65-.86-.22-.3-4-5.37-1-1.34-.33-.45-.49-.65-1.15-1.53-4.5,2.63-6,3.5-3.5,22.75v.63l.11,1.88.73,12.36v.17l-1.28,5.12.19.1a65.942,65.942,0,0,0,9.4,4.16l.85.3c1,.33,1.94.63,2.92.92a3.539,3.539,0,0,1,.08.45v-.43a68.331,68.331,0,0,0,37.55,0l.23-.07c.57-.16,1.15-.33,1.71-.52l.91-.29a67.006,67.006,0,0,0,7.24-2.9l.84-17.9.6-12.91v-.74Z" transform="translate(-43.2 -23.86)" opacity="0.1"/>
      <path id="Pfad_219" data-name="Pfad 219" d="M373.12,731.37a6.9,6.9,0,0,0-.07-1.2c-.07-.4-.06-.75-.11-1.13s-.09-.76-.14-1.14-.12-.76-.19-1.14-.14-.76-.22-1.14a1.718,1.718,0,0,0-.08-.38c-.11-.5-.23-1-.36-1.51s-.21-.81-.33-1.21a1.705,1.705,0,0,0-.16-.53c-.06-.17-.17-.58-.26-.87l-.18-.56c-.08-.25-.16-.5-.25-.75-.15-.45-.31-.89-.47-1.34s-.33-.89-.5-1.33c-.34-.9-.71-1.79-1.08-2.68-1.45-3.46-3.08-6.87-4.58-10.25a56.677,56.677,0,0,1-2.14-5.43l-.19.27a11.547,11.547,0,0,0-.81,1.44c0,7.87-7.88,17.5-7.88,17.5l-7.93-11.55-6.94,10.67c-1,.53-2,2.35-2.78,4.94-.22.7-.43,1.46-.63,2.27-.14.54-.27,1.11-.39,1.68-.07.29-.13.58-.19.88l-.18.91v.14c-.12.62-.24,1.26-.35,1.91s-.24,1.4-.35,2.11q-.12.69-.21,1.38c-.14.89-.26,1.79-.38,2.68-.07.52-.14,1-.2,1.55l-.24,2c.51,1.64,1.08,3.26,1.67,4.85a8.06,8.06,0,0,1,.65,2.75,68.329,68.329,0,0,0,37.55,0,.381.381,0,0,1,0-.1,11.91,11.91,0,0,1-.24-2.73h0a75,75,0,0,1,1-7.65,28,28,0,0,0,.19-3.76v-.45C373.14,732.09,373.13,731.73,373.12,731.37Zm0,0a6.9,6.9,0,0,0-.07-1.2c-.07-.4-.06-.75-.11-1.13s-.09-.76-.14-1.14-.12-.76-.19-1.14-.14-.76-.22-1.14a1.718,1.718,0,0,0-.08-.38c-.11-.5-.23-1-.36-1.51s-.21-.81-.33-1.21a1.705,1.705,0,0,0-.16-.53c-.06-.17-.17-.58-.26-.87l-.18-.56c-.08-.25-.16-.5-.25-.75-.15-.45-.31-.89-.47-1.34s-.33-.89-.5-1.33c-.34-.9-.71-1.79-1.08-2.68-1.45-3.46-3.08-6.87-4.58-10.25a56.677,56.677,0,0,1-2.14-5.43l-.19.27a11.547,11.547,0,0,0-.81,1.44c0,7.87-7.88,17.5-7.88,17.5l-7.93-11.55-6.94,10.67c-1,.53-2,2.35-2.78,4.94-.22.7-.43,1.46-.63,2.27-.14.54-.27,1.11-.39,1.68-.07.29-.13.58-.19.88l-.18.91v.14c-.12.62-.24,1.26-.35,1.91s-.24,1.4-.35,2.11q-.12.69-.21,1.38c-.14.89-.26,1.79-.38,2.68-.07.52-.14,1-.2,1.55l-.24,2c.51,1.64,1.08,3.26,1.67,4.85a8.06,8.06,0,0,1,.65,2.75,68.329,68.329,0,0,0,37.55,0,.381.381,0,0,1,0-.1,11.91,11.91,0,0,1-.24-2.73h0a75,75,0,0,1,1-7.65,28,28,0,0,0,.19-3.76v-.45C373.14,732.09,373.13,731.73,373.12,731.37Zm0,0a6.9,6.9,0,0,0-.07-1.2c-.07-.4-.06-.75-.11-1.13s-.09-.76-.14-1.14-.12-.76-.19-1.14-.14-.76-.22-1.14a1.718,1.718,0,0,0-.08-.38c-.11-.5-.23-1-.36-1.51s-.21-.81-.33-1.21a1.705,1.705,0,0,0-.16-.53c-.06-.17-.17-.58-.26-.87l-.18-.56c-.08-.25-.16-.5-.25-.75-.15-.45-.31-.89-.47-1.34s-.33-.89-.5-1.33c-.34-.9-.71-1.79-1.08-2.68-1.45-3.46-3.08-6.87-4.58-10.25a56.677,56.677,0,0,1-2.14-5.43l-.19.27a11.547,11.547,0,0,0-.81,1.44c0,7.87-7.88,17.5-7.88,17.5l-7.93-11.55-6.94,10.67c-1,.53-2,2.35-2.78,4.94-.22.7-.43,1.46-.63,2.27-.14.54-.27,1.11-.39,1.68-.07.29-.13.58-.19.88l-.18.91v.14c-.12.62-.24,1.26-.35,1.91s-.24,1.4-.35,2.11q-.12.69-.21,1.38c-.14.89-.26,1.79-.38,2.68-.07.52-.14,1-.2,1.55l-.24,2c.51,1.64,1.08,3.26,1.67,4.85a8.06,8.06,0,0,1,.65,2.75,68.329,68.329,0,0,0,37.55,0,.381.381,0,0,1,0-.1,11.91,11.91,0,0,1-.24-2.73h0a75,75,0,0,1,1-7.65,28,28,0,0,0,.19-3.76v-.45C373.14,732.09,373.13,731.73,373.12,731.37Zm10.6-18.77-3.57-14.25-.61-2.44-.17-.67h0l-.87-3.48a.657.657,0,0,0,0-.09h0a.8.8,0,0,0-.07-.45c-.13-.26-.46-.53-1.23-.6a6.218,6.218,0,0,0-.88,0h0a15.229,15.229,0,0,0-2.57.48c-.41.11-.85.23-1.32.38l-.86.27h-.08a19.08,19.08,0,0,0-6.3,3.5,17,17,0,0,0-3.2,3.54l-.19.27a11.547,11.547,0,0,0-.81,1.44c0,7.87-7.88,17.5-7.88,17.5l-7.93-11.55-.45-.65-.08-.11L343.5,704l-.87-1.16-.23-.3-4.1-5.47h0L337,695.3v-.06l-.45-.61-.86-1.14-3,1.75-7.5,4.37-3.46,22.51v.24l.1,1.64.74,12.53v.71l-1.13,4.51a65.941,65.941,0,0,0,9.4,4.16l.85.3c1,.33,1.94.63,2.92.92a3.534,3.534,0,0,1,.08.45v-.43a68.331,68.331,0,0,0,37.55,0l.23-.07c.57-.16,1.15-.33,1.71-.52l.91-.29a67.009,67.009,0,0,0,7.24-2.9h0l.83-17.88.6-12.77Zm-49.18,34.53a3.545,3.545,0,0,1,.08.45v-.43Zm38.58-15.76a6.9,6.9,0,0,0-.07-1.2c-.07-.4-.06-.75-.11-1.13s-.09-.76-.14-1.14-.12-.76-.19-1.14-.14-.76-.22-1.14a1.718,1.718,0,0,0-.08-.38c-.11-.5-.23-1-.36-1.51s-.21-.81-.33-1.21a1.705,1.705,0,0,0-.16-.53c-.06-.17-.17-.58-.26-.87l-.18-.56c-.08-.25-.16-.5-.25-.75-.15-.45-.31-.89-.47-1.34s-.33-.89-.5-1.33c-.34-.9-.71-1.79-1.08-2.68-1.45-3.46-3.08-6.87-4.58-10.25a56.677,56.677,0,0,1-2.14-5.43l-.19.27a11.547,11.547,0,0,0-.81,1.44c0,7.87-7.88,17.5-7.88,17.5l-7.93-11.55-6.94,10.67c-1,.53-2,2.35-2.78,4.94-.22.7-.43,1.46-.63,2.27-.14.54-.27,1.11-.39,1.68-.07.29-.13.58-.19.88l-.18.91v.14c-.12.62-.24,1.26-.35,1.91s-.24,1.4-.35,2.11q-.12.69-.21,1.38c-.14.89-.26,1.79-.38,2.68-.07.52-.14,1-.2,1.55l-.24,2c.51,1.64,1.08,3.26,1.67,4.85a8.06,8.06,0,0,1,.65,2.75,68.329,68.329,0,0,0,37.55,0,.381.381,0,0,1,0-.1,11.91,11.91,0,0,1-.24-2.73h0a75,75,0,0,1,1-7.65,28,28,0,0,0,.19-3.76v-.45C373.14,732.09,373.13,731.73,373.12,731.37Zm0,0a6.9,6.9,0,0,0-.07-1.2c-.07-.4-.06-.75-.11-1.13s-.09-.76-.14-1.14-.12-.76-.19-1.14-.14-.76-.22-1.14a1.718,1.718,0,0,0-.08-.38c-.11-.5-.23-1-.36-1.51s-.21-.81-.33-1.21a1.705,1.705,0,0,0-.16-.53c-.06-.17-.17-.58-.26-.87l-.18-.56c-.08-.25-.16-.5-.25-.75-.15-.45-.31-.89-.47-1.34s-.33-.89-.5-1.33c-.34-.9-.71-1.79-1.08-2.68-1.45-3.46-3.08-6.87-4.58-10.25a56.677,56.677,0,0,1-2.14-5.43l-.19.27a11.547,11.547,0,0,0-.81,1.44c0,7.87-7.88,17.5-7.88,17.5l-7.93-11.55-6.94,10.67c-1,.53-2,2.35-2.78,4.94-.22.7-.43,1.46-.63,2.27-.14.54-.27,1.11-.39,1.68-.07.29-.13.58-.19.88l-.18.91v.14c-.12.62-.24,1.26-.35,1.91s-.24,1.4-.35,2.11q-.12.69-.21,1.38c-.14.89-.26,1.79-.38,2.68-.07.52-.14,1-.2,1.55l-.24,2c.51,1.64,1.08,3.26,1.67,4.85a8.06,8.06,0,0,1,.65,2.75,68.329,68.329,0,0,0,37.55,0,.381.381,0,0,1,0-.1,11.91,11.91,0,0,1-.24-2.73h0a75,75,0,0,1,1-7.65,28,28,0,0,0,.19-3.76v-.45C373.14,732.09,373.13,731.73,373.12,731.37Zm0,0a6.9,6.9,0,0,0-.07-1.2c-.07-.4-.06-.75-.11-1.13s-.09-.76-.14-1.14-.12-.76-.19-1.14-.14-.76-.22-1.14a1.718,1.718,0,0,0-.08-.38c-.11-.5-.23-1-.36-1.51s-.21-.81-.33-1.21a1.705,1.705,0,0,0-.16-.53c-.06-.17-.17-.58-.26-.87l-.18-.56c-.08-.25-.16-.5-.25-.75-.15-.45-.31-.89-.47-1.34s-.33-.89-.5-1.33c-.34-.9-.71-1.79-1.08-2.68-1.45-3.46-3.08-6.87-4.58-10.25a56.677,56.677,0,0,1-2.14-5.43l-.19.27a11.547,11.547,0,0,0-.81,1.44c0,7.87-7.88,17.5-7.88,17.5l-7.93-11.55-6.94,10.67c-1,.53-2,2.35-2.78,4.94-.22.7-.43,1.46-.63,2.27-.14.54-.27,1.11-.39,1.68-.07.29-.13.58-.19.88l-.18.91v.14c-.12.62-.24,1.26-.35,1.91s-.24,1.4-.35,2.11q-.12.69-.21,1.38c-.14.89-.26,1.79-.38,2.68-.07.52-.14,1-.2,1.55l-.24,2c.51,1.64,1.08,3.26,1.67,4.85a8.06,8.06,0,0,1,.65,2.75,68.329,68.329,0,0,0,37.55,0,.381.381,0,0,1,0-.1,11.91,11.91,0,0,1-.24-2.73h0a75,75,0,0,1,1-7.65,28,28,0,0,0,.19-3.76v-.45C373.14,732.09,373.13,731.73,373.12,731.37Zm0,0a6.9,6.9,0,0,0-.07-1.2c-.07-.4-.06-.75-.11-1.13s-.09-.76-.14-1.14-.12-.76-.19-1.14-.14-.76-.22-1.14a1.718,1.718,0,0,0-.08-.38c-.11-.5-.23-1-.36-1.51s-.21-.81-.33-1.21a1.705,1.705,0,0,0-.16-.53c-.06-.17-.17-.58-.26-.87l-.18-.56c-.08-.25-.16-.5-.25-.75-.15-.45-.31-.89-.47-1.34s-.33-.89-.5-1.33c-.34-.9-.71-1.79-1.08-2.68-1.45-3.46-3.08-6.87-4.58-10.25a56.677,56.677,0,0,1-2.14-5.43l-.19.27a11.547,11.547,0,0,0-.81,1.44c0,7.87-7.88,17.5-7.88,17.5l-7.93-11.55-6.94,10.67c-1,.53-2,2.35-2.78,4.94-.22.7-.43,1.46-.63,2.27-.14.54-.27,1.11-.39,1.68-.07.29-.13.58-.19.88l-.18.91v.14c-.12.62-.24,1.26-.35,1.91s-.24,1.4-.35,2.11q-.12.69-.21,1.38c-.14.89-.26,1.79-.38,2.68-.07.52-.14,1-.2,1.55l-.24,2c.51,1.64,1.08,3.26,1.67,4.85a8.06,8.06,0,0,1,.65,2.75,68.329,68.329,0,0,0,37.55,0,.381.381,0,0,1,0-.1,11.91,11.91,0,0,1-.24-2.73h0a75,75,0,0,1,1-7.65,28,28,0,0,0,.19-3.76v-.45C373.14,732.09,373.13,731.73,373.12,731.37Zm0,0a6.9,6.9,0,0,0-.07-1.2c-.07-.4-.06-.75-.11-1.13s-.09-.76-.14-1.14-.12-.76-.19-1.14-.14-.76-.22-1.14a1.718,1.718,0,0,0-.08-.38c-.11-.5-.23-1-.36-1.51s-.21-.81-.33-1.21a1.705,1.705,0,0,0-.16-.53c-.06-.17-.17-.58-.26-.87l-.18-.56c-.08-.25-.16-.5-.25-.75-.15-.45-.31-.89-.47-1.34s-.33-.89-.5-1.33c-.34-.9-.71-1.79-1.08-2.68-1.45-3.46-3.08-6.87-4.58-10.25a56.677,56.677,0,0,1-2.14-5.43l-.19.27a11.547,11.547,0,0,0-.81,1.44c0,7.87-7.88,17.5-7.88,17.5l-7.93-11.55-6.94,10.67c-1,.53-2,2.35-2.78,4.94-.22.7-.43,1.46-.63,2.27-.14.54-.27,1.11-.39,1.68-.07.29-.13.58-.19.88l-.18.91v.14c-.12.62-.24,1.26-.35,1.91s-.24,1.4-.35,2.11q-.12.69-.21,1.38c-.14.89-.26,1.79-.38,2.68-.07.52-.14,1-.2,1.55l-.24,2c.51,1.64,1.08,3.26,1.67,4.85a8.06,8.06,0,0,1,.65,2.75,68.329,68.329,0,0,0,37.55,0,.381.381,0,0,1,0-.1,11.91,11.91,0,0,1-.24-2.73h0a75,75,0,0,1,1-7.65,28,28,0,0,0,.19-3.76v-.45C373.14,732.09,373.13,731.73,373.12,731.37Zm0,0a6.9,6.9,0,0,0-.07-1.2c-.07-.4-.06-.75-.11-1.13s-.09-.76-.14-1.14-.12-.76-.19-1.14-.14-.76-.22-1.14a1.718,1.718,0,0,0-.08-.38c-.11-.5-.23-1-.36-1.51s-.21-.81-.33-1.21a1.705,1.705,0,0,0-.16-.53c-.06-.17-.17-.58-.26-.87l-.18-.56c-.08-.25-.16-.5-.25-.75-.15-.45-.31-.89-.47-1.34s-.33-.89-.5-1.33c-.34-.9-.71-1.79-1.08-2.68-1.45-3.46-3.08-6.87-4.58-10.25a56.677,56.677,0,0,1-2.14-5.43l-.19.27a11.547,11.547,0,0,0-.81,1.44c0,7.87-7.88,17.5-7.88,17.5l-7.93-11.55-6.94,10.67c-1,.53-2,2.35-2.78,4.94-.22.7-.43,1.46-.63,2.27-.14.54-.27,1.11-.39,1.68-.07.29-.13.58-.19.88l-.18.91v.14c-.12.62-.24,1.26-.35,1.91s-.24,1.4-.35,2.11q-.12.69-.21,1.38c-.14.89-.26,1.79-.38,2.68-.07.52-.14,1-.2,1.55l-.24,2c.51,1.64,1.08,3.26,1.67,4.85a8.06,8.06,0,0,1,.65,2.75,68.329,68.329,0,0,0,37.55,0,.381.381,0,0,1,0-.1,11.91,11.91,0,0,1-.24-2.73h0a75,75,0,0,1,1-7.65,28,28,0,0,0,.19-3.76v-.45C373.14,732.09,373.13,731.73,373.12,731.37Zm0,0a6.9,6.9,0,0,0-.07-1.2c-.07-.4-.06-.75-.11-1.13s-.09-.76-.14-1.14-.12-.76-.19-1.14-.14-.76-.22-1.14a1.718,1.718,0,0,0-.08-.38c-.11-.5-.23-1-.36-1.51s-.21-.81-.33-1.21a1.705,1.705,0,0,0-.16-.53c-.06-.17-.17-.58-.26-.87l-.18-.56c-.08-.25-.16-.5-.25-.75-.15-.45-.31-.89-.47-1.34s-.33-.89-.5-1.33c-.34-.9-.71-1.79-1.08-2.68-1.45-3.46-3.08-6.87-4.58-10.25a56.677,56.677,0,0,1-2.14-5.43l-.19.27a11.547,11.547,0,0,0-.81,1.44c0,7.87-7.88,17.5-7.88,17.5l-7.93-11.55-6.94,10.67c-1,.53-2,2.35-2.78,4.94-.22.7-.43,1.46-.63,2.27-.14.54-.27,1.11-.39,1.68-.07.29-.13.58-.19.88l-.18.91v.14c-.12.62-.24,1.26-.35,1.91s-.24,1.4-.35,2.11q-.12.69-.21,1.38c-.14.89-.26,1.79-.38,2.68-.07.52-.14,1-.2,1.55l-.24,2c.51,1.64,1.08,3.26,1.67,4.85a8.06,8.06,0,0,1,.65,2.75,68.329,68.329,0,0,0,37.55,0,.381.381,0,0,1,0-.1,11.91,11.91,0,0,1-.24-2.73h0a75,75,0,0,1,1-7.65,28,28,0,0,0,.19-3.76v-.45C373.14,732.09,373.13,731.73,373.12,731.37Zm0,0a6.9,6.9,0,0,0-.07-1.2c-.07-.4-.06-.75-.11-1.13s-.09-.76-.14-1.14-.12-.76-.19-1.14-.14-.76-.22-1.14a1.718,1.718,0,0,0-.08-.38c-.11-.5-.23-1-.36-1.51s-.21-.81-.33-1.21a1.705,1.705,0,0,0-.16-.53c-.06-.17-.17-.58-.26-.87l-.18-.56c-.08-.25-.16-.5-.25-.75-.15-.45-.31-.89-.47-1.34s-.33-.89-.5-1.33c-.34-.9-.71-1.79-1.08-2.68-1.45-3.46-3.08-6.87-4.58-10.25a56.677,56.677,0,0,1-2.14-5.43l-.19.27a11.547,11.547,0,0,0-.81,1.44c0,7.87-7.88,17.5-7.88,17.5l-7.93-11.55-6.94,10.67c-1,.53-2,2.35-2.78,4.94-.22.7-.43,1.46-.63,2.27-.14.54-.27,1.11-.39,1.68-.07.29-.13.58-.19.88l-.18.91v.14c-.12.62-.24,1.26-.35,1.91s-.24,1.4-.35,2.11q-.12.69-.21,1.38c-.14.89-.26,1.79-.38,2.68-.07.52-.14,1-.2,1.55l-.24,2c.51,1.64,1.08,3.26,1.67,4.85a8.06,8.06,0,0,1,.65,2.75,68.329,68.329,0,0,0,37.55,0,.381.381,0,0,1,0-.1,11.91,11.91,0,0,1-.24-2.73h0a75,75,0,0,1,1-7.65,28,28,0,0,0,.19-3.76v-.45C373.14,732.09,373.13,731.73,373.12,731.37Z" transform="translate(-43.2 -23.86)" fill="#444176"/>
      <path id="Pfad_220" data-name="Pfad 220" d="M345.33,705.77l-.67-.09a24.369,24.369,0,0,1-3-.6l-.37-.1c-2.44-.69-5.11-1.93-5.71-4.11a3.89,3.89,0,0,1,.06-2.13A18.262,18.262,0,0,1,337,695.3v-.06a4.765,4.765,0,0,1,.25-.45,10,10,0,0,1,3.61-3.93l-1.2.19L329.5,692.7l-15.75,2.54s-2.8-.56-6.61,9.94a1.623,1.623,0,0,1-.13.39c-.92,2.57-1.89,5.78-2.89,9.79-.69,2.78-1.32,5.51-1.9,8.16-.17.8-.34,1.59-.5,2.37a63.536,63.536,0,0,0,5.81,6l.33.31a68.259,68.259,0,0,0,13.32,9.43l.19.1a65.939,65.939,0,0,0,9.4,4.16l.85.3c.18-1.85.38-3.9.62-6a1.709,1.709,0,0,1,.08-.63l.24-2c.06-.51.13-1,.2-1.55.12-.89.24-1.79.38-2.68q.09-.69.21-1.38c.11-.71.23-1.42.35-2.11s.23-1.29.35-1.91v-.14l.18-.91c.06-.3.12-.59.19-.88.12-.57.25-1.14.39-1.68.2-.81.41-1.57.63-2.27.8-2.59,1.73-4.41,2.78-4.94l6.94-10.67.29-.45.13-.2Z" transform="translate(-43.2 -23.86)" opacity="0.1"/>
      <path id="Pfad_221" data-name="Pfad 221" d="M344.74,705.79l-7.37,11.32c-1,.51-1.94,2.28-2.73,4.79-.23.74-.46,1.55-.68,2.4a119.571,119.571,0,0,0-2.26,13.09,1.554,1.554,0,0,1-.08.6c-.34,2.78-.62,5.51-.85,7.92a65.938,65.938,0,0,1-9.4-4.16l-.19-.1a68.255,68.255,0,0,1-13.32-9.43l-.33-.31a63.531,63.531,0,0,1-5.81-6c-.24-.27-.47-.55-.7-.83.11-.52.22-1,.34-1.56.57-2.65,1.2-5.37,1.89-8.14a98.531,98.531,0,0,1,3.4-11.2,3.06,3.06,0,0,1,.13-.32c3.54-9.11,6.09-8.6,6.09-8.6l16.63-2.68,10.5-1.7-.33.19a10.652,10.652,0,0,0-2.89,3.08l-.29.49c-.12.19-.23.4-.35.61a17.723,17.723,0,0,0-1.38,3.5,3.68,3.68,0,0,0,.24,2.86c1,1.94,3.84,3,6.17,3.58l.39.1A25.084,25.084,0,0,0,344.74,705.79Z" transform="translate(-43.2 -23.86)" fill="#f1d2d7"/>
      <path id="Pfad_222" data-name="Pfad 222" d="M402.53,726l-.41-8.88c1.75-14-1.75-14.87-1.75-14.87l-4.16-2h-.11l-16.73-8.11-.65-.32-.2-.09h0l-2.18-1.06h0l-1.38-.67-2.58-1.25-.87-.42v3.47c0,1,.09,2.17.17,3.53.18,3.42.51,8,1.1,13.4.33,3.13.75,6.55,1.27,10.22.31,2.17.53,4.33.67,6.44a113.331,113.331,0,0,1-.66,21.3l.91-.29a67.006,67.006,0,0,0,7.24-2.9h0a66.463,66.463,0,0,0,12.9-7.92l.18-.13a66.731,66.731,0,0,0,7.26-6.59Z" transform="translate(-43.2 -23.86)" opacity="0.1"/>
      <path id="Pfad_223" data-name="Pfad 223" d="M403.41,726l-.41-8.9c1.75-14-1.75-14.87-1.75-14.87l-5-2.42h-.1l-16.78-8.14-.77-.37-.15-.07-1.23-.6-1.63-.79-3.22-1.56v1.42h0v1.76c0,1,.09,2.31.18,3.8.17,3.19.47,7.37,1,12.34.36,3.41.81,7.2,1.4,11.28q.46,3.27.66,6.47a113.181,113.181,0,0,1-.62,21,67.714,67.714,0,0,0,20.14-10.82l.18-.13a66.718,66.718,0,0,0,7.26-6.59q.44-.44.84-.9Z" transform="translate(-43.2 -23.86)" fill="#f1d2d7"/>
      <path id="Pfad_224" data-name="Pfad 224" d="M347,652.53c3.12-.53,6.26-1.67,9.36-1,2.6.54,4.77,2.27,7.15,3.47a18.511,18.511,0,0,0,7.38,1.95,4.34,4.34,0,0,0,2.71-.53c1.24-.86,1.42-2.62,1.21-4.12-.6-4.26-3.26-7.92-6-11.24a22,22,0,0,0-3.76-3.81c-3.59-2.65-8.34-3.1-12.79-2.9-5.08.23-10.24,1.21-14.65,3.76-3,1.72-9.88,7.14-7.49,11.06C332.63,653.27,343.07,653.2,347,652.53Z" transform="translate(-43.2 -23.86)" opacity="0.1"/>
      <path id="Pfad_225" data-name="Pfad 225" d="M347,651.53c3.12-.53,6.26-1.67,9.36-1,2.6.54,4.77,2.27,7.15,3.47a18.511,18.511,0,0,0,7.38,1.95,4.34,4.34,0,0,0,2.71-.53c1.24-.86,1.42-2.62,1.21-4.12-.6-4.26-3.26-7.92-6-11.24a22,22,0,0,0-3.76-3.81c-3.59-2.65-8.34-3.1-12.79-2.9-5.08.23-10.24,1.21-14.65,3.76-3,1.72-9.88,7.14-7.49,11.06C332.63,652.27,343.07,652.2,347,651.53Z" transform="translate(-43.2 -23.86)" fill="#444176"/>
    </g>
    <path id="Pfad_226" data-name="Pfad 226" d="M621.61,602.56h.15c.22,6.7,1.17,12.76,3,14.44,4.36,4,22.44-4,21.2-8.84-.25-1-.67-2.64-1.2-4.71,4.88-.61,9.05-2,10.71-4.86l3.14,9.68.22.69h.24c2.07,19.62,6.76,60.36,10.51,65.82,5,7.23,10.75,38.56,10.75,38.56l10.75,64.27s4.14,37,6.62,41a4.65,4.65,0,0,0,2.72,1.41c-1.45,4.34-3.53,9.41-6,12.24-5,5.62-11.58,16.87-17.37,16.07s-7.44,11.25,3.31,12.85c5.95.89,15.44-.19,22.73-1.33,0,3.22,2.24,6.92,7.87,7.76,10.75,1.61,33.08-3.21,33.08-3.21s19-8,19.85-13.66c.6-4.1-2.31-20.56-3.93-29.19,3-4.81-.2-46.32-.2-46.32l-5.79-79.53s3.31-44.18,0-52.22c-2.07-5-2.84-28-3.13-44.45l4,.26a7.378,7.378,0,0,0,.62-.87l1,.07s5-5.62.83-14.46c-3.07-6.57-2.49-36.23-2-51h0l.59-7a2,2,0,0,0,.49-.76,73.349,73.349,0,0,0,22.33-6.76,22.66,22.66,0,0,0,5.86-3.56c4.14-4,1.65-28.12-6.62-64.27s-15.71-32.94-15.71-32.94-19.85-1.61-28.95-13.66-15.21-11.89-15.21-11.89h0c-.23-1.58-.39-3.07-.5-4.46,0-.52-.08-1-.11-1.52a26.44,26.44,0,0,0,6.88-10.43c1.86-1,4.15-1.33,5.93-2.59a7.058,7.058,0,0,0,1.23-1.14,10.11,10.11,0,0,0,3.19-6.29,25.722,25.722,0,0,0-.37-7.89c-.63-3.84-1.56-7.77-3.8-10.79s-5.59-4.84-8.82-6.53q-13.12-6.89-26.31-13.64a14.521,14.521,0,0,0-5.63-2c-3.52-.2-6.68,2.21-9.52,4.5a40.621,40.621,0,0,0-3.25,2.85,18.244,18.244,0,0,0-2.39,2.57c-3.32,4.45-4.73,12.83-3.27,18.39.46,1.76,1.45,2.27,2.67,2.25a25.78,25.78,0,0,0-2.75,11.6,26.3,26.3,0,0,0,12.21,22.09c0,.56,0,1.11.05,1.64a58.687,58.687,0,0,1-.2,6.15s-22,11.89-24.47,17.51-11.58,9.64-11.58,9.64-17.37,8.84-17.37,40.17l-9.1,44.18-1.65,84.35s1.14-1,3-2.42c-.06.56-.11,1.14-.16,1.73a95.216,95.216,0,0,0-.25,9.69Zm111.1,218.31c-.34,1.29-.84,3-1.47,5-.28-1.66-.56-3.3-.84-4.86.72-.07,1.49-.11,2.31-.14Z" transform="translate(-43.2 -23.86)" fill="url(#linear-gradient-4)"/>
    <path id="Pfad_227" data-name="Pfad 227" d="M702.67,810.51s-3.19,14.34-8,19.91S683.56,847.15,678,846.35s-7.17,11.15,3.19,12.74S713,855.91,713,855.91s18.32-8,19.11-13.54-4.78-34.25-4.78-34.25Z" transform="translate(-43.2 -23.86)" fill="#53526b"/>
    <path id="Pfad_228" data-name="Pfad 228" d="M702.67,810.51s-3.19,14.34-8,19.91S683.56,847.15,678,846.35s-7.17,11.15,3.19,12.74S713,855.91,713,855.91s18.32-8,19.11-13.54-4.78-34.25-4.78-34.25Z" transform="translate(-43.2 -23.86)" opacity="0.05"/>
    <path id="Pfad_229" data-name="Pfad 229" d="M732.14,816.88s-3.19,14.34-8,19.91S713,853.52,707.45,852.72s-7.17,11.15,3.19,12.74,31.86-3.19,31.86-3.19,18.32-8,19.11-13.54-4.78-34.25-4.78-34.25Z" transform="translate(-43.2 -23.86)" fill="#53526b"/>
    <path id="Pfad_230" data-name="Pfad 230" d="M659.66,598.67s6.37,68.49,11.15,75.66,10.35,38.23,10.35,38.23l10.35,63.71s4,36.64,6.37,40.62,31.93,2.27,31.93,2.27L711.43,608.22Z" transform="translate(-43.2 -23.86)" fill="#5f5d7e"/>
    <path id="Pfad_231" data-name="Pfad 231" d="M659.66,598.67s6.37,68.49,11.15,75.66,10.35,38.23,10.35,38.23l10.35,63.71s4,36.64,6.37,40.62,31.93,2.27,31.93,2.27L711.43,608.22Z" transform="translate(-43.2 -23.86)" opacity="0.05"/>
    <path id="Pfad_232" data-name="Pfad 232" d="M646.92,566l2.08,6.61,11.25,35.71.22.68h.06c1.51.34,33.39,7.67,40.27,9.92a9.74,9.74,0,0,1,1.09.41c3.19,1.59,7.17,58.93,7.17,58.93s2.39,54.16,4,58.14,8,86,11.95,83.62,32.65,0,32.65,0c3.19-3.19,0-46.19,0-46.19L752,695s3.19-43.8,0-51.77-3.19-61.32-3.19-61.32l-65.19-10.19-6.3-1Z" transform="translate(-43.2 -23.86)" fill="#5f5d7e"/>
    <path id="Pfad_233" data-name="Pfad 233" d="M649,572.62l11.25,35.71.27.7c1.51.34,33.39,7.67,40.27,9.92h.69l-17.81-47.22-.51-1.36-5.79.37Z" transform="translate(-43.2 -23.86)" opacity="0.02"/>
    <path id="Pfad_234" data-name="Pfad 234" d="M723.38,406.73s-29.47,31.86-47.79,5.57l-17.52,11.95,3.19,18.32L650.9,581.14s27.08-.8,46.19,5.57a29.64,29.64,0,0,0,31.06-7.17L725,457.7l7.17-37.43Z" transform="translate(-43.2 -23.86)" opacity="0.1"/>
    <path id="Pfad_235" data-name="Pfad 235" d="M723.38,404.34s-29.47,31.86-47.79,5.57l-17.52,11.95,3.19,18.32L650.9,578.75s27.08-.8,46.19,5.57a29.64,29.64,0,0,0,31.06-7.17L725,455.31l7.17-37.43Z" transform="translate(-43.2 -23.86)" fill="#53526b"/>
    <g id="TESLA">
      <g id="g8">
        <path id="polyline10" d="M621.35,522.36v5.02h-1.6v-3.34H613.9v3.34h-1.61v-5.01l9.06-.01" fill="#e82127"/>
        <path id="path12" d="M663.12,544.6h-6.18a2.28,2.28,0,0,1-1.68-1.66h9.53a2.29,2.29,0,0,1-1.68,1.66" transform="translate(-43.2 -23.86)" fill="#e82127"/>
      </g>
      <g id="g30">
        <path id="path32" d="M719,543a2.31,2.31,0,0,1-1.67,1.65h-2.6l-.13.05v6.56H713V544.7l-.15-.05h-2.6a2.34,2.34,0,0,1-1.67-1.65H719" transform="translate(-43.2 -23.86)" fill="#e82127"/>
      </g>
    </g>
    <path id="Pfad_236" data-name="Pfad 236" d="M662.05,569.2s0,20.71-4.78,29.47-32.65,4-32.65,4l5.57-29.47Z" transform="translate(-43.2 -23.86)" fill="#e5e5e5"/>
    <path id="Pfad_237" data-name="Pfad 237" d="M627.65,617c4.2,4,21.61-4,20.41-8.76-.84-3.37-3.78-15.43-5.45-22.27l-1.16-4.81s-10.2-3.19-13.8,0c-1.31,1.16-2.23,5.73-2.66,11.25C624.25,602,625,614.46,627.65,617Z" transform="translate(-43.2 -23.86)" fill="#fdc2cc"/>
    <path id="Pfad_238" data-name="Pfad 238" d="M666,418.67l27.87,21.5s41.41-2.39,31.06-22.3a74.24,74.24,0,0,1-8-28.14,58.839,58.839,0,0,1,0-10.89s-38.23-35-33.45,4.78a90.257,90.257,0,0,1,.66,9.2C684.71,422.68,666,418.67,666,418.67Z" transform="translate(-43.2 -23.86)" fill="#fdc2cc"/>
    <path id="Pfad_239" data-name="Pfad 239" d="M683.56,383.63a90.221,90.221,0,0,1,.66,9.2,26.1,26.1,0,0,0,14.47,4.34c7.13,0,12.38-6.94,17.12-11.55-.53-6.61,1.19-6.77,1.19-6.77S678.78,343.81,683.56,383.63Z" transform="translate(-43.2 -23.86)" opacity="0.1"/>
    <circle id="Ellipse_56" data-name="Ellipse 56" cx="26.28" cy="26.28" r="26.28" transform="translate(629.21 319.16)" fill="#fdc2cc"/>
    <path id="Pfad_240" data-name="Pfad 240" d="M717.4,394.38s4.38.4,13.14,12.34,27.87,13.54,27.87,13.54,7.17-3.19,15.13,32.65,10.35,59.73,6.37,63.71S760,526.19,752,526.19c0,0-2.39,50.17,1.59,58.93s-.8,14.34-.8,14.34l-35-2.39s-11.95-15.13-14.34-41.41-10.35-101.15-6.37-109.91,21.5-31.06,20.71-33.45S717.4,394.38,717.4,394.38Z" transform="translate(-43.2 -23.86)" opacity="0.1"/>
    <path id="Pfad_241" data-name="Pfad 241" d="M717.49,394.14s5.89-.16,14.65,11.79S760,419.47,760,419.47s7.17-3.19,15.13,32.65,10.35,59.73,6.37,63.71-19.91,9.56-27.87,9.56c0,0-2.39,50.17,1.59,58.93s-.8,14.34-.8,14.34l-35-2.39s-11.95-15.13-14.34-41.41S694.71,453.72,698.69,445s21.5-31.06,20.71-33.45S717.49,394.14,717.49,394.14Z" transform="translate(-43.2 -23.86)" fill="#e5e5e5"/>
    <path id="Pfad_242" data-name="Pfad 242" d="M625,592.4c3.81-2.91,11-7.44,17.62-6.44l-1.16-4.81s-10.2-3.19-13.8,0C626.33,582.31,625.42,586.87,625,592.4Z" transform="translate(-43.2 -23.86)" opacity="0.1"/>
    <path id="Pfad_243" data-name="Pfad 243" d="M684,399.16s-20.31,13.14-22.7,18.72-11.15,9.56-11.15,9.56-16.72,8.76-16.72,39.82l-8.76,43.8,39.82,55.75s4.78-55.75,7.17-69.29,5.57-39,5.57-39,11.95-15.13,10.35-19.11S684,399.16,684,399.16Z" transform="translate(-43.2 -23.86)" opacity="0.1"/>
    <path id="Pfad_244" data-name="Pfad 244" d="M684,398.92s-21.18,11.79-23.56,17.36-11.15,9.56-11.15,9.56-16.72,8.76-16.72,39.82l-8.76,43.8-1.59,83.62s14.34-13.54,24.69-7.17,16.72-20.71,16.72-20.71,4.78-55.75,7.17-69.29,5.57-39,5.57-39,11.95-15.13,10.35-19.11S684,398.92,684,398.92Z" transform="translate(-43.2 -23.86)" fill="#e5e5e5"/>
    <path id="Pfad_245" data-name="Pfad 245" d="M675.62,337.33a26,26,0,0,1,4.64-4.58c2.74-2.28,5.77-4.66,9.17-4.46a13.72,13.72,0,0,1,5.42,1.94q12.7,6.69,25.33,13.52c3.11,1.68,6.32,3.46,8.49,6.48s3.05,6.9,3.66,10.7a26.229,26.229,0,0,1,.36,7.82,9.81,9.81,0,0,1-3.46,6.57c-2.27,1.65-5.38,1.66-7.28,3.82-1.1,1.25-1.58,3-2.36,4.52s-2.13,3-3.67,2.73-2.47-1.9-2.69-3.55a21.55,21.55,0,0,1,.29-5c.3-3-.08-6.18-1.82-8.41-1.2-1.52-2.92-2.44-4.08-4-2.78-3.76-1.51-10-4.56-13.53a7.23,7.23,0,0,0-7-2c-2.47.52-4.73,1.86-7,3a52,52,0,0,1-9.59,3.7c-2.78.76-6,2.58-6.95-1.12C671.07,350.05,672.42,341.74,675.62,337.33Z" transform="translate(-43.2 -23.86)" opacity="0.1"/>
    <path id="Pfad_246" data-name="Pfad 246" d="M676.42,336.54a26,26,0,0,1,4.64-4.58c2.74-2.28,5.77-4.66,9.17-4.46a13.72,13.72,0,0,1,5.42,1.94c8.46,4.46,15.49.24,25.33,13.52,2.1,2.84,6.32,3.46,8.49,6.48s3.05,6.9,3.66,10.7a26.23,26.23,0,0,1,.36,7.82,9.81,9.81,0,0,1-3.46,6.57c-2.27,1.65-5.38,1.66-7.28,3.82-1.1,1.25-1.58,3-2.36,4.52s-2.13,3-3.67,2.73-2.47-1.9-2.69-3.55a21.546,21.546,0,0,1,.29-5c.3-3-.08-6.18-1.82-8.41-1.2-1.52-2.92-2.44-4.08-4-2.78-3.76-1.51-10-4.56-13.53a7.23,7.23,0,0,0-7-2c-2.47.52-4.73,1.86-7,3a52,52,0,0,1-9.59,3.7c-2.78.76-6,2.58-6.95-1.12C671.86,349.26,673.22,340.94,676.42,336.54Z" transform="translate(-43.2 -23.86)" fill="#865a61"/>
    <path id="Pfad_247" data-name="Pfad 247" d="M748.2,458.09s10.62,27.08,2.65,38.23l-17.52-4s15.93,4.78,13.54-4.78S748.2,458.09,748.2,458.09Z" transform="translate(-43.2 -23.86)" opacity="0.1"/>
    <path id="Pfad_248" data-name="Pfad 248" d="M754,525s-23.1,1.59-29.47-3.19a61,61,0,0,0,28.75,11.95Z" transform="translate(-43.2 -23.86)" opacity="0.1"/>
    <path id="Pfad_249" data-name="Pfad 249" d="M654.49,474s-11.95,36.64-11.15,42.21,2.39,66.9,2.39,66.9l2.39-.8-.8-66.9Z" transform="translate(-43.2 -23.86)" opacity="0.1"/>
    <path id="Pfad_250" data-name="Pfad 250" d="M756.81,518.78l-273-220a17.08,17.08,0,0,0-12.1-5h-11.6a148,148,0,1,0-25.63,25.63V331a17.08,17.08,0,0,0,5,12.1l273,220a17,17,0,0,0,24.14,0L756.74,543A17.17,17.17,0,0,0,756.81,518.78Zm-413.47-225a37.753,37.753,0,1,1,0,.02Z" transform="translate(-43.2 -23.86)" fill="url(#linear-gradient-5)"/>
    <path id="Pfad_251" data-name="Pfad 251" d="M758.81,516.78l-273-220a17.08,17.08,0,0,0-12.1-5h-11.6a148,148,0,1,0-25.63,25.63V329a17.08,17.08,0,0,0,5,12.1l273,220a17,17,0,0,0,24.14,0L758.74,541a17.17,17.17,0,0,0,.07-24.22Zm-413.47-225a37.753,37.753,0,1,1,0,.02Z" transform="translate(-43.2 -23.86)" fill="#13213c"/>
    <path id="Pfad_252" data-name="Pfad 252" d="M738.51,496.72s-39.85-45.7-34.25-14.34c4,22.3,19.11,34.25,26.28,36.64S738.51,496.72,738.51,496.72Z" transform="translate(-43.2 -23.86)" fill="#fdc2cc"/>
    <path id="Pfad_253" data-name="Pfad 253" d="M748.07,454.51s.8,29.47,4.78,33.45-2.39,8.76-2.39,8.76l-15.93-4s4,26.28-12.74,23.1c0,0,11.15,10.35,22.3,11.95s10.35-2.39,10.35-2.39l16.72-19.91Z" transform="translate(-43.2 -23.86)" fill="#e5e5e5"/>
    <path id="Pfad_254" data-name="Pfad 254" d="M709.28,501.95l16.16-3.55-2.16-7.45-10-4-13,6Z" fill="#e5e5e5"/>
    <path id="Pfad_255" data-name="Pfad 255" d="M280.78,199.8a67.68,67.68,0,0,0,13.58,40.78c.89,1.19,1.82,2.34,2.79,3.47.52.61,1.06,1.21,1.61,1.8q.41.46.84.9a66.715,66.715,0,0,0,7.26,6.59l.18.13a67.71,67.71,0,0,0,20.14,10.82l.91.29c.56.19,1.14.36,1.71.52l.23.07c.29.08.58.17.88.24a67.71,67.71,0,0,0,17.83,2.37c1,0,2.05,0,3.07-.07a67.24,67.24,0,0,0,15.77-2.58h.1c.95-.28,1.89-.57,2.82-.89h.1l.85-.3a65.925,65.925,0,0,0,9.4-4.16l.19-.1c.33-.18.66-.36,1-.55a67.83,67.83,0,0,0,12.34-8.88l.33-.31a63.545,63.545,0,0,0,5.81-6l.21-.25c.17-.19.33-.38.49-.58.44-.52.86-1.06,1.28-1.6A68,68,0,1,0,280.78,199.8Z" transform="translate(-43.2 -23.86)" fill="#e5e5e5"/>
    <path id="Pfad_256" data-name="Pfad 256" d="M304.31,221.67s14.75-1.25,21.51-10.63c6.59-9.13,11.07-9.24,11.29-9.24h0c.17-1.22.29-2.38.37-3.46v-.15a2,2,0,0,1-.93.41c-1.32.2-2.48-1.05-3.14-2.38a18.569,18.569,0,0,0-2-3.94c-1.63-1.88-4.3-1.89-6.24-3.32a8.58,8.58,0,0,1-3-5.72,15.743,15.743,0,0,1-.12-2.5,27.681,27.681,0,0,1,.42-5.33c.52-3.31,1.29-6.7,3.14-9.31s5.47-3.17,7.27-5.64c8.43-11.56,14.44-7.89,21.69-11.77a11.62,11.62,0,0,1,4.64-1.69c2.91-.17,5.51,1.91,7.85,3.89a22.42,22.42,0,0,1,4,4c2.09,2.93,3.26,7.84,3.16,12.14a18.179,18.179,0,0,1-.46,4.75c-.58,2.3-2.15,2.15-3.87,1.63a20.78,20.78,0,0,1-7.06,26.08v1.05a1.824,1.824,0,0,0,0,.23,47.341,47.341,0,0,0,.16,4.78c.17.09,16.34,9.26,18.17,13.61s8.61,7.5,8.61,7.5,7.45,4,11,16.56l-.21.25a64.138,64.138,0,0,1-5.81,6.12l-.33.32a67.869,67.869,0,0,1-12.34,9c-.32.19-.65.38-1,.56l-.19.1a65.38,65.38,0,0,1-9.4,4.23l-.85.31h-.1c-.93.33-1.87.62-2.82.9h-.1a66.219,66.219,0,0,1-15.77,2.62c-1,.05-2,.07-3.07.07A66.65,66.65,0,0,1,331,265.39c-.3-.07-.59-.16-.88-.24l-.23-.07c-.57-.16-1.15-.34-1.71-.53l-.91-.29a67.425,67.425,0,0,1-20.17-11.01l-.18-.13a67.13,67.13,0,0,1-7.26-6.7q-.43-.44-.84-.92c-.55-.6-1.09-1.21-1.61-1.83-1-1.15-1.9-2.32-2.79-3.53C299.77,219.61,304.31,221.67,304.31,221.67Z" transform="translate(-43.2 -23.86)" fill="url(#linear-gradient-6)"/>
    <path id="Pfad_257" data-name="Pfad 257" d="M355.31,238.41l21.51-16.59s-14.41,3.09-14-19.94a1.774,1.774,0,0,1,0-.23,58.925,58.925,0,0,1,.5-6.87c3.69-30.73-25.81-3.69-25.81-3.69a44,44,0,0,1,0,8.18v.22a57.14,57.14,0,0,1-6.14,21.71C323.36,236.56,355.31,238.41,355.31,238.41Z" transform="translate(-43.2 -23.86)" fill="#fdc2cc"/>
    <path id="Pfad_258" data-name="Pfad 258" d="M340.26,195c3.65,3.55,5.88,10,11.37,10a20.15,20.15,0,0,0,11.17-3.35,58.925,58.925,0,0,1,.5-6.87c3.69-30.73-25.81-3.69-25.81-3.69S340.65,190,340.26,195Z" transform="translate(-43.2 -23.86)" opacity="0.1"/>
    <circle id="Ellipse_57" data-name="Ellipse 57" cx="20.28" cy="20.28" r="20.28" transform="translate(288.15 139.58)" fill="#fdc2cc"/>
    <path id="Pfad_259" data-name="Pfad 259" d="M371.08,157.75a22.251,22.251,0,0,0-4-3.92c-2.34-1.95-4.94-4-7.85-3.82a11.75,11.75,0,0,0-4.64,1.66c-7.25,3.82-13.26.21-21.69,11.57-1.8,2.43-5.41,3-7.27,5.55s-2.61,5.9-3.14,9.16a22.46,22.46,0,0,0-.31,6.7,8.39,8.39,0,0,0,3,5.62c1.94,1.41,4.61,1.42,6.24,3.27a18.149,18.149,0,0,1,2,3.87c.66,1.3,1.82,2.53,3.14,2.34s2.11-1.62,2.3-3a18.442,18.442,0,0,0-.25-4.27c-.25-2.53.07-5.29,1.56-7.2,1-1.31,2.5-2.09,3.49-3.42,2.38-3.21,1.3-8.6,3.91-11.58a6.19,6.19,0,0,1,6-1.67,25.57,25.57,0,0,1,6,2.58,44.518,44.518,0,0,0,8.21,3.17c2.38.65,5.14,2.21,5.95-1C375,168.64,373.81,161.52,371.08,157.75Z" transform="translate(-43.2 -23.86)" opacity="0.1"/>
    <path id="Pfad_260" data-name="Pfad 260" d="M371.08,156.75a22.251,22.251,0,0,0-4-3.92c-2.34-1.95-4.94-4-7.85-3.82a11.75,11.75,0,0,0-4.64,1.66c-7.25,3.82-13.26.21-21.69,11.57-1.8,2.43-5.41,3-7.27,5.55s-2.61,5.9-3.14,9.16a22.46,22.46,0,0,0-.31,6.7,8.39,8.39,0,0,0,3,5.62c1.94,1.41,4.61,1.42,6.24,3.27a18.149,18.149,0,0,1,2,3.87c.66,1.3,1.82,2.53,3.14,2.34s2.11-1.62,2.3-3a18.442,18.442,0,0,0-.25-4.27c-.25-2.53.07-5.29,1.56-7.2,1-1.31,2.5-2.09,3.49-3.42,2.38-3.21,1.3-8.6,3.91-11.58a6.19,6.19,0,0,1,6-1.67,25.57,25.57,0,0,1,6,2.58,44.519,44.519,0,0,0,8.21,3.17c2.38.65,5.14,2.21,5.95-1C375,167.64,373.81,160.52,371.08,156.75Z" transform="translate(-43.2 -23.86)" fill="#865a61"/>
    <path id="Pfad_261" data-name="Pfad 261" d="M331.35,249.08l-.4,15.35a67.709,67.709,0,0,0,17.83,2.37c1,0,2.05,0,3.07-.07a67.24,67.24,0,0,0,15.77-2.58h.1c.95-.28,1.89-.57,2.82-.89h.1l.85-.3a65.924,65.924,0,0,0,9.4-4.16l.19-.1c.33-.18.66-.36,1-.55l-1.55-20.69L383,223.27l-13.52-9.21a23.806,23.806,0,0,1-2.54,3.08,17,17,0,0,1-4.62,3.42c-9.7,4.78-20.74-2.82-26.23-7.52l-1.25-1.11c-1.42-1.29-2.23-2.17-2.23-2.17l-6.76,10.44Z" transform="translate(-43.2 -23.86)" opacity="0.1"/>
    <path id="Pfad_262" data-name="Pfad 262" d="M331.35,250.08l-.4,15.35a67.709,67.709,0,0,0,17.83,2.37c1,0,2.05,0,3.07-.07a67.24,67.24,0,0,0,15.77-2.58h.1c.95-.28,1.89-.57,2.82-.89h.1l.85-.3a65.922,65.922,0,0,0,9.4-4.16l.19-.1c.33-.18.66-.36,1-.55l-1.55-20.69L383,224.27l-13.52-9.21a23.807,23.807,0,0,1-2.54,3.08,17,17,0,0,1-4.62,3.42c-9.7,4.78-20.74-2.82-26.23-7.52l-1.25-1.11c-1.42-1.29-2.23-2.17-2.23-2.17l-6.76,10.44Z" transform="translate(-43.2 -23.86)" fill="#53526b"/>
    <path id="Pfad_263" data-name="Pfad 263" d="M294.36,240.58c.89,1.19,1.82,2.34,2.79,3.47.52.61,1.06,1.21,1.61,1.8q.41.46.84.9a66.715,66.715,0,0,0,7.26,6.59l.18.13a67.71,67.71,0,0,0,20.14,10.82l.91.29c.56.19,1.14.36,1.71.52l.23.07c.29.08.58.17.88.24a67.71,67.71,0,0,0,17.83,2.37c1,0,2.05,0,3.07-.07.78-12.76,1-23-.22-25.63a41.251,41.251,0,0,0-2.47-4.42c-4.94-7.94-14-19.88-13.51-21.39a15.656,15.656,0,0,0,.41-2.25c.53-3.94,1.06-11.15,1.06-11.15h0c-.22,0-4.7.11-11.29,9.09-6.76,9.22-21.51,10.45-21.51,10.45S299.77,220.41,294.36,240.58Z" transform="translate(-43.2 -23.86)" fill="#555388"/>
    <path id="Pfad_264" data-name="Pfad 264" d="M368.83,251.31s.74,5.89,1.71,12.93h.1l.85-.3a65.925,65.925,0,0,0,9.4-4.16l.19-.1c.33-.18.66-.36,1-.55a67.828,67.828,0,0,0,12.34-8.88l.33-.31a63.541,63.541,0,0,0,5.81-6l.21-.25c-3.57-12.39-11-16.29-11-16.29s-6.76-3.08-8.61-7.38-18.18-13.39-18.18-13.39v.07c0,.77-.26,7.82-.65,14.91-.25,4.61-.56,9.24-.92,12.18a14.23,14.23,0,0,1-.52,2.82C359.62,239.64,368.83,251.31,368.83,251.31Z" transform="translate(-43.2 -23.86)" fill="#555388"/>
  </g>
</svg>
