<svg xmlns="http://www.w3.org/2000/svg" xmlns:xlink="http://www.w3.org/1999/xlink" width="3573.547" height="2381.907" viewBox="0 0 3573.547 2381.907">
  <defs>
    <linearGradient id="linear-gradient" x1="0.5" y1="1" x2="0.5" gradientUnits="objectBoundingBox">
      <stop offset="0" stop-color="gray" stop-opacity="0.251"/>
      <stop offset="0.54" stop-color="gray" stop-opacity="0.122"/>
      <stop offset="1" stop-color="gray" stop-opacity="0.102"/>
    </linearGradient>
    <linearGradient id="linear-gradient-2" x1="0.5" y1="1" x2="0.5" xlink:href="#linear-gradient"/>
  </defs>
  <g id="Gruppe_23" data-name="Gruppe 23" transform="translate(-0.121 -29.018)">
    <ellipse id="Ellipse_115" data-name="Ellipse 115" cx="295.263" cy="47.427" rx="295.263" ry="47.427" transform="translate(106.063 2058.803)" fill="#6c63ff" opacity="0.1"/>
    <ellipse id="Ellipse_116" data-name="Ellipse 116" cx="523.534" cy="50.838" rx="523.534" ry="50.838" transform="translate(2526.6 2309.249)" fill="#6c63ff" opacity="0.1"/>
    <rect id="Rechteck_244" data-name="Rechteck 244" width="3178.496" height="1800.511" rx="12.49" transform="translate(387.413 29.018)" fill="url(#linear-gradient)"/>
    <rect id="Rechteck_245" data-name="Rechteck 245" width="3168.763" height="1769.205" rx="12.49" transform="translate(392.463 54.337)" fill="#fff"/>
    <rect id="Rechteck_246" data-name="Rechteck 246" width="3168.763" height="1769.205" rx="12.49" transform="translate(392.463 54.337)" fill="#fff"/>
    <rect id="Rechteck_247" data-name="Rechteck 247" width="3168.763" height="1769.205" rx="12.49" transform="translate(392.463 54.337)" fill="#fff" opacity="0.04"/>
    <path id="Pfad_141" data-name="Pfad 141" d="M3297.295,149.29H160.708a16.088,16.088,0,0,0-16.088,16.088v68H3313.25v-68a16.088,16.088,0,0,0-15.955-16.087Z" transform="translate(247.843 -115.255)" fill="#5a5773"/>
    <g id="buttons" transform="translate(434.004 54.337)">
      <circle id="Ellipse_117" data-name="Ellipse 117" cx="21.74" cy="21.74" r="21.74" fill="#fff"/>
      <circle id="Ellipse_118" data-name="Ellipse 118" cx="21.74" cy="21.74" r="21.74" transform="translate(58.531)" fill="#fff"/>
      <circle id="Ellipse_119" data-name="Ellipse 119" cx="21.74" cy="21.74" r="21.74" transform="translate(117.062)" fill="#fff"/>
    </g>
    <rect id="Rechteck_248" data-name="Rechteck 248" width="850.37" height="72.177" transform="translate(653.444 276.253)" fill="#6c63ff" opacity="0.2"/>
    <rect id="Rechteck_249" data-name="Rechteck 249" width="2646.801" height="1110.281" transform="translate(653.444 565.663)" fill="#5a5773" opacity="0.1"/>
    <path id="Pfad_142" data-name="Pfad 142" d="M1056.1,520.187H1010.78v-88.03c0-99.336-79.2-181.914-178.537-183.42A181.547,181.547,0,0,0,648.791,429.715v90.472h-45.22a75.656,75.656,0,0,0-75.422,75.422V957.563a75.656,75.656,0,0,0,75.422,75.421H1056.1a75.621,75.621,0,0,0,75.388-75.421V595.608A75.621,75.621,0,0,0,1056.1,520.187ZM856.258,755.481V885.118a27.058,27.058,0,0,1-25.085,27.159,26.457,26.457,0,0,1-27.694-26.423V755.414a60.2,60.2,0,1,1,52.779,0Zm101.81-235.295h-256.5V429.715a128.2,128.2,0,1,1,256.4,0Z" transform="translate(1147.077 117.888)" opacity="0.1"/>
    <path id="Pfad_143" data-name="Pfad 143" d="M1056.1,518.186H1010.78v-88.03c0-99.335-79.2-181.914-178.537-183.419A181.547,181.547,0,0,0,648.791,427.714v90.472h-45.22a75.657,75.657,0,0,0-75.422,75.422V955.562a75.656,75.656,0,0,0,75.422,75.422H1056.1a75.621,75.621,0,0,0,75.388-75.422V593.608A75.622,75.622,0,0,0,1056.1,518.186ZM856.258,753.48V883.118a27.058,27.058,0,0,1-25.085,27.158,26.456,26.456,0,0,1-27.694-26.422V753.414a60.2,60.2,0,1,1,52.779,0Zm101.81-235.294h-256.5V427.714a128.2,128.2,0,0,1,256.4,0Z" transform="translate(1147.077 113.198)" fill="#2e313f"/>
    <rect id="Rechteck_250" data-name="Rechteck 250" width="267.904" height="63.247" transform="translate(3032.341 458.802)" fill="#5a5773" opacity="0.1"/>
    <path id="Pfad_144" data-name="Pfad 144" d="M1495.975,2162.437a95.236,95.236,0,0,0-8.963-25.452l-40.137-59.936h.234s-6.321-30.1,0-44.885-22.542-51.139-22.542-51.139-3.512-9.131,5.652-20.369-5.652-44.15-5.652-44.15-7.025-68.732-7.727-79.234-6.354-68.7-6.354-68.7l-13.378-123.384-23.814-327-.435-6.121c2.943-1.438,4.515-2.342,4.515-2.342l-4.749-180.81,4.114-3.713c35.922-32.51,118.768-107.764,117.931-109.4s-10.034-125.657-11.1-156.7a186.765,186.765,0,0,0-14.247-64.149c-2.074-4.114-8.061-31.239-10.536-42.711-.67-3.144-1.1-5.117-1.1-5.117S1433.4,700.836,1435.5,679.8s6.321-36.79-45.454-44.149c0,0-43.479-6.489-69.367-24.182a197.324,197.324,0,0,0-49.7-24.884s-14.516-26.757-24.616-17.693a140.369,140.369,0,0,1-9.532-29.8l-.3-1.873a98.561,98.561,0,0,0,38.932-55.721c.335-1.271.6-2.576.9-3.846a10.878,10.878,0,0,0,3.109.568c8.8,0,14.216-9.8,22.444-12.91,3.344-1.3,7.458-1.505,10.034-4.147a9.809,9.809,0,0,0,2.207-7.392,15.36,15.36,0,0,0,0-2.743q.022-.485,0-.97v.334c-2.241-12.174-11.673-22.978-10.636-35.353,1-11.639,11.238-21.874,10.4-33.213a18.031,18.031,0,0,0-.234-2.675v.4a28.631,28.631,0,0,0-6.689-11.84,38,38,0,0,0-13.78-11.573c-4.649-2.041-10.034-2.508-14.382-4.95-12.776-6.957-12.743-25.085-20.336-37.46a33.141,33.141,0,0,0-31-15.352c-9.5.936-18.1,5.987-27.494,7.626-12.843,2.274-25.92-1.906-38.094-6.689S1137.4,289.28,1124.32,289.28s-27.225,6.689-31.172,19.031c-2.106,6.689-1.071,13.88-2.676,20.67-2.876,11.973-13.378,20.536-24.247,26.489-6.689,3.712-14.651,7.96-16.723,14.984v-.535a10.275,10.275,0,0,0-.335,3.947c0,4.816,2.542,9.4,4.248,13.981a38.565,38.565,0,0,1-.2,26.957c-2.474,6.355-6.689,11.94-9.1,18.262a35.981,35.981,0,0,0-2.207,9.164v-.536a36.776,36.776,0,0,0,0,4.281,30.108,30.108,0,0,0,3.345,14.048,25.217,25.217,0,0,0,15.017,12.609c6.689,1.538,10.87-5.017,17.927-3.345a28.2,28.2,0,0,1,3.713,1.171c.234,1.5.469,3.01.736,4.481a98.3,98.3,0,0,0,33.914,57.428,21.38,21.38,0,0,0,.368,2.441h0a224.388,224.388,0,0,1,2.775,40.336s-10.534-15.419-24.983,14.349c0,0-37.694,21.74-50.7,24.215s-59.2,18.562-59.2,18.562A40.74,40.74,0,0,1,960.868,640c-14.414,0-26.388,31.54-24.649,48.7s-1.037,29.8-14.449,30.5-6.087,27.894-5.987,28.362l-1.238,5.853c-2.609,11.974-8.295,37.66-10.3,41.674a187.346,187.346,0,0,0-14.282,64.15c-1.036,31.038-10.033,154.588-11.069,156.7-.7,1.371,56.056,53.247,95.956,89.5l5.787,5.218-18.362,171.513a45.786,45.786,0,0,0,18.862,33.446c0,2.007,0,4.047-.2,6.154-.8,20.068-2.408,44.35-5.619,50.7-5.619,11.238-4.215,71.508-4.215,71.508S965.45,1566.659,958.428,1580s-8.464,41.339-6.356,46.825-7.056,152.816-7.056,152.816l-7.024,65.923s2.107,63.079-4.249,64.485-9.865,44.885-9.865,44.885-22.51,30.837-12.676,42.042-1.439,16.154-2.474,18.931-21.473,13.379-6.691,52.578a11.942,11.942,0,0,0,.469,1.137c-13.847,19.231-57.729,81.274-55.052,90.706a24.848,24.848,0,0,0,11.706,14.048c10.336,6.187,28.062,9.064,56.257,0,46.824-15.084,43.481-25.954,43.481-25.954a19.867,19.867,0,0,1,19.732-18.931c19.366-1.4,33.814-19.264,33.814-19.264l-2.274-8.463-3.111-11.706c.368-3.344,2.744-9.2,13.378-12.441,16.221-4.917,11.975-35.754,11.975-35.754s-1.406-32.242,5.619-36.456,4.248-57.494,4.248-57.494,7.76-38.563,19-64.518,24.683-180.142,24.683-180.142,9.132-75.723,17.593-97.462,16.221-82.713,16.221-82.713,52.143-100.974,52.812-123.417c0,0,6.689-21.037,13.378,2.107s25.487,78.532,25.487,78.532l18.295,68,21.84,101.643L1265.7,1735.5s-2.141,32.242,3.344,43.48,13.38,37.125,9.165,42.042,8.428,28.061,11.975,32.945,0,108.666,0,108.666,16.188,88.331,39.434,103.683a28.394,28.394,0,0,0,5.15,2.677c-.335,9.565-.67,22.375-.235,29.065a11.125,11.125,0,0,0,.737,4.381c2.106,2.81,26.053,21.741,31,21.741s22.508,12.274,23.245,18.228,51.474,31.172,58.665,31.907,42.041,6.99,46.824-2.81A16.228,16.228,0,0,0,1495.975,2162.437ZM1371.322,899.106l3.612,3.11s3.713,28.931,6.355,37.594-.537,25.519-.537,25.519a58.781,58.781,0,0,0,3.713,18.4c3.145,6.321-6.354,20.067-6.354,20.067h-8.463l-2.641-108.3ZM1119.7,575.747v-.635a2.163,2.163,0,0,0-.1.635ZM989.766,992.654a12.21,12.21,0,0,1-.535-8.93,26.843,26.843,0,0,0,1.774-4.95,76.747,76.747,0,0,0,1.939-13.379.879.879,0,0,0,0-.167c-.3-1.606-3.011-17.125-.5-25.353s6.321-37.593,6.321-37.593l2.409-2.04,5.585-4.849a39.664,39.664,0,0,1,.4-4.783c1.169,25.419,2.106,53.514.6,54.919-2.811,2.776-13.045,30.1-10.57,31.172.8.368-.3,11.3-2.173,26.021A53.316,53.316,0,0,1,989.766,992.654Z" transform="translate(1895.446 212.969)" fill="url(#linear-gradient-2)"/>
    <path id="Pfad_145" data-name="Pfad 145" d="M1077.438,458.159v41.607l-85.354,42.912S907.331,491.4,928.233,471c13.381-12.91,10.8-48.363,7.192-72.746h0c-2.109-14.181-4.549-24.583-4.549-24.583s152.247-43.48,129.235-10.468c-7.692,11.036-8.293,25.318-5.718,39.466C1059.611,430.733,1077.438,458.159,1077.438,458.159Z" transform="translate(2077.35 357.28)" fill="#c37098"/>
    <path id="Pfad_146" data-name="Pfad 146" d="M1001.5,688.787,990.5,824.311s-16.489-14.951-37.827-34.416c-39.567-36.088-95.756-87.7-95.088-89.067,1.037-2.107,10.033-125.056,11-155.96A186.611,186.611,0,0,1,882.7,481.052c2.007-4.013,7.658-29.566,10.033-41.506.8-3.713,1.306-6.121,1.306-6.121L912.5,426s76.926,85.823,76.926,87.395-5.25,67.495-5.25,67.495l-5.452,4.75-2.374,2.04s-3.68,28.8-6.288,37.426.2,23.614.5,25.219h0a77.867,77.867,0,0,1-1.907,13.379,27.972,27.972,0,0,1-1.774,4.917,12.282,12.282,0,0,0,.535,8.9,53.811,53.811,0,0,0,5.752,11Z" transform="translate(1919.461 533.526)" fill="#3f3d56"/>
    <path id="Pfad_147" data-name="Pfad 147" d="M1140.818,700.757c.8,1.639-81.241,76.525-116.793,108.868L1007.9,824.241,997,688.717h28.261s9.432-13.613,6.289-19.9a58.17,58.17,0,0,1-3.646-18.295s3.111-16.723.5-25.386-6.289-37.427-6.289-37.427l-3.579-3.077-4.247-3.712s-5.251-65.923-5.251-67.495,76.926-87.4,76.926-87.4l18.329,7.325s.4,1.973,1.069,5.117c2.475,11.405,8.4,38.4,10.436,42.51a186.6,186.6,0,0,1,14.113,63.815C1130.785,575.7,1139.748,698.65,1140.818,700.757Z" transform="translate(2246.353 533.596)" fill="#3f3d56"/>
    <path id="Pfad_148" data-name="Pfad 148" d="M1151.78,932.085c-4.917,9.765-39.434,3.345-46.557,2.809s-57.428-25.853-58.13-31.774-18.127-18.127-23.01-18.127-28.6-18.864-30.7-21.641a10.663,10.663,0,0,1-.7-4.348c-.735-11.472.7-41,.7-41l101.174,5.585,49.166,73.95a95.3,95.3,0,0,1,8.9,25.318,16.718,16.718,0,0,1-.833,9.232Z" transform="translate(2235.726 1452.619)" fill="#3f3d56"/>
    <path id="Pfad_149" data-name="Pfad 149" d="M1151.78,932.085c-4.917,9.765-39.434,3.345-46.557,2.809s-57.428-25.853-58.13-31.774-18.127-18.127-23.01-18.127-28.6-18.864-30.7-21.641a10.663,10.663,0,0,1-.7-4.348c-.735-11.472.7-41,.7-41l101.174,5.585,49.166,73.95a95.3,95.3,0,0,1,8.9,25.318,16.718,16.718,0,0,1-.833,9.232Z" transform="translate(2235.726 1452.619)" opacity="0.1"/>
    <path id="Pfad_150" data-name="Pfad 150" d="M1151.643,903.339c-4.917,9.766-39.434,3.344-46.558,2.81s-57.427-25.855-58.129-31.775-18.128-18.127-23.01-18.127-28.6-18.864-30.705-21.64a10.7,10.7,0,0,1-.7-4.347L1025.315,851s20.938,13.379,26.523,21.3,49.6,24.417,53.247,24.75c2.708.269,31.606-5.285,47.395-2.943A16.732,16.732,0,0,1,1151.643,903.339Z" transform="translate(2235.864 1481.364)" opacity="0.1"/>
    <path id="Pfad_151" data-name="Pfad 151" d="M1011.6,868.49s-14.314,17.792-33.446,19.164a19.7,19.7,0,0,0-19.534,18.831s3.345,10.836-42.911,25.854c-27.927,9-45.487,6.154-55.722,0a24.9,24.9,0,0,1-11.607-13.981c-3.144-11.137,58.6-95.923,58.6-95.923l56.189-3.345,40.135,18.128,6.154,22.977Z" transform="translate(1897.627 1455.174)" fill="#3f3d56"/>
    <path id="Pfad_152" data-name="Pfad 152" d="M1011.6,868.49s-14.314,17.792-33.446,19.164a19.7,19.7,0,0,0-19.534,18.831s3.345,10.836-42.911,25.854c-27.927,9-45.487,6.154-55.722,0a24.9,24.9,0,0,1-11.607-13.981c-3.144-11.137,58.6-95.923,58.6-95.923l56.189-3.345,40.135,18.128,6.154,22.977Z" transform="translate(1897.627 1455.174)" opacity="0.1"/>
    <path id="Pfad_153" data-name="Pfad 153" d="M1003.382,839.769s-14.316,17.793-33.447,19.165a19.7,19.7,0,0,0-19.532,18.83s3.344,10.836-42.911,25.854c-27.928,9-45.487,6.154-55.722,0,26.322-2.742,84.485-19.365,90.3-25.118,6.991-6.991,15.72-26.189,21.639-26.524,4.115-.267,25.019-12.843,37.561-20.636Z" transform="translate(1905.844 1483.895)" fill="none"/>
    <path id="Pfad_154" data-name="Pfad 154" d="M1003.382,839.769s-14.316,17.793-33.447,19.165a19.7,19.7,0,0,0-19.532,18.83s3.344,10.836-42.911,25.854c-27.928,9-45.487,6.154-55.722,0,26.322-2.742,84.485-19.365,90.3-25.118,6.991-6.991,15.72-26.189,21.639-26.524,4.115-.267,25.019-12.843,37.561-20.636Z" transform="translate(1905.844 1483.895)" opacity="0.1"/>
    <path id="Pfad_155" data-name="Pfad 155" d="M1408.378,1368.737c-6.289,14.649,0,44.651,0,44.651s-93.65,4.882-116.528-10.469-39.065-103.282-39.065-103.282,3.345-103.248,0-108.131-16.054-27.895-11.874-32.778-3.344-30.7-9.064-41.874-3.344-43.247-3.344-43.247l-13.981-85.154-21.605-101.142-18.363-67.694s-18.829-55.119-25.219-78.131-13.145-2.105-13.145-2.105c-.669,22.341-52.308,122.813-52.308,122.813s-7.693,60.705-16.055,82.312-17.458,96.993-17.458,96.993-13.379,153.486-24.417,179.306-18.631,64.184-18.631,64.184,2.81,53.045-4.18,57.227-5.854,36.289-5.854,36.289,4.18,30.67-11.873,35.588-13.378,15.352-13.378,15.352-89.3,14.649-103.951-24.45,5.586-49.5,6.69-52.309,12.241-7.66,2.476-18.864,12.542-41.841,12.542-41.841,3.511-43.247,9.765-44.651,4.215-64.184,4.215-64.184l6.956-65.588s9.1-146.528,6.991-152.113-.7-33.446,6.288-46.824,12.542-135.391,12.542-135.391-1.4-59.968,4.18-71.14c3.345-6.322,4.75-30.637,5.553-50.471.6-15.151.736-27.694.736-27.694l78.131-29.3,100.338-32.075,84.419,40.47,123.516,23.713,1.538,21.3,23.58,325.465,13.378,122.782s5.586,57.9,6.289,68.364,7.658,78.866,7.658,78.866,14.649,32.777,5.585,43.948-5.585,20.068-5.585,20.068S1414.665,1354.088,1408.378,1368.737Z" transform="translate(1931.668 877.13)" fill="#3f3d56"/>
    <path id="Pfad_156" data-name="Pfad 156" d="M1055.956,363.2c-7.692,11.037-8.295,25.319-5.72,39.467a98.131,98.131,0,0,1-118.968-4.449h0c-2.107-14.181-4.549-24.583-4.549-24.583S1078.967,330.222,1055.956,363.2Z" transform="translate(2081.574 357.286)" opacity="0.1"/>
    <path id="Pfad_157" data-name="Pfad 157" d="M1113.394,410.468a97.529,97.529,0,1,1-28.564-69.433A98,98,0,0,1,1113.394,410.468Z" transform="translate(2059.721 267.34)" fill="#c37098"/>
    <path id="Pfad_158" data-name="Pfad 158" d="M1124.13,351.663l-32.109,571.763L917.6,886.8,883.05,657.6,917.265,349.89l25.753,3.311,45.42,5.786,44.986,2.776,48.764-5.419Z" transform="translate(2069.388 488.995)" opacity="0.1"/>
    <path id="Pfad_159" data-name="Pfad 159" d="M1124.13,352.889l-32.109,571.764L917.6,888.029,883.05,658.823,917.265,351.15l25.753,3.278,45.42,5.786,44.986,2.776,48.764-5.418Z" transform="translate(2069.388 491.949)" fill="#d1d9d5"/>
    <path id="Pfad_160" data-name="Pfad 160" d="M939.23,396.3l62.811,2.107-17.659,24.717s1.237,49.936,9.633,64.25,5.918,235.461,5.918,235.461l-16.723,31.74-28.6-35.586L954.982,427Z" transform="translate(2110.904 463.891)" fill="#3f3d56"/>
    <path id="Pfad_161" data-name="Pfad 161" d="M939.23,396.3l62.811,2.107-17.659,24.717s1.237,49.936,9.633,64.25,5.918,235.461,5.918,235.461l-16.723,31.74-28.6-35.586L954.982,427Z" transform="translate(2110.904 463.891)" opacity="0.1"/>
    <path id="Pfad_162" data-name="Pfad 162" d="M982.747,336.86l-58.6,64.886,33.48,34.884,55.487-54.082Z" transform="translate(2165.752 458.445)" opacity="0.1"/>
    <path id="Pfad_163" data-name="Pfad 163" d="M982.747,335.61l-58.6,64.886,33.48,34.884,55.487-54.082Z" transform="translate(2165.752 455.514)" fill="#d1d9d5"/>
    <path id="Pfad_164" data-name="Pfad 164" d="M962.259,396.89l-59.333-59.3-5.586,31.038,27.225,68.03Z" transform="translate(2102.893 460.157)" opacity="0.1"/>
    <path id="Pfad_165" data-name="Pfad 165" d="M962.856,395.64l-59.3-59.3-5.586,31.038,27.226,68.03Z" transform="translate(2104.37 457.226)" fill="#d1d9d5"/>
    <path id="Pfad_166" data-name="Pfad 166" d="M1276.707,658.068A289.542,289.542,0,0,1,1186.4,684.19c-57.56,7.325-95.221-65.922-95.221-65.922l-21.975,28.6c-6.99,30.369-113.382,38.027-156.628,26.521a69.182,69.182,0,0,1-24.817-11.74c.6-15.151.736-27.693.736-27.693l78.13-29.3,100.338-32.074,84.418,40.468L1274.9,636.762Z" transform="translate(1990.227 877.201)" opacity="0.1"/>
    <path id="Pfad_167" data-name="Pfad 167" d="M1151.146,392.963l-32.075,571.73L944.616,928.069,910,698.9,944.183,391.19l25.753,3.345a312.328,312.328,0,0,1-3.78,33.446c-4.18,19.566,21.641,158.4,21.641,158.4s49.066,155.692,71.14,133.25,53.513-140.942,53.513-140.942c21.307-43.949.369-167.232-1.2-169.706a49.8,49.8,0,0,1-2.007-11.2Z" transform="translate(2042.371 451.91)" opacity="0.1"/>
    <path id="Pfad_168" data-name="Pfad 168" d="M1022.519,569.556l1.471,56.022-16.121,14.616L997,504.57h24.082Z" transform="translate(2246.353 717.743)" opacity="0.1"/>
    <path id="Pfad_169" data-name="Pfad 169" d="M893.147,493.1h0a77.869,77.869,0,0,1-1.907,13.379c0-1.237,0-1.94-.267-2.041C889.97,504.171,891.174,499.053,893.147,493.1Z" transform="translate(1996.914 690.85)" opacity="0.1"/>
    <path id="Pfad_170" data-name="Pfad 170" d="M934.841,512.283l-11,135.524s-16.489-14.949-37.828-34.416l2.542-24.014s9-59,12.275-88.1a53.743,53.743,0,0,0,5.753,11Z" transform="translate(1986.124 710.029)" opacity="0.1"/>
    <path id="Pfad_171" data-name="Pfad 171" d="M1071.8,382.514s-10.435-15.352-24.75,14.281c0,0-37.327,21.64-50.17,24.081s-58.531,18.5-58.531,18.5a40.4,40.4,0,0,1-23.714,7.659c-14.314,0-26.187,31.406-24.448,48.5s-1.037,29.667-14.282,30.37-5.953,28.229-5.953,28.229L958.218,655.3s5.586,93.148,2.81,95.958-12.91,30.1-10.469,31.038-13.378,103.951-13.378,103.951l-21.273,199.908s0,33.446,43.28,44.985,149.738,3.913,156.595-26.456l21.974-28.63s37.66,73.281,95.222,65.956,94.218-28.262,94.218-28.262l-6.288-239.575-4.18-172.683,89.87-147.665s-24.082-46.056-21.975-66.893,6.255-36.623-45.018-43.948c0,0-43.246-6.455-68.732-24.081a196.439,196.439,0,0,0-49.166-24.751s-14.382-26.757-24.384-17.592c0,0,10.035,37.827,9.2,43.48s1.572,31.205,3.144,33.847,22.509,125.758,1.2,169.706c0,0-31.272,118.5-53.514,140.943s-71.141-133.25-71.141-133.25-25.82-138.868-21.64-158.4S1071.8,382.514,1071.8,382.514Z" transform="translate(1943.783 413.126)" fill="#3f3d56"/>
    <circle id="Ellipse_120" data-name="Ellipse 120" cx="15.352" cy="15.352" r="15.352" transform="translate(3074.885 1222.313)" fill="#3f3d56"/>
    <circle id="Ellipse_121" data-name="Ellipse 121" cx="15.352" cy="15.352" r="15.352" transform="translate(3074.885 1294.69)" fill="#3f3d56"/>
    <circle id="Ellipse_122" data-name="Ellipse 122" cx="15.352" cy="15.352" r="15.352" transform="translate(3074.885 1222.313)" opacity="0.1"/>
    <circle id="Ellipse_123" data-name="Ellipse 123" cx="15.352" cy="15.352" r="15.352" transform="translate(3074.885 1294.69)" opacity="0.1"/>
    <path id="Pfad_172" data-name="Pfad 172" d="M992.47,804.339s63.013,4.884,69.267,9.767S992.47,804.339,992.47,804.339Z" transform="translate(2235.732 1420.591)" stroke="#6c63ff" stroke-miterlimit="10" stroke-width="1" opacity="0.1"/>
    <path id="Pfad_173" data-name="Pfad 173" d="M880.3,789.53s13.378,16.723,7.693,24.416S880.3,789.53,880.3,789.53Z" transform="translate(1972.735 1385.867)" stroke="#6c63ff" stroke-miterlimit="10" stroke-width="1" opacity="0.1"/>
    <path id="Pfad_174" data-name="Pfad 174" d="M885.1,813.9s24.416-16.055,34.182-5.385S885.1,813.9,885.1,813.9Z" transform="translate(1983.99 1421.8)" stroke="#6c63ff" stroke-miterlimit="10" stroke-width="1" opacity="0.1"/>
    <path id="Pfad_175" data-name="Pfad 175" d="M1113.351,410.445a97.463,97.463,0,0,1-3.145,24.783,11.14,11.14,0,0,1-6.489-10.9c.435-3.98,3.077-7.626,2.509-11.572-.836-6.088-8.195-8.562-12.075-13.379-4.782-5.82-3.745-14.282-3.344-21.807s-1.506-16.723-8.562-19.3c-2.108-.769-4.415-.836-6.456-1.706-5.551-2.341-7.257-9.231-10.971-13.981-7.423-9.565-22.174-9.365-33.445-4.816a159.188,159.188,0,0,1-15.051,6.288,19.668,19.668,0,0,1-15.755-1.171c-2.207-1.4-3.98-3.345-6.255-4.749-7.557-4.549-17.458,0-24.014,5.854s-11.806,13.713-20.067,17.292c-3.714,1.672-8.295,2.676-10.035,6.288a13.2,13.2,0,0,0-1.071,6.254c0,13.011,1.54,26.223-1.17,38.965-1.739,8.194-7.491,17.492-15.819,16.489a15.585,15.585,0,0,1-3.044-.769,98,98,0,1,1,194.323-18.127Z" transform="translate(2059.766 267.364)" opacity="0.1"/>
    <path id="Pfad_176" data-name="Pfad 176" d="M942.105,470.924c2.508.568,4.884,1.873,7.458,2.207,8.329,1,14.082-8.3,15.82-16.489,2.71-12.744,1.3-25.955,1.2-38.965a12.744,12.744,0,0,1,1.038-6.254c1.906-3.613,6.489-4.616,10.033-6.288,8.094-3.612,13.378-11.3,20.068-17.292s16.422-10.4,23.982-5.853c2.241,1.338,4.046,3.345,6.255,4.75a20.065,20.065,0,0,0,15.786,1.171c5.185-1.539,10.035-4.248,15.017-6.288,11.172-4.549,25.954-4.716,33.446,4.783,3.714,4.783,5.419,11.639,10.971,13.981,2.041.869,4.349.97,6.455,1.739,7.059,2.642,8.863,11.773,8.563,19.3s-1.3,15.988,3.344,21.807c3.88,4.75,11.238,7.224,12.075,13.379.535,3.947-2.075,7.625-2.509,11.572a11.1,11.1,0,0,0,10.468,11.84c8.7,0,14.081-9.733,22.209-12.844,3.345-1.3,7.392-1.505,10.033-4.148a11.076,11.076,0,0,0,2.074-9.063c-1.639-12.81-11.907-23.948-10.8-36.791,1.036-12.308,12.442-23.044,10.033-35.152a28.469,28.469,0,0,0-6.688-11.94,38.661,38.661,0,0,0-13.646-11.539c-4.65-2.007-10.035-2.475-14.282-4.917-12.642-6.923-12.609-24.984-20.067-37.293a32.744,32.744,0,0,0-30.5-15.184c-9.4.937-17.927,5.92-27.225,7.593-12.743,2.274-25.653-1.907-37.727-6.69S1000.7,292.02,987.759,292.02s-26.957,6.689-30.9,18.931c-2.074,6.689-1.037,13.847-2.642,20.57-2.809,11.941-13.378,20.435-24.013,26.356-7.326,4.08-16.123,8.762-16.991,17.091-.569,5.284,2.34,10.034,4.181,15.151a38.573,38.573,0,0,1-.2,26.757c-2.442,6.321-6.522,11.873-9,18.161a32.612,32.612,0,0,0,.87,26.757,24.946,24.946,0,0,0,15.284,12.542C930.934,475.907,935.081,469.385,942.105,470.924Z" transform="translate(2032.373 219.393)" fill="#3f3d56"/>
    <g id="Gruppe_21" data-name="Gruppe 21" transform="translate(2938.099 590.705)" opacity="0.1">
      <path id="Pfad_177" data-name="Pfad 177" d="M965.391,350.056c-1.739,8.194-7.525,17.492-15.853,16.489-2.575-.334-4.917-1.638-7.458-2.207-6.99-1.539-11.137,5.017-17.727,3.344a25.018,25.018,0,0,1-15.318-12.542,28.961,28.961,0,0,1-3.111-10.937,30.534,30.534,0,0,0,3.11,17.225,25.022,25.022,0,0,0,15.318,12.543c6.689,1.538,10.736-5.017,17.727-3.345a75.634,75.634,0,0,0,7.458,2.174c8.329,1.037,14.115-8.261,15.854-16.456A96.609,96.609,0,0,0,967,334.37,82.319,82.319,0,0,1,965.391,350.056Z" transform="translate(-905.733 -272.017)"/>
      <path id="Pfad_178" data-name="Pfad 178" d="M914.4,342.734a38.5,38.5,0,0,0-2.207-16.154,85.6,85.6,0,0,1-3.847-10.569,15.405,15.405,0,0,0-.333,1.706c-.569,5.251,2.374,10.034,4.18,15.152A38.349,38.349,0,0,1,914.4,342.734Z" transform="translate(-900.561 -315.065)"/>
      <path id="Pfad_179" data-name="Pfad 179" d="M993.4,318.73c-1.571,9.5-9.263,18.429-10.033,28.429a23.789,23.789,0,0,0,0,5.15C985.039,340.637,995.375,330.3,993.4,318.73Z" transform="translate(-724.035 -308.687)"/>
      <path id="Pfad_180" data-name="Pfad 180" d="M1017.757,339.83a7.863,7.863,0,0,1-1.906,3.746c-2.476,2.643-6.688,2.843-10.035,4.147-8.127,3.111-13.377,12.944-22.209,12.844a11.206,11.206,0,0,1-10.033-7.76,17.588,17.588,0,0,0-.467,2.207,11.1,11.1,0,0,0,10.468,11.807c8.73,0,14.081-9.732,22.209-12.81,3.345-1.3,7.425-1.505,10.033-4.147a11.077,11.077,0,0,0,2.074-9.064C1017.856,340.4,1017.79,340.131,1017.757,339.83Z" transform="translate(-747.822 -259.216)"/>
      <path id="Pfad_181" data-name="Pfad 181" d="M985,356.069c-.836-6.087-8.195-8.562-12.075-13.379a18.323,18.323,0,0,1-3.677-10.97c-.267,6.221-.167,12.576,3.677,17.258s9.7,6.689,11.573,11.505A10.727,10.727,0,0,0,985,356.069Z" transform="translate(-757.012 -278.23)"/>
      <path id="Pfad_182" data-name="Pfad 182" d="M1075.7,358.548c.266-7.526-1.54-16.723-8.6-19.3-2.074-.769-4.381-.869-6.421-1.706-5.552-2.341-7.292-9.232-10.971-13.981-7.458-9.532-22.208-9.365-33.446-4.816-5.016,2.04-9.8,4.75-15.017,6.288a19.669,19.669,0,0,1-15.754-1.171c-2.208-1.4-4.012-3.344-6.254-4.749-7.592-4.549-17.492,0-24.014,5.853s-11.807,13.679-20.068,17.291c-3.746,1.673-8.295,2.676-10.235,6.288a13.134,13.134,0,0,0-1.036,6.254v3.913a9.49,9.49,0,0,1,.97-3.88c1.938-3.612,6.488-4.615,10.233-6.288,8.095-3.612,13.378-11.3,20.068-17.292s16.422-10.4,24.015-5.853c2.24,1.337,4.047,3.345,6.253,4.716a19.536,19.536,0,0,0,15.753,1.171,154.747,154.747,0,0,0,15.018-6.255c11.2-4.549,25.954-4.749,33.446,4.783,3.679,4.749,5.417,11.639,10.97,13.98,2.04.87,4.347.97,6.422,1.739,5.72,2.141,7.993,8.563,8.495,14.917Z" transform="translate(-863.26 -315.727)"/>
    </g>
    <g id="Gruppe_22" data-name="Gruppe 22" transform="translate(2985.808 642.267)" opacity="0.1">
      <path id="Pfad_183" data-name="Pfad 183" d="M920.006,357.42a25.654,25.654,0,0,1,19.332-23.981,80.277,80.277,0,0,1,45.086,2.04c31.741,10.5-4.014,48.3-4.014,48.3s-23.779,23.412-45.954,7.057a34.752,34.752,0,0,1-12.945-20.067A51.162,51.162,0,0,1,920.006,357.42Z" transform="translate(-919.997 -331.144)"/>
      <path id="Pfad_184" data-name="Pfad 184" d="M1026.536,357.417a25.654,25.654,0,0,0-19.364-23.981,80.279,80.279,0,0,0-45.053,2.041c-31.74,10.5,4.014,48.3,4.014,48.3s23.747,23.412,45.956,7.056a34.748,34.748,0,0,0,12.943-20.068A51.226,51.226,0,0,0,1026.536,357.417Z" transform="translate(-852.037 -331.14)"/>
      <path id="Pfad_185" data-name="Pfad 185" d="M910.5,291.691v1.572h57.963V291.39Z" transform="translate(-852.059 -290.432)"/>
      <path id="Pfad_186" data-name="Pfad 186" d="M944.126,342.986h1.84v-5.318s5.886-4.582,15.652,0v4.749h3.345v-3.11h-1.639s.669-6.455-10.235-5.418c0,0-8.762-.836-8.562,4.716H942.52Z" transform="translate(-867.189 -324.971)"/>
    </g>
    <path id="Pfad_187" data-name="Pfad 187" d="M920.007,356.758a25.653,25.653,0,0,1,19.332-23.982,80.712,80.712,0,0,1,45.086,2.041c31.74,10.536-4.014,48.3-4.014,48.3s-23.782,23.412-45.956,7.057A34.543,34.543,0,0,1,921.512,370.1,50.822,50.822,0,0,1,920.007,356.758Z" transform="translate(2065.81 309.612)" fill="#3f3d56"/>
    <path id="Pfad_188" data-name="Pfad 188" d="M1026.535,356.758a25.652,25.652,0,0,0-19.364-23.981,80.571,80.571,0,0,0-45.052,2.04c-31.74,10.536,4.014,48.3,4.014,48.3s23.747,23.412,45.956,7.058a34.55,34.55,0,0,0,12.943-20.068A50.891,50.891,0,0,0,1026.535,356.758Z" transform="translate(2133.771 309.611)" fill="#3f3d56"/>
    <path id="Pfad_189" data-name="Pfad 189" d="M910.5,291.061v1.605h57.963V290.76Z" transform="translate(2133.748 350.358)" fill="#3f3d56"/>
    <path id="Pfad_190" data-name="Pfad 190" d="M944.126,342.352h1.84v-5.318s5.886-4.548,15.652,0v4.783h3.345v-3.144h-1.639s.669-6.422-10.235-5.419c0,0-8.762-.8-8.562,4.716H942.52Z" transform="translate(2118.619 315.823)" fill="#3f3d56"/>
    <rect id="Rechteck_251" data-name="Rechteck 251" width="18.997" height="427.777" transform="translate(391.828 1197.763)" fill="#535461"/>
    <path id="Pfad_191" data-name="Pfad 191" d="M366.57,644.974l-1.2,19.266-1.672,27.19-.7,11.34-1.672,27.225-.736,11.338-1.672,27.191L339.746,1077.8a52.377,52.377,0,0,1-52.276,49.166h-99.6a52.342,52.342,0,0,1-52.243-49.162L116.359,768.524l-1.672-27.191-.7-11.338L112.345,702.7l-.7-11.338-1.672-27.192-1.2-19.265a27.126,27.126,0,0,1,27.091-28.8H339.512a27.093,27.093,0,0,1,27.058,28.865Z" transform="translate(163.659 979.263)" fill="#3f3d56"/>
    <path id="Pfad_192" data-name="Pfad 192" d="M337.539,590.46l-1.672,27.19H83.782L82.11,590.46Z" transform="translate(191.485 1053.041)" fill="#9d9cb5"/>
    <path id="Pfad_193" data-name="Pfad 193" d="M333.5,601.98l-1.672,27.225H84.526L82.82,601.98Z" transform="translate(193.15 1080.051)" fill="#9d9cb5"/>
    <path id="Pfad_194" data-name="Pfad 194" d="M329.4,613.51,327.731,640.7H85.246L83.54,613.51Z" transform="translate(194.838 1107.085)" fill="#9d9cb5"/>
    <path id="Pfad_195" data-name="Pfad 195" d="M271.567,604.489C382.208,684.526,428.3,809.749,428.3,809.749s-133.35-4.582-244.158-84.619S27.41,519.87,27.41,519.87,160.894,524.452,271.567,604.489Z" transform="translate(-26.97 753.616)" fill="#00404a"/>
    <path id="Pfad_196" data-name="Pfad 196" d="M27.46,519.87S165.86,596.8,210.244,660.344,428.179,809.782,428.179,809.782" transform="translate(-26.853 753.616)" fill="none" stroke="#535461" stroke-miterlimit="10" stroke-width="2"/>
    <path id="Pfad_197" data-name="Pfad 197" d="M214.842,529.285C275.045,572.765,300.163,641,300.163,641s-72.578-2.476-132.815-46.056S82.06,483.23,82.06,483.23,154.638,485.537,214.842,529.285Z" transform="translate(101.164 667.709)" fill="#00404a"/>
    <path id="Pfad_198" data-name="Pfad 198" d="M82.06,483.18s75.321,41.808,99.469,76.425,118.634,81.341,118.634,81.341" transform="translate(101.164 667.591)" fill="none" stroke="#535461" stroke-miterlimit="10" stroke-width="2"/>
    <path id="Pfad_199" data-name="Pfad 199" d="M232.2,599.4C163,675.424,148.38,774.759,148.38,774.759s97.529-23.913,166.7-99.937S398.892,499.43,398.892,499.43,301.363,523.344,232.2,599.4Z" transform="translate(256.659 705.692)" fill="#00404a"/>
    <path id="Pfad_200" data-name="Pfad 200" d="M398.892,499.43s-90.1,77.93-113.015,131.644-137.5,143.818-137.5,143.818" transform="translate(256.659 705.692)" fill="none" stroke="#535461" stroke-miterlimit="10" stroke-width="2"/>
  </g>
</svg>
