<svg xmlns="http://www.w3.org/2000/svg" xmlns:xlink="http://www.w3.org/1999/xlink" width="4121.296" height="2845.042" viewBox="0 0 4121.296 2845.042">
  <defs>
    <linearGradient id="linear-gradient" y1="0.5" x2="1" y2="0.5" gradientUnits="objectBoundingBox">
      <stop offset="0" stop-color="gray" stop-opacity="0.251"/>
      <stop offset="0.54" stop-color="gray" stop-opacity="0.122"/>
      <stop offset="1" stop-color="gray" stop-opacity="0.102"/>
    </linearGradient>
  </defs>
  <g id="Gruppe_3" data-name="Gruppe 3" transform="translate(0 0.006)">
    <path id="Pfad_1" data-name="Pfad 1" d="M2348.026,434.84c-264.169.354-518.443-74.533-761.654-157.724S1101.821,100.768,842.565,61.293c-166.736-25.374-356.336-23.042-486.671,69.09C230.436,219.017,194.106,365.714,176.577,501.244c-13.182,101.957-19.26,208.967,30.11,302.23,34.28,64.744,92.945,118.107,134.293,179.812,144.33,214.657,57.534,488.862-82.732,708.5C192.48,1794.84,115.438,1893.616,65.715,2002.57s-70.115,232.5-19.4,340.044C96.567,2449.2,210.08,2526.56,331.9,2579.394,579.28,2686.9,867.3,2709.941,1147.587,2718.811c620.434,19.684,1242.069-20.461,1862.045-60.608,229.429-14.843,459.883-29.792,684.577-72.8,124.751-23.854,253.213-59.266,341.67-136.874,112.276-98.529,135.248-259.4,53.54-375.031-137.014-193.948-498.3-230.525-596.544-440.375-54.177-115.527-7.457-248.018,61.351-359.376,147.581-238.935,401.607-452.956,405.883-720.2,2.933-183.522-129.169-362.556-326.473-442.319-206.812-83.545-488.792-62.058-633.687,93.651C2850.953,365.29,2581.271,434.593,2348.026,434.84Z" transform="translate(-16.91 -47.46)" fill="#d1d9d5" opacity="0.15"/>
    <path id="Pfad_2" data-name="Pfad 2" d="M1071.448,704s-43.433-28.66-86.478-8.269c0,0,13.252,25.515,67.747,23.112Z" transform="translate(2436.18 1576.734)" fill="#6c63ff"/>
    <path id="Pfad_3" data-name="Pfad 3" d="M1031.644,693.25s13.217,50.325-19.931,84.569c0,0-19.934-20.745,0-71.563Z" transform="translate(2481.497 1589.005)" fill="#6c63ff"/>
    <path id="Pfad_4" data-name="Pfad 4" d="M1097.893,702.153s-3.217-42.8-99.873-28.591c0,0-.459,27.6,33.469,40.677S1080.964,716.288,1097.893,702.153Z" transform="translate(2469.249 1531.792)" fill="#6c63ff"/>
    <path id="Pfad_5" data-name="Pfad 5" d="M1048.321,679.5s40.854,13.111,4.418,103.757c0,0-26.965-6.007-31.808-42.09S1030.438,692.645,1048.321,679.5Z" transform="translate(2524.9 1554.162)" fill="#6c63ff"/>
    <path id="Pfad_6" data-name="Pfad 6" d="M1110.395,708.027s5.547-70.435-93.227-63.225c0,0-7.07,63.613,75.8,80.153Z" transform="translate(2517.39 1464.922)" fill="#6c63ff"/>
    <path id="Pfad_7" data-name="Pfad 7" d="M1142.416,683.184s-13.535-79.833-112.276-56.051c0,0-.354,69.02,96.161,75.063Z" transform="translate(2550.643 1410.249)" fill="#6c63ff"/>
    <path id="Pfad_8" data-name="Pfad 8" d="M1161.821,658.747S1139.134,581,1041.31,604.253c0,0,23.29,69.938,114.01,68.843Z" transform="translate(2578.948 1352.483)" fill="#d1d9d5"/>
    <path id="Pfad_9" data-name="Pfad 9" d="M1171.851,637.617s-22.159-80.683-116.621-56.545c0,0,31.524,76.652,110.367,70.185Z" transform="translate(2614.221 1293.321)" fill="#d1d9d5"/>
    <path id="Pfad_10" data-name="Pfad 10" d="M1171.855,629.612s-17.036-98.669-105.1-76.829c0,0,25.589,89.764,98.638,91.214Z" transform="translate(2643.413 1225.06)" fill="#d1d9d5"/>
    <path id="Pfad_11" data-name="Pfad 11" d="M1182.8,600.616s-20.463-99.447-109.555-70.68c0,0,34.916,94,103.228,84.286Z" transform="translate(2659.859 1161.925)" fill="#d1d9d5"/>
    <path id="Pfad_12" data-name="Pfad 12" d="M1181.677,591.375s-32.48-99.483-101.358-96.8c0,0,33.185,105.066,95.6,116.622Z" transform="translate(2677.8 1085.431)" fill="#d1d9d5"/>
    <path id="Pfad_13" data-name="Pfad 13" d="M1177.61,577.852s-35.341-119.733-91.39-110.509c0,0,24.456,91.531,89.414,129.169Z" transform="translate(2692.751 1015.267)" fill="#d1d9d5"/>
    <path id="Pfad_14" data-name="Pfad 14" d="M1177.171,544.4s-33.15-99.766-88.351-103.759c0,0,22.547,98.175,87.257,129.7Z" transform="translate(2699.339 948.884)" fill="#d1d9d5"/>
    <path id="Pfad_15" data-name="Pfad 15" d="M1171.46,516.873S1130.147,417,1093.71,414.74c0,0,17.952,98.351,74.215,118.531Z" transform="translate(2711.731 883.252)" fill="#d1d9d5"/>
    <path id="Pfad_16" data-name="Pfad 16" d="M1161.4,503.351s-25.407-108.46-61.915-117.471c0,0,4.984,88.739,58.24,125.6Z" transform="translate(2726.353 810.12)" fill="#d1d9d5"/>
    <path id="Pfad_17" data-name="Pfad 17" d="M1161.268,458.46s-26.716-86.477-56.3-99.66c0,0,5.832,101.958,49.479,120.794Z" transform="translate(2740.265 741.5)" fill="#d1d9d5"/>
    <path id="Pfad_18" data-name="Pfad 18" d="M1140.076,475.318l5.372-152.458s-55.307,114.926-9.367,179.21Z" transform="translate(2772.87 650.426)" fill="#d1d9d5"/>
    <path id="Pfad_19" data-name="Pfad 19" d="M1151.637,407.372s39.831-111.321,49.48-117.542c0,0-78.1,72.235-70.47,165.145Z" transform="translate(2803.999 566.727)" fill="#d1d9d5"/>
    <path id="Pfad_20" data-name="Pfad 20" d="M1055.68,662.331s70.045-9.153,67.96,89.834c0,0-63.3,10.319-83.969-71.563Z" transform="translate(2574.791 1510.087)" fill="#6c63ff"/>
    <path id="Pfad_21" data-name="Pfad 21" d="M1074.431,639.06s80.932-.247,74.214,101.074c0,0-67.958,12.156-90.364-81.919Z" transform="translate(2621.95 1451.686)" fill="#d1d9d5"/>
    <path id="Pfad_22" data-name="Pfad 22" d="M1080.294,623.118s73.471-34.456,120.475,54.5c0,0-67.853,28.7-126.979-40.112Z" transform="translate(2661.253 1394.65)" fill="#d1d9d5"/>
    <path id="Pfad_23" data-name="Pfad 23" d="M1093.15,599.554s75.241-36.648,119.415,50.219c0,0-78.382,27-125.635-36.473Z" transform="translate(2694.551 1332.126)" fill="#d1d9d5"/>
    <path id="Pfad_24" data-name="Pfad 24" d="M1098.6,594.746s72.413-69.161,130.192.778c0,0-73.965,56.934-133.513,14.631Z" transform="translate(2715.709 1262.082)" fill="#d1d9d5"/>
    <path id="Pfad_25" data-name="Pfad 25" d="M1104.957,567.369s72.836-70.68,130.158,3.252c0,0-81.743,58.064-132.775,11.591Z" transform="translate(2733.599 1192.804)" fill="#d1d9d5"/>
    <path id="Pfad_26" data-name="Pfad 26" d="M1106.93,572.4s56.122-88.351,122.21-68.631c0,0-58.242,93.546-121.572,89.376Z" transform="translate(2745.231 1101.578)" fill="#d1d9d5"/>
    <path id="Pfad_27" data-name="Pfad 27" d="M1112.648,565.6s56.548-111.251,110.05-91.885c0,0-40.782,85.524-111.5,110.65Z" transform="translate(2756.051 1026.956)" fill="#d1d9d5"/>
    <path id="Pfad_28" data-name="Pfad 28" d="M1116.775,524.127s58.132-87.574,112.592-76.866c0,0-47.531,88.811-118.246,102.2Z" transform="translate(2755.849 963.361)" fill="#d1d9d5"/>
    <path id="Pfad_29" data-name="Pfad 29" d="M1114,514.043s45.058-98.281,81.673-98.953c0,0-21.631,97.574-78.633,115.633Z" transform="translate(2763.146 884.14)" fill="#d1d9d5"/>
    <path id="Pfad_30" data-name="Pfad 30" d="M1116.5,490.03s50.078-99.518,87.717-99.73c0,0-25.622,85.1-86.055,108.46Z" transform="translate(2769.481 821.321)" fill="#d1d9d5"/>
    <path id="Pfad_31" data-name="Pfad 31" d="M1118.63,454.493s37.459-82.343,68.489-91.673c0,0-18.73,100.366-64.354,113.513Z" transform="translate(2774.879 751.686)" fill="#d1d9d5"/>
    <path id="Pfad_32" data-name="Pfad 32" d="M1134.158,456.6l83.72-127.543s-21.451,125.811-95.949,151.963Z" transform="translate(2783.241 666.137)" fill="#d1d9d5"/>
    <path id="Pfad_33" data-name="Pfad 33" d="M1170.715,381.926s97.294-67.147,100.828-78c0,0-49.478,94.04-141.364,110.65Z" transform="translate(2804.147 602.457)" fill="#d1d9d5"/>
    <path id="Pfad_34" data-name="Pfad 34" d="M1145.227,394.383s111.708-107.4,140.227-107.293c0,0-92.132,4.2-142.914,101.567Z" transform="translate(2835.469 559.784)" fill="#d1d9d5"/>
    <path id="Pfad_35" data-name="Pfad 35" d="M1118.94,591.736l4.065.53c20.992-164.3,51.6-261.518,86.159-273.428l-1.342-3.888C1171.172,327.673,1140.357,423.41,1118.94,591.736Z" transform="translate(2775.664 630.382)" fill="#444053"/>
    <path id="Pfad_36" data-name="Pfad 36" d="M1110.2,794.926l6.15.494c1.306-15.338,2.3-31.029,2.967-46.684,5.866-135.99,14.949-260.882,26.892-354.5l-3.531-4.418c-11.982,93.829-23.643,222.467-29.509,358.669C1112.5,764.039,1111.508,779.659,1110.2,794.926Z" transform="translate(2753.517 820.105)" fill="#444053"/>
    <path id="Pfad_37" data-name="Pfad 37" d="M979.383,1256.953c1.06-.459,109.306-48.8,221.653-164.085a891.284,891.284,0,0,0,162.035-229.712c51.95-105.772,83.615-235.755,94.219-362.026l-6.4,3c-23.853,283.429-152.882,477.093-255.475,582.584-111.25,114.256-218.3,162.106-219.355,162.566Z" transform="translate(2413.603 1102.167)" fill="#444053"/>
    <path id="Pfad_38" data-name="Pfad 38" d="M3512.9,132.69H117.121A30.251,30.251,0,0,0,86.87,162.941V251.08H3543.15V162.941A30.252,30.252,0,0,0,3512.9,132.69Z" transform="translate(160.37 168.53)" fill="#3f3d56"/>
    <path id="Pfad_39" data-name="Pfad 39" d="M86.87,166.19V2149.628a61,61,0,0,0,61,61H3482.152a61,61,0,0,0,61-61V166.19Z" transform="translate(160.37 253.42)" fill="#d1d9d5"/>
    <circle id="Ellipse_1" data-name="Ellipse 1" cx="14.136" cy="14.136" r="14.136" transform="translate(287.846 345.396)" fill="#fa5959" opacity="0.8"/>
    <circle id="Ellipse_2" data-name="Ellipse 2" cx="14.136" cy="14.136" r="14.136" transform="translate(326.721 345.396)" fill="#fed253" opacity="0.8"/>
    <circle id="Ellipse_3" data-name="Ellipse 3" cx="14.136" cy="14.136" r="14.136" transform="translate(365.595 345.396)" fill="#8ccf4d" opacity="0.8"/>
    <rect id="Rechteck_1" data-name="Rechteck 1" width="2777.746" height="1221.431" transform="translate(568.519 750.325)" opacity="0.05"/>
    <rect id="Rechteck_2" data-name="Rechteck 2" width="2735.338" height="1194.501" transform="translate(589.723 759.584)" fill="#3f3d56"/>
    <path id="Pfad_40" data-name="Pfad 40" d="M589.9,349.38c-150.288,0-272.121,121.832-272.121,272.12S439.613,893.621,589.9,893.621,862.021,771.788,862.021,621.5,740.188,349.38,589.9,349.38Zm48.8,278.658V756.889h-96.2V628.038a79.692,79.692,0,1,1,96.2,0Z" transform="translate(745.502 717.629)" fill="#6c63ff"/>
    <path id="Pfad_41" data-name="Pfad 41" d="M589.9,349.38c-150.288,0-272.121,121.832-272.121,272.12S439.613,893.621,589.9,893.621,862.021,771.788,862.021,621.5,740.188,349.38,589.9,349.38Zm48.8,278.658V756.889h-96.2V628.038a79.692,79.692,0,1,1,96.2,0Z" transform="translate(745.502 717.629)" fill="#d1d9d5"/>
    <path id="Pfad_42" data-name="Pfad 42" d="M645.649,327.38c-193.227,0-349.869,156.642-349.869,349.869s156.642,349.869,349.869,349.869S995.517,870.476,995.517,677.249,838.876,327.381,645.649,327.38Zm62.729,358.28V851.3H584.686V685.66a102.487,102.487,0,1,1,123.692,0Z" transform="translate(689.754 661.88)" fill="#d1d9d5"/>
    <rect id="Rechteck_3" data-name="Rechteck 3" width="1130.889" height="120.157" transform="translate(1830.167 1293.222)" fill="#fff"/>
    <rect id="Rechteck_4" data-name="Rechteck 4" width="243.848" height="120.157" transform="translate(2717.208 1512.332)" fill="#d1d9d5"/>
    <path id="Pfad_43" data-name="Pfad 43" d="M603.022,447.619H582.561l18.2-18.165a1.8,1.8,0,0,0,0-2.509,1.769,1.769,0,0,0-2.51,0l-18.2,18.2v-20.5a1.767,1.767,0,0,0-1.767-1.767,1.8,1.8,0,0,0-1.768,1.767v20.5l-18.164-18.306a1.766,1.766,0,0,0-2.509,0,1.8,1.8,0,0,0,0,2.509l18.2,18.165h-20.5a1.8,1.8,0,0,0-1.766,1.767,1.766,1.766,0,0,0,1.766,1.767h20.5l-18.2,18.2a1.8,1.8,0,0,0,0,2.509,1.838,1.838,0,0,0,2.509,0l18.164-18.2v20.462a1.767,1.767,0,1,0,3.535,0V453.555l18.2,18.2a1.838,1.838,0,0,0,2.509,0,1.8,1.8,0,0,0,0-2.509l-18.2-18.2h20.461a1.715,1.715,0,1,0,0-3.428Z" transform="translate(1338.465 903.88)" fill="#2e313f"/>
    <path id="Pfad_44" data-name="Pfad 44" d="M624.022,447.619H603.561l18.2-18.165a1.8,1.8,0,0,0,0-2.509,1.77,1.77,0,0,0-2.511,0l-18.2,18.2v-20.5a1.767,1.767,0,0,0-1.766-1.767,1.8,1.8,0,0,0-1.768,1.767v20.5l-18.164-18.306a1.767,1.767,0,0,0-2.51,0,1.8,1.8,0,0,0,0,2.509l18.2,18.165h-20.5a1.8,1.8,0,0,0-1.767,1.767,1.766,1.766,0,0,0,1.767,1.767h20.5l-18.2,18.2a1.8,1.8,0,0,0,0,2.509,1.839,1.839,0,0,0,2.51,0l18.164-18.2v20.462a1.767,1.767,0,1,0,3.535,0V453.555l18.2,18.2a1.839,1.839,0,0,0,2.51,0,1.8,1.8,0,0,0,0-2.509l-18.2-18.2h20.461a1.715,1.715,0,1,0,0-3.428Z" transform="translate(1391.68 903.88)" fill="#2e313f"/>
    <path id="Pfad_45" data-name="Pfad 45" d="M645.024,447.619H624.562l18.2-18.165a1.8,1.8,0,0,0,0-2.509,1.767,1.767,0,0,0-2.508,0l-18.2,18.2v-20.5a1.767,1.767,0,0,0-1.767-1.767,1.8,1.8,0,0,0-1.767,1.767v20.5l-18.165-18.306a1.766,1.766,0,0,0-2.509,0,1.8,1.8,0,0,0,0,2.509l18.2,18.165h-20.5a1.8,1.8,0,0,0-1.768,1.767,1.768,1.768,0,0,0,1.768,1.767h20.5l-18.2,18.2a1.8,1.8,0,0,0,0,2.509,1.837,1.837,0,0,0,2.508,0l18.165-18.2v20.462a1.767,1.767,0,1,0,3.535,0V453.555l18.2,18.2a1.837,1.837,0,0,0,2.508,0,1.8,1.8,0,0,0,0-2.509l-18.2-18.2h20.462a1.715,1.715,0,1,0,0-3.428Z" transform="translate(1444.894 903.88)" fill="#2e313f"/>
    <path id="Pfad_46" data-name="Pfad 46" d="M666.023,447.619H645.561l18.2-18.165a1.8,1.8,0,0,0,0-2.509,1.769,1.769,0,0,0-2.51,0l-18.2,18.2v-20.5a1.766,1.766,0,0,0-1.766-1.767,1.8,1.8,0,0,0-1.767,1.767v20.5l-18.165-18.306a1.766,1.766,0,0,0-2.509,0,1.8,1.8,0,0,0,0,2.509l18.2,18.165h-20.5a1.8,1.8,0,0,0-1.767,1.767,1.766,1.766,0,0,0,1.767,1.767h20.5l-18.2,18.2a1.8,1.8,0,0,0,0,2.509,1.838,1.838,0,0,0,2.509,0l18.165-18.2v20.462a1.767,1.767,0,1,0,3.534,0V453.555l18.2,18.2a1.839,1.839,0,0,0,2.51,0,1.8,1.8,0,0,0,0-2.509l-18.2-18.2h20.463a1.715,1.715,0,1,0,0-3.428Z" transform="translate(1498.109 903.88)" fill="#2e313f"/>
    <path id="Pfad_47" data-name="Pfad 47" d="M687.024,447.619H666.562l18.2-18.165a1.8,1.8,0,0,0,0-2.509,1.767,1.767,0,0,0-2.508,0l-18.2,18.2v-20.5a1.766,1.766,0,0,0-1.766-1.767,1.8,1.8,0,0,0-1.767,1.767v20.5l-18.165-18.306a1.767,1.767,0,0,0-2.51,0,1.806,1.806,0,0,0,0,2.509l18.2,18.165h-20.5a1.8,1.8,0,0,0-1.768,1.767,1.767,1.767,0,0,0,1.768,1.767h20.5l-18.2,18.2a1.806,1.806,0,0,0,0,2.509,1.839,1.839,0,0,0,2.51,0l18.165-18.2v20.462a1.767,1.767,0,1,0,3.534,0V453.555l18.2,18.2a1.837,1.837,0,0,0,2.508,0,1.8,1.8,0,0,0,0-2.509l-18.2-18.2h20.462a1.715,1.715,0,1,0,0-3.428Z" transform="translate(1551.323 903.88)" fill="#2e313f"/>
    <path id="Pfad_48" data-name="Pfad 48" d="M708.024,447.619H687.562l18.2-18.165a1.8,1.8,0,0,0,0-2.509,1.767,1.767,0,0,0-2.508,0l-18.2,18.2v-20.5a1.767,1.767,0,0,0-1.767-1.767,1.8,1.8,0,0,0-1.767,1.767v20.5l-18.164-18.306a1.766,1.766,0,0,0-2.509,0,1.8,1.8,0,0,0,0,2.509l18.2,18.165h-20.5a1.8,1.8,0,0,0-1.769,1.767,1.768,1.768,0,0,0,1.769,1.767h20.5l-18.2,18.2a1.8,1.8,0,0,0,0,2.509,1.838,1.838,0,0,0,2.509,0l18.164-18.2v20.462a1.767,1.767,0,1,0,3.534,0V453.555l18.2,18.2a1.837,1.837,0,0,0,2.508,0,1.8,1.8,0,0,0,0-2.509l-18.2-18.2h20.462a1.715,1.715,0,1,0,0-3.428Z" transform="translate(1604.538 903.88)" fill="#2e313f"/>
    <path id="Pfad_49" data-name="Pfad 49" d="M729.024,447.619H708.563l18.2-18.165a1.8,1.8,0,0,0,0-2.509,1.768,1.768,0,0,0-2.509,0l-18.2,18.2v-20.5a1.767,1.767,0,0,0-1.767-1.767,1.8,1.8,0,0,0-1.766,1.767v20.5l-18.165-18.306a1.766,1.766,0,0,0-2.509,0,1.8,1.8,0,0,0,0,2.509l18.2,18.165h-20.5a1.8,1.8,0,0,0-1.767,1.767,1.767,1.767,0,0,0,1.767,1.767h20.5l-18.2,18.2a1.8,1.8,0,0,0,0,2.509,1.838,1.838,0,0,0,2.509,0l18.165-18.2v20.462a1.767,1.767,0,1,0,3.534,0V453.555l18.2,18.2a1.838,1.838,0,0,0,2.509,0,1.8,1.8,0,0,0,0-2.509l-18.2-18.2h20.462a1.715,1.715,0,1,0,0-3.428Z" transform="translate(1657.753 903.88)" fill="#2e313f"/>
    <path id="Pfad_50" data-name="Pfad 50" d="M750.024,447.619H729.562l18.2-18.165a1.8,1.8,0,0,0,0-2.509,1.769,1.769,0,0,0-2.51,0l-18.2,18.2v-20.5a1.767,1.767,0,0,0-1.767-1.767,1.8,1.8,0,0,0-1.766,1.767v20.5l-18.165-18.306a1.766,1.766,0,0,0-2.509,0,1.8,1.8,0,0,0,0,2.509l18.2,18.165h-20.5a1.8,1.8,0,0,0-1.767,1.767,1.766,1.766,0,0,0,1.767,1.767h20.5l-18.2,18.2a1.8,1.8,0,0,0,0,2.509,1.838,1.838,0,0,0,2.509,0l18.165-18.2v20.462a1.767,1.767,0,1,0,3.534,0V453.555l18.2,18.2a1.839,1.839,0,0,0,2.51,0,1.8,1.8,0,0,0,0-2.509l-18.2-18.2h20.463a1.715,1.715,0,1,0,0-3.428Z" transform="translate(1710.968 903.88)" fill="#2e313f"/>
    <path id="Pfad_51" data-name="Pfad 51" d="M771.023,447.619H750.562l18.2-18.165a1.8,1.8,0,0,0,0-2.509,1.768,1.768,0,0,0-2.509,0l-18.2,18.2v-20.5a1.767,1.767,0,0,0-1.767-1.767,1.8,1.8,0,0,0-1.768,1.767l0,20.5-18.165-18.306a1.766,1.766,0,0,0-2.509,0,1.8,1.8,0,0,0,0,2.509l18.2,18.165h-20.5a1.8,1.8,0,0,0-1.767,1.767,1.767,1.767,0,0,0,1.767,1.767h20.5l-18.2,18.2a1.8,1.8,0,0,0,0,2.509,1.838,1.838,0,0,0,2.509,0l18.165-18.2v20.462a1.767,1.767,0,1,0,3.534,0V453.555l18.2,18.2a1.838,1.838,0,0,0,2.509,0,1.8,1.8,0,0,0,0-2.509l-18.2-18.2h20.461a1.715,1.715,0,1,0,0-3.428Z" transform="translate(1764.182 903.88)" fill="#2e313f"/>
    <path id="Pfad_52" data-name="Pfad 52" d="M792.024,447.619H771.562l18.2-18.165a1.8,1.8,0,0,0,0-2.509,1.767,1.767,0,0,0-2.508,0l-18.2,18.2v-20.5a1.767,1.767,0,0,0-1.767-1.767,1.8,1.8,0,0,0-1.767,1.767v20.5l-18.164-18.306a1.767,1.767,0,0,0-2.51,0,1.8,1.8,0,0,0,0,2.509l18.2,18.165h-20.5a1.8,1.8,0,0,0-1.768,1.767,1.768,1.768,0,0,0,1.768,1.767h20.5l-18.2,18.2a1.8,1.8,0,0,0,0,2.509,1.839,1.839,0,0,0,2.51,0l18.164-18.2v20.462a1.767,1.767,0,1,0,3.534,0V453.555l18.2,18.2a1.837,1.837,0,0,0,2.508,0,1.8,1.8,0,0,0,0-2.509l-18.2-18.2h20.463a1.715,1.715,0,1,0,0-3.428Z" transform="translate(1817.396 903.88)" fill="#2e313f"/>
    <path id="Pfad_53" data-name="Pfad 53" d="M813.024,447.619H792.562l18.2-18.165a1.806,1.806,0,0,0,0-2.509,1.769,1.769,0,0,0-2.51,0l-18.2,18.2v-20.5a1.767,1.767,0,0,0-1.768-1.767,1.8,1.8,0,0,0-1.766,1.767l0,20.5-18.164-18.306a1.767,1.767,0,0,0-2.51,0,1.806,1.806,0,0,0,0,2.509l18.2,18.165h-20.5a1.8,1.8,0,0,0-1.767,1.767,1.766,1.766,0,0,0,1.767,1.767h20.5l-18.2,18.2a1.806,1.806,0,0,0,0,2.509,1.839,1.839,0,0,0,2.51,0l18.164-18.2v20.462a1.768,1.768,0,0,0,3.536,0V453.555l18.2,18.2a1.839,1.839,0,0,0,2.51,0,1.806,1.806,0,0,0,0-2.509l-18.2-18.2h20.462a1.715,1.715,0,1,0,0-3.428Z" transform="translate(1870.611 903.88)" fill="#2e313f"/>
    <path id="Pfad_54" data-name="Pfad 54" d="M1322,764.834a63.316,63.316,0,0,0-1.591-12.687c-3.181-11.945-10.354-26.4-22.158-30a185.971,185.971,0,0,1-35.127-14.843c-2.122-37.884,6.572-76.653-2.9-113.371-3.536-13.43-9.366-26.294-10.921-40.041-1.943-17.106,2.72-35.341-4.1-51.1-5.372-12.439-17.176-21.2-29.863-25.8s-26.364-5.831-39.83-7.067c-16.962-1.379-71.88-7.881-91.035,7.279h0a20.067,20.067,0,0,0-3.536,3.534h0a14.406,14.406,0,0,0-1.131,1.838l-.176.283a14.238,14.238,0,0,0-.953,2.3h0a17.785,17.785,0,0,0-.6,2.651v6.362c.248,3.181.707,6.361.707,9.507a20.456,20.456,0,0,1-.425,4.664,32.681,32.681,0,0,1-5.865,11.45h0l-.638.919c-.388.565-.778,1.1-1.13,1.66s-.636.991-.919,1.485-.567.813-.814,1.273a17.214,17.214,0,0,0-.919,1.8c0,.353-.388.672-.531,1.025a17.586,17.586,0,0,0-1.061,2.968,19.754,19.754,0,0,0-.212,9.4,35,35,0,0,0,4.842,11.132c.885,1.449,1.837,2.863,2.827,4.276l2.474,3.357a76.173,76.173,0,0,0-.743,9.9,73.113,73.113,0,0,0,27.91,57.456,216.344,216.344,0,0,1-.451,44.854c-.317,3.11-.705,6.256-1.131,9.366s-.742,5.16-1.166,7.74a35.9,35.9,0,0,1-15.443-1.166,72.815,72.815,0,0,0-7.068-2.722c-10.285-2.579-20.78,7.669-30.958,4.559a4.135,4.135,0,0,1-.461,1.414,13.832,13.832,0,0,0-7.066-2.085c-6.044-.283-10.956-4.665-15.338-8.8l-13.466-12.688a14.923,14.923,0,0,1-2.332-2.615,18.339,18.339,0,0,1-1.626-4.347c-2.26-7.316-7.74-13.147-13.04-18.695a8.841,8.841,0,0,0-3.854-2.793,6,6,0,0,0-1.767,0,15.832,15.832,0,0,0-1.166-1.414,32.94,32.94,0,0,0-2.934-2.968c-6.432-5.937-7.068-11.026-12.652-17.67a169.772,169.772,0,0,1-13.216-19.967c-.46-3.711-1.1-7.528-1.873-11.379a146.287,146.287,0,0,0-7.74-25.8L941.773,543.6l-.812.813c-5.125-7.634-10.6-11.8-15.515-10.813-8.235,1.7-12.3,17.669-10.991,38.556l2.827,21.2a6.552,6.552,0,0,0,.388,1.591,39.072,39.072,0,0,0-.777,7.634c0,2.969,2.756,5.159,4.206,7.81a22.085,22.085,0,0,1,3.533,12.051c-.176,1.52-.635,2.969-.707,4.452a17.155,17.155,0,0,0,3.322,9.189l17.671,29.685,3.534,6.22.212.283a15.089,15.089,0,0,0,4.735,5.443,64.734,64.734,0,0,0,5.832,21.452c.6,1.342,1.273,2.614,1.978,3.886a125.057,125.057,0,0,0,16.681,21.664l8.411,9.435c8.305,9.259,16.612,18.554,25.623,27.106a34.31,34.31,0,0,0,11.449,8.022,12.969,12.969,0,0,0,12.864-1.873V780.56a7.386,7.386,0,0,1,5.584,11.628c-7.422,19.047-14.913,38.273-26.151,55.342a117.813,117.813,0,0,1,21.91,16.716A98.415,98.415,0,0,1,1049,879.69c.317,2.615.564,5.195.707,7.774,2.615,42.126-13.678,83.934-28.272,124.08-4.206,11.379-8.8,23.289-8.446,35.128a68.828,68.828,0,0,0-7.916,5.69c2.9,7.564,1.765,14.313,1.448,22.406a39.679,39.679,0,0,1-2.934,14.137,99,99,0,0,1-5.088,9.083c-9.154,16.151-11.168,35.34-13.007,53.788-1.095,11.132,3.217,24.738-1.837,34.7-8.728,17.1-16.469,35.339-17.669,54.352a54.651,54.651,0,0,1-1.626,12.688c-1.1,3.535-3.042,6.539-4.03,10a42.777,42.777,0,0,0-.707,14.137,135.236,135.236,0,0,1-7.422,49.864c-4.417,12.617-9.294,26.118-5.83,39.087a55.087,55.087,0,0,0-14.948,32.831,51.844,51.844,0,0,1-1.132,9.366,45.524,45.524,0,0,1-4.241,9.012,78.891,78.891,0,0,0-9.613,42.409c-10.6,14.382-15.9,32.124-19.048,49.759s-4.524,35.587-8.552,53.01c-5.371,23.042-15.091,46.331-17,69.94-11.449,7.315-16.4,21.486-18.588,34.88s-2.543,27.46-8.164,39.828c-2.9,6.432-7.068,12.194-9.825,18.765a86.259,86.259,0,0,0-4.241,16.152c-1.7,8.623-3.18,18.235-1.095,26.506a40.011,40.011,0,0,1-10.356,7.881c.566-2.192,1.026-4.383,1.415-6.61-9.121,8.269-25.659,5.371-32.938,15.3a14.912,14.912,0,0,0,3.533,20.462,28.284,28.284,0,0,0,7.316,3.146c17.671,5.656,35.836,11.344,54,8.34a16.1,16.1,0,0,0,6.113-1.944,19.664,19.664,0,0,0,5.691-6.572q4.083-6.468,8.128-12.935a167.982,167.982,0,0,0,19.825,4.63c.673,5.654,1.166,11.308,1.414,16.964,3.536.705,8.27.918,9.932-2.37a8.6,8.6,0,0,0,.6-3.922c0-2.51.354-5.832.566-9.223h.705a67.135,67.135,0,0,0,31.277-6.327c-3.781-31.31,8.694-61.914,19.51-91.531,11.414-31.171,21.2-62.906,31.063-94.642,7.068-22.335,14.878-43.963,21.8-66.333q13.076-42.407,26.259-84.817c3.817-12.44,7.669-24.738,12.05-37.107a578.162,578.162,0,0,1,32.761-72.907c3.534-6.679,7.068-13.287,9.966-20.214,3.534-8.445,6.042-17.281,8.871-26.011a402.687,402.687,0,0,1,22.194-52.232c.245-.459.422-.883.669-1.308,2.865,11.7,5.725,23.572,7.635,35.341a134.337,134.337,0,0,1,.6,43.68c-1.7,9.861-4.913,19.615-4.524,29.616.531,13.818,7.916,26.364,11.556,39.686a150.86,150.86,0,0,1,3.96,30.394c.988,15.9,9.611,33.747,3.534,48.485-18.908,46.686-9.754,99.413-20.534,148.43-5.549,25.163-22.546,48.8-21.2,74.534q1.414,27.386,4.807,54.635a52.054,52.054,0,0,0,4.418,16.576,60.85,60.85,0,0,0,4.842,7.915c-1.555.6-2.862,2.192-3.993,5.549-2.9,8.835,0,19.791,7.844,24.738a34.335,34.335,0,0,0,10.215,3.534,53.719,53.719,0,0,0,14.772,2.05,34.541,34.541,0,0,0,4.629-.566,168.035,168.035,0,0,0,16.716,6.006,36.455,36.455,0,0,0,.46,4.348,5.405,5.405,0,0,0,1.838,3.995,5.521,5.521,0,0,0,2.827.495h19.189v-4.806a15.8,15.8,0,0,0,12.193-3.96,18.882,18.882,0,0,0,3.534-7.349q7.846-26.612,15.583-53.258a170.282,170.282,0,0,0,7.6-60.784c-6.822-65.133,8.162-130.478,3.286-195.786a468.95,468.95,0,0,1,6.006-117.472c1.591-8.764,3.534-17.67,4.241-26.4,1.556-16.471-.353-33.116.814-49.478.39-5.723,1.166-11.415,1.873-17.1a821.6,821.6,0,0,0,7.6-106.552,335.858,335.858,0,0,0-2.191-35.339,20.171,20.171,0,0,0,9.647-5.654c3.146-4.1,2.332-9.86,2.3-15.091,0-12.511,5.268-24.314,9.507-36.117a428.811,428.811,0,0,0,13.359-49.689,173.507,173.507,0,0,0,5.939-41.525q0-2.119-.214-4.241a10.942,10.942,0,0,0,3.252-3.534,20.52,20.52,0,0,0,1.7-6.538c1.272-9.012,2.58-18.059,3.853-27.106q1.411-9.719,2.789-19.4l11.239-78.421c.955-6.82,1.944-13.605,2.9-20.391l2.933-20.286c.317-2.4.672-4.806.919-7.067C1331.153,800.457,1322.919,781.232,1322,764.834Zm-93.759,293.608c-4.171-9.9-8.057-20.038-7.068-30.711h-.388a15.77,15.77,0,0,0-.461-9.966c-1.095-2.58-3-4.771-4.17-7.351a26.953,26.953,0,0,1-1.908-9.9,269.707,269.707,0,0,1,5.054-64.108c.46-2.473.955-4.983,1.414-7.456a18.417,18.417,0,0,0,4.029-3.146,28.61,28.61,0,0,0,4.558-7.068c3.995-8.022,7.635-16.185,10.991-24.49,1.1-2.687,2.688-5.8,5.408-6.468-.566,20.674,1.556,41.772-6.856,60.431a38.227,38.227,0,0,0-3.533,9.542c-.779,5.266,1.413,10.6.635,15.833-.39,2.721-1.556,5.23-2.015,7.916A7.747,7.747,0,0,0,1235.98,989a6.249,6.249,0,0,0,1.52.777c-.212,1.414-.388,2.863-.529,4.241-.283,2.9-.426,5.619-.6,7.316a227.653,227.653,0,0,0-.954,26.01c0,9.365.352,18.731.212,28.272a19.2,19.2,0,0,1-1.343,8.023,13.921,13.921,0,0,1-2.686,3.535,92.062,92.062,0,0,0-3.358-8.73Z" transform="translate(1930.578 1016.578)" fill="url(#linear-gradient)"/>
    <ellipse id="Ellipse_4" data-name="Ellipse 4" cx="19.932" cy="56.438" rx="19.932" ry="56.438" transform="matrix(0.98, -0.201, 0.201, 0.98, 2837.688, 1558.383)" fill="#fbbebe"/>
    <path id="Pfad_55" data-name="Pfad 55" d="M879.189,851.128c-2.9,8.764,0,19.72,7.846,24.491a34.909,34.909,0,0,0,10.142,3.533,53.477,53.477,0,0,0,14.739,2.015c6.113-.283,11.979-2.686,18.094-3.535a2.832,2.832,0,0,1,2.085.283,3.005,3.005,0,0,1,.776,2.474,94,94,0,0,0,.778,10.39,5.339,5.339,0,0,0,1.838,3.993,5.526,5.526,0,0,0,2.827.5h19.155a186.759,186.759,0,0,0-5.477-49.971,11.178,11.178,0,0,0-1.414-3.536,11.692,11.692,0,0,0-6.114-3.534,34.172,34.172,0,0,0-14.807-2.579c-6.184.814-11.345,4.8-16.61,8.127s-12.44,6.255-18.836,4.559S882.476,841.3,879.189,851.128Z" transform="translate(2165.34 1949.746)" fill="#3f3d56"/>
    <path id="Pfad_56" data-name="Pfad 56" d="M815.831,840.818A52.987,52.987,0,0,1,796.5,853.965l-3.253,1.555a2.256,2.256,0,0,0-1.095.883,1.911,1.911,0,0,0,.353,1.591,22.868,22.868,0,0,0,25.941,9.436,13.762,13.762,0,0,0,5.69-2.97,18.656,18.656,0,0,0,4.381-11.379,23.3,23.3,0,0,0-.531-13.04C823.076,828.98,821.275,834,815.831,840.818Z" transform="translate(1947.459 1944.54)" fill="#fbbebe"/>
    <path id="Pfad_57" data-name="Pfad 57" d="M904.785,882.9a8.6,8.6,0,0,1-.6,3.924c-1.661,3.249-6.291,3.073-9.9,2.368a237.831,237.831,0,0,0-4.346-35.7c-6.856-.317-11.8,6.185-15.481,12.016l-9.469,15.02a19.576,19.576,0,0,1-5.655,6.572,16.715,16.715,0,0,1-6.113,1.944c-18.1,3-36.366-2.684-53.823-8.34a28.477,28.477,0,0,1-7.317-3.11,14.95,14.95,0,0,1-3.532-20.427c7.315-9.894,23.748-7.067,32.864-15.266a82.236,82.236,0,0,1-4.664,16.859c12.191-1.839,20.392-13.007,30.216-20.464a18.628,18.628,0,0,1,8.623-4.1,19.023,19.023,0,0,1,7.068.743,82.954,82.954,0,0,1,31.1,15.3c3.712,2.934,9.508,7.068,11.133,11.593C906.622,867.242,904.785,877.137,904.785,882.9Z" transform="translate(1931.943 1946.002)" fill="#3f3d56"/>
    <circle id="Ellipse_5" data-name="Ellipse 5" cx="73.013" cy="73.013" r="73.013" transform="translate(3006.821 1516.855)" fill="#fbbebe"/>
    <path id="Pfad_58" data-name="Pfad 58" d="M983.376,635.809a173.1,173.1,0,0,1-5.9,41.313A425.892,425.892,0,0,1,964.114,726.6c-4.2,11.769-9.471,23.572-9.435,36.05,0,5.193.849,10.954-2.332,15.054a21.992,21.992,0,0,1-10.32,5.9,12.9,12.9,0,0,0-8.693,7.741,54.615,54.615,0,0,1-7.352-16.186q-9.506-29.121-17.669-58.559a7.594,7.594,0,0,1,.495-7.067,8.734,8.734,0,0,1,3.074-1.732,31.838,31.838,0,0,0,9.79-6.291,14.26,14.26,0,0,0,3.25-4.207,19.044,19.044,0,0,0,1.38-7.987c0-9.364,0-18.694-.249-28.059a234.466,234.466,0,0,1,.99-25.9c0-1.7.319-4.417.6-7.315.529-5.55,1.59-11.982,4.593-14.137,4.489-3,17.918,1.026,23.008,1.731,8.764,1.2,17.669,2.617,26.221,4.276A70.052,70.052,0,0,1,983.376,635.809Z" transform="translate(2240.294 1385.139)" fill="#3f3d56"/>
    <path id="Pfad_59" data-name="Pfad 59" d="M903,572.907c-2.827,5.654-9.611,8.376-14.842,11.945l-17.918,12.3a11.949,11.949,0,0,1-8.87,3.04,11.652,11.652,0,0,1-6.608-6.185,1.431,1.431,0,0,0,0-.283l-3.712-6.22-17.67-29.615a16.858,16.858,0,0,1-3.288-9.118c0-1.52.531-2.933.672-4.453a21.38,21.38,0,0,0-3.534-12.016c-1.414-2.651-4.241-4.842-4.17-7.811a28.268,28.268,0,0,1,1.979-11.415,23.111,23.111,0,0,1,7.74-8.269c1.661-1.2,3.357-2.333,5.123-3.535a10.139,10.139,0,0,1,3.074-1.414c2.934-.6,5.832,1.837,8.8,1.944,12.757,8.552,17.669,24.738,27.706,36.4,5.654,6.644,6.22,11.733,12.617,17.67,1.025.92,2.015,1.909,2.969,2.934a20.465,20.465,0,0,1,3.18,4.594C897.417,566.439,904.451,570.009,903,572.907Z" transform="translate(2025.859 1098.704)" fill="#3f3d56"/>
    <path id="Pfad_60" data-name="Pfad 60" d="M904.73,556.528c5.266,11.132,9.364,23.359,7.846,35.588a22.216,22.216,0,0,1-3.074,9.365c-5.089,7.811-15.762,9.224-25.057,9.683A14.77,14.77,0,0,0,873.56,614.7a9.894,9.894,0,0,0,.671,12.086,27.275,27.275,0,0,0,10.813,7.067c14.7,6.468,30.572,11.8,46.544,10.32,7.422-.707,14.631-2.863,22.016-3.959a231.013,231.013,0,0,1,24.244-1.342c9.612-.354,19.189-1.308,28.767-2.263l25.373-2.509a5.653,5.653,0,0,0,3.782-1.378c1.873-2.192-.531-5.408-2.863-7.069-13.464-9.965-30.6-16.822-38.271-31.806-3.536-7.067-4.63-15.478-7.246-23.112s-6.786-14.525-8.411-22.3a147.971,147.971,0,0,1-1.167-20.567,27.6,27.6,0,0,0-7.068-18.8c-5.053-4.7-12.367-5.9-19.225-6.184-16.892-.742-34.88,3.287-46.861,15.2-3.215,3.216-5.972,7.068-9.294,9.966s-7.846,3.747-5.654,7.564,6.5,6.185,8.835,9.542A81.15,81.15,0,0,1,904.73,556.528Z" transform="translate(2149.447 1106.389)" fill="#fbbebe"/>
    <path id="Pfad_61" data-name="Pfad 61" d="M1103.535,612.231a401.683,401.683,0,0,1-21.63,79.622,299.633,299.633,0,0,0-12.722,35.693c-2.722,10.956-2.192,22.689-4.7,33.68-3.11,13.677-6.22,27.389-8.73,41.172a269.975,269.975,0,0,0-5.019,63.965,26.766,26.766,0,0,0,1.91,9.86c1.165,2.544,3.037,4.737,4.134,7.352a17.668,17.668,0,0,1-.99,14.136,40.955,40.955,0,0,1-7.281,11.026c-32.938,9.825-68.171,6.609-102.487,8.694-31.629,1.908-63.612,8.411-94.781,3-3.536-14.136,2.366-28.944,7.42-42.726,14.666-40.042,30.888-81.743,28.272-123.691a127.809,127.809,0,0,0-1.661-14.6c-5.125-29.72.459-60.5,9.4-89.3,5.547-17.953,5.3-37.072,4.029-55.768a101.688,101.688,0,0,1-.247-18.27,32.1,32.1,0,0,1,6.644-17.071c0-.246.318-.494.495-.741s1.554-.213,2.65,0h0a2.271,2.271,0,0,0,1.766,0l.388-.247a.885.885,0,0,1,1.026,0c.814.495,1.273,2.19,3.038,2.509a70.247,70.247,0,0,0,7.881.741,42.466,42.466,0,0,1,9.4,1.343h.424a27.6,27.6,0,0,0,13.712-1.165,36.428,36.428,0,0,0,8.411-3.252c.776-.847,5.653-1.625,6.644-2.225,3.215-1.945,2.51-11.062,3.181-14.809a40.65,40.65,0,0,1,2.65-10.954,18.659,18.659,0,0,1,15.125-8.8,80.6,80.6,0,0,1,18.129,1.625c13.181,1.874,26.683,1.556,39.618,4.594,6.5,1.52,13.606,3.818,19.577.849,1.625.388,1.873,1.8,1.873,3.534a22.51,22.51,0,0,1-.988,4.841c-2.262,9.754,5.406,18.731,12.474,25.8a40.023,40.023,0,0,0,10.427,8.3c3.532,1.625,7.068,2.3,10.6,4.063a19.293,19.293,0,0,1,7.068,6.468,26.967,26.967,0,0,1,4.029,10.283,61.467,61.467,0,0,1-1.166,20.463Z" transform="translate(2094.585 1153.49)" fill="#3f3d56"/>
    <path id="Pfad_62" data-name="Pfad 62" d="M1079.687,586.089a401.542,401.542,0,0,1-21.626,79.622,299.7,299.7,0,0,0-12.724,35.693c-2.722,10.956-2.191,22.69-4.7,33.68-3.11,13.677-6.218,27.389-8.727,41.172-.744.423-1.52.812-2.3,1.166a54.28,54.28,0,0,1-13.854,4.453,84.842,84.842,0,0,1-25.869-.849l-50.43-6.75c-20.146-2.722-41.6-6.007-56.546-19.649-8.305-7.493-13.747-17.388-19.72-26.93a128.361,128.361,0,0,0-1.661-14.6c-5.125-29.721.459-60.5,9.4-89.305,5.549-17.953,5.3-37.072,4.031-55.766a101.86,101.86,0,0,1-.25-18.272,32.136,32.136,0,0,1,6.644-17.07,25.391,25.391,0,0,1,3.148-.706h0a15.793,15.793,0,0,1,2.154-.284h1.026a15.444,15.444,0,0,1,3.534.425,63.835,63.835,0,0,1,7.068,2.722h.425a27.063,27.063,0,0,0,9.4,1.343c4.666,0,9.471-.742,14.135-1.06a26.077,26.077,0,0,1,16.752,3,100.106,100.106,0,0,1,9.33,8.516,40.045,40.045,0,0,0,11.769,6.4,125.057,125.057,0,0,0,94.076-1.979,18.406,18.406,0,0,1,9.435-2.4,17.685,17.685,0,0,1,6.787,2.9c2.119,1.237,4.2,2.438,6.36,3.533a27.021,27.021,0,0,1,4.029,10.284A61.48,61.48,0,0,1,1079.687,586.089Z" transform="translate(2118.43 1179.633)" opacity="0.1"/>
    <path id="Pfad_63" data-name="Pfad 63" d="M1132.357,567.556a188.541,188.541,0,0,1-40.288-17.67,18.061,18.061,0,0,0-6.787-2.9,18.953,18.953,0,0,0-9.47,2.4,125,125,0,0,1-94.041,1.979,40.9,40.9,0,0,1-11.769-6.4,105.736,105.736,0,0,0-9.328-8.516c-11.628-7.528-27.709,1.308-40.711-3.534a71.906,71.906,0,0,0-7.07-2.722c-10.284-2.58-20.745,7.669-30.853,4.558a172.115,172.115,0,0,0-8.3,31.524,343.834,343.834,0,0,0-2.295,37.178c0,7.457-.355,14.913,0,22.37a7.338,7.338,0,0,1,5.584,11.592c-7.386,18.978-14.878,38.168-26.082,55.167a119.919,119.919,0,0,1,21.842,16.68c12.368,13.076,18.447,31.418,31.805,43.5,15.055,13.607,36.507,16.928,56.545,19.613l50.431,6.751a86.208,86.208,0,0,0,25.9.885,54.57,54.57,0,0,0,13.818-4.489,24.788,24.788,0,0,0,7.7-5.089,28.276,28.276,0,0,0,4.558-7.068c3.993-7.987,7.634-16.151,10.991-24.42,1.167-2.933,2.934-6.362,6.114-6.608,18.731-16.894,36.4-34.21,55.132-51.1a122.179,122.179,0,0,0,20.107-21.2c9.295-13.749.849-33.222,0-49.831a62.867,62.867,0,0,0-1.59-12.616C1151.262,585.545,1144.124,571.126,1132.357,567.556Z" transform="translate(2096.545 1174.77)" fill="#d1d9d5"/>
    <path id="Pfad_64" data-name="Pfad 64" d="M880.279,531.034c-2.827,5.654-9.613,8.375-14.842,11.945l-17.918,12.3a11.949,11.949,0,0,1-8.871,3.038,11.651,11.651,0,0,1-6.608-6.183v-2.546a23.7,23.7,0,0,1,1.131-8.446,26.338,26.338,0,0,1,7.916-10.178A64.81,64.81,0,0,1,864.3,516.828a7.944,7.944,0,0,1,4.242-.423,5.535,5.535,0,0,1,1.554.671,20.463,20.463,0,0,1,3.18,4.594C874.693,524.568,881.727,528.136,880.279,531.034Z" transform="translate(2048.582 1140.576)" opacity="0.1"/>
    <path id="Pfad_65" data-name="Pfad 65" d="M919.335,566.644c-6.008-.282-10.92-4.629-15.3-8.763l-13.395-12.441a12.493,12.493,0,0,1-2.334-2.616,18.379,18.379,0,0,1-1.625-4.347,49.851,49.851,0,0,0-13-18.658,8.481,8.481,0,0,0-3.853-2.758,7.738,7.738,0,0,0-4.276.423,64.663,64.663,0,0,0-23.22,14.137,26.388,26.388,0,0,0-7.915,10.178,23.493,23.493,0,0,0-1.132,8.446,64.905,64.905,0,0,0,6.151,27c.6,1.308,1.271,2.616,1.978,3.889a122.483,122.483,0,0,0,16.612,21.592l8.41,9.4c8.271,9.259,16.54,18.518,25.516,27.036a33.714,33.714,0,0,0,11.45,7.986,12.793,12.793,0,0,0,13.147-2.12,19.039,19.039,0,0,0,3.746-6.716c5.442-14.135,10.6-28.837,10.92-44.068a166.554,166.554,0,0,0-.776-18.272C929.9,569.543,925.343,567.034,919.335,566.644Z" transform="translate(2051.723 1142.214)" fill="#2e313f"/>
    <path id="Pfad_66" data-name="Pfad 66" d="M1222.4,787.771a816.819,816.819,0,0,1-7.564,106.269c-.707,5.689-1.485,11.379-1.873,17.069-1.166,16.5.743,33.079-.814,49.476-.812,8.871-2.65,17.67-4.2,26.33a468.1,468.1,0,0,0-6.008,117.154c4.877,65.131-10.071,130.3-3.286,195.255a157.711,157.711,0,0,1-2.086,37.778,159.991,159.991,0,0,1-5.476,22.83q-7.742,26.539-15.548,53.01a18.407,18.407,0,0,1-3.536,7.351,16.746,16.746,0,0,1-13.252,3.924c-20.392-.636-39.582-9.436-58.1-18.023a20.235,20.235,0,0,1-5.832-3.534c-3.853-3.995-3.534-10.284-5.23-15.55s-6.29-10.213-8.907-15.619a51.062,51.062,0,0,1-3.852-16.081q-3.532-27.142-4.8-54.5c-1.344-25.656,15.619-49.264,21.2-74.214,10.6-49.052,1.626-101.639,20.463-148.181,5.937-14.7-2.687-32.516-3.534-48.348a153.407,153.407,0,0,0-3.958-30.321c-3.535-13.287-10.991-25.8-11.521-39.582-.388-9.965,2.827-19.684,4.488-29.509a132.662,132.662,0,0,0-.6-43.575c-1.872-11.874-4.736-23.748-7.6-35.339l-.636,1.307a399.327,399.327,0,0,0-22.158,52.127c-2.827,8.657-5.3,17.493-8.835,25.9-2.9,7.068-6.468,13.535-9.966,20.179a579.583,579.583,0,0,0-32.69,72.624c-4.382,12.228-8.234,24.738-12.049,37l-26.189,84.818c-7.068,22.3-14.807,43.856-21.734,66.12-9.79,31.807-19.579,63.331-30.96,94.43-10.6,29.509-23.218,60.079-19.435,91.249a67.15,67.15,0,0,1-31.207,6.326,182.7,182.7,0,0,1-53.01-12.864c-6.75-2.508-13.747-5.336-18.306-10.885-7.846-9.578-5.9-23.608-3.534-35.8a86.384,86.384,0,0,1,4.241-16.115c2.686-6.5,7.067-12.264,9.825-18.7,5.547-12.333,5.9-26.292,8.093-39.687s7.068-27.53,18.518-34.81c1.943-23.537,11.626-46.754,16.964-69.761,4.029-17.422,5.371-35.339,8.552-53.01s8.3-35.34,18.977-49.653a78.7,78.7,0,0,1,9.611-42.409,46.262,46.262,0,0,0,4.207-9.011,51.784,51.784,0,0,0,1.131-9.33,55.191,55.191,0,0,1,14.913-32.762c-3.533-12.9,1.38-26.361,5.8-38.873a135.09,135.09,0,0,0,7.422-49.724,43.533,43.533,0,0,1,.671-14.135c.99-3.536,2.934-6.54,4.065-9.932a56.511,56.511,0,0,0,1.59-12.688c1.379-19.117,9.118-37.143,17.67-54.213,5.089-9.964.778-23.5,1.837-34.6,1.839-18.448,3.852-37.531,13.006-53.611,1.7-3.039,3.534-5.937,5.054-9.081a39.354,39.354,0,0,0,2.932-14.137c.319-8.093,1.449-14.808-1.449-22.337,18.908-15.724,44.707-20.143,69.3-21.2s49.478,1.167,73.542-4.064c7.07-1.591,14.138-3.782,21.594-4.842,16.927-2.474,34.1,1.378,50.818,5.194-1.166,10.6,2.722,20.781,7.068,30.64A328.888,328.888,0,0,1,1222.4,787.771Z" transform="translate(1962.823 1415.852)" fill="#33313f"/>
    <path id="Pfad_67" data-name="Pfad 67" d="M929.68,673.29l-40.606,91.32c-1.873-11.873-4.734-23.749-7.6-35.34l-.635,1.308V728.67L902.963,680Z" transform="translate(2172.312 1538.426)" opacity="0.1"/>
    <path id="Pfad_68" data-name="Pfad 68" d="M969.23,635.81a15.268,15.268,0,0,1-8.057,3,39.183,39.183,0,0,1-13.218-1.8l-31.806-7.952a15.617,15.617,0,0,1-2.9-1.026c.531-5.548,1.59-11.98,4.593-14.137,4.489-3,17.918,1.026,23.008,1.732,8.764,1.2,17.671,2.614,26.223,4.276A70.195,70.195,0,0,1,969.23,635.81Z" transform="translate(2254.441 1385.14)" opacity="0.1"/>
    <path id="Pfad_69" data-name="Pfad 69" d="M998.489,567.9c.671,2.934,1.625,5.83,2.19,8.8a67.121,67.121,0,0,1-.742,21.875l-2.9,20.215-2.9,20.319-11.2,78.21-2.756,19.367-3.888,27.035a19.467,19.467,0,0,1-1.7,6.5,13.531,13.531,0,0,1-11.061,6.537,40.09,40.09,0,0,1-13.218-1.8l-31.807-7.988a9.948,9.948,0,0,1-3.887-1.59,7.668,7.668,0,0,1-2.05-7.458c.461-2.686,1.626-5.195,2.015-7.879.778-5.232-1.414-10.6-.638-15.8a39.365,39.365,0,0,1,3.536-9.508c10.6-23.43,4.452-50.782,8.057-76.228a115.573,115.573,0,0,1,24.526-54.566,156.6,156.6,0,0,1,27.071-26.575c3.959-3.075,10.249-9.4,15.231-10.6C998.771,555.425,997.428,563.447,998.489,567.9Z" transform="translate(2252.076 1242.775)" fill="#2e313f"/>
    <path id="Pfad_70" data-name="Pfad 70" d="M892.233,486.534c-2.332,7.422,1.307,15.585-.353,23.148-1.8,8.34-9.649,14.135-11.875,22.511-3.534,12.758,7.281,24.385,15.2,34.987,29.333,39.369,25.483,93.865,15.446,141.892a732.8,732.8,0,0,1-33.4,113.088c-4.417,11.415-9.294,23.007-17.989,31.559,16.257-4.665,33.538-9.365,49.83-4.842,20.639,5.725,38.449,25.763,59.371,21.2,12.583-2.793,21.418-13.96,32.726-20.144,21.2-11.416,46.755-4.241,70.4-.565a27.639,27.639,0,0,0,15.374-.778,25.558,25.558,0,0,0,9.33-8.588,87.167,87.167,0,0,0,18.165-47,60.3,60.3,0,0,0-17.353-46.4c-5.019-4.736-11.025-8.552-14.877-14.136a43.887,43.887,0,0,1-5.832-21.416c-2.791-38.875,6.68-78.561-3.074-116.164-3.534-13.394-9.295-26.223-10.849-39.935-1.944-17.069,2.684-35.34-4.1-50.96-5.335-12.4-17.1-21.205-29.793-25.728s-26.258-5.8-39.722-7.068C969.487,469.57,900.324,461.266,892.233,486.534Z" transform="translate(2117.628 1019.719)" fill="#33313f"/>
    <g id="Gruppe_1" data-name="Gruppe 1" transform="translate(2976.888 1498.16)" opacity="0.1">
      <path id="Pfad_71" data-name="Pfad 71" d="M897.619,671.4A731.222,731.222,0,0,1,864.4,784.03c2.437-4.842,4.488-9.931,6.43-14.985a728.688,728.688,0,0,0,33.4-113.089c10.072-48.063,13.923-102.487-15.408-141.89-7.068-9.4-16.15-19.579-15.833-30.606a37.7,37.7,0,0,0-6.007,11.1c-3.533,12.758,7.28,24.385,15.2,34.987C911.508,568.878,907.656,623.373,897.619,671.4Z" transform="translate(-846.235 -440.769)"/>
      <path id="Pfad_72" data-name="Pfad 72" d="M869.276,499.052a34.389,34.389,0,0,0,6.22-11.911,60.577,60.577,0,0,0-.424-15.761,16.983,16.983,0,0,0-5.865,8.093C867.12,485.728,869.523,492.514,869.276,499.052Z" transform="translate(-836.233 -471.38)"/>
      <path id="Pfad_73" data-name="Pfad 73" d="M1102.931,578.184a25.444,25.444,0,0,1-9.33,8.553,26.989,26.989,0,0,1-15.372.777c-23.643-3.533-49.478-10.814-70.4.6-11.344,6.149-20.144,17.318-32.76,20.145-20.887,4.665-38.7-15.373-59.337-21.205-14.631-4.064-30.04-.706-44.776,3.536a61.767,61.767,0,0,1-11.7,16.892c16.255-4.665,33.538-9.365,49.829-4.841,20.64,5.726,38.451,25.762,59.373,21.2,12.58-2.793,21.416-13.96,32.724-20.144,21.2-11.415,46.756-4.242,70.4-.565a27.634,27.634,0,0,0,15.372-.779,25.544,25.544,0,0,0,9.33-8.587,95.034,95.034,0,0,0,14.631-27.989A102.915,102.915,0,0,1,1102.931,578.184Z" transform="translate(-859.26 -232.168)"/>
    </g>
  </g>
</svg>
