<svg xmlns="http://www.w3.org/2000/svg" width="1021.759" height="750.264" viewBox="0 0 1021.759 750.264">
  <g id="landing_page" transform="translate(0)">
    <path id="Pfad_63" data-name="Pfad 63" d="M268.227,74.868l-53.388,87.261A65.991,65.991,0,0,1,145.984,274.67L89.219,367.451,636.854,702.5,815.862,409.921Z" transform="translate(-89.12 -74.868)" fill="rgba(242,242,242,0.2)"/>
    <circle id="Ellipse_21" data-name="Ellipse 21" cx="43" cy="43" r="43" transform="translate(54.759 99.593)" fill="rgba(242,242,242,0.2)"/>
    <ellipse id="Ellipse_22" data-name="Ellipse 22" cx="152" cy="10" rx="152" ry="10" transform="translate(344.759 698.593)" fill="rgba(242,242,242,0.2)"/>
    <ellipse id="Ellipse_23" data-name="Ellipse 23" cx="71" cy="4.671" rx="71" ry="4.671" transform="translate(168.759 740.922)" fill="rgba(242,242,242,0.2)"/>
    <ellipse id="Ellipse_24" data-name="Ellipse 24" cx="152" cy="10" rx="152" ry="10" transform="translate(646.759 675.593)" fill="rgba(242,242,242,0.2)"/>
    <line id="Linie_1" data-name="Linie 1" x2="1015" transform="translate(6.759 669.593)" fill="none" stroke="#2f2e41" stroke-miterlimit="10" stroke-width="2"/>
    <rect id="Rechteck_7" data-name="Rechteck 7" width="730" height="493" transform="translate(183.259 176.093)" fill="#13213c"/>
    <line id="Linie_2" data-name="Linie 2" x2="730" transform="translate(183.259 212.152)" fill="none" stroke="#2f2e41" stroke-miterlimit="10" stroke-width="2"/>
    <circle id="Ellipse_25" data-name="Ellipse 25" cx="9" cy="9" r="9" transform="translate(196.759 185.093)" fill="#fca310"/>
    <circle id="Ellipse_26" data-name="Ellipse 26" cx="9" cy="9" r="9" transform="translate(223.759 185.593)" fill="#fca310"/>
    <circle id="Ellipse_27" data-name="Ellipse 27" cx="9" cy="9" r="9" transform="translate(250.759 186.093)" fill="#fca310"/>
    <rect id="Rechteck_8" data-name="Rechteck 8" width="616" height="120" transform="translate(228.759 245.593)" fill="#fca310" opacity="0.3"/>
    <line id="Linie_3" data-name="Linie 3" y1="120" x2="616" transform="translate(228.759 245.593)" fill="none" stroke="#fca310" stroke-miterlimit="10" stroke-width="2" opacity="0.3"/>
    <line id="Linie_4" data-name="Linie 4" x1="616" y1="120" transform="translate(228.759 245.593)" fill="none" stroke="#fca310" stroke-miterlimit="10" stroke-width="2" opacity="0.3"/>
    <rect id="Rechteck_9" data-name="Rechteck 9" width="147" height="193" transform="translate(228.759 441.593)" fill="#fca310" opacity="0.3"/>
    <rect id="Rechteck_10" data-name="Rechteck 10" width="147" height="193" transform="translate(697.759 441.593)" fill="#fca310" opacity="0.3"/>
    <rect id="Rechteck_11" data-name="Rechteck 11" width="147" height="193" transform="translate(463.259 441.593)" fill="#fca310" opacity="0.3"/>
    <line id="Linie_5" data-name="Linie 5" x2="147" y2="193" transform="translate(228.759 441.593)" fill="none" stroke="#fca310" stroke-miterlimit="10" stroke-width="2" opacity="0.3"/>
    <line id="Linie_6" data-name="Linie 6" x1="147" y2="193" transform="translate(228.759 441.593)" fill="none" stroke="#fca310" stroke-miterlimit="10" stroke-width="2" opacity="0.3"/>
    <line id="Linie_7" data-name="Linie 7" x2="147" y2="193" transform="translate(463.759 441.593)" fill="none" stroke="#fca310" stroke-miterlimit="10" stroke-width="2" opacity="0.3"/>
    <line id="Linie_8" data-name="Linie 8" x1="147" y2="193" transform="translate(463.759 441.593)" fill="none" stroke="#fca310" stroke-miterlimit="10" stroke-width="2" opacity="0.3"/>
    <line id="Linie_9" data-name="Linie 9" x2="147" y2="193" transform="translate(697.759 441.593)" fill="none" stroke="#fca310" stroke-miterlimit="10" stroke-width="2" opacity="0.3"/>
    <line id="Linie_10" data-name="Linie 10" x1="147" y2="193" transform="translate(697.759 441.593)" fill="none" stroke="#fca310" stroke-miterlimit="10" stroke-width="2" opacity="0.3"/>
    <rect id="Rechteck_12" data-name="Rechteck 12" width="616" height="120" transform="translate(310.759 245.593)" fill="#fca310"/>
    <rect id="Rechteck_13" data-name="Rechteck 13" width="147" height="193" transform="translate(725.759 487.593)" fill="#fca310"/>
    <rect id="Rechteck_14" data-name="Rechteck 14" width="104" height="12" transform="translate(747.259 513.093)" fill="#13213c"/>
    <rect id="Rechteck_15" data-name="Rechteck 15" width="104" height="12" transform="translate(747.259 539.093)" fill="#13213c"/>
    <rect id="Rechteck_16" data-name="Rechteck 16" width="104" height="12" transform="translate(747.259 565.093)" fill="#13213c"/>
    <rect id="Rechteck_17" data-name="Rechteck 17" width="104" height="12" transform="translate(747.259 591.093)" fill="#13213c"/>
    <rect id="Rechteck_18" data-name="Rechteck 18" width="104" height="12" transform="translate(747.259 617.093)" fill="#13213c"/>
    <rect id="Rechteck_19" data-name="Rechteck 19" width="104" height="12" transform="translate(747.259 643.093)" fill="#13213c"/>
    <rect id="Rechteck_20" data-name="Rechteck 20" width="147" height="193" transform="translate(264.759 467.593)" fill="#fca310"/>
    <rect id="Rechteck_21" data-name="Rechteck 21" width="104" height="12" transform="translate(286.259 532.093)" fill="#13213c"/>
    <rect id="Rechteck_22" data-name="Rechteck 22" width="104" height="12" transform="translate(286.259 558.093)" fill="#13213c"/>
    <rect id="Rechteck_23" data-name="Rechteck 23" width="104" height="12" transform="translate(286.259 584.093)" fill="#13213c"/>
    <path id="Pfad_64" data-name="Pfad 64" d="M737.714,390.83c0,22.469-13.356,30.314-29.834,30.314q-.573,0-1.143-.013c-.763-.016-1.52-.053-2.267-.1-14.871-1.052-26.424-9.3-26.424-30.2,0-21.625,27.634-48.912,29.71-50.932l0,0,.12-.116S737.714,368.362,737.714,390.83Z" transform="translate(-89.12 -74.868)" fill="#13213c"/>
    <path id="Pfad_65" data-name="Pfad 65" d="M706.793,417.707,717.7,402.46l-10.939,16.921-.029,1.75c-.763-.016-1.52-.053-2.267-.1l1.176-22.479-.009-.174.02-.033.111-2.123L694.8,379.255l11,15.37.025.451.889-16.985-9.388-17.528,9.5,14.547.925-35.212,0-.12v.116l-.154,27.767,9.347-11.008-9.385,13.4-.247,15.207,8.727-14.594L707.283,387.5l-.138,8.454,12.669-20.313L707.1,398.9Z" transform="translate(-89.12 -74.868)" fill="#fca310"/>
    <circle id="Ellipse_28" data-name="Ellipse 28" cx="23.433" cy="23.433" r="23.433" transform="translate(58.798 315.806)" fill="#13213c"/>
    <path id="Pfad_66" data-name="Pfad 66" d="M159.014,429.707s.353,14.464-1.058,14.817,19.4,6,19.4,6l2.117-19.756Z" transform="translate(-89.12 -74.868)" fill="#a0616a"/>
    <path id="Pfad_67" data-name="Pfad 67" d="M323.413,553.183s15.523,0,15.875-1.764,3.528,14.464,3.528,14.464L336.466,568s-11.995-5.292-13.053-5.292S323.413,553.183,323.413,553.183Z" transform="translate(-89.12 -74.868)" fill="#a0616a"/>
    <path id="Pfad_68" data-name="Pfad 68" d="M340.347,559.533s-2.822-9.525-6.35-9.878c0,0,11.995-7.761,12.348-10.231s4.586-8.82,6.35-6.7,1.764,35.632-1.411,39.159S334,566.922,334,566.922,342.817,563.061,340.347,559.533Z" transform="translate(-89.12 -74.868)" fill="#2f2e41"/>
    <path id="Pfad_69" data-name="Pfad 69" d="M59.663,619.783l-2.822,15.17,13.053,2.117V619.783Z" fill="#a0616a"/>
    <path id="Pfad_70" data-name="Pfad 70" d="M148.783,708.057s-2.117-6.7-3.528-5.645-3.528,7.761-3.175,9.525,2.822,15.523,1.764,17.992,5.292,15.17,13.406,14.112,7.409-8.114,7.409-8.114l-2.822-10.936L160.778,707.7S151.605,706.293,148.783,708.057Z" transform="translate(-89.12 -74.868)" fill="#13213c"/>
    <circle id="Ellipse_29" data-name="Ellipse 29" cx="9.696" cy="9.696" r="9.696" transform="translate(64.338 304.88)" fill="#13213c"/>
    <path id="Pfad_71" data-name="Pfad 71" d="M150.226,384.192a9.7,9.7,0,0,1,8.686-9.644,9.7,9.7,0,1,0,0,19.288,9.7,9.7,0,0,1-8.686-9.644Z" transform="translate(-89.12 -74.868)" fill="#13213c"/>
    <circle id="Ellipse_30" data-name="Ellipse 30" cx="14.817" cy="14.817" r="14.817" transform="translate(67.424 335.083)" fill="#a0616a"/>
    <path id="Pfad_72" data-name="Pfad 72" d="M142.08,527.782s.706,17.639,3.528,26.812,13,74.5,10.881,79.436-13,59.563-10.528,62.738,14.112,2.117,14.112,2.117l15.82-66.266s-3.119-73.086,22.987-74.849,68.794-2.822,68.794-2.822,27.517,8.114,39.865,7.761,19.4,3.175,19.4,3.175l2.117-14.464-54.682-11.995s-50.1-17.287-77.613-12.7S142.08,527.782,142.08,527.782Z" transform="translate(-89.12 -74.868)" fill="#13213c"/>
    <path id="Pfad_73" data-name="Pfad 73" d="M161.836,439.938s-4.233-2.47-5.292,0-8.467,4.586-11.289,2.47-9.878.706-9.878.706l-7.761,22.931s3.881,19.756,7.409,30.693,4.939,33.515,3.528,35.632,28.223,10.584,42.687,5.292,17.639-11.289,17.639-11.289S183,503.793,188.3,493.209s1.058-22.578,1.058-22.578l2.117-11.995-11.995-6.7s-.706-6.35-3.528-6.35S161.836,439.938,161.836,439.938Z" transform="translate(-89.12 -74.868)" fill="#d0cde1"/>
    <path id="Pfad_74" data-name="Pfad 74" d="M186.179,458.988h5.292A11.843,11.843,0,0,1,195,469.925c-1.411,6.7-7.775,28.925-7.775,28.925l-5.278-13.755Z" transform="translate(-89.12 -74.868)" fill="#d0cde1"/>
    <path id="Pfad_75" data-name="Pfad 75" d="M201.375,515.644s10.558,11.432,2.8,17.43-9.674-13.759-9.674-13.759Z" transform="translate(-89.12 -74.868)" fill="#a0616a"/>
    <path id="Pfad_76" data-name="Pfad 76" d="M186.179,491.8l2.47,9.878,4.233,7.761s14.464,9.525,14.464,13.053c0,0-6.35-8.114-14.464,0l-7.232-17.463Z" transform="translate(-89.12 -74.868)" fill="#d0cde1"/>
    <ellipse id="Ellipse_31" data-name="Ellipse 31" cx="16.16" cy="9.696" rx="16.16" ry="9.696" transform="translate(68.797 324.574)" fill="#13213c"/>
    <path id="Pfad_77" data-name="Pfad 77" d="M142.08,409.951s11.289-6.35,15.875-1.764S144.2,419.829,144.2,419.829Z" transform="translate(-89.12 -74.868)" fill="#a0616a"/>
    <path id="Pfad_78" data-name="Pfad 78" d="M137.847,444.877l-2.47-1.764s-2.822-4.233-5.292-2.822S113.152,435,113.152,435s5.292,2.47,5.292-1.764.706-3.528,4.233-3.528,3.528,1.764,4.939-.706.706-3.881,3.175-2.47,5.292.353,6-.706S150.194,423,150.194,423s-4.939-14.464-6-15.523-28.223,10.936-28.223,10.936-34.22,9.525-25.4,20.462S131.144,466.4,131.144,466.4Z" transform="translate(-89.12 -74.868)" fill="#d0cde1"/>
    <rect id="Rechteck_24" data-name="Rechteck 24" width="147" height="193" transform="translate(430.759 515.593)" fill="#fca310"/>
    <rect id="Rechteck_25" data-name="Rechteck 25" width="66" height="66" transform="translate(471.259 546.093)" fill="#13213c"/>
    <rect id="Rechteck_26" data-name="Rechteck 26" width="116" height="8" transform="translate(446.259 626.093)" fill="#13213c"/>
    <rect id="Rechteck_27" data-name="Rechteck 27" width="116" height="8" transform="translate(446.259 648.093)" fill="#13213c"/>
    <rect id="Rechteck_28" data-name="Rechteck 28" width="116" height="8" transform="translate(446.259 670.093)" fill="#13213c"/>
    <path id="Pfad_79" data-name="Pfad 79" d="M351.753,799.894c0,14.581-8.668,19.672-19.361,19.672q-.372,0-.742-.008c-.5-.011-.986-.034-1.471-.067-9.65-.683-17.148-6.036-17.148-19.6,0-14.034,17.933-31.742,19.28-33.052l0,0,.078-.076S351.753,785.314,351.753,799.894Z" transform="translate(-89.12 -74.868)" fill="#fca310"/>
    <path id="Pfad_80" data-name="Pfad 80" d="M331.687,817.336l7.081-9.894-7.1,10.981-.019,1.136c-.5-.011-.986-.034-1.471-.067l.763-14.588-.006-.113.013-.021.072-1.378-7.116-11.008,7.139,9.975.017.293.577-11.022-6.093-11.375,6.167,9.44.6-22.851,0-.078v.076l-.1,18.019,6.065-7.144-6.09,8.7-.16,9.868,5.663-9.471-5.687,10.923-.09,5.486,8.222-13.182-8.252,15.1Z" transform="translate(-89.12 -74.868)" fill="#13213c"/>
  </g>
</svg>
