<svg xmlns="http://www.w3.org/2000/svg" width="174.887" height="134.658" viewBox="0 0 174.887 134.658">
  <g id="login" transform="translate(0.114)">
    <path id="Pfad_442" data-name="Pfad 442" d="M68.338,281.224l13.525-21.269-30.29-19.261-15.642,24.6,25.054,15.931Z" transform="translate(-28.031 -188.332)" fill="#fff"/>
    <path id="Pfad_443" data-name="Pfad 443" d="M351,574.744H317.5V568H351Zm-33.067-.435h32.632v-5.874H317.935Z" transform="translate(-291.529 -475.216)" fill="#3f3d56"/>
    <ellipse id="Ellipse_128" data-name="Ellipse 128" cx="2.5" cy="1.5" rx="2.5" ry="1.5" transform="translate(52.886 94.658)" fill="#fca310"/>
    <ellipse id="Ellipse_129" data-name="Ellipse 129" cx="2" cy="1.5" rx="2" ry="1.5" transform="translate(47.886 94.658)" fill="#fca310"/>
    <ellipse id="Ellipse_130" data-name="Ellipse 130" cx="2" cy="1.5" rx="2" ry="1.5" transform="translate(40.886 94.658)" fill="#fca310"/>
    <ellipse id="Ellipse_131" data-name="Ellipse 131" cx="2" cy="1.5" rx="2" ry="1.5" transform="translate(34.886 94.658)" fill="#fca310"/>
    <ellipse id="Ellipse_132" data-name="Ellipse 132" cx="2.5" cy="1.5" rx="2.5" ry="1.5" transform="translate(28.886 94.658)" fill="#fca310"/>
    <path id="Pfad_444" data-name="Pfad 444" d="M538.7,166.083V149.549h8.267V141.5H506.5v40.464h34.59v-3.956a5.616,5.616,0,0,1,5.616-5.616h.258v-6.309Z" transform="translate(-439.412 -141.5)" fill="#fff"/>
    <rect id="Rechteck_56" data-name="Rechteck 56" width="27" height="6" transform="translate(116.886 104.658)" fill="#fca310"/>
    <rect id="Rechteck_57" data-name="Rechteck 57" width="39" height="5" transform="translate(110.886 76.658)" fill="#f0f0f0"/>
    <rect id="Rechteck_58" data-name="Rechteck 58" width="169" height="1" transform="translate(-0.114 133.658)" fill="#e5e5e5"/>
    <path id="Pfad_445" data-name="Pfad 445" d="M719.8,386.052H670.333a5.84,5.84,0,0,1-5.833-5.833V288.333a5.84,5.84,0,0,1,5.833-5.833H719.8a5.84,5.84,0,0,1,5.833,5.833v91.885A5.84,5.84,0,0,1,719.8,386.052ZM670.333,282.935a5.4,5.4,0,0,0-5.4,5.4v91.885a5.4,5.4,0,0,0,5.4,5.4H719.8a5.4,5.4,0,0,0,5.4-5.4V288.333a5.4,5.4,0,0,0-5.4-5.4Z" transform="translate(-563.04 -251.826)" fill="#e5e5e5"/>
    <path id="Pfad_446" data-name="Pfad 446" d="M773.305,293.111a1.305,1.305,0,1,1,1.305-1.305A1.305,1.305,0,0,1,773.305,293.111Zm0-2.175a.87.87,0,1,0,.87.87A.87.87,0,0,0,773.305,290.935Z" transform="translate(-647.154 -258.086)" fill="#e5e5e5"/>
    <rect id="Rechteck_59" data-name="Rechteck 59" width="9.572" height="0.435" transform="translate(129.415 33.502)" fill="#e5e5e5"/>
    <path id="Pfad_447" data-name="Pfad 447" d="M864.9,311.5v17.4a17.4,17.4,0,0,1-17.4-17.4Z" transform="translate(-706.229 -274.517)" fill="#fca310"/>
    <path id="Pfad_448" data-name="Pfad 448" d="M735.234,402.087H681.5V310.5h53.734Zm-53.3-.435H734.8V310.935H681.935Z" transform="translate(-576.342 -273.735)" fill="#e5e5e5"/>
    <ellipse id="Ellipse_133" data-name="Ellipse 133" cx="6.5" cy="6" rx="6.5" ry="6" transform="translate(139.886 41.658)" opacity="0.1"/>
    <circle id="Ellipse_134" data-name="Ellipse 134" cx="5.5" cy="5.5" r="5.5" transform="translate(139.886 42.658)" fill="#fca310"/>
    <rect id="Rechteck_60" data-name="Rechteck 60" width="9" height="4" transform="translate(106.886 39.658)" fill="#e5e5e5"/>
    <rect id="Rechteck_61" data-name="Rechteck 61" width="9" height="4" transform="translate(111.886 68.658)" fill="#e5e5e5"/>
    <path id="Pfad_449" data-name="Pfad 449" d="M753.529,492.156H713.5V486.5h40.029Zm-39.593-.435h39.158v-4.786H713.935Z" transform="translate(-601.38 -411.446)" fill="#e5e5e5"/>
    <rect id="Rechteck_62" data-name="Rechteck 62" width="39" height="5" transform="translate(110.886 92.658)" fill="#f0f0f0"/>
    <rect id="Rechteck_63" data-name="Rechteck 63" width="9" height="4" transform="translate(111.886 85.658)" fill="#e5e5e5"/>
    <path id="Pfad_450" data-name="Pfad 450" d="M753.529,568.156H713.5V562.5h40.029Zm-39.593-.435h39.158v-4.786H713.935Z" transform="translate(-601.38 -470.913)" fill="#e5e5e5"/>
    <path id="Pfad_451" data-name="Pfad 451" d="M769.911,619.591H742.5V613.5h27.411Zm-26.976-.435h26.541v-5.221H742.935Z" transform="translate(-624.071 -510.818)" fill="#e5e5e5"/>
    <path id="Pfad_452" data-name="Pfad 452" d="M876.848,494.675A2.176,2.176,0,0,1,873,496.061l0,0a2.175,2.175,0,1,1,3.792-1.9v0h0A2.224,2.224,0,0,1,876.848,494.675Z" transform="translate(-725.787 -416.141)" fill="#fca310"/>
    <path id="Pfad_453" data-name="Pfad 453" d="M878.416,497.8a2.176,2.176,0,0,1-3.853,1.386l0,0a2.225,2.225,0,0,1-.061-.513,2.176,2.176,0,0,1,3.853-1.386v0h0A2.217,2.217,0,0,1,878.416,497.8Z" transform="translate(-727.355 -419.271)" opacity="0.1"/>
    <ellipse id="Ellipse_135" data-name="Ellipse 135" cx="2.5" cy="2" rx="2.5" ry="2" transform="translate(147.886 77.658)" fill="#fca310"/>
    <path id="Pfad_454" data-name="Pfad 454" d="M876.848,570.675A2.176,2.176,0,0,1,873,572.061l0,0a2.175,2.175,0,1,1,3.792-1.9v0h0A2.224,2.224,0,0,1,876.848,570.675Z" transform="translate(-725.787 -475.607)" fill="#fca310"/>
    <path id="Pfad_455" data-name="Pfad 455" d="M878.416,573.8a2.176,2.176,0,0,1-3.853,1.386l0,0a2.217,2.217,0,0,1-.061-.513,2.176,2.176,0,0,1,3.853-1.386v0h0A2.218,2.218,0,0,1,878.416,573.8Z" transform="translate(-727.355 -478.737)" opacity="0.1"/>
    <ellipse id="Ellipse_136" data-name="Ellipse 136" cx="2.5" cy="1.5" rx="2.5" ry="1.5" transform="translate(147.886 94.658)" fill="#fca310"/>
    <rect id="Rechteck_64" data-name="Rechteck 64" width="11" height="12" transform="translate(101.886 10.658)" fill="#f0f0f0"/>
    <path id="Pfad_456" data-name="Pfad 456" d="M860.111,208.721a2.611,2.611,0,1,1,2.611-2.611A2.611,2.611,0,0,1,860.111,208.721Zm0-4.786a2.175,2.175,0,1,0,2.176,2.175A2.175,2.175,0,0,0,860.111,203.935Z" transform="translate(-714.054 -190.012)" fill="#e5e5e5"/>
    <path id="Pfad_457" data-name="Pfad 457" d="M585.156,374.156H579.5V368.5h5.656Zm-5.221-.435h4.786v-4.786h-4.786Z" transform="translate(-496.532 -319.117)" fill="#e5e5e5"/>
    <path id="Pfad_458" data-name="Pfad 458" d="M981.156,568.156H975.5V562.5h5.656Zm-5.221-.435h4.786v-4.786h-4.786Z" transform="translate(-806.383 -470.913)" fill="#e5e5e5"/>
    <path id="Pfad_459" data-name="Pfad 459" d="M488.5,386.52l.971.523,3.3,1.78,5.332,2.873,3.107-5.765a4.683,4.683,0,0,0-1.9-6.35,6.22,6.22,0,0,0-7.262.985l0,0a6.225,6.225,0,0,0-1.169,1.539Z" transform="translate(-425.33 -327.202)" fill="#ff6584"/>
    <path id="Pfad_460" data-name="Pfad 460" d="M339.913,540.594l-.651,7.166-2.443.326-1.629-8.143Z" transform="translate(-262.187 -422.48)" fill="#ffb8b8"/>
    <path id="Pfad_461" data-name="Pfad 461" d="M535.448,715.885s3.094-1.629,3.746-.326c0,0-.489,3.909,1.466,4.4s2.769,3.909,0,4.234-4.56-.651-5.537-.651,0-3.42,0-3.42Z" transform="translate(-461.468 -590.279)" fill="#e5e5e5"/>
    <path id="Pfad_462" data-name="Pfad 462" d="M266.316,540.594l.652,7.166,2.443.326,1.629-8.143Z" transform="translate(-208.297 -422.48)" fill="#ffb8b8"/>
    <path id="Pfad_463" data-name="Pfad 463" d="M456.873,715.885s-3.094-1.629-3.746-.326c0,0,.489,3.909-1.466,4.4s-2.769,3.909,0,4.234,4.56-.651,5.537-.651,0-3.42,0-3.42Z" transform="translate(-395.108 -590.279)" fill="#e5e5e5"/>
    <circle id="Ellipse_137" data-name="Ellipse 137" cx="4.234" cy="4.234" r="4.234" transform="translate(67.14 52.155)" fill="#ffb8b8"/>
    <path id="Pfad_464" data-name="Pfad 464" d="M464.067,409.012l3.42,5.374,4.072-.326,6.677.489s.63-1.26,1.145-2.487a9.633,9.633,0,0,0,.647-1.91c.163-1.14-2.117-2.28-2.117-2.28s-.09-.016-.239-.052c-.2-.047-.5-.125-.84-.239-.757-.257-1.668-.694-1.852-1.337-.326-1.14,2.117-2.769,2.117-2.769l-2.932-2.769s-2.6,3.617-5.767,4.441a5.047,5.047,0,0,1-.557.114l-.028,0A4.336,4.336,0,0,0,464.067,409.012Z" transform="translate(-406.211 -344.317)" fill="#ffb8b8"/>
    <path id="Pfad_465" data-name="Pfad 465" d="M451.969,432.148l-1.791,1.466s-1.466,7-.977,8.957a9.25,9.25,0,0,1-.163,4.072c0,.326-1.466,12.54-1.466,12.54s-2.931,6.514.163,5.863,1.954-7.166,1.954-7.166l3.746-11.4v-9.609Z" transform="translate(-392.321 -368.919)" fill="#ffb8b8"/>
    <path id="Pfad_466" data-name="Pfad 466" d="M529.1,438.138l1.3.977.651,13.68,4.886,11.726s3.583,5.7,1.3,5.863-3.746-5.863-3.746-5.863l-4.4-11.237-.651-10.912Z" transform="translate(-456.587 -373.605)" fill="#ffb8b8"/>
    <path id="Pfad_467" data-name="Pfad 467" d="M465.285,442.629a12.253,12.253,0,0,0,8.469,1.466s1.466,2.932.651,4.56.977,5.537,1.3,6.026a91.263,91.263,0,0,1,5.374,21.5c1.3,10.912,4.886,18.4,1.792,19.38s-9.446,2.117-10.1,1.14-1.629-25.244-1.629-25.244l-1.792,9.283s2.443,15.8.651,16.123-13.029-.651-12.7-2.606,3.583-12.215,3.583-12.215-.163-20.521,3.094-24.429a4.676,4.676,0,0,0-.489-4.886c-1.791-2.769-1.629-7.166-1.629-7.166S463.168,445.561,465.285,442.629Z" transform="translate(-400.914 -377.12)" fill="#e5e5e5"/>
    <path id="Pfad_468" data-name="Pfad 468" d="M282.913,279.735l2.741,6.031.651-.326-2.836-5.819Z" transform="translate(-221.283 -218.79)" fill="#e5e5e5"/>
    <path id="Pfad_469" data-name="Pfad 469" d="M522.737,432.306l2.057,4.526.493-.044-.168-.77-1.542-3.472C523.379,432.5,523.073,432.42,522.737,432.306Z" transform="translate(-452.117 -369.042)" fill="#e5e5e5"/>
    <path id="Pfad_470" data-name="Pfad 470" d="M492.526,387.047a2.681,2.681,0,0,0,4.918.479c-2.06-2.694-.293-4.386,3.054-5.666a2.678,2.678,0,0,0-.288-2.971,6.241,6.241,0,0,0-5.106,1.681l0,0-2.378,4.41A2.668,2.668,0,0,0,492.526,387.047Z" transform="translate(-428.383 -327.206)" fill="#ff6584"/>
    <ellipse id="Ellipse_138" data-name="Ellipse 138" cx="0.57" cy="0.977" rx="0.57" ry="0.977" transform="translate(68.28 55.901)" fill="#ffb8b8"/>
    <path id="Pfad_471" data-name="Pfad 471" d="M522.408,383.884l4.9,2.218.9-1.98a4.691,4.691,0,0,0-.945-1.976l-3.37-1.526Z" transform="translate(-451.86 -328.601)" fill="#ff6584"/>
    <ellipse id="Ellipse_139" data-name="Ellipse 139" cx="1.5" cy="2.5" rx="1.5" ry="2.5" transform="translate(80.886 94.658)" fill="#fca310"/>
    <circle id="Ellipse_140" data-name="Ellipse 140" cx="1.422" cy="1.422" r="1.422" transform="translate(11.052 109.073)" fill="#ff6584"/>
    <rect id="Rechteck_65" data-name="Rechteck 65" width="0.435" height="16.188" transform="translate(19.222 117.904)" fill="#e5e5e5"/>
    <circle id="Ellipse_141" data-name="Ellipse 141" cx="2.289" cy="2.289" r="2.289" transform="translate(17.15 115.615)" fill="#e5e5e5"/>
    <path id="Pfad_472" data-name="Pfad 472" d="M262.186,706.738s-.327-7.034-7.031-6.216" transform="translate(-242.747 -578.857)" fill="#e5e5e5"/>
  </g>
</svg>
