<svg xmlns="http://www.w3.org/2000/svg" width="1131.19" height="870.939" viewBox="0 0 1131.19 870.939"><g transform="translate(-854 -27.061)"><path d="M245.6,502.919,333.107,365.31,137.136,240.694,35.931,399.847,198.024,502.919Z" transform="translate(869.612 125.143)" fill="#fca310" opacity="0.395"/><path d="M534.254,611.633H317.5V568H534.254Zm-213.939-2.815H531.44v-38H320.315Z" transform="translate(704.962 59.359)" fill="#3f3d56"/><ellipse cx="16" cy="10" rx="16" ry="10" transform="translate(1197 639)" fill="#fca310"/><ellipse cx="13" cy="10" rx="13" ry="10" transform="translate(1164 639)" fill="#fca310"/><ellipse cx="13" cy="10" rx="13" ry="10" transform="translate(1119 639)" fill="#fca310"/><ellipse cx="13" cy="10" rx="13" ry="10" transform="translate(1080 639)" fill="#fca310"/><ellipse cx="16.5" cy="10" rx="16.5" ry="10" transform="translate(1041 639)" fill="#fca310"/><path d="M714.81,300.547V193.577h53.485V141.5H506.5V403.294H730.292V377.7a36.334,36.334,0,0,1,36.334-36.334h1.669V300.547Z" transform="translate(781.979 -114.439)" fill="#fca310" opacity="0.395"/><rect width="174" height="39" transform="translate(1611 704)" fill="#fca310"/><rect width="252" height="32" transform="translate(1572 523)" fill="#13213c"/><rect width="1093" height="6" transform="translate(854 892)" fill="#e5e5e5"/><path d="M1022.266,952.468H702.242A37.784,37.784,0,0,1,664.5,914.727V320.241A37.784,37.784,0,0,1,702.242,282.5h320.024a37.784,37.784,0,0,1,37.741,37.741V914.727A37.784,37.784,0,0,1,1022.266,952.468ZM702.242,285.315a34.965,34.965,0,0,0-34.926,34.926V914.727a34.966,34.966,0,0,0,34.926,34.926h320.024a34.966,34.966,0,0,0,34.926-34.926V320.241a34.966,34.966,0,0,0-34.926-34.926Z" transform="translate(846.363 -56.982)" fill="#13213c"/><path d="M780.445,307.39a8.445,8.445,0,1,1,8.445-8.445A8.445,8.445,0,0,1,780.445,307.39Zm0-14.075a5.63,5.63,0,1,0,5.63,5.63A5.629,5.629,0,0,0,780.445,293.315Z" transform="translate(890.169 -53.722)" fill="#e5e5e5"/><rect width="61.93" height="2.815" transform="translate(1691.726 243.816)" fill="#e5e5e5"/><path d="M960.1,311.5V424.1A112.6,112.6,0,0,1,847.5,311.505Z" transform="translate(920.935 -45.164)" fill="#fca310"/><path d="M1029.151,903.056H681.5V310.5h347.651Zm-344.836-2.815h342.021V313.315H684.315Z" transform="translate(853.291 -45.572)" fill="#13213c"/><ellipse cx="42.5" cy="38.5" rx="42.5" ry="38.5" transform="translate(1759 297)" opacity="0.1"/><ellipse cx="36" cy="35.5" rx="36" ry="35.5" transform="translate(1759 303)" fill="#fca310"/><rect width="58" height="26" transform="translate(1546 284)" fill="#13213c"/><rect width="59" height="26" transform="translate(1578 471)" fill="#13213c"/><path d="M972.48,523.095H713.5V486.5H972.48ZM716.315,520.28h253.35V489.315H716.315Z" transform="translate(866.33 26.148)" fill="#13213c"/><rect width="252" height="32" transform="translate(1572 627)" fill="#13213c"/><rect width="59" height="26" transform="translate(1578 581)" fill="#13213c"/><path d="M972.48,599.1H713.5V562.5H972.48ZM716.315,596.28h253.35V565.315H716.315Z" transform="translate(866.33 57.117)" fill="#13213c"/><path d="M919.845,652.91H742.5V613.5H919.845Zm-174.53-2.815H917.03v-33.78H745.315Z" transform="translate(878.148 77.9)" fill="#e5e5e5"/><path d="M900.652,506.575a14.076,14.076,0,0,1-24.927,8.966l-.015-.014a14.074,14.074,0,1,1,24.533-12.287.016.016,0,0,0,0,.01.015.015,0,0,0,.01,0A14.384,14.384,0,0,1,900.652,506.575Z" transform="translate(931.121 28.593)" fill="#fca310"/><path d="M899.834,504.945a14.077,14.077,0,0,1-24.927,8.966l-.013-.014a14.387,14.387,0,0,1-.394-3.322,14.076,14.076,0,0,1,24.927-8.966.012.012,0,0,0,0,.01.014.014,0,0,0,.01,0A14.357,14.357,0,0,1,899.834,504.945Z" transform="translate(931.938 30.223)" opacity="0.1"/><ellipse cx="16.5" cy="13" rx="16.5" ry="13" transform="translate(1811 529)" fill="#fca310"/><path d="M900.652,582.575a14.076,14.076,0,0,1-24.927,8.966l-.015-.014a14.074,14.074,0,1,1,24.533-12.287.014.014,0,0,0,0,.01.015.015,0,0,0,.01,0A14.387,14.387,0,0,1,900.652,582.575Z" transform="translate(931.121 59.562)" fill="#fca310"/><path d="M899.834,580.945a14.076,14.076,0,0,1-24.927,8.966l-.013-.014a14.332,14.332,0,0,1-.394-3.322,14.076,14.076,0,0,1,24.927-8.966.011.011,0,0,0,0,.01.01.01,0,0,0,.01,0A14.364,14.364,0,0,1,899.834,580.945Z" transform="translate(931.938 61.192)" opacity="0.1"/><ellipse cx="16.5" cy="10" rx="16.5" ry="10" transform="translate(1811 639)" fill="#fca310"/><rect width="71" height="78" transform="translate(1514 96)" fill="#fca310" opacity="0.395"/><path d="M874.39,237.28a16.89,16.89,0,1,1,16.89-16.89A16.89,16.89,0,0,1,874.39,237.28Zm0-30.965a14.075,14.075,0,1,0,14.075,14.075A14.074,14.074,0,0,0,874.39,206.315Z" transform="translate(925.01 -89.174)" fill="#fca310" opacity="0.395"/><path d="M616.095,405.095H579.5V368.5h36.595Zm-33.78-2.815H613.28V371.315H582.315Z" transform="translate(811.726 -21.937)" fill="#fca310" opacity="0.395"/><path d="M1012.1,599.1H975.5V562.5h36.6Zm-33.78-2.815h30.965V565.315H978.315Z" transform="translate(973.095 57.117)" fill="#fca310" opacity="0.395"/><path d="M488.5,428.565l6.28,3.382,21.369,11.517,34.5,18.587,20.1-37.3a30.3,30.3,0,0,0-12.307-41.084,40.241,40.241,0,0,0-46.984,6.375l-.01.01a40.277,40.277,0,0,0-7.565,9.957Z" transform="translate(774.645 -17.726)" fill="#ff6584"/><path d="M365.747,544.158l-4.214,46.361-15.806,2.107L335.19,539.942Z" transform="translate(991.558 247.086)" fill="#ffb8b8"/><path d="M539.605,720.43s20.02-10.537,24.235-2.107c0,0-3.161,25.288,9.484,28.449s17.913,25.288,0,27.4-29.5-4.214-35.826-4.214,0-22.128,0-22.128Z" transform="translate(793.465 119.283)" fill="#13213c"/><path d="M266.316,544.158l4.216,46.361,15.8,2.107,10.537-52.684Z" transform="translate(963.493 247.086)" fill="#ffb8b8"/><path d="M495.139,720.43s-20.02-10.537-24.235-2.107c0,0,3.161,25.288-9.483,28.449s-17.913,25.288,0,27.4,29.5-4.214,35.826-4.214,0-22.128,0-22.128Z" transform="translate(758.905 119.283)" fill="#13213c"/><circle cx="27.396" cy="27.396" r="27.396" transform="translate(1288.815 364.497)" fill="#ffb8b8"/><path d="M464.068,454.445,486.2,489.217l26.342-2.107,43.2,3.161s4.078-8.155,7.407-16.09a62.326,62.326,0,0,0,4.184-12.36c1.053-7.376-13.7-14.752-13.7-14.752s-.58-.105-1.549-.337c-1.286-.306-3.267-.812-5.437-1.549-4.9-1.665-10.79-4.489-11.98-8.651-2.107-7.376,13.7-17.913,13.7-17.913L529.4,400.706s-16.848,23.4-37.311,28.734a32.655,32.655,0,0,1-3.6.738l-.179.032C466.175,433.371,464.068,454.445,464.068,454.445Z" transform="translate(764.687 -8.813)" fill="#ffb8b8"/><path d="M482.892,432.149l-11.59,9.483s-9.483,45.309-6.322,57.953-1.054,24.235-1.054,26.342-9.483,81.135-9.483,81.135-18.966,42.148,1.054,37.933,12.645-46.363,12.645-46.363l24.235-73.758V462.706Z" transform="translate(757.454 3.999)" fill="#ffb8b8"/><path d="M532.664,438.138l8.43,6.322,4.215,88.51,31.61,75.866s23.181,36.879,8.43,37.933-24.235-37.933-24.235-37.933l-28.449-72.7-4.215-70.6Z" transform="translate(790.923 6.44)" fill="#ffb8b8"/><path d="M508.974,442.629s21.074,14.752,54.792,9.483c0,0,9.483,18.967,4.215,29.5s6.322,35.826,8.43,38.987,26.342,68.49,34.772,139.087,31.611,119.067,11.591,125.389-61.114,13.7-65.329,7.376-10.537-163.323-10.537-163.323l-11.591,60.061s15.805,102.208,4.215,104.316-84.3-4.215-82.188-16.859,23.182-79.027,23.182-79.027-1.054-132.765,20.02-158.054c0,0,8.429-13.7-3.161-31.611S486.846,461.6,486.846,461.6,495.276,461.6,508.974,442.629Z" transform="translate(761.929 8.27)" fill="#13213c"/><path d="M282.913,280.359l17.734,39.018,4.214-2.107-18.345-37.649Z" transform="translate(970.256 141.006)" fill="#13213c"/><path d="M522.737,432.306l13.309,29.282,3.193-.285-1.086-4.984-9.978-22.464C526.89,433.549,524.908,433.043,522.737,432.306Z" transform="translate(788.596 4.064)" fill="#13213c"/><path d="M493.192,431.945a17.345,17.345,0,0,0,31.822,3.1c-13.329-17.428-1.9-28.376,19.757-36.658a17.33,17.33,0,0,0-1.865-19.219,40.377,40.377,0,0,0-33.034,10.874l-.011.01-15.384,28.534A17.264,17.264,0,0,0,493.192,431.945Z" transform="translate(776.235 -17.724)" fill="#ff6584"/><ellipse cx="3.688" cy="6.322" rx="3.688" ry="6.322" transform="translate(1296.191 388.732)" fill="#ffb8b8"/><path d="M522.408,401.736l31.675,14.351,5.806-12.812a30.35,30.35,0,0,0-6.111-12.781l-21.8-9.873Z" transform="translate(788.461 -16.998)" fill="#ff6584"/><ellipse cx="9.5" cy="16.5" rx="9.5" ry="16.5" transform="translate(1378 639)" fill="#fca310"/><circle cx="9.199" cy="9.199" r="9.199" transform="translate(925.937 732.746)" fill="#ff6584"/><rect width="2.815" height="104.733" transform="translate(978.794 789.886)" fill="#13213c"/><circle cx="14.811" cy="14.811" r="14.811" transform="translate(965.391 775.075)" fill="#13213c"/><path d="M300.646,741.1s-2.116-45.507-45.49-40.217" transform="translate(679.557 113.334)" fill="#13213c"/></g></svg>