<svg xmlns="http://www.w3.org/2000/svg" width="649.135" height="450.63" viewBox="0 0 649.135 450.63">
  <g id="no-donations" transform="translate(0 0)">
    <circle id="Ellipse_149" data-name="Ellipse 149" cx="37.074" cy="37.074" r="37.074" transform="translate(86.076 22.592)" fill="#ff6584"/>
    <path id="Pfad_560" data-name="Pfad 560" d="M394.958,259.8c0,87.478-52,118.022-116.154,118.022S162.649,347.283,162.649,259.8,278.8,61.042,278.8,61.042,394.958,172.327,394.958,259.8Z" transform="translate(-91.43 -61.042)" fill="#e5e5e5"/>
    <path id="Pfad_561" data-name="Pfad 561" d="M282.25,303.4l1.19-73.211,49.507-90.572-49.321,79.088.535-32.919,34.121-65.528L284.3,177.078h0l.962-59.206L321.8,65.7l-36.386,42.858L286.016,0l-3.777,143.717.311-5.929L245.4,80.927l36.552,68.241-3.461,66.122-.1-1.755L235.565,153.7l42.7,66.037-.433,8.269-.078.125.035.679L269,396.567h11.733l1.408-86.651,42.59-65.876Z" transform="translate(-99.107 0)" fill="#13213c"/>
    <path id="Pfad_562" data-name="Pfad 562" d="M1022.189,347.849c0,71.6-42.568,96.606-95.078,96.606s-95.078-25-95.078-96.606,95.078-162.7,95.078-162.7S1022.189,276.245,1022.189,347.849Z" transform="translate(-373.054 -113.258)" fill="#e5e5e5"/>
    <path id="Pfad_563" data-name="Pfad 563" d="M922.728,372.46l.973-59.926L964.226,238.4l-40.372,64.737.438-26.945,27.929-53.638-27.813,46.507h0l.787-48.462,29.907-42.7-29.784,35.082.492-88.864-3.092,117.639.254-4.853-30.407-46.543,29.92,55.859-2.833,54.124-.085-1.437-35.054-48.98,34.948,54.055-.355,6.769-.063.1.029.556-7.188,137.318h9.6l1.152-70.927L957.5,323.869Z" transform="translate(-372.134 -52.216)" fill="#13213c"/>
    <ellipse id="Ellipse_150" data-name="Ellipse 150" cx="321.263" cy="16.24" rx="321.263" ry="16.24" transform="translate(0 377.947)" fill="#13213c"/>
    <ellipse id="Ellipse_151" data-name="Ellipse 151" cx="55.025" cy="2.781" rx="55.025" ry="2.781" transform="translate(461.949 418.236)" fill="#13213c"/>
    <ellipse id="Ellipse_152" data-name="Ellipse 152" cx="55.025" cy="2.781" rx="55.025" ry="2.781" transform="translate(262.836 445.067)" fill="#13213c"/>
    <ellipse id="Ellipse_153" data-name="Ellipse 153" cx="125.712" cy="6.355" rx="125.712" ry="6.355" transform="translate(41.088 418.997)" fill="#13213c"/>
    <circle id="Ellipse_154" data-name="Ellipse 154" cx="45.763" cy="45.763" r="45.763" transform="translate(10.476 282.265)" fill="#13213c"/>
    <rect id="Rechteck_74" data-name="Rechteck 74" width="13.903" height="24.909" transform="translate(34.964 363.694) rotate(0.675)" fill="#13213c"/>
    <rect id="Rechteck_75" data-name="Rechteck 75" width="13.903" height="24.909" transform="translate(62.767 364.022) rotate(0.675)" fill="#2f2e41"/>
    <ellipse id="Ellipse_155" data-name="Ellipse 155" cx="4.345" cy="11.586" rx="4.345" ry="11.586" transform="translate(34.614 393.235) rotate(-89.325)" fill="#13213c"/>
    <ellipse id="Ellipse_156" data-name="Ellipse 156" cx="4.345" cy="11.586" rx="4.345" ry="11.586" transform="translate(62.424 392.983) rotate(-89.325)" fill="#2f2e41"/>
    <circle id="Ellipse_157" data-name="Ellipse 157" cx="15.641" cy="15.641" r="15.641" transform="translate(41.893 300.816)" fill="#fff"/>
    <circle id="Ellipse_158" data-name="Ellipse 158" cx="5.214" cy="5.214" r="5.214" transform="translate(52.32 311.243)" fill="#3f3d56"/>
    <path id="Pfad_564" data-name="Pfad 564" d="M60.586,525.459c-3.5-16.591,8.508-33.172,26.821-37.035s36,6.455,39.5,23.046-8.677,22.551-26.989,26.414S64.085,542.05,60.586,525.459Z" transform="translate(-48.234 -240.51)" fill="#fca310"/>
    <path id="Pfad_565" data-name="Pfad 565" d="M195.761,618.735c0,31.9-18.965,43.044-42.363,43.044q-.813,0-1.623-.018c-1.084-.023-2.158-.075-3.219-.147-21.115-1.494-37.521-13.207-37.521-42.879,0-30.707,39.24-69.453,42.187-72.321l.005-.005.17-.165S195.761,586.831,195.761,618.735Z" transform="translate(-69.715 -265.177)" fill="#fca310"/>
    <path id="Pfad_566" data-name="Pfad 566" d="M169.135,656.9l15.494-21.65L169.1,659.275l-.041,2.486c-1.084-.023-2.158-.075-3.219-.147l1.67-31.92-.013-.248.028-.047.157-3.015L152.108,602.3l15.62,21.825.036.64,1.262-24.117L155.7,575.758l13.494,20.656,1.314-50,.005-.17v.165l-.219,39.428,13.272-15.631-13.326,19.027-.351,21.593L182.275,590.1,169.832,614l-.2,12,17.99-28.843L169.569,630.2Z" transform="translate(-86.995 -265.177)" fill="#3f3d56"/>
    <circle id="Ellipse_159" data-name="Ellipse 159" cx="45.763" cy="45.763" r="45.763" transform="translate(366.964 281.77)"/>
    <rect id="Rechteck_76" data-name="Rechteck 76" width="13.903" height="24.909" transform="matrix(0.956, -0.294, 0.294, 0.956, 403.343, 367.992)" fill="#2f2e41"/>
    <rect id="Rechteck_77" data-name="Rechteck 77" width="13.903" height="24.909" transform="matrix(0.956, -0.294, 0.294, 0.956, 429.922, 359.824)" fill="#2f2e41"/>
    <ellipse id="Ellipse_160" data-name="Ellipse 160" cx="11.586" cy="4.345" rx="11.586" ry="4.345" transform="matrix(0.956, -0.294, 0.294, 0.956, 409.469, 387.926)" fill="#2f2e41"/>
    <ellipse id="Ellipse_161" data-name="Ellipse 161" cx="11.586" cy="4.345" rx="11.586" ry="4.345" transform="matrix(0.956, -0.294, 0.294, 0.956, 435.877, 379.204)" fill="#2f2e41"/>
    <circle id="Ellipse_162" data-name="Ellipse 162" cx="15.641" cy="15.641" r="15.641" transform="translate(394.79 300.477)" fill="#fff"/>
    <circle id="Ellipse_163" data-name="Ellipse 163" cx="5.214" cy="5.214" r="5.214" transform="translate(405.217 310.904)" fill="#3f3d56"/>
    <path id="Pfad_567" data-name="Pfad 567" d="M654.67,543.67c-8.393-14.733-2.015-34.187,14.247-43.451s36.249-4.832,44.642,9.9-1.385,24.123-17.647,33.388S663.063,558.4,654.67,543.67Z" transform="translate(-296.878 -243.777)" fill="#fca310"/>
    <path id="Pfad_568" data-name="Pfad 568" d="M554.81,612.969c0,29.287-17.409,39.512-38.887,39.512q-.746,0-1.49-.017c-1-.021-1.981-.069-2.955-.135-19.383-1.372-34.442-12.124-34.442-39.361,0-28.187,36.02-63.755,38.726-66.387l0,0,.156-.152S554.81,583.682,554.81,612.969Z" transform="translate(-223.699 -265.254)" fill="#fca310"/>
    <path id="Pfad_569" data-name="Pfad 569" d="M530.368,648l14.223-19.874-14.258,22.056-.038,2.282c-1-.021-1.981-.069-2.955-.135l1.533-29.3-.012-.227.026-.043.145-2.767-14.294-22.11,14.339,20.035.033.588,1.159-22.138-12.237-22.847,12.387,18.961,1.206-45.9,0-.156v.152l-.2,36.193,12.183-14.348-12.233,17.466-.322,19.821,11.375-19.023-11.422,21.94-.18,11.02,16.514-26.477-16.575,30.322Z" transform="translate(-239.561 -265.254)" fill="#3f3d56"/>
    <path id="Pfad_570" data-name="Pfad 570" d="M813.761,629.735c0,31.9-18.965,43.044-42.363,43.044q-.813,0-1.623-.018c-1.084-.023-2.158-.075-3.219-.147-21.115-1.494-37.521-13.207-37.521-42.879,0-30.707,39.24-69.453,42.187-72.321l.005-.005.17-.165S813.761,597.831,813.761,629.735Z" transform="translate(-329.721 -269.805)" fill="#fca310"/>
    <path id="Pfad_571" data-name="Pfad 571" d="M787.135,667.9l15.494-21.65L787.1,670.275l-.041,2.486c-1.084-.023-2.158-.075-3.219-.147l1.67-31.92-.013-.248.028-.046.157-3.015L770.108,613.3l15.62,21.825.036.64,1.262-24.117L773.7,586.758l13.494,20.656,1.314-50,.005-.17v.165l-.219,39.428,13.272-15.631-13.326,19.027-.351,21.593L800.275,601.1,787.832,625l-.2,12,17.99-28.843L787.569,641.2Z" transform="translate(-347.001 -269.805)" fill="#3f3d56"/>
    <ellipse id="Ellipse_164" data-name="Ellipse 164" cx="7.183" cy="22.881" rx="7.183" ry="22.881" transform="translate(371.208 341.807) rotate(-64.626)"/>
    <ellipse id="Ellipse_165" data-name="Ellipse 165" cx="7.183" cy="22.881" rx="7.183" ry="22.881" transform="translate(18.269 340.379) rotate(-68.159)" fill="#13213c"/>
  </g>
</svg>
