<svg xmlns="http://www.w3.org/2000/svg" xmlns:xlink="http://www.w3.org/1999/xlink" width="760.872" height="574.415" viewBox="0 0 760.872 574.415">
  <defs>
    <linearGradient id="linear-gradient" x1="0.5" y1="1" x2="0.5" gradientUnits="objectBoundingBox">
      <stop offset="0" stop-color="gray" stop-opacity="0.251"/>
      <stop offset="0.54" stop-color="gray" stop-opacity="0.122"/>
      <stop offset="1" stop-color="gray" stop-opacity="0.102"/>
    </linearGradient>
    <linearGradient id="linear-gradient-2" x1="0.5" y1="1" x2="0.5" y2="0" xlink:href="#linear-gradient"/>
    <linearGradient id="linear-gradient-3" x1="3.499" y1="1.031" x2="3.499" y2="0.019" xlink:href="#linear-gradient"/>
  </defs>
  <g id="Gruppe_12" data-name="Gruppe 12" transform="translate(0 0.077)">
    <ellipse id="Ellipse_166" data-name="Ellipse 166" cx="66.634" cy="16.46" rx="66.634" ry="16.46" transform="translate(614.779 538.675)" fill="#6c63ff" opacity="0.1"/>
    <ellipse id="Ellipse_167" data-name="Ellipse 167" cx="66.634" cy="16.46" rx="66.634" ry="16.46" transform="translate(26.578 541.417)" fill="#fca310" opacity="0.1"/>
    <path id="Pfad_572" data-name="Pfad 572" d="M624.07,176.85s-9.365-3.8-39.144,9.864-33.52,11.921-41.214,9.831-11.981-2.583-20.274-13.978c0,0-5.831-31.6-11.468-36.5s-29.619,2.789-29.619,2.789-28.747,6.6-34.225-31.823c0,0,3.887-28.96-1.4-37.846,0,0,10.65,4.613,28.315-2.829s31.743,7.987,31.743,7.987,4.446,11.515,3.994,18.377,2.35,9.438,10.763,6.124c0,0,4.127-5.877-1.724-15.588S509.786,76.3,511.423,68.762s6.323-17.971,21.406-23.23S568.4,39.289,578.237,35.2s12.214-6.756,12.214-6.756-6.064,6.084,8.214,31.783,5.172,36.861,5.172,36.861-7.588,18.078-41.068,16.64c0,0-32.262,1.178-14.643,14.863,0,0,11.269-2.3,28.108-7.648s29,16.74,32.016,32.115S624.07,176.85,624.07,176.85Z" transform="translate(-168.304 -21.876)" fill="#fca310"/>
    <path id="Pfad_573" data-name="Pfad 573" d="M635.229,57.727l.18-.047c1.291,4.906-13.132,24.627-25.453,40.289l-.146-.113C627.2,75.751,636.234,61.5,635.229,57.727Z" transform="translate(-222.841 -31.654)" fill="#444053"/>
    <path id="Pfad_574" data-name="Pfad 574" d="M592.551,117.55l.073.2c-9.844,12.52-22.225,27.456-32.135,38.519-.945,1.058-1.884,2.163-2.789,3.295l-.28-.233c.905-1.132,1.85-2.243,2.8-3.328C570.12,144.973,582.713,130.063,592.551,117.55Z" transform="translate(-205.322 -51.674)" fill="#444053"/>
    <path id="Pfad_575" data-name="Pfad 575" d="M546.267,179.88l.193.333c-18.038,22.517-19.229,57.482-19.3,57.788l-3.807-4.393C523.43,233.3,528.1,202.551,546.267,179.88Z" transform="translate(-193.929 -72.517)" fill="#444053"/>
    <path id="Pfad_576" data-name="Pfad 576" d="M611.216,195.982s-21.3-11.056-37.84-7.089-53.914-14.018-53.914-14.018-15.848-6.443-19.03-13.778c0,0-10.869-11.488-11.488-17.439s-11.2-20.9-18.1-21.479" transform="translate(-176.37 -53.223)" fill="none" stroke="#444053" stroke-miterlimit="10" stroke-width="1"/>
    <path id="Pfad_577" data-name="Pfad 577" d="M672.313,241.2s-10.73-7.215-9.465-15.622" transform="translate(-240.542 -87.799)" fill="none" stroke="#444053" stroke-miterlimit="10" stroke-width="1"/>
    <path id="Pfad_578" data-name="Pfad 578" d="M643.963,249.313s-15.309-5.564-16.853-27.363" transform="translate(-228.626 -86.585)" fill="none" stroke="#444053" stroke-miterlimit="10" stroke-width="1"/>
    <path id="Pfad_579" data-name="Pfad 579" d="M609.89,254.777s-14.643-12.147-9.778-33.367" transform="translate(-219.267 -86.405)" fill="none" stroke="#444053" stroke-miterlimit="10" stroke-width="1"/>
    <path id="Pfad_580" data-name="Pfad 580" d="M568.333,245.669s-9.751-20.441-1.078-33.74" transform="translate(-207.409 -83.235)" fill="none" stroke="#444053" stroke-miterlimit="10" stroke-width="1"/>
    <path id="Pfad_581" data-name="Pfad 581" d="M677.578,212.82s-11.082,3.514-8.706,9.318" transform="translate(-242.479 -83.532)" fill="none" stroke="#444053" stroke-miterlimit="10" stroke-width="1"/>
    <path id="Pfad_582" data-name="Pfad 582" d="M654.376,182.61s-14.823,4.706-15.176,25.672" transform="translate(-232.669 -73.43)" fill="none" stroke="#444053" stroke-miterlimit="10" stroke-width="1"/>
    <path id="Pfad_583" data-name="Pfad 583" d="M624.7,175.34s-13.485,16.64-12.493,31.783" transform="translate(-223.624 -70.999)" fill="none" stroke="#444053" stroke-miterlimit="10" stroke-width="1"/>
    <path id="Pfad_584" data-name="Pfad 584" d="M589.532,185.15s-13.4,12.806-11.688,19.935" transform="translate(-212.101 -74.279)" fill="none" stroke="#444053" stroke-miterlimit="10" stroke-width="1"/>
    <path id="Pfad_585" data-name="Pfad 585" d="M576.144,177.41s-12.567,2.256-14.324-1.87" transform="translate(-206.793 -71.066)" fill="none" stroke="#444053" stroke-miterlimit="10" stroke-width="1"/>
    <path id="Pfad_586" data-name="Pfad 586" d="M558.81,155.56s6.35,8.407,7.987,6.523" transform="translate(-205.787 -64.385)" fill="none" stroke="#444053" stroke-miterlimit="10" stroke-width="1"/>
    <path id="Pfad_587" data-name="Pfad 587" d="M633.845,143.928S602.175,146.211,595,136.68" transform="translate(-217.888 -58.071)" fill="none" stroke="#444053" stroke-miterlimit="10" stroke-width="1"/>
    <path id="Pfad_588" data-name="Pfad 588" d="M548.8,91.91s14.863,31.9,25.652,35.943" transform="translate(-202.439 -43.1)" fill="none" stroke="#444053" stroke-miterlimit="10" stroke-width="1"/>
    <path id="Pfad_589" data-name="Pfad 589" d="M572.22,69.08s9.132,29.346,20.441,38.505" transform="translate(-210.271 -35.466)" fill="none" stroke="#444053" stroke-miterlimit="10" stroke-width="1"/>
    <path id="Pfad_590" data-name="Pfad 590" d="M654.022,111.13s-24.088,10.337-38.552-.12" transform="translate(-224.734 -49.487)" fill="none" stroke="#444053" stroke-miterlimit="10" stroke-width="0.75"/>
    <path id="Pfad_591" data-name="Pfad 591" d="M604.46,59.68s5.5,21.572,12.919,26.784" transform="translate(-221.052 -32.323)" fill="none" stroke="#444053" stroke-miterlimit="10" stroke-width="0.75"/>
    <path id="Pfad_592" data-name="Pfad 592" d="M658.58,74.89s-13.532,5.125-18.59,1.2" transform="translate(-232.933 -37.409)" fill="none" stroke="#444053" stroke-miterlimit="10" stroke-width="0.75"/>
    <path id="Pfad_593" data-name="Pfad 593" d="M538.819,166.15s0,18.8-5.119,20.141" transform="translate(-197.39 -67.926)" fill="none" stroke="#444053" stroke-miterlimit="10" stroke-width="1"/>
    <path id="Pfad_594" data-name="Pfad 594" d="M478.52,198.356s20.328,1.744,29.706-8.746" transform="translate(-178.938 -75.771)" fill="none" stroke="#444053" stroke-miterlimit="10" stroke-width="1"/>
    <path id="Pfad_595" data-name="Pfad 595" d="M524.221,132.78s-4.919,19.07-18.491,24.208" transform="translate(-188.037 -56.767)" fill="none" stroke="#444053" stroke-miterlimit="10" stroke-width="1"/>
    <path id="Pfad_596" data-name="Pfad 596" d="M460.2,168.684s14.39,5.005,26.764-7.734" transform="translate(-172.812 -66.187)" fill="none" stroke="#444053" stroke-miterlimit="10" stroke-width="1"/>
    <path id="Pfad_597" data-name="Pfad 597" d="M504.364,108.15s-1.331,16.194-10.164,23.775" transform="translate(-184.181 -48.531)" fill="none" stroke="#444053" stroke-miterlimit="10" stroke-width="1"/>
    <path id="Pfad_598" data-name="Pfad 598" d="M461,133.577s11.941.087,14.737-3.807" transform="translate(-173.079 -55.761)" fill="none" stroke="#444053" stroke-miterlimit="10" stroke-width="1"/>
    <path id="Pfad_599" data-name="Pfad 599" d="M424.931,110.008c-47.524,7.927-95.122,3.661-140.942-2.25S192.456,94.3,144.832,95.778c-30.618.958-64.677,6.976-85.863,25.439-20.381,17.765-23.3,42.053-23.1,64.018.146,16.52,1.7,33.633,12.886,46.918,7.768,9.219,19.642,15.915,28.621,24.441,31.283,29.673,22.411,75.639,2.6,114.564-9.318,18.264-20.707,36.189-26.957,54.912s-6.869,38.891,4.9,54.393c11.675,15.369,34.006,24.221,57.242,28.967,47.185,9.631,99.554,4.659,150.207-2.256,112.114-15.382,222.978-40.262,333.521-65.1,40.915-9.185,82.009-18.424,121.373-31.949,21.858-7.495,44.1-16.926,58.094-31.843,17.765-18.936,17.925-45.075.373-60.929-29.446-26.624-95.321-21.619-118.211-51.917-12.607-16.64-7.475-39.018,2.157-58.686,20.634-42.2,61.069-83.633,55.245-126.039-3.994-29.127-32.2-53.515-69.675-60.257C608.971,13.4,558.778,25.19,536.567,54.151,513.7,84.05,466.891,103.019,424.931,110.008Z" transform="translate(-30.914 -18.54)" fill="#fca310" opacity="0.1"/>
    <rect id="Rechteck_78" data-name="Rechteck 78" width="632.544" height="358.315" rx="12.49" transform="translate(50.779 99.888)" fill="url(#linear-gradient)"/>
    <rect id="Rechteck_79" data-name="Rechteck 79" width="630.607" height="352.085" rx="12.49" transform="translate(51.784 104.927)" fill="#fff"/>
    <rect id="Rechteck_80" data-name="Rechteck 80" width="630.607" height="352.085" rx="12.49" transform="translate(51.784 104.927)" fill="#fff"/>
    <rect id="Rechteck_81" data-name="Rechteck 81" width="630.607" height="352.085" rx="12.49" transform="translate(51.784 104.927)" fill="#5a5773" opacity="0.04"/>
    <path id="Pfad_600" data-name="Pfad 600" d="M733.622,170.15H109.392a3.2,3.2,0,0,0-3.2,3.2V186.89H736.8V173.378a3.2,3.2,0,0,0-3.175-3.228Z" transform="translate(-54.433 -69.263)" fill="#13213c"/>
    <g id="buttons" transform="translate(60.051 104.927)">
      <circle id="Ellipse_168" data-name="Ellipse 168" cx="4.326" cy="4.326" r="4.326" fill="#fff"/>
      <circle id="Ellipse_169" data-name="Ellipse 169" cx="4.326" cy="4.326" r="4.326" transform="translate(11.648)" fill="#fff"/>
      <circle id="Ellipse_170" data-name="Ellipse 170" cx="4.326" cy="4.326" r="4.326" transform="translate(23.296)" fill="#fff"/>
    </g>
    <rect id="Rechteck_82" data-name="Rechteck 82" width="525.828" height="261.436" rx="10.19" transform="translate(93.997 195.569)" fill="#fff"/>
    <rect id="Rechteck_83" data-name="Rechteck 83" width="151.252" height="15.875" rx="3.86" transform="translate(71.699 135.391)" fill="#5a5773" opacity="0.2"/>
    <rect id="Rechteck_84" data-name="Rechteck 84" width="151.252" height="15.875" rx="3.86" transform="translate(356.91 225.914)" fill="#fca310" opacity="0.2"/>
    <rect id="Rechteck_85" data-name="Rechteck 85" width="236.176" height="15.875" rx="3.86" transform="translate(356.91 270.363)" fill="#fca310" opacity="0.2"/>
    <rect id="Rechteck_86" data-name="Rechteck 86" width="236.176" height="15.875" rx="3.86" transform="translate(356.91 296.321)" fill="#fca310" opacity="0.2"/>
    <rect id="Rechteck_87" data-name="Rechteck 87" width="236.176" height="15.875" rx="3.86" transform="translate(356.91 322.28)" fill="#fca310" opacity="0.2"/>
    <rect id="Rechteck_88" data-name="Rechteck 88" width="236.176" height="15.875" rx="3.86" transform="translate(356.91 348.238)" fill="#fca310" opacity="0.2"/>
    <rect id="Rechteck_89" data-name="Rechteck 89" width="470.582" height="15.875" rx="3.86" transform="translate(122.505 376.859)" fill="#fca310" opacity="0.2"/>
    <rect id="Rechteck_90" data-name="Rechteck 90" width="470.582" height="15.875" rx="3.86" transform="translate(122.505 402.818)" fill="#fca310" opacity="0.2"/>
    <rect id="Rechteck_91" data-name="Rechteck 91" width="470.582" height="15.875" rx="3.86" transform="translate(122.505 428.777)" fill="#fca310" opacity="0.2"/>
    <path id="Pfad_601" data-name="Pfad 601" d="M752.275,678.54s3.947,5.158-1.824,12.953-10.523,14.37-8.6,19.229c0,0,8.7-14.47,15.788-14.643S760.069,687.239,752.275,678.54Z" transform="translate(-266.85 -239.267)" fill="#fca310"/>
    <path id="Pfad_602" data-name="Pfad 602" d="M752.386,678.54a6.391,6.391,0,0,1,.805,1.617c6.916,8.12,10.6,15.7,3.954,15.888-6.19.18-13.618,11.249-15.4,14.038a5.129,5.129,0,0,0,.213.666s8.7-14.47,15.788-14.643S760.181,687.239,752.386,678.54Z" transform="translate(-266.961 -239.267)" opacity="0.1"/>
    <path id="Pfad_603" data-name="Pfad 603" d="M768.3,687.837c0,1.817-.2,3.288-.453,3.288s-.453-1.471-.453-3.288.253-.958.506-.958S768.3,686.02,768.3,687.837Z" transform="translate(-275.535 -241.987)" fill="#ffd037"/>
    <path id="Pfad_604" data-name="Pfad 604" d="M770.974,691.037c-1.6.865-2.989,1.391-3.108,1.172s1.078-1.1,2.662-2,.965-.24,1.085,0S772.565,690.165,770.974,691.037Z" transform="translate(-275.691 -243.017)" fill="#ffd037"/>
    <path id="Pfad_605" data-name="Pfad 605" d="M721.96,678.54s-3.947,5.158,1.817,12.953,10.53,14.37,8.606,19.229c0,0-8.706-14.47-15.788-14.643S714.166,687.239,721.96,678.54Z" transform="translate(-257.382 -239.267)" fill="#fca310"/>
    <path id="Pfad_606" data-name="Pfad 606" d="M721.96,678.54a6.247,6.247,0,0,0-.812,1.617c-6.909,8.12-10.59,15.7-3.947,15.888,6.19.18,13.612,11.249,15.389,14.038a5.106,5.106,0,0,1-.206.666s-8.706-14.47-15.788-14.643S714.166,687.239,721.96,678.54Z" transform="translate(-257.382 -239.267)" opacity="0.1"/>
    <path id="Pfad_607" data-name="Pfad 607" d="M715.38,687.84c0,1.817.206,3.288.459,3.288s.453-1.471.453-3.288-.253-.945-.5-.945S715.38,686.023,715.38,687.84Z" transform="translate(-258.143 -241.991)" fill="#ffd037"/>
    <path id="Pfad_608" data-name="Pfad 608" d="M711.115,691.037c1.6.865,2.989,1.391,3.108,1.172s-1.078-1.1-2.662-2-.965-.24-1.085,0S709.517,690.165,711.115,691.037Z" transform="translate(-256.394 -243.017)" fill="#ffd037"/>
    <ellipse id="Ellipse_171" data-name="Ellipse 171" cx="41.267" cy="6.33" rx="41.267" ry="6.33" transform="translate(433.734 498.272)" fill="#6c63ff" opacity="0.1"/>
    <path id="Pfad_609" data-name="Pfad 609" d="M752.645,715.239l-.2,1.611-.273,2.276-.12.952-.273,2.276-.12.952-.28,2.27-3.155,25.892c-.286,2.31-4.06,4.113-8.653,4.113H723.185c-4.559,0-8.327-1.8-8.606-4.113L711.411,725.6l-.273-2.27-.12-.952-.28-2.276-.113-.952-.28-2.276-.2-1.611c-.153-1.331,1.89-2.409,4.466-2.409h33.56C750.748,712.83,752.791,713.928,752.645,715.239Z" transform="translate(-256.39 -250.74)" fill="#65617d"/>
    <path id="Pfad_610" data-name="Pfad 610" d="M724.106,700.32l-.273,2.276H682.3l-.28-2.276Z" transform="translate(-228.064 -234.21)" fill="#9d9cb5"/>
    <path id="Pfad_611" data-name="Pfad 611" d="M723.911,705.16l-.273,2.276H682.89l-.28-2.276Z" transform="translate(-228.262 -235.828)" fill="#9d9cb5"/>
    <path id="Pfad_612" data-name="Pfad 612" d="M723.719,710.01l-.28,2.276H683.483l-.273-2.276Z" transform="translate(-228.462 -237.45)" fill="#9d9cb5"/>
    <rect id="Rechteck_92" data-name="Rechteck 92" width="201.013" height="147.458" rx="8.5" transform="translate(122.505 217.108)" fill="#fca310" opacity="0.2"/>
    <path id="Pfad_613" data-name="Pfad 613" d="M1089.844,550.317c.253-.666-1.624-4.473-1.624-4.659s-1.937-2.3-1.937-3.474-2.563-3.727-2.563-3.727-3.441-1.424-3.814-4.533-4.12-3.162-4.127-3.162h0v-.712a9.8,9.8,0,0,0-.459-3.628,3.654,3.654,0,0,0-2.123-1.8s-.379-2.423-1.125-3.168a3.561,3.561,0,0,1-.879-3.328c.379-1.171-.5-4.153-2.31-4.593s-3.88-1.118-3.88-1.118l-.5.087-.246-.087a10.379,10.379,0,0,1-1.331.166,1.645,1.645,0,0,1-1.058-.346c-.626-.666-5.691-2-6.656-2a15.216,15.216,0,0,1-3.627-1.245s-1.877-1.424-2.662-2.05a17.465,17.465,0,0,1-2.356-3.242v-.047h0a11.488,11.488,0,0,1-.566-1.631h0a14.681,14.681,0,0,0,2.323-3.2c.067-.12.126-.24.186-.366a1.4,1.4,0,0,0,.406-.06l.166-.067a2.7,2.7,0,0,0,1.331-1.584h0a4.212,4.212,0,0,0,.12-.413v-.14l.06-.28a1.291,1.291,0,0,1,0-.16l.04-.28v-.16a.924.924,0,0,1,.047-.353h0a12.451,12.451,0,0,1,.193-1.331h0a23.994,23.994,0,0,1,2.1-4.659h0c.1-.22.2-.446.286-.666s.173-.5.246-.752l.06-.233c.047-.186.087-.373.126-.559s0-.166.047-.253q.06-.379.1-.779a9.622,9.622,0,0,0-.666-4.36c-.466-1.165-1.165-2.216-1.637-3.381-.719-1.764-.912-3.767-1.784-5.451a6.49,6.49,0,0,0-7.787-3.168c-1.331.506-2.543,1.484-3.92,1.924-1.85.592-3.821.146-5.738-.113s-3.994-.293-5.564.958c-1.771,1.438-2.25,4.14-3.914,5.718-.666.666-1.564,1.085-2.3,1.7a3.76,3.76,0,0,0-1.158,1.584l-.04.126a1.2,1.2,0,0,0-.04.166,1.532,1.532,0,0,0-.033.186.742.742,0,0,0,0,.126,1.4,1.4,0,0,0,0,.333h0a2.525,2.525,0,0,0,.047.313v.087a.777.777,0,0,0,.08.26c.033.087,0,.033,0,.047s.073.193.113.286l.06.14a.111.111,0,0,0,.053.113,8.28,8.28,0,0,1,.579,1.444,1.6,1.6,0,0,1-.06.952,2.809,2.809,0,0,1-.666.912,12.878,12.878,0,0,0-2.822,4.519q-.113.293-.2.579h.087a3.778,3.778,0,0,0,.546.113,2.662,2.662,0,0,0,.313,0,4.872,4.872,0,0,0,1.278-.093l.319-.08a7.234,7.234,0,0,0,1.265-.459q0,.19,0,.379v.213A14.763,14.763,0,0,0,1028.456,505a2.762,2.762,0,0,0,.053.4l.04.339-.166-.16s-1.125-.559-2.19,1.052a7.071,7.071,0,0,1-3.062,2.363s-11.382,1.8-11.821,3.288l-5.325.313s-1.877.246-2.063,4.16-1.185,4.28-1.185,4.28-2.19,3.854-2,5.837a3.255,3.255,0,0,1-1.691,2.982L998.8,533.4a2.442,2.442,0,0,0-2.662,2.11,8.42,8.42,0,0,1-1.557,3.534s-3.441,2.862-3.628,5.278l-2.13,1.331s-4.939-1.118-6.064-3.1c0,0-.133-.133-.346-.326v-.047h0a20.041,20.041,0,0,0-2.063-1.817,1.5,1.5,0,0,1,.1,1l-.366-.406-.985-1.092s-7.987-7.481-12.646-8.074h0c-.06-.12-.366-1.331-1.165-.566a6.523,6.523,0,0,0-.047,9.565l7.481,6.982.193.14,1.6,2.063a18.721,18.721,0,0,0-.666,1.85v.06l-.12.359a.8.8,0,0,0-.033.12c-.04.12-.073.233-.106.346l-.06.2v.12c-.18.626-.293,1.1-.346,1.371l-.419-.133.406.18v.193l.386.166c2.19.952,13.119,5.751,13.678,6.476s4.752,3.168,8.506,1.178a8.958,8.958,0,0,0,4.559-5.025s3.627-5.032,3.754-5.777,2.935-1.611,2.935-1.611.253,8.313-1.185,11.362-4.127,16.514-4.127,16.514a1.9,1.9,0,0,1,.532,0l-.16.779a1.811,1.811,0,0,1,.666,0c-.2,1.531-1.331,8.653-1.331,8.653a17.726,17.726,0,0,1-1,4.346c-.626,1.118-.666,6.956-.666,6.956l-1.005,4.22s.133.293.379.726h0a10.8,10.8,0,0,0,2.875,3.721,7.364,7.364,0,0,1-.506,1.93,6.788,6.788,0,0,0-.5,2.982,38.711,38.711,0,0,0-.938,6.143,23.467,23.467,0,0,1-.666,4.719l-1.125,10.8s-.745,9.372-.373,11.921a22.881,22.881,0,0,1-.253,5.99s.752,7.388.566,8.194-1.125,4.286-.566,6.21.253,7.2.253,7.2.373,6.956.812,9.192a15.731,15.731,0,0,1-.126,5.092,41.93,41.93,0,0,1-.626,4.779c-.186,0-1.81,3.288,1.5,6.516s1.258,2.729,1.258,2.729-2.662-1.331-2.316,1.371c.293,2.536.705,1.877.745,1.8l-.626,2.043.439.06-.359.433a9.342,9.342,0,0,1-1.265,1.331,2.709,2.709,0,0,0-.812,1.8,48.746,48.746,0,0,1-8.939,7.575,25.841,25.841,0,0,0-5.078,3.415c-.772.839-.666,1.518.952,2.05,3.375,1.118,9.318,1.677,13.565.246a15.869,15.869,0,0,0,6.656-4.28,9.419,9.419,0,0,1,5.325-.872c2.662.5,7.881-2.915,7.881-2.915l-.1-.879-.273-2.543a2,2,0,0,1-.439-1.544,7.981,7.981,0,0,0-.219-2.236c-.047-.246-.093-.492-.14-.719l.479-.093s-.619-3.162.506-3.787.805-8.753.805-8.753a9.816,9.816,0,0,0-2.183-2.17c-.752-.306-.067-4.167.067-4.659s1.125-10.124,1.125-10.124-.379-3.035.12-4.34-.626-6.337-.626-6.337a1.158,1.158,0,0,1,.313-1.365c.666-.745.439-7.388.439-7.388s-.06-3.328-.06-4.227a14.99,14.99,0,0,1,1.438-5.085c.692-1.052.246-4.346.246-4.346h0l.04-.246a.926.926,0,0,1,.053-.353l.053-.333a48.4,48.4,0,0,1,1.225-5.391c.812-2.6,1.751-7.2,1.751-7.2l5.811-15.162.067-.18s2.662,4.965,2.662,9.565a60.376,60.376,0,0,1,.506,7.015c-.16,1.491.433,8.5.433,8.5s.812,10.057.812,10.49,1.005,8.194,1.631,9.378-.626,4.779-1.005,5.152.126,9.5.126,9.5-.939,7.2-1.125,8.693-.938,7.2-.313,9.438.373,2.543.373,2.543,2.256,2.3.939,2.489a3.441,3.441,0,0,0-2.5,4.526,59.628,59.628,0,0,0,2.756,6.656l1.038-.22v.739l.073,3.7a21.582,21.582,0,0,1,.186,4.346c-.18.586-.433,3.368-.552,4.826-.047.532-.073.885-.073.885s0,3.288,6.942,2.3,8.187-3.727,8.187-3.727l.053-.339c.1-.626.326-1.957.513-2.7.246-.992-2-5.465-2-5.465s-.373-3.042-1-3.721a3.328,3.328,0,0,1-.506-1.331c-.053-.253-.107-.513-.146-.765a4.528,4.528,0,0,1,.466.08s-.379-2.17,1.065-2.855a2.045,2.045,0,0,0,.872-2.729,21.082,21.082,0,0,1,.559-4.1,2,2,0,0,1,.5-2c.879-.872,1.564-6.956,1.564-6.956l.126-23.469s.439-4.16-.06-5.837-1-4.906-.313-5.777.06-4.9.06-4.9,0-8.506.938-10.65.626-15.462.626-15.462l.246-8.753s2.043-1.93,1.564-11.981c2.177-.14,4.659-.22,5.005.087.666.559,5.125,3.415,7.754,1.611a34.805,34.805,0,0,0,3.122-2.416l-1.1-18.637,1.1,1.724c0-2.6,7.381-11.049,7.381-11.049s6.876-8.879,8.373-9.931,4.44-6.656,4.44-6.656a27,27,0,0,1,1.5-3.1C1091.848,553.977,1089.6,551,1089.844,550.317Zm-16.128,6.516c-1.877.186-5.817,4.473-5.877,5.4a3.833,3.833,0,0,1-.832,1.664c0-.373-.06-.752-.093-1.138-.439-5.491-.919-12.174-.666-12.82.373-1.118.246-6.15.246-6.15h0l.073-.1c1.258,3.9,5.172,8.493,5.172,8.493s.666,2,1.5,2.043S1073.717,556.833,1073.717,556.833Z" transform="translate(-341.006 -169.211)" fill="url(#linear-gradient-2)"/>
    <path id="Pfad_614" data-name="Pfad 614" d="M978.65,592.791s2.283-11.981,9.611-11.981l5.365,11.029-3.574,2.463S982.284,594.515,978.65,592.791Z" transform="translate(-346.179 -206.586)" fill="#65617d"/>
    <path id="Pfad_615" data-name="Pfad 615" d="M993.626,591.8l-3.574,2.463a42.319,42.319,0,0,1-9.372-.785,10.811,10.811,0,0,1-2.03-.666l.04-.193v-.04a26.625,26.625,0,0,1,1.385-4.393c.226-.539.479-1.092.759-1.644a11.145,11.145,0,0,1,4.659-5.092,6.317,6.317,0,0,1,2.443-.666h.326l.12.246,1.81,3.727Z" transform="translate(-346.179 -206.576)" opacity="0.1"/>
    <path id="Pfad_616" data-name="Pfad 616" d="M1089.791,654.762s7.7-.739,8.38-.18,5.052,3.388,7.634,1.6.865-7.987.865-8.253-.246-9.059-.246-9.059l-4.619-6.223-5.791-10.9-11.834-1.171.306,17.306-.06,8.873Z" transform="translate(-381.468 -219.882)" fill="#65617d"/>
    <path id="Pfad_617" data-name="Pfad 617" d="M1089.791,654.762s7.7-.739,8.38-.18,5.052,3.388,7.634,1.6.865-7.987.865-8.253-.246-9.059-.246-9.059l-4.619-6.223-5.791-10.9-11.834-1.171.306,17.306-.06,8.873Z" transform="translate(-381.468 -219.882)" opacity="0.1"/>
    <path id="Pfad_618" data-name="Pfad 618" d="M981.943,574.6s-.619,7.515-5.325,7.641c0,0-1.331-.8-3.115-2.137-4.113-3.082-10.65-9-8.839-14.5,2.589-7.887,15.156,6.656,15.156,6.656l.972,1.085Z" transform="translate(-341.399 -200.717)" fill="#fbbebe"/>
    <path id="Pfad_619" data-name="Pfad 619" d="M986.339,579.655s-.619,7.515-5.325,7.641c0,0-1.331-.8-3.115-2.137l-.4-.513a6.13,6.13,0,0,0,2.569.666,3.468,3.468,0,0,0,3.328-2.11,26.62,26.62,0,0,0,1.331-2.989,9.31,9.31,0,0,0,.473-1.844Z" transform="translate(-345.795 -205.77)" opacity="0.1"/>
    <path id="Pfad_620" data-name="Pfad 620" d="M984.5,592.969l-1.052-1.331-3.548-4.566-1.8-2.336a6.078,6.078,0,0,0,2.563.666,3.448,3.448,0,0,0,3.328-2.11,26.086,26.086,0,0,0,1.3-2.982c.586-1.664.572-2.516.366-2.809a16.455,16.455,0,0,1,2.037,1.81h0l.339.319.126.253,1.857,3.594a.971.971,0,0,1,0,.153C990.147,584.762,990.746,591.944,984.5,592.969Z" transform="translate(-345.995 -205.466)" fill="#e7effd"/>
    <path id="Pfad_621" data-name="Pfad 621" d="M1025.95,834.031s-5.178,3.395-7.768,2.9a9.319,9.319,0,0,0-5.238.865,15.547,15.547,0,0,1-6.53,4.253c-4.193,1.418-10.044.859-13.372-.246-1.571-.526-1.7-1.2-.938-2.037a28.411,28.411,0,0,1,5.005-3.388,48.391,48.391,0,0,0,8.813-7.515,2.663,2.663,0,0,1,.8-1.791,9.185,9.185,0,0,0,1.245-1.331c.666-.779,1.285-1.6,1.285-1.6l15.249.573s.26,1.1.466,2.223a8.041,8.041,0,0,1,.213,2.216,2,2,0,0,0,.433,1.538l.273,2.516Z" transform="translate(-350.527 -287.955)" fill="#65617d"/>
    <path id="Pfad_622" data-name="Pfad 622" d="M1083.232,838.909c-.18.739-.406,2.057-.506,2.662a1.123,1.123,0,0,1-.047.339s-1.231,2.709-8.074,3.694-6.836-2.276-6.836-2.276l.067-.885c.12-1.438.366-4.2.546-4.786a21.882,21.882,0,0,0-.18-4.313l-.073-3.674-.053-2.549,11.315-1.171a21.833,21.833,0,0,0,.366,2.523,3.241,3.241,0,0,0,.5,1.331c.612.666.985,3.694.985,3.694S1083.5,837.924,1083.232,838.909Z" transform="translate(-375.981 -288.56)" fill="#65617d"/>
    <path id="Pfad_623" data-name="Pfad 623" d="M1032.663,824.749s.26,1.1.466,2.223c-1.644.3-8.833,1.544-10.65.666a28.2,28.2,0,0,0-6.41-1.537l.073-.253c.666-.779,1.285-1.6,1.285-1.6Z" transform="translate(-358.692 -287.992)" opacity="0.1"/>
    <path id="Pfad_624" data-name="Pfad 624" d="M1079.961,828.5c-2.869-.486-9.172.666-11.648,1.2l-.053-2.549,11.315-1.172a21.852,21.852,0,0,0,.386,2.523Z" transform="translate(-376.145 -288.57)" opacity="0.1"/>
    <path id="Pfad_625" data-name="Pfad 625" d="M1068.348,670.654l-.24,8.653s.306,13.246-.619,15.309-.925,10.537-.925,10.537.619,3.994-.06,4.866-.186,4.067.306,5.731.06,5.791.06,5.791l-.12,23.3s-.666,6.037-1.544,6.9a2.03,2.03,0,0,0-.493,2,20.768,20.768,0,0,0-.552,4.067,2.045,2.045,0,0,1-.859,2.709c-1.411.679-1.052,2.835-1.052,2.835-3.388-.805-13,1.331-13,1.331a58.968,58.968,0,0,1-2.716-6.6,3.415,3.415,0,0,1,2.469-4.5c1.291-.18-.925-2.463-.925-2.463s.246-.306-.373-2.529.126-7.887.313-9.365,1.1-8.653,1.1-8.653-.493-9.059-.12-9.425,1.6-3.947.985-5.112-1.6-8.872-1.6-9.318-.8-10.417-.8-10.417a83.043,83.043,0,0,1-.552-8.44,54.378,54.378,0,0,0-.5-6.962c0-4.559-2.662-9.492-2.662-9.492l-.067.18-5.724,15.149s-.925,4.559-1.724,7.149a46.932,46.932,0,0,0-1.2,5.325l-.053.333-.053.346-.04.246h0s.426,3.261-.253,4.313a15.382,15.382,0,0,0-1.411,5.052c0,.865.06,4.193.06,4.193s.246,6.589-.433,7.322a1.152,1.152,0,0,0-.306,1.331s1.1,4.992.612,6.283-.12,4.313-.12,4.313-.985,9.551-1.112,10.044-.8,4.313-.06,4.619a9.861,9.861,0,0,1,2.157,2.157s.306,8.074-.8,8.686-.5,3.761-.5,3.761-8.932,1.724-10.962.739a28.119,28.119,0,0,0-6.41-1.538l.612-2c-.04.073-.446.732-.732-1.791-.313-2.662,2.276-1.331,2.276-1.331s2.037.493-1.231-2.709-1.664-6.47-1.478-6.47a41.32,41.32,0,0,0,.612-4.746,15.692,15.692,0,0,0,.126-5.052c-.433-2.216-.8-9.119-.8-9.119s.306-5.238-.253-7.149.373-5.325.559-6.164-.559-8.134-.559-8.134a22.818,22.818,0,0,0,.253-5.99c-.373-2.529.366-11.834.366-11.834l1.112-10.716a22.143,22.143,0,0,0,.666-4.659c-.133-1.331.925-6.1.925-6.1a6.762,6.762,0,0,1,.492-2.962c.619-1.231.865-5.325.865-5.325l5.917-13.552,2.9-11.981,39.124-.373s.14,1.038.379,2.922.572,4.659.945,8.114c.339,3.128.712,6.809,1.078,10.9C1070.818,668.311,1068.348,670.654,1068.348,670.654Z" transform="translate(-358.122 -224.125)" fill="#13213c"/>
    <path id="Pfad_626" data-name="Pfad 626" d="M1079.557,522.307l-9.112,9.751s-11.7-4.659-10.47-6.29c.473-.619.4-2.576.126-4.732-.433-3.415-1.331-7.322-1.331-7.322s20.454-3.328,18.723.12a5.671,5.671,0,0,0-.126,4.094,15.5,15.5,0,0,0,2.19,4.38Z" transform="translate(-372.971 -183.667)" fill="#fbbebe"/>
    <path id="Pfad_627" data-name="Pfad 627" d="M1077.467,513.784c-.626,1.265-.925,1.384-.532,2.742-2.662,2.869-6.077,5.99-10.31,5.99a14.592,14.592,0,0,1-6.523-1.531c-.433-3.415-1.331-7.322-1.331-7.322S1079.2,510.336,1077.467,513.784Z" transform="translate(-372.971 -183.65)" opacity="0.1"/>
    <path id="Pfad_628" data-name="Pfad 628" d="M1077.873,497.71a14.667,14.667,0,1,1-29.333,0V497.5a14.664,14.664,0,1,1,29.327.213Z" transform="translate(-369.55 -173.859)" fill="#fbbebe"/>
    <path id="Pfad_629" data-name="Pfad 629" d="M1075.075,646.41c-1.944,0-8.413.067-15.642.186h-.087l-2.389.04h-.073c-8.573.133-17.02-1.538-20.414-1.225-7.208.666,2.589-6.656,2.589-6.656a60.454,60.454,0,0,0,16.42,1.657l2.077-.106c6.549-.373,13.132-.985,16.574-2C1074.37,640.2,1074.7,642.969,1075.075,646.41Z" transform="translate(-364.629 -225.814)" opacity="0.1"/>
    <path id="Pfad_630" data-name="Pfad 630" d="M1075.075,645.854c-1.944,0-8.413.073-15.642.186h-.087l-2.389.04h-.073c-8.573.14-17.02-1.538-20.414-1.218-7.208.666,2.589-6.656,2.589-6.656a60.149,60.149,0,0,0,16.42,1.657l2.077-.106c6.549-.366,13.132-.985,16.574-2C1074.37,639.644,1074.7,642.413,1075.075,645.854Z" transform="translate(-364.629 -225.63)" fill="#5f5d7e"/>
    <path id="Pfad_631" data-name="Pfad 631" d="M1054.568,532.367l-11.315,5.325-8.753,67.652s5.178-2.343,8.134-.865,12.074.126,12.074.126,6.656-.373,7.641.373,12.573-3.082,12.573-3.082,2.1-4.659.493-5.425.492-7.987.492-7.987l-.985-48.8-2-6.283-5.325-3.208-5.418,4.313-2.589.373Z" transform="translate(-364.855 -189.659)" opacity="0.1"/>
    <path id="Pfad_632" data-name="Pfad 632" d="M1054.558,531.26l-11.315,5.325-8.773,67.659s5.178-2.343,8.134-.865,12.074.126,12.074.126,6.656-.373,7.641.366,12.573-3.075,12.573-3.075,2.1-4.659.493-5.425.493-7.987.493-7.987l-.985-48.8-2-6.283-5.325-3.208-5.418,4.313-2.589.373Z" transform="translate(-364.845 -189.291)" fill="#e7effd"/>
    <path id="Pfad_633" data-name="Pfad 633" d="M1059.929,536.585s3.268,3.88,3.208,4.659-.187,2.716-.187,2.716l-2.463,4.985s-1.331,6.223-1.331,7.521S1057,568.973,1057,568.973l-2.642,17.272-3.268,22.631,3.328,5.731,3.947-3.328,5.238-40.3,1.1-7.947s1.172-14.3,1.172-15.775a50.192,50.192,0,0,0-.666-5.358s.805-3.7,4.133-4.559-.253-.186-.253-.186l-1.9-1.538-1.664.666S1060.914,534.861,1059.929,536.585Z" transform="translate(-370.403 -191.475)" opacity="0.1"/>
    <path id="Pfad_634" data-name="Pfad 634" d="M1059.406,536.008s3.261,3.88,3.2,4.659-.186,2.709-.186,2.709l-2.463,4.992s-1.331,6.223-1.331,7.515-2.156,12.507-2.156,12.507l-2.583,17.252-3.268,22.631,3.328,5.731,3.94-3.328,5.238-40.3,1.112-7.947s1.172-14.3,1.172-15.775a50.443,50.443,0,0,0-.666-5.365s.8-3.694,4.127-4.559-.246-.18-.246-.18l-1.91-1.544-1.664.666S1060.391,534.284,1059.406,536.008Z" transform="translate(-370.246 -191.271)" fill="#fca310"/>
    <path id="Pfad_635" data-name="Pfad 635" d="M1059.339,526.79s-.493.373-.619,2.836a49.341,49.341,0,0,1-1.85,7.987s6.41-4.433,9.611-3.94Z" transform="translate(-372.336 -188.522)" opacity="0.1"/>
    <path id="Pfad_636" data-name="Pfad 636" d="M1059.339,525.68s-.493.373-.619,2.836a49.341,49.341,0,0,1-1.85,7.987s6.41-4.433,9.611-3.94Z" transform="translate(-372.336 -188.151)" fill="#e7effd"/>
    <path id="Pfad_637" data-name="Pfad 637" d="M1081.794,523.83l-10.1,8.872s8.5,5.052,9.611,6.283,2.216-12.074,2.216-12.074Z" transform="translate(-377.291 -187.533)" opacity="0.1"/>
    <path id="Pfad_638" data-name="Pfad 638" d="M1082.344,522.72l-10.1,8.873s8.506,5.052,9.611,6.283,2.216-12.074,2.216-12.074Z" transform="translate(-377.475 -187.161)" fill="#e7effd"/>
    <path id="Pfad_639" data-name="Pfad 639" d="M1046.386,526.744s-1.1-.552-2.156,1.052a6.955,6.955,0,0,1-3.015,2.336s-11.216,1.791-11.648,3.268l-5.238.306s-1.85.246-2,4.133-1.171,4.247-1.171,4.247-2.157,3.821-2,5.791a3.241,3.241,0,0,1-1.664,2.962l7.7,20.021s.246,8.26-1.171,11.275-4.067,16.394-4.067,16.394,1.112-.246,1.045.493-1.331,8.813-1.331,8.813a17.942,17.942,0,0,1-.985,4.313c-.612,1.112-.666,6.9-.666,6.9l-.985,4.193s2.336,5.238,5.911,4.5,10.037-14.73,10.037-14.73l4.127-15.1,3.208-14.91.925-10.1,1.478-22.371,2.156-14.783S1047.252,527.8,1046.386,526.744Z" transform="translate(-359.017 -188.476)" opacity="0.1"/>
    <path id="Pfad_640" data-name="Pfad 640" d="M1045.833,525.634s-1.112-.552-2.156,1.052a7,7,0,0,1-3.022,2.336s-11.215,1.791-11.648,3.268l-5.232.306s-1.85.246-2.037,4.127-1.172,4.253-1.172,4.253-2.157,3.821-2,5.791a3.228,3.228,0,0,1-1.664,2.962l7.728,20.048s.246,8.26-1.172,11.275-4.067,16.394-4.067,16.394,1.112-.246,1.052.493-1.331,8.806-1.331,8.806a17.551,17.551,0,0,1-.985,4.313c-.619,1.1-.666,6.9-.666,6.9l-.985,4.193s2.343,5.238,5.917,4.493,10.044-14.723,10.044-14.723l4.127-15.1,3.2-14.91.885-10.144,1.478-22.371,2.156-14.783S1046.692,526.685,1045.833,525.634Z" transform="translate(-358.83 -188.105)" fill="#65617d"/>
    <path id="Pfad_641" data-name="Pfad 641" d="M993.442,591.615l-3.574,2.463a42.318,42.318,0,0,1-9.372-.785l-2-.885-.4-.173.413.133a8.16,8.16,0,0,0,4.932.173c5.059-1.7,4.5-10.051,4.3-11.941a1.742,1.742,0,0,0-.04-.359h0v.047a3.33,3.33,0,0,0,.233.326l.226.24h0l1.85,3.554a.971.971,0,0,1,0,.153Z" transform="translate(-345.995 -206.396)" opacity="0.1"/>
    <path id="Pfad_642" data-name="Pfad 642" d="M1006,561.14l-1.724.493-.246,3.508a2.385,2.385,0,0,0-2.589,2.1,8.461,8.461,0,0,1-1.537,3.514s-3.388,2.836-3.574,5.238l-2.1,1.291s-4.865-1.112-5.99-3.082c0,0,2.223,15.895-9.611,11.981,0,0,13.245,5.791,13.865,6.6a7.745,7.745,0,0,0,8.38,1.171,8.788,8.788,0,0,0,4.5-4.992s3.574-4.992,3.694-5.731,2.9-1.6,2.9-1.6l5.325-12.813Z" transform="translate(-346.173 -200.009)" fill="#65617d"/>
    <path id="Pfad_643" data-name="Pfad 643" d="M1084.128,530.854l1.784-8.134s.805,2.662,1.6,3.268l2.662,2a15.63,15.63,0,0,0,3.574,1.231c.912,0,5.917,1.331,6.53,2s3.082.186,3.082.186,2.03.666,3.821,1.112,2.662,3.388,2.276,4.559a3.561,3.561,0,0,0,.865,3.328c.739.739,1.112,3.142,1.112,3.142a3.608,3.608,0,0,1,2.09,1.784c.619,1.331.433,4.313.433,4.313l-9.179,12.939s.12,4.992-.246,6.1,1.291,19.968,1.291,19.968l1.91,32.408a33.635,33.635,0,0,1-3.082,2.4c-.552.246-1.1-11.462-1.1-11.888s-14.237-21.3-14.237-21.3-1.91-3.082-1.91-3.761-1.784-6.9-1.784-6.9l-2.709-11.981Z" transform="translate(-381.043 -187.161)" opacity="0.1"/>
    <path id="Pfad_644" data-name="Pfad 644" d="M1115.08,548.941v.706l-9.172,12.926h0s.126,4.992-.246,6.1c-.213.666.253,7.275.666,12.72.313,3.927.6,7.242.6,7.242l.812,13.745,1.1,18.637a33.587,33.587,0,0,1-3.082,2.4c-.552.246-1.1-11.462-1.1-11.894s-14.237-21.3-14.237-21.3-1.91-3.082-1.91-3.761-1.784-6.9-1.784-6.9l-2.709-11.981,1.231-36.721,1.045-8.134a17.453,17.453,0,0,0,2.343,3.261l2.662,2.037a15.628,15.628,0,0,0,3.574,1.231c.912,0,5.917,1.331,6.53,2s3.082.186,3.082.186,2.037.666,3.821,1.112,2.662,3.388,2.276,4.559a3.568,3.568,0,0,0,.865,3.328c.739.739,1.112,3.142,1.112,3.142a3.608,3.608,0,0,1,2.09,1.784,9.984,9.984,0,0,1,.439,3.574Z" transform="translate(-381.411 -187.165)" fill="#65617d"/>
    <path id="Pfad_645" data-name="Pfad 645" d="M1017.53,808.76c.306,0,13.246.493,13,2.589S1017.53,808.76,1017.53,808.76Z" transform="translate(-359.181 -282.812)" opacity="0.1"/>
    <path id="Pfad_646" data-name="Pfad 646" d="M1021.88,814s8.686,1.418,6.41,2.709S1021.88,814,1021.88,814Z" transform="translate(-360.635 -284.564)" opacity="0.1"/>
    <path id="Pfad_647" data-name="Pfad 647" d="M1070.39,806.73s14.417,1.231,12.26,2.829-7.268,1.85-7.515,1.91S1070.39,806.73,1070.39,806.73Z" transform="translate(-376.857 -282.133)" opacity="0.1"/>
    <path id="Pfad_648" data-name="Pfad 648" d="M1067.8,816.26s7.987,1.331,8.254,2.9S1067.8,816.26,1067.8,816.26Z" transform="translate(-375.991 -285.32)" opacity="0.1"/>
    <path id="Pfad_649" data-name="Pfad 649" d="M1074.46,760.53s7.322,1.724,7.768,2.9Z" transform="translate(-378.218 -266.684)" opacity="0.1"/>
    <path id="Pfad_650" data-name="Pfad 650" d="M1031.129,768.49s-3.821,1.112-.12,3.328S1031.129,768.49,1031.129,768.49Z" transform="translate(-363.148 -269.346)" opacity="0.1"/>
    <path id="Pfad_651" data-name="Pfad 651" d="M1057.43,678.785c.433,0,7.149-2.216,9.492-1.231a15.608,15.608,0,0,0,5.232.985Z" transform="translate(-372.523 -238.852)" opacity="0.1"/>
    <path id="Pfad_652" data-name="Pfad 652" d="M1054.339,688.371l-.067.612-5.744,15.043s-.925,4.559-1.724,7.149a46.958,46.958,0,0,0-1.2,5.325l5.085-31.53Z" transform="translate(-368.567 -241.417)" opacity="0.1"/>
    <path id="Pfad_653" data-name="Pfad 653" d="M1070.227,647.043l-2.39.04h-.073l-1.4-6.21,2.077-.113Z" transform="translate(-375.509 -226.633)" fill="#3f3d56"/>
    <path id="Pfad_654" data-name="Pfad 654" d="M1103.378,635.927l-1.531,1.265-5.125,4.213s-13.858,7.395-17.678.373c-3.368-6.19,12.347-10.61,16.134-11.575l.805-.193Z" transform="translate(-379.594 -223.039)" fill="#fbbebe"/>
    <path id="Pfad_655" data-name="Pfad 655" d="M1026.88,547.9s2.709,1.231,3.328,2.955S1026.88,547.9,1026.88,547.9Z" transform="translate(-362.307 -195.581)" opacity="0.1"/>
    <path id="Pfad_656" data-name="Pfad 656" d="M1012.921,575.67s-3.94,4.806-2.343,6.656S1012.921,575.67,1012.921,575.67Z" transform="translate(-356.729 -204.868)" opacity="0.1"/>
    <path id="Pfad_657" data-name="Pfad 657" d="M1118.271,552s-3.694.373-3.821,3.574Z" transform="translate(-391.59 -196.952)" opacity="0.1"/>
    <path id="Pfad_658" data-name="Pfad 658" d="M1068.72,621.9c.373-.373,8.873-12.939,10.849-11.828Z" transform="translate(-376.298 -216.349)" opacity="0.1"/>
    <path id="Pfad_659" data-name="Pfad 659" d="M1077.89,497.726a14.643,14.643,0,0,1-1.737,6.922h-.107c-.932-.2-1.418-1.278-2.123-1.957a2.882,2.882,0,0,0-3.328-.466,3.381,3.381,0,0,0-1.637,3.162c-.466-2-.319-4.073-.779-6.05s-1.837-3.994-3.727-3.994c-.812,0-1.764.3-2.35-.313a5.829,5.829,0,0,1-.666-1.391c-1.331-2.19-5.458-1.085-7.135.04s-3.627,2.909-5.711,3.867a14.664,14.664,0,0,1,29.327.213Z" transform="translate(-369.567 -173.876)" opacity="0.1"/>
    <path id="Pfad_660" data-name="Pfad 660" d="M1059.514,489.258a9.348,9.348,0,0,0,.666,1.4c.586.606,1.538.293,2.35.306,1.89.033,3.275,2.037,3.727,3.994s.313,4.073.785,6.044a3.328,3.328,0,0,1,1.631-3.155,2.9,2.9,0,0,1,3.328.459c.706.666,1.191,1.764,2.123,1.957s1.824-.7,2.156-1.677a25.706,25.706,0,0,0,.532-3.068c.419-1.917,1.677-3.494,2.37-5.325a9.657,9.657,0,0,0-.06-6.882c-.466-1.158-1.151-2.2-1.618-3.328-.712-1.751-.9-3.734-1.764-5.4a6.39,6.39,0,0,0-7.674-3.155c-1.331.506-2.5,1.478-3.861,1.917-1.824.586-3.767.146-5.651-.12s-3.994-.286-5.484.952c-1.744,1.431-2.223,4.113-3.861,5.678-.666.666-1.544,1.078-2.27,1.684a3.128,3.128,0,0,0-1.271,2.5c.113,1.278,1.331,2.436.9,3.621a2.81,2.81,0,0,1-.666.9,12.9,12.9,0,0,0-2.982,5.079c3.328,1.025,6.869-2.609,9.445-4.326C1054.056,488.18,1058.162,487.075,1059.514,489.258Z" transform="translate(-367.671 -169.9)" fill="#7c5c5c"/>
    <path id="Pfad_661" data-name="Pfad 661" d="M1111.6,635.927l-1.531,1.265c-1.331-2.256-6.909-6.756-6.909-6.756l.24-.233.805-.193Z" transform="translate(-387.815 -223.039)" opacity="0.1"/>
    <path id="Pfad_662" data-name="Pfad 662" d="M1113.265,632.651s-.546,1.371-1.118,2.556-1.192,2.263-1.218,1.391c-.067-1.731-7.208-7.521-7.208-7.521l.965-.945,1.125-1.092Z" transform="translate(-388.002 -222.045)" fill="#e7effd"/>
    <path id="Pfad_663" data-name="Pfad 663" d="M1113.541,618.132l.812,13.745c-1.917-2.975-7.169-10.6-10.543-10.357l8.194-9.425a10.987,10.987,0,0,0,.939-1.2C1113.255,614.817,1113.541,618.132,1113.541,618.132Z" transform="translate(-388.032 -216.645)" opacity="0.1"/>
    <path id="Pfad_664" data-name="Pfad 664" d="M1113.75,632.651s-.546,1.371-1.118,2.556c-2.15-2.942-5.1-6.423-7.461-7.075l1.125-1.092Z" transform="translate(-388.487 -222.045)" opacity="0.1"/>
    <path id="Pfad_665" data-name="Pfad 665" d="M1119.642,560.58l2.216,1.724s3.7.067,4.067,3.142,3.761,4.5,3.761,4.5,2.523,2.529,2.523,3.7,1.91,3.261,1.91,3.448,1.85,3.94,1.6,4.619,2,3.634,1.291,4.746a28.533,28.533,0,0,0-1.478,3.082s-2.9,5.544-4.373,6.589-8.254,9.864-8.254,9.864-7.275,8.373-7.275,10.962c0,0-7.082-11.828-11.275-11.522l8.194-9.425a6.39,6.39,0,0,0,1.484-2.463c.067-.919,3.94-5.178,5.791-5.365,0,0,.306-2.523-.493-2.589s-1.478-2-1.478-2-5.425-6.41-5.485-10.477S1119.642,560.58,1119.642,560.58Z" transform="translate(-388.216 -199.822)" fill="#65617d"/>
    <path id="Pfad_666" data-name="Pfad 666" d="M1130.108,569.37s-5.178,3.821-4.067,5.059S1130.108,569.37,1130.108,569.37Z" transform="translate(-395.414 -202.761)" opacity="0.1"/>
    <path id="Pfad_667" data-name="Pfad 667" d="M1132.6,592.382s9.611-3.082,10.6,0Z" transform="translate(-397.66 -209.998)" opacity="0.1"/>
    <path id="Pfad_668" data-name="Pfad 668" d="M1025.95,838.562s-5.178,3.395-7.768,2.9a9.319,9.319,0,0,0-5.238.865,15.547,15.547,0,0,1-6.53,4.253c-4.193,1.418-10.044.859-13.372-.246-1.571-.526-1.7-1.2-.938-2.037,3.614.719,11.7,2.15,13.878,1.112a57.753,57.753,0,0,0,6.9-4.313s5.325-.739,6.037-.739a65.914,65.914,0,0,0,6.929-2.662Z" transform="translate(-350.527 -292.486)" opacity="0.1"/>
    <path id="Pfad_669" data-name="Pfad 669" d="M1082.756,849.45a1.125,1.125,0,0,1-.047.339s-1.231,2.709-8.074,3.694-6.836-2.276-6.836-2.276l.067-.885C1070.03,851.147,1074.756,852.059,1082.756,849.45Z" transform="translate(-375.991 -296.418)" opacity="0.1"/>
    <path id="Pfad_670" data-name="Pfad 670" d="M1029.949,568.26s0,14.051-1.2,15.435S1029.949,568.26,1029.949,568.26Z" transform="translate(-362.821 -202.39)" opacity="0.1"/>
    <path id="Pfad_671" data-name="Pfad 671" d="M1114.17,575.07l1.79,5.019S1116.666,575.163,1114.17,575.07Z" transform="translate(-391.497 -204.667)" opacity="0.1"/>
    <g id="Gruppe_9" data-name="Gruppe 9" transform="translate(675.282 313.015)" opacity="0.1">
      <path id="Pfad_672" data-name="Pfad 672" d="M1048.172,492.378c.453-1.151-.732-2.29-.885-3.528a2.269,2.269,0,0,0-.2,1.112c.08.939.772,1.81.952,2.662A1.519,1.519,0,0,0,1048.172,492.378Z" transform="translate(-1044.344 -488.85)"/>
      <path id="Pfad_673" data-name="Pfad 673" d="M1067.245,507.61c-.439-1.944-.306-3.994-.759-5.944s-1.837-3.994-3.727-3.994c-.812,0-1.764.293-2.35-.313-.359-.366-.426-.945-.666-1.4-1.331-2.183-5.458-1.072-7.142.047-2.516,1.671-5.99,5.178-9.212,4.38-.153.373-.3.752-.419,1.145,3.328,1.025,6.869-2.609,9.445-4.326,1.684-1.118,5.791-2.223,7.142-.04a9.346,9.346,0,0,0,.666,1.4c.586.606,1.538.293,2.35.306,1.89.033,3.275,2.037,3.727,3.994s.313,4.074.786,6.044a3.326,3.326,0,0,1,.16-1.3Z" transform="translate(-1042.97 -490.81)"/>
      <path id="Pfad_674" data-name="Pfad 674" d="M1088.714,510.082c-.333.978-1.211,1.877-2.163,1.677s-1.411-1.278-2.117-1.957a2.9,2.9,0,0,0-3.328-.466,3.368,3.368,0,0,0-1.637,2.989,3.215,3.215,0,0,1,1.451-1.784,2.9,2.9,0,0,1,3.328.459c.706.666,1.192,1.764,2.123,1.957s1.824-.7,2.156-1.677a7.864,7.864,0,0,0,.339-1.771,4.256,4.256,0,0,1-.153.572Z" transform="translate(-1055.175 -495.592)"/>
      <path id="Pfad_675" data-name="Pfad 675" d="M1096.439,497.311c-.666,1.824-1.95,3.4-2.37,5.325-.08.386-.133.785-.18,1.185.426-1.917,1.671-3.488,2.363-5.325a9.246,9.246,0,0,0,.566-2.556,9.31,9.31,0,0,1-.38,1.371Z" transform="translate(-1059.997 -491.221)"/>
    </g>
    <circle id="Ellipse_172" data-name="Ellipse 172" cx="0.153" cy="0.153" r="0.153" transform="translate(622.527 363.414)" fill="#e6e8ec"/>
    <rect id="Rechteck_93" data-name="Rechteck 93" width="120.594" height="138.592" rx="6.61" transform="translate(565.178 367.002)" fill="#fff"/>
    <rect id="Rechteck_94" data-name="Rechteck 94" width="120.594" height="138.592" rx="6.61" transform="translate(565.178 367.002)" fill="#5a5773" opacity="0.1"/>
    <rect id="Rechteck_95" data-name="Rechteck 95" width="108.294" height="124.455" rx="6.61" transform="translate(571.328 374.071)" fill="#fff"/>
    <rect id="Rechteck_96" data-name="Rechteck 96" width="74.295" height="25.639" rx="6.03" transform="translate(587.083 399.031)" fill="#fca310"/>
    <rect id="Rechteck_97" data-name="Rechteck 97" width="68.843" height="5.232" transform="translate(589.812 434.048)" fill="#fca310"/>
    <rect id="Rechteck_98" data-name="Rechteck 98" width="94.729" height="5.232" transform="translate(578.111 445.091)" fill="#fca310"/>
    <rect id="Rechteck_99" data-name="Rechteck 99" width="94.729" height="5.232" transform="translate(578.111 456.712)" fill="#fca310"/>
    <rect id="Rechteck_100" data-name="Rechteck 100" width="94.729" height="5.232" transform="translate(578.111 468.333)" fill="#fca310"/>
    <rect id="Rechteck_101" data-name="Rechteck 101" width="283.954" height="138.592" rx="6.61" transform="translate(0 321.188)" fill="#fff"/>
    <rect id="Rechteck_102" data-name="Rechteck 102" width="283.954" height="138.592" rx="6.61" transform="translate(0 321.188)" fill="#5a5773" opacity="0.1"/>
    <rect id="Rechteck_103" data-name="Rechteck 103" width="254.98" height="124.455" rx="6.61" transform="translate(14.484 328.257)" fill="#fff"/>
    <rect id="Rechteck_104" data-name="Rechteck 104" width="174.928" height="25.639" rx="6.03" transform="translate(51.591 353.224)" fill="#fca310"/>
    <rect id="Rechteck_105" data-name="Rechteck 105" width="162.095" height="5.232" transform="translate(58.007 388.235)" fill="#fca310"/>
    <rect id="Rechteck_106" data-name="Rechteck 106" width="223.044" height="5.232" transform="translate(30.451 399.277)" fill="#fca310"/>
    <rect id="Rechteck_107" data-name="Rechteck 107" width="223.044" height="5.232" transform="translate(30.451 410.898)" fill="#fca310"/>
    <rect id="Rechteck_108" data-name="Rechteck 108" width="223.044" height="5.232" transform="translate(30.451 422.52)" fill="#fca310"/>
    <path id="Pfad_676" data-name="Pfad 676" d="M132.682,735.56c.792-2.889,1.331-5.431,1.331-5.431a11.315,11.315,0,0,1,1.478-5.5v-.8h0l.226-5.864a19.519,19.519,0,0,0-1.331-3.128c-.985-1.884.333-8.6.333-8.6s4.28-9.365,3.561-15.442,9.066-26.511,9.066-26.511a26.279,26.279,0,0,0-.612-5.99,4.593,4.593,0,0,1-.067-1.245,1.181,1.181,0,0,1,0-.153v.047c.286-3.994,3.721-11.315,3.721-11.315l.126-14.244s-1.691-8.466,2-19.6c1.3-3.887,2.15-7,2.709-9.412.067-.273.126-.532.18-.785-6.709-1.291-11.834-2.343-11.834-2.343s4.546-16.227,7.322-18.99,5.212-11.695,5.212-11.695,1.824-11.515-.266-14.976-2.183-9.318-2.183-9.318-4.939-3.88-5.511-5.538a27.153,27.153,0,0,1-1.411-7.322c.073-1.93.779-3.661.606-4.693s1.671-4.852.892-6.729a5.152,5.152,0,0,1-.266-1.79v-.053h0a24.906,24.906,0,0,1,.632-4.786,13.578,13.578,0,0,1,5.125-2.489l.126-.439.333-1.138a5.557,5.557,0,0,1,.506-.28l.033-.419.107-1.657-.639-3.781c-1.331-6.563,7.4-7.2,7.4-7.2a4.573,4.573,0,0,1,2.536-2.063c1.771-.546-.08,9.791-.925,10.423-.666.473-2.662,3.661-3.628,5.225h0l-.16.26a3.6,3.6,0,0,1,.386.433l-.419,2.243-.067.339a9.318,9.318,0,0,1,1.3,2.416,5.018,5.018,0,0,0-1.411,3.634,11.709,11.709,0,0,1-.666,4.48c.093-.1,1.258-1.265,2.363-.932s4.18,1.391,4.18,1.391,2.31.5,2.077,1.005,1.484,2.822,1.484,2.822l6.476-5.678c.073-.18.14-.353.206-.532a14.873,14.873,0,0,0,.666-2.576,13.923,13.923,0,0,1-2-.712,4.345,4.345,0,0,1-1.691-1.172,6.987,6.987,0,0,1-.9-2.736,38.354,38.354,0,0,0-2.123-5.265,16.833,16.833,0,0,1-.892-9.318,6.2,6.2,0,0,1,1.065-2.662c1.078-1.364,2.949-1.864,4.34-2.929s2.323-2.749,3.92-3.528a7.555,7.555,0,0,1,4.766-.226,25.467,25.467,0,0,1,8.686,3.534,4.513,4.513,0,0,0,2.929,1.092,4.04,4.04,0,0,0,2.2-1.484.494.494,0,0,1,0-.093l.073-.073a10.976,10.976,0,0,1,.785,4.712,3.515,3.515,0,0,1-.053.745v.26a1.211,1.211,0,0,0,0,.22h0a1.1,1.1,0,0,0,.04.326,2.336,2.336,0,0,0,.552.872,4.76,4.76,0,0,1,.479.712.951.951,0,0,0-.073-.26,3.714,3.714,0,0,1,.572,2,1.95,1.95,0,0,1-.526,1.391,6.187,6.187,0,0,1-1.052.785A11.948,11.948,0,0,1,190.9,517.2c-.08.173-.16.353-.233.532a14.883,14.883,0,0,0-1.4,6.769,1.6,1.6,0,0,0,.053.5c.053.166.153.18.22.273h0s10.317.5,12.833-1.611,5.924,5.611,5.924,5.611,3.674.859,4.44.173,5.085.093,5.085.093a9.318,9.318,0,0,1,6.536-2.11,19.094,19.094,0,0,1,4.839-2.449h0l.12-.04h0a5.219,5.219,0,0,1,2.336-.206s5.238-3.994,6.8-6.2,8.906-10.277,8.906-10.317l.047-.4.126-1.211a4.069,4.069,0,0,0,.626.08l.16-.419a22.85,22.85,0,0,1,1.631-3.381s.06-1.538-.373-1.937.419-5.99.419-5.99,4.985-10.517,8.773-2.376c0,0,7.548,5.465.812,11.229,0,0-2.662,1.158-3.042,2.137-.266.666-1.218,2.409-1.857,3.588l-.286.526.073.067-.133,1-.053.393c1.191.739,2,1.458,1.777,2a11.317,11.317,0,0,0-.845,2.736s-9.412,10.849-10.756,15.635c0,0-24.667,13.405-32.615,14.124l1.1,7.215a57.521,57.521,0,0,1,.093,5.851c-.166,1.531.626,8.526.626,8.526s.978,10.29,2.09,11.768.666,7.615.666,7.615a51.854,51.854,0,0,0,1.251,8.759,22.381,22.381,0,0,1,0,8.713s3.667,9.365-5.718,2.749c0,0-4.712-.473-10.144-.865v.539c0,.706-.033,1.464-.053,2.263-.133,5.278-.379,12.547-.832,18.038-.8,9.711-4.5,28.841-4.5,28.841l-.373,9.665a12.8,12.8,0,0,1,.173,2.776,17.972,17.972,0,0,1-2.975,9.578l-.992,6.423s-1.9,4.18-2.03,6.716a3.019,3.019,0,0,0,.053.619,4.94,4.94,0,0,1,.047.992c0,2.929-2.05,9.864-2.05,9.864s-.379,7.062-1.451,7.428c-.919.32,1.052,4.12,1.637,5.212a1.087,1.087,0,0,0,.047-.2l.126.213a5.019,5.019,0,0,1,.26,1.8,2.576,2.576,0,0,1-1.271,2.436c-2.057,1.151-3.175,2.13-1.484,2.609a18.791,18.791,0,0,1,1.85.459l.1-.233a1.138,1.138,0,0,1,.666,1.265,5.172,5.172,0,0,1-.726,2.37,25.8,25.8,0,0,1-3.062,5.112l-.812-.12a4.059,4.059,0,0,0,.439.885,3.38,3.38,0,0,0,1.158,1.112,3.7,3.7,0,0,0,1.424.546,4.107,4.107,0,0,1,2.942,1.577c1,1.4,1.591,3.288-.559,4.839l-7.661,2.316s-13.072,1.191-12.274-1.7,1.331-5.431,1.331-5.431a11.549,11.549,0,0,1,1.251-5.139,6.871,6.871,0,0,1,.493-.745l-.459-.067s-.759-6.49-2.01-7.748c-.28-.3-.339-.519-.266-.666-.113-.353.22-.546.666-.666a1.034,1.034,0,0,0,.087.253,6.425,6.425,0,0,1,1.265-.087s.552-3.361-.772-4.659a1.265,1.265,0,0,1-.226-1.012,5.184,5.184,0,0,1,.193-1.371.5.5,0,0,0,.047.08,50.374,50.374,0,0,1,3.328-7.814s.22-3.068-.579-4.333.752-16.68.752-16.68-.033-7.481,1.052-10.923-.872-7.621-.872-7.621a1.057,1.057,0,0,1,.033-.22.273.273,0,0,0,0-.06s.067-.459.173-1.172v.073c.293-2,.832-5.531,1.191-7.182.513-2.336.419-13.618.419-13.618L175,638.927l-3.707,8.16L167.3,658a9.393,9.393,0,0,0-2,4.659v.353a5.537,5.537,0,0,1,0,.739,6.6,6.6,0,0,1-1.251,3.894s-1.151,5.185-2.662,6.456-1.631,3.834-1.631,3.834-2.09,7.508-2.989,8.806c-.752,1.092-.912,4.173-.939,5.118h0v.273s-.353,2.7-.433,4.979v.805a.146.146,0,0,1,0-.053,7.714,7.714,0,0,0,.146,1.844s0,.073,0,.113v-.386a19.362,19.362,0,0,1,.366,4.739c-.06,2.722-.6,5.931-2.323,7.761-2.982,3.168-4.759,2.662-4.759,2.662s1.218,4.147,2.875,5.032a1.053,1.053,0,0,1,.18.12.409.409,0,0,1,.047-.233,2,2,0,0,1,.439,1.544,11.036,11.036,0,0,1-2.33,5.99,3.328,3.328,0,0,1-1.458.785,2.5,2.5,0,0,0,.26.173,5.2,5.2,0,0,0,.572.293,2.829,2.829,0,0,0,.852.26,4.046,4.046,0,0,1,2.942,1.577c1,1.4,1.591,3.281-.559,4.832l-7.661,2.316S131.877,738.448,132.682,735.56Z" transform="translate(-63.28 -176.052)" fill="url(#linear-gradient-3)"/>
    <path id="Pfad_677" data-name="Pfad 677" d="M201.074,861.995l7.421-2.323c2.083-1.557,1.511-3.441.546-4.846a3.887,3.887,0,0,0-2.842-1.564,3.474,3.474,0,0,1-1.384-.552,3.328,3.328,0,0,1-1.112-1.1,5.458,5.458,0,0,1-.725-2.862s-7.947-2.662-10.237-.393a5.991,5.991,0,0,0-1.018,1.391,11.981,11.981,0,0,0-1.225,5.138s-.506,2.536-1.285,5.431S201.074,861.995,201.074,861.995Z" transform="translate(-82.183 -295.744)" fill="#2d293d"/>
    <path id="Pfad_678" data-name="Pfad 678" d="M147.457,854.491l7.421-2.323c2.083-1.557,1.511-3.441.546-4.839a3.887,3.887,0,0,0-2.849-1.571,2.619,2.619,0,0,1-.825-.253,5.24,5.24,0,0,1-.552-.3c-2-1.2-1.844-3.994-1.844-3.994s-7.947-2.662-10.237-.393a5.885,5.885,0,0,0-.812,1.012,11.615,11.615,0,0,0-1.438,5.518s-.513,2.543-1.285,5.431S147.457,854.491,147.457,854.491Z" transform="translate(-64.25 -293.226)" fill="#2d293d"/>
    <path id="Pfad_679" data-name="Pfad 679" d="M194.012,848.349A5.992,5.992,0,0,0,193,849.74h0l11.981,1.857a5.458,5.458,0,0,1-.726-2.862S196.328,846.079,194.012,848.349Z" transform="translate(-83.461 -295.743)" opacity="0.1"/>
    <path id="Pfad_680" data-name="Pfad 680" d="M139.647,841.858l-.087,2.256c1.757,3.162,10.843,2.835,13.532,1.391a5.239,5.239,0,0,1-.552-.3c-2-1.2-1.844-3.994-1.844-3.994s-7.947-2.662-10.237-.393A5.886,5.886,0,0,0,139.647,841.858Z" transform="translate(-65.591 -293.226)" opacity="0.1"/>
    <path id="Pfad_681" data-name="Pfad 681" d="M137.924,768.37a20.682,20.682,0,0,1,1.331,3.128l-.326,8.081c1.917,3.461,12.607,2.742,14.111.958s3.222-6.543,1.617-7.422-2.782-5.032-2.782-5.032,1.724.479,4.619-2.662,2.35-10.47,1.9-12.227.3-7.575.3-7.575.053-4.1.925-5.4,2.9-8.806,2.9-8.806.093-2.563,1.577-3.834,2.609-6.463,2.609-6.463a6.7,6.7,0,0,0,1.191-4.36c-.206-2.569,1.944-5.258,1.944-5.258l3.907-10.916,3.594-8.167L179,697.3s.08,11.282-.419,13.618-1.331,8.56-1.331,8.56,1.89,4.173.839,7.621-1.038,10.922-1.038,10.922-1.518,15.422-.745,16.68.552,4.326.552,4.326-4.539,8.846-3.261,10.13.745,4.659.745,4.659-2.862-.113-1.684,1.165,1.81,7.714,1.81,7.714l12.32,1.91a26.072,26.072,0,0,0,2.969-5.118c1.784-3.721-.173-3.388-1.8-3.861s-.552-1.458,1.438-2.609.972-3.96.972-3.96-2.776-5.132-1.731-5.5,1.411-7.428,1.411-7.428,2.37-8.32,1.944-10.59,1.937-7.615,1.937-7.615l.958-6.416a17.725,17.725,0,0,0,2.722-12.094l.386-9.931s3.621-19.1,4.433-28.841c.506-6.217.759-14.717.872-20.021.067-2.982.093-4.952.093-4.952l-44.043-6.31a36.351,36.351,0,0,1-1.058,6.536,97.21,97.21,0,0,1-2.662,9.418c-3.608,11.135-2,19.6-2,19.6l-.14,14.244s-4.26,9.372-3.561,12.68a27.051,27.051,0,0,1,.586,5.99s-9.478,20.421-8.786,26.471-3.468,15.449-3.468,15.449S136.972,766.486,137.924,768.37Z" transform="translate(-64.927 -229.509)" fill="#575988"/>
    <path id="Pfad_682" data-name="Pfad 682" d="M172.442,748.33,159.05,746S166.378,754.094,172.442,748.33Z" transform="translate(-72.109 -261.825)" opacity="0.05"/>
    <path id="Pfad_683" data-name="Pfad 683" d="M162.264,726.39s-.666,4.739,2.2,6.656C164.44,733.033,159.282,732.014,162.264,726.39Z" transform="translate(-72.873 -255.268)" opacity="0.1"/>
    <path id="Pfad_684" data-name="Pfad 684" d="M164.85,703.67s10.9,9.7,15.016,9.092S164.85,703.67,164.85,703.67Z" transform="translate(-74.048 -247.67)" opacity="0.1"/>
    <path id="Pfad_685" data-name="Pfad 685" d="M204,757s8.473,2.276,8.6,5.711S204,757,204,757Z" transform="translate(-87.14 -265.504)" opacity="0.1"/>
    <path id="Pfad_686" data-name="Pfad 686" d="M197.578,821s11.981,2.716,8.506,4.12a58.018,58.018,0,0,1-9.165,2.416S193.019,827.6,197.578,821Z" transform="translate(-84.253 -286.905)" opacity="0.05"/>
    <g id="Gruppe_10" data-name="Gruppe 10" transform="translate(72.653 425.828)" opacity="0.05">
      <path id="Pfad_687" data-name="Pfad 687" d="M213.872,830.144a2.4,2.4,0,0,0,1.171-1.7l.113.22s1.025,2.8-.972,3.994c-.226.126-.439.26-.666.386-.353-.08-.739-.146-1.1-.253C210.79,832.287,211.875,831.3,213.872,830.144Z" transform="translate(-162.343 -715.221)"/>
      <path id="Pfad_688" data-name="Pfad 688" d="M191.548,827.82c-.319-.319-.273-1.1,0-2.11a5.717,5.717,0,0,1,.572,3,2.33,2.33,0,0,0-.572-.885Z" transform="translate(-155.555 -714.308)"/>
      <path id="Pfad_689" data-name="Pfad 689" d="M197.313,752.48a13.924,13.924,0,0,1,.666,3.8,14.518,14.518,0,0,0-.839-2.622S197.213,753.2,197.313,752.48Z" transform="translate(-157.499 -689.82)"/>
      <path id="Pfad_690" data-name="Pfad 690" d="M156.13,742.245a4.886,4.886,0,0,1-.073-1.125c.126.772.206,1.484.253,2.11C156.257,742.91,156.2,742.584,156.13,742.245Z" transform="translate(-143.759 -686.021)"/>
      <path id="Pfad_691" data-name="Pfad 691" d="M195.613,806.023a6.782,6.782,0,0,1-.213-2.283,7.7,7.7,0,0,1,.479,2.889,2.816,2.816,0,0,0-.266-.606Z" transform="translate(-156.911 -706.961)"/>
      <path id="Pfad_692" data-name="Pfad 692" d="M190.478,836a40.205,40.205,0,0,1,1.165,6.343l12.32,1.91a25.8,25.8,0,0,0,2.975-5.119c.16-.326.28-.619.386-.885.726.366.992,1.151-.073,3.361a26.111,26.111,0,0,1-2.969,5.112l-12.347-1.9s-.666-6.483-1.857-7.754C189.526,836.439,189.939,836.153,190.478,836Z" transform="translate(-155.05 -717.749)"/>
      <path id="Pfad_693" data-name="Pfad 693" d="M215.458,758.853s-.373,7.062-1.411,7.428h0c-.473-1.191-.779-2.31-.313-2.476,1.038-.373,1.418-7.428,1.418-7.428s2.37-8.313,1.944-10.59,1.93-7.608,1.93-7.608l.965-6.423a17.725,17.725,0,0,0,2.722-12.094l.379-9.931s3.608-19.129,4.393-28.841c.5-6.217.752-14.717.872-20.021,0-.958.04-1.81.053-2.529l.353.053s0,2-.093,4.945c-.113,5.325-.366,13.811-.872,20.028-.785,9.7-4.386,28.841-4.386,28.841l-.386,9.924a17.745,17.745,0,0,1-2.716,12.094l-.972,6.423s-2.363,5.325-1.937,7.615S215.458,758.853,215.458,758.853Z" transform="translate(-162.971 -658.34)"/>
      <path id="Pfad_694" data-name="Pfad 694" d="M153.418,839.906a11.981,11.981,0,0,0,2.143-4.786c1.218,1.185-.4,5.558-1.83,7.255s-12.194,2.5-14.111-.952l.073-1.95C142.356,842.322,151.994,841.6,153.418,839.906Z" transform="translate(-138.265 -717.454)"/>
      <path id="Pfad_695" data-name="Pfad 695" d="M137.621,823.96a20.679,20.679,0,0,1,1.331,3.128l-.06,1.431a22.353,22.353,0,0,0-.945-2.09,6.17,6.17,0,0,1-.346-2.549Z" transform="translate(-137.584 -713.696)"/>
      <path id="Pfad_696" data-name="Pfad 696" d="M159.539,819.823a20.017,20.017,0,0,1-.919-2.469s1.724.473,4.613-2.7c2.1-2.31,2.39-6.8,2.216-9.758.453,1.764.992,9.059-1.9,12.227C161.648,819.2,160.257,819.716,159.539,819.823Z" transform="translate(-144.618 -707.349)"/>
      <path id="Pfad_697" data-name="Pfad 697" d="M168.93,765.551a54.734,54.734,0,0,0-.439,6.064,8.645,8.645,0,0,0-.173-.958c-.446-1.764.293-7.575.293-7.575s.06-4.1.925-5.4,2.9-8.806,2.9-8.806.1-2.556,1.584-3.834,2.609-6.463,2.609-6.463a6.736,6.736,0,0,0,1.191-4.36c-.206-2.569,1.944-5.258,1.944-5.258l3.907-10.916,3.594-8.167,1.657,4.886v1.557l-1.331-3.994L184,720.49l-3.907,10.922s-2.15,2.662-1.944,5.258a6.7,6.7,0,0,1-1.191,4.36s-1.125,5.185-2.609,6.456-1.577,3.834-1.577,3.834-2.037,7.508-2.9,8.813S168.93,765.551,168.93,765.551Z" transform="translate(-147.813 -675.575)"/>
    </g>
    <path id="Pfad_698" data-name="Pfad 698" d="M167.216,505.438l.626,3.767-.107,1.664-.08,1.225,4.253.606.513-.865h0a38.955,38.955,0,0,1,3.521-5.232c.812-.632,2.622-10.969.905-10.423a4.493,4.493,0,0,0-2.463,2.063S165.958,498.882,167.216,505.438Z" transform="translate(-74.797 -178.279)" fill="#ffcdd3"/>
    <path id="Pfad_699" data-name="Pfad 699" d="M167.94,519.275l4.253.606.513-.865h0a3.774,3.774,0,0,0-4.659-.958Z" transform="translate(-75.082 -185.46)" opacity="0.1"/>
    <path id="Pfad_700" data-name="Pfad 700" d="M166.2,521.462l5.584,1.524.146-.839.406-2.243a3.88,3.88,0,0,0-5.425-.952l-.319,1.138Z" transform="translate(-74.5 -185.663)" fill="#dce6f2"/>
    <path id="Pfad_701" data-name="Pfad 701" d="M303.74,507.108l5.884,3.461s.246-.473.592-1.118c.619-1.178,1.538-2.949,1.8-3.588.393-.978,2.949-2.143,2.949-2.143,6.53-5.771-.772-11.222-.772-11.222-3.661-8.14-8.493,2.383-8.493,2.383s-.832,5.611-.413,5.99.359,1.937.359,1.937a22.628,22.628,0,0,0-1.584,3.381C303.853,506.742,303.74,507.108,303.74,507.108Z" transform="translate(-120.492 -176.022)" fill="#ffcdd3"/>
    <path id="Pfad_702" data-name="Pfad 702" d="M303.74,515.557l5.884,3.461s.246-.473.592-1.118c-.825-.739-3.741-3.328-4.732-3.222a7.139,7.139,0,0,1-1.424,0C303.853,515.191,303.74,515.557,303.74,515.557Z" transform="translate(-120.492 -184.471)" opacity="0.1"/>
    <path id="Pfad_703" data-name="Pfad 703" d="M302.71,517.486l6.656,3.588.186-1.451.133-1s-3.781-3.5-4.939-3.421a6.285,6.285,0,0,1-1.771-.073l-.12,1.211Z" transform="translate(-120.148 -184.623)" fill="#dce6f2"/>
    <path id="Pfad_704" data-name="Pfad 704" d="M190.45,536.982s29.333,4.46,23.9,2.463c-3.787-1.4-5.218-3.894-5.431-6.609a15.456,15.456,0,0,1,1.331-6.776,29.7,29.7,0,0,1,2.842-5.218s-22.045-13.252-17.971-1.817a18.064,18.064,0,0,1,1.072,5.385,15.176,15.176,0,0,1-.785,5.378,16.107,16.107,0,0,1-4.952,7.2Z" transform="translate(-82.609 -184.37)" fill="#ffcdd3"/>
    <path id="Pfad_705" data-name="Pfad 705" d="M197.247,519.024a18.064,18.064,0,0,1,1.072,5.385c2.05,1.857,4.38,1.83,7.368,1.943,2.3.093,4.812.745,6.656-.293a29.7,29.7,0,0,1,2.842-5.218S193.174,507.589,197.247,519.024Z" transform="translate(-84.714 -184.37)" opacity="0.1"/>
    <circle id="Ellipse_173" data-name="Ellipse 173" cx="12.187" cy="12.187" r="12.187" transform="translate(109.625 318.413)" fill="#ffcdd3"/>
    <path id="Pfad_706" data-name="Pfad 706" d="M190.45,544.168s29.333,4.46,23.9,2.463c-3.787-1.4-5.218-3.894-5.431-6.609-1.4-1.644-4.306-2.9-6.177-3.588a8.872,8.872,0,0,0-5.325-.293,7.322,7.322,0,0,0-2,.832,16.108,16.108,0,0,1-4.965,7.2Z" transform="translate(-82.609 -191.557)" opacity="0.1"/>
    <path id="Pfad_707" data-name="Pfad 707" d="M166.2,522.318l5.584,1.524.146-.839a4.972,4.972,0,0,0-5.325-2.057Z" transform="translate(-74.5 -186.519)" opacity="0.1"/>
    <path id="Pfad_708" data-name="Pfad 708" d="M302.71,518.112l6.656,3.588.186-1.451A50.405,50.405,0,0,0,302.83,517Z" transform="translate(-120.148 -185.249)" opacity="0.1"/>
    <path id="Pfad_709" data-name="Pfad 709" d="M168.65,655.9c11.315,2.243,27.489,5.212,30.092,4.526,2.163-.566,8.986-.233,14.916.2.067-2.982.093-4.952.093-4.952l-44.043-6.31A36.35,36.35,0,0,1,168.65,655.9Z" transform="translate(-75.319 -229.509)" opacity="0.1"/>
    <path id="Pfad_710" data-name="Pfad 710" d="M151.72,608.708s37.314,7.894,41.394,6.822,24.727,1.052,24.727,1.052c9.072,6.6,5.538-2.756,5.538-2.756a22.526,22.526,0,0,0,0-8.713,53.253,53.253,0,0,1-1.2-8.759s.446-6.137-.626-7.608-2-11.768-2-11.768-.752-7-.592-8.526-.08-5.851-.08-5.851l-1.058-7.215c7.714-.726,31.6-14.157,31.6-14.157,1.331-4.766,10.443-15.695,10.443-15.695a11.822,11.822,0,0,1,.825-2.736c.666-1.611-8.407-5.238-8.407-5.238s-7.2,8.127-8.686,10.324-6.6,6.2-6.6,6.2a5,5,0,0,0-2.263.206h-.12a18.285,18.285,0,0,0-4.659,2.456,8.919,8.919,0,0,0-6.337,2.11s-4.173-.772-4.912-.086-4.3-.166-4.3-.166-3.328-7.708-5.731-5.6-12.427,1.624-12.427,1.624c-1.258-1.824-4.453-3.215-6.45-3.947a8.82,8.82,0,0,0-5.325-.293,6.918,6.918,0,0,0-2.15.939l-6.283,5.7s-1.657-2.316-1.431-2.822-2-1-2-1-2.935-1.038-4.047-1.384-2.2.825-2.29.932a11.834,11.834,0,0,0,.666-4.479,5.145,5.145,0,0,1,1.364-3.641c-3.241-8.939-11.608-1.877-11.608-1.877s-1.112,4.772-.359,6.656-1.038,5.7-.879,6.729-.513,2.749-.586,4.693a28.874,28.874,0,0,0,1.331,7.322c.526,1.651,5.325,5.538,5.325,5.538s.087,5.844,2.1,9.318.246,14.976.246,14.976-2.4,8.926-5.065,11.695S151.72,608.708,151.72,608.708Z" transform="translate(-69.658 -185.436)" fill="#656691"/>
    <path id="Pfad_711" data-name="Pfad 711" d="M237.79,553.414s1.258-3.328,2.29-3.6a23.588,23.588,0,0,0,3.022-1.218l-.612-1.285s-3.887.912-4.539,2S237.79,553.414,237.79,553.414Z" transform="translate(-98.38 -195.384)" opacity="0.1"/>
    <path id="Pfad_712" data-name="Pfad 712" d="M269.22,545.2c.166,1.032,9.239,2.3,9.239,2.3l-4.426-4.8h-.113A18.283,18.283,0,0,0,269.22,545.2Z" transform="translate(-108.949 -193.843)" opacity="0.1"/>
    <circle id="Ellipse_174" data-name="Ellipse 174" cx="0.819" cy="0.819" r="0.819" transform="translate(186.349 337.496)" fill="#575988"/>
    <circle id="Ellipse_175" data-name="Ellipse 175" cx="0.819" cy="0.819" r="0.819" transform="translate(185.238 339.093)" fill="#575988"/>
    <circle id="Ellipse_176" data-name="Ellipse 176" cx="0.819" cy="0.819" r="0.819" transform="translate(184.153 340.564)" fill="#575988"/>
    <circle id="Ellipse_177" data-name="Ellipse 177" cx="0.819" cy="0.819" r="0.819" transform="translate(183.021 342.161)" fill="#575988"/>
    <circle id="Ellipse_178" data-name="Ellipse 178" cx="0.666" cy="0.666" r="0.666" transform="translate(86.695 338.514)" fill="#575988"/>
    <circle id="Ellipse_179" data-name="Ellipse 179" cx="0.666" cy="0.666" r="0.666" transform="translate(86.535 340.018)" fill="#575988"/>
    <circle id="Ellipse_180" data-name="Ellipse 180" cx="0.666" cy="0.666" r="0.666" transform="translate(86.382 341.522)" fill="#575988"/>
    <path id="Pfad_713" data-name="Pfad 713" d="M215.421,598.15c.1-.113-24.095,28.135-41.361,10.61C174.06,608.76,202.215,613.685,215.421,598.15Z" transform="translate(-77.128 -212.385)" opacity="0.1"/>
    <path id="Pfad_714" data-name="Pfad 714" d="M247.412,621.68s-13.825-.153-15.422,3.761l-.16,4.133a2.662,2.662,0,0,0,2.569.1c1.424-.7,9.931-4.619,12.8-2.463Z" transform="translate(-96.446 -220.253)" opacity="0.1"/>
    <path id="Pfad_715" data-name="Pfad 715" d="M247.366,621.66s-13.212-.146-14.743,3.588l-.153,3.94a2.529,2.529,0,0,0,2.456.093c1.331-.666,9.5-4.4,12.24-2.35Z" transform="translate(-96.66 -220.246)" fill="#656691"/>
    <path id="Pfad_716" data-name="Pfad 716" d="M238.41,576.2a44.859,44.859,0,0,1-5.7,8.979A35.988,35.988,0,0,1,224,592.953S238.1,578.064,238.41,576.2Z" transform="translate(-93.828 -205.045)" opacity="0.1"/>
    <path id="Pfad_717" data-name="Pfad 717" d="M248.963,552.36s-2.662,9.858-8.753,13.006Z" transform="translate(-99.248 -197.073)" opacity="0.1"/>
    <path id="Pfad_718" data-name="Pfad 718" d="M254.527,554.069c.067-.18,1.744,7.947-8.127,12.027C246.4,566.1,250.573,564.851,254.527,554.069Z" transform="translate(-101.318 -197.643)" opacity="0.1"/>
    <path id="Pfad_719" data-name="Pfad 719" d="M165.253,540.562c.153,0-4.905,2.962-6.3,4.366C158.983,544.929,162.345,540.243,165.253,540.562Z" transform="translate(-72.075 -193.122)" opacity="0.1"/>
    <path id="Pfad_720" data-name="Pfad 720" d="M206.288,518.105a2.616,2.616,0,0,1-1.018,1.611,2.509,2.509,0,0,1-1.158.206c-3.721.093-7.595.106-10.969-1.458a4.14,4.14,0,0,1-1.631-1.171,6.714,6.714,0,0,1-.872-2.736,39.6,39.6,0,0,0-2.05-5.258,17.306,17.306,0,0,1-.845-9.318,6.236,6.236,0,0,1,1.032-2.662c1.038-1.365,2.855-1.864,4.2-2.935s2.25-2.749,3.807-3.534a7.027,7.027,0,0,1,4.606-.226,24.175,24.175,0,0,1,8.453,3.548,4.254,4.254,0,0,0,2.829,1.085,3.94,3.94,0,0,0,2.17-1.531,11.315,11.315,0,0,1,.706,5.325,2.3,2.3,0,0,0,0,.8,2.43,2.43,0,0,0,.533.872c.872,1.1,1.384,2.8.439,3.841-.413.453-1.032.666-1.431,1.151-.719.825-.539,2.063-.566,3.162a1.664,1.664,0,0,1-.306,1.072,1.591,1.591,0,0,1-1.518.3,4.14,4.14,0,0,0-1.6-.213,2.662,2.662,0,0,0-1.431,1.012C207.866,513.133,207.12,515.509,206.288,518.105Z" transform="translate(-81.607 -176.336)" fill="#2d293d"/>
    <g id="Gruppe_11" data-name="Gruppe 11" transform="translate(109.425 317.195)" opacity="0.1">
      <path id="Pfad_721" data-name="Pfad 721" d="M192.943,521.759a4.087,4.087,0,0,0,1.631,1.178c3.375,1.564,7.248,1.544,10.969,1.458a2.429,2.429,0,0,0,1.158-.213,2.583,2.583,0,0,0,1.018-1.6c.819-2.6,1.577-4.972,3.381-7.089a2.662,2.662,0,0,1,1.431-1.018,4.273,4.273,0,0,1,1.6.213,1.571,1.571,0,0,0,1.518-.3,1.638,1.638,0,0,0,.306-1.065c0-1.1-.153-2.336.566-3.168.4-.459,1.018-.666,1.431-1.145a2.41,2.41,0,0,0,.326-2.436,2.788,2.788,0,0,1,.047,3.268c-.413.453-1.025.666-1.431,1.151-.719.825-.533,2.063-.559,3.162a1.631,1.631,0,0,1-.313,1.072,1.584,1.584,0,0,1-1.518.3,4.106,4.106,0,0,0-1.591-.213,2.662,2.662,0,0,0-1.438,1.018c-1.8,2.11-2.556,4.486-3.381,7.082a1.924,1.924,0,0,1-2.17,1.824c-3.721.087-7.595.1-10.976-1.464a4.167,4.167,0,0,1-1.631-1.172,3.2,3.2,0,0,1-.486-1.005A1.234,1.234,0,0,0,192.943,521.759Z" transform="translate(-192.83 -498.955)"/>
      <path id="Pfad_722" data-name="Pfad 722" d="M229.245,501.1a1.644,1.644,0,0,1-.346-.666,2.3,2.3,0,0,1,0-.8,11.349,11.349,0,0,0-.4-4.433l.067-.073a11.229,11.229,0,0,1,.712,5.325A3.611,3.611,0,0,0,229.245,501.1Z" transform="translate(-204.758 -495.13)"/>
    </g>
    <path id="Pfad_723" data-name="Pfad 723" d="M210.254,542.812s-15.309,1.431-16.574-.912" transform="translate(-83.689 -193.575)" opacity="0.1"/>
    <path id="Pfad_724" data-name="Pfad 724" d="M169.267,532.1s-8.46-.313-10.437,2.782" transform="translate(-72.035 -190.294)" opacity="0.1"/>
  </g>
</svg>
