<svg xmlns="http://www.w3.org/2000/svg" width="1088" height="687.962" viewBox="0 0 1088 687.962">
  <g id="projects" transform="translate(0 0)">
    <path id="Pfad_129" data-name="Pfad 129" d="M1017.81,560.461c-5.27,45.15-16.22,81.4-31.25,110.31-20,38.52-54.21,54.04-84.77,70.28a193.275,193.275,0,0,1-27.46,11.94c-55.61,19.3-117.85,14.18-166.74,3.99a657.282,657.282,0,0,0-104.09-13.16q-14.97-.675-29.97-.67c-15.42.02-293.07,5.29-360.67-131.57-16.69-33.76-28.13-75-32.24-125.27-11.63-142.12,52.29-235.46,134.74-296.47,155.97-115.41,369.76-110.57,523.43,7.88C941.15,276.621,1036.99,396.031,1017.81,560.461Z" transform="translate(-56 -106.019)" fill="#13213c"/>
    <path id="Pfad_130" data-name="Pfad 130" d="M986.56,670.771c-20,38.52-47.21,64.04-77.77,80.28a193.272,193.272,0,0,1-27.46,11.94c-55.61,19.3-117.85,14.18-166.74,3.99a657.3,657.3,0,0,0-104.09-13.16q-14.97-.675-29.97-.67-23.13.03-46.25,1.72c-100.17,7.36-253.82-6.43-321.42-143.29L382,283.981,444.95,445.6l20.09,51.59,55.37-75.98L549,381.981l130.2,149.27,36.8-81.27L970.78,657.9l14.21,11.59Z" transform="translate(-56 -106.019)" fill="#e5e5e5"/>
    <path id="Pfad_131" data-name="Pfad 131" d="M302,282.962l26-57,36,83-31-60Z" opacity="0.1"/>
    <path id="Pfad_132" data-name="Pfad 132" d="M610.5,753.821q-14.97-.675-29.97-.67L465.04,497.191Z" transform="translate(-56 -106.019)" opacity="0.1"/>
    <path id="Pfad_133" data-name="Pfad 133" d="M464.411,315.191,493,292.962l130,150-132-128Z" opacity="0.1"/>
    <path id="Pfad_134" data-name="Pfad 134" d="M908.79,751.051a193.265,193.265,0,0,1-27.46,11.94L679.2,531.251Z" transform="translate(-56 -106.019)" opacity="0.1"/>
    <circle id="Ellipse_44" data-name="Ellipse 44" cx="3" cy="3" r="3" transform="translate(479 98.962)" fill="#f2f2f2"/>
    <circle id="Ellipse_45" data-name="Ellipse 45" cx="3" cy="3" r="3" transform="translate(396 201.962)" fill="#f2f2f2"/>
    <circle id="Ellipse_46" data-name="Ellipse 46" cx="2" cy="2" r="2" transform="translate(600 220.962)" fill="#f2f2f2"/>
    <circle id="Ellipse_47" data-name="Ellipse 47" cx="2" cy="2" r="2" transform="translate(180 265.962)" fill="#f2f2f2"/>
    <circle id="Ellipse_48" data-name="Ellipse 48" cx="2" cy="2" r="2" transform="translate(612 96.962)" fill="#f2f2f2"/>
    <circle id="Ellipse_49" data-name="Ellipse 49" cx="2" cy="2" r="2" transform="translate(736 192.962)" fill="#f2f2f2"/>
    <circle id="Ellipse_50" data-name="Ellipse 50" cx="2" cy="2" r="2" transform="translate(858 344.962)" fill="#f2f2f2"/>
    <path id="Pfad_135" data-name="Pfad 135" d="M306,121.222h-2.76v-2.76h-1.48v2.76H299V122.7h2.76v2.759h1.48V122.7H306Z" fill="#f2f2f2"/>
    <path id="Pfad_136" data-name="Pfad 136" d="M848,424.222h-2.76v-2.76h-1.48v2.76H841V425.7h2.76v2.759h1.48V425.7H848Z" fill="#f2f2f2"/>
    <path id="Pfad_137" data-name="Pfad 137" d="M1144,719.981c0,16.569-243.557,74-544,74s-544-57.431-544-74,243.557,14,544,14S1144,703.413,1144,719.981Z" transform="translate(-56 -106.019)" fill="#3f3d56"/>
    <path id="Pfad_138" data-name="Pfad 138" d="M1144,719.981c0,16.569-243.557,74-544,74s-544-57.431-544-74,243.557,14,544,14S1144,703.413,1144,719.981Z" transform="translate(-56 -106.019)" fill="#13213c" opacity="0.1"/>
    <ellipse id="Ellipse_51" data-name="Ellipse 51" cx="544" cy="30" rx="544" ry="30" transform="translate(0 583.962)" fill="#13213c"/>
    <path id="Pfad_139" data-name="Pfad 139" d="M624,677.981c0,33.137-14.775,24-33,24s-33,9.137-33-24,33-96,33-96S624,644.844,624,677.981Z" transform="translate(-56 -106.019)" fill="#ff6584"/>
    <path id="Pfad_140" data-name="Pfad 140" d="M606,690.66c0,15.062-6.716,10.909-15,10.909s-15,4.153-15-10.909,15-43.636,15-43.636S606,675.6,606,690.66Z" transform="translate(-56 -106.019)" opacity="0.1"/>
    <rect id="Rechteck_30" data-name="Rechteck 30" width="92" height="18" rx="9" transform="translate(489 604.962)" fill="#2f2e41"/>
    <rect id="Rechteck_31" data-name="Rechteck 31" width="92" height="18" rx="9" transform="translate(489 586.962)" fill="#2f2e41"/>
    <path id="Pfad_141" data-name="Pfad 141" d="M193,596.547c0,55.343,34.719,100.126,77.626,100.126" transform="translate(-56 -106.019)" fill="#13213c"/>
    <path id="Pfad_142" data-name="Pfad 142" d="M270.626,696.673c0-55.965,38.745-101.251,86.626-101.251" transform="translate(-56 -106.019)" fill="#fca310"/>
    <path id="Pfad_143" data-name="Pfad 143" d="M221.125,601.564c0,52.57,22.14,95.109,49.5,95.109" transform="translate(-56 -106.019)" fill="#fca310"/>
    <path id="Pfad_144" data-name="Pfad 144" d="M270.626,696.673c0-71.511,44.783-129.377,100.126-129.377" transform="translate(-56 -106.019)" fill="#13213c"/>
    <path id="Pfad_145" data-name="Pfad 145" d="M254.3,697.379s11.009-.339,14.326-2.7,16.934-5.183,17.757-1.395,16.544,18.844,4.115,18.945-28.879-1.936-32.19-3.953S254.3,697.379,254.3,697.379Z" transform="translate(-56 -106.019)" fill="#a8a8a8"/>
    <path id="Pfad_146" data-name="Pfad 146" d="M290.716,710.909c-12.429.1-28.879-1.936-32.19-3.953-2.522-1.536-3.527-7.048-3.863-9.591l-.368.014s.7,8.879,4.009,10.9,19.761,4.053,32.19,3.953c3.588-.029,4.827-1.305,4.759-3.2C294.755,710.174,293.386,710.887,290.716,710.909Z" transform="translate(-56 -106.019)" opacity="0.2"/>
    <path id="Pfad_147" data-name="Pfad 147" d="M777.429,633.081c0,38.029,23.857,68.8,53.341,68.8" transform="translate(-56 -106.019)" fill="#13213c"/>
    <path id="Pfad_148" data-name="Pfad 148" d="M830.769,701.882c0-38.456,26.623-69.575,59.525-69.575" transform="translate(-56 -106.019)" fill="#fca310"/>
    <path id="Pfad_149" data-name="Pfad 149" d="M796.755,636.528c0,36.124,15.213,65.354,34.014,65.354" transform="translate(-56 -106.019)" fill="#fca310"/>
    <path id="Pfad_150" data-name="Pfad 150" d="M830.769,701.882c0-49.139,30.773-88.9,68.8-88.9" transform="translate(-56 -106.019)" fill="#13213c"/>
    <path id="Pfad_151" data-name="Pfad 151" d="M819.548,702.367s7.565-.233,9.844-1.856,11.636-3.562,12.2-.958,11.368,12.949,2.828,13.018-19.844-1.33-22.119-2.716S819.548,702.367,819.548,702.367Z" transform="translate(-56 -106.019)" fill="#e5e5e5"/>
    <path id="Pfad_152" data-name="Pfad 152" d="M844.574,711.664c-8.54.069-19.844-1.33-22.119-2.716-1.733-1.056-2.423-4.843-2.654-6.59l-.253.01s.479,6.1,2.755,7.487,13.579,2.785,22.119,2.716c2.465-.02,3.317-.9,3.27-2.2C847.349,711.159,846.409,711.649,844.574,711.664Z" transform="translate(-56 -106.019)" opacity="0.2"/>
    <path id="Pfad_153" data-name="Pfad 153" d="M949.813,724.718s11.36-1.729,14.5-4.591,16.89-7.488,18.217-3.667,19.494,17.447,6.633,19.107-30.153,1.609-33.835-.065S949.813,724.718,949.813,724.718Z" transform="translate(-56 -106.019)" fill="#e5e5e5"/>
    <path id="Pfad_154" data-name="Pfad 154" d="M989.228,734.173c-12.86,1.659-30.153,1.609-33.835-.065-2.8-1.275-4.535-6.858-5.2-9.45l-.379.061s1.833,9.109,5.516,10.783,20.975,1.725,33.835.065c3.712-.479,4.836-1.956,4.529-3.906C993.319,732.907,991.991,733.817,989.228,734.173Z" transform="translate(-56 -106.019)" opacity="0.2"/>
    <path id="Pfad_155" data-name="Pfad 155" d="M670.26,723.9s9.587-1.459,12.237-3.875,14.255-6.32,15.374-3.095,16.452,14.725,5.6,16.125-25.448,1.358-28.555-.055S670.26,723.9,670.26,723.9Z" transform="translate(-56 -106.019)" fill="#e5e5e5"/>
    <path id="Pfad_156" data-name="Pfad 156" d="M703.524,731.875c-10.853,1.4-25.448,1.358-28.555-.055-2.367-1.076-3.827-5.788-4.39-7.976l-.32.051s1.547,7.687,4.655,9.1,17.7,1.456,28.555.055c3.133-.4,4.081-1.651,3.822-3.3C706.977,730.807,705.856,731.575,703.524,731.875Z" transform="translate(-56 -106.019)" opacity="0.2"/>
    <path id="Pfad_157" data-name="Pfad 157" d="M178.389,719.109s7.463-1.136,9.527-3.016,11.1-4.92,11.969-2.409,12.808,11.463,4.358,12.553-19.811,1.057-22.23-.043S178.389,719.109,178.389,719.109Z" transform="translate(-56 -106.019)" fill="#e5e5e5"/>
    <path id="Pfad_158" data-name="Pfad 158" d="M204.285,725.321c-8.449,1.09-19.811,1.057-22.23-.043-1.842-.838-2.979-4.506-3.417-6.209l-.249.04s1.2,5.984,3.624,7.085,13.781,1.133,22.23.043c2.439-.315,3.177-1.285,2.976-2.566C206.973,724.489,206.1,725.087,204.285,725.321Z" transform="translate(-56 -106.019)" opacity="0.2"/>
    <path id="Pfad_159" data-name="Pfad 159" d="M439.7,707.337c0,30.22-42.124,20.873-93.7,20.873s-93.074,9.347-93.074-20.873,42.118-36.793,93.694-36.793S439.7,677.117,439.7,707.337Z" transform="translate(-56 -106.019)" opacity="0.1"/>
    <path id="Pfad_160" data-name="Pfad 160" d="M439.7,699.9c0,30.22-42.124,20.873-93.7,20.873s-93.074,9.347-93.074-20.873S295.04,663.1,346.616,663.1,439.7,669.676,439.7,699.9Z" transform="translate(-56 -106.019)" fill="#13213c"/>
    <path id="Pfad_161" data-name="Pfad 161" d="M447.726,561.44a45.272,45.272,0,0,0-7.057,4.472,15.174,15.174,0,0,0-4.907,6.644,61.293,61.293,0,0,1-3.038-8.981,147.829,147.829,0,0,0-6.208-16.165,21.483,21.483,0,0,0,9.758-7.482c4.8,4.778,9.734,9.762,12.122,16.1.411,1.092,1.609,2.256,1.886,3.234C450.675,560.643,448.775,560.863,447.726,561.44Z" transform="translate(-56 -106.019)" fill="#ffbfc5"/>
    <path id="Pfad_162" data-name="Pfad 162" d="M492.892,677.926a44.368,44.368,0,0,1,14.418,7.715,1.505,1.505,0,0,1,.655.887c.109.83-1,1.169-1.8,1.4-2.367.681-3.879,2.9-5.622,4.645s-4.543,3.105-6.577,1.716a6.364,6.364,0,0,1-1.381-1.455l-8.59-11.212a52.068,52.068,0,0,1,9.145-4.014" transform="translate(-56 -106.019)" fill="#f1f1f1"/>
    <path id="Pfad_163" data-name="Pfad 163" d="M508.333,680.259c1.137,1.16,1.631,2.829,2.747,4.01a10.027,10.027,0,0,0,2.542,1.764l6.572,3.617a19,19,0,0,0,3.176,1.5,29.111,29.111,0,0,0,3.771.787,27.327,27.327,0,0,1,5.318,1.569c1.289.528,2.725,1.438,2.719,2.831a3.076,3.076,0,0,1-.788,1.829c-2.591,3.264-7.178,3.987-11.322,4.426-8.971.949-18.152,1.66-26.923-.455a11.485,11.485,0,0,1-4.732-2.048c-2.646-2.193-3.173-6.187-2.185-9.479a5.126,5.126,0,0,1,2.09-3.108c1.389-.8,3.12-.426,4.716-.55A14.846,14.846,0,0,0,500.9,685.4c1-.452,2.157-1.035,2.372-2.228.2-1.107-1.1-2.215-.827-3.2C503.048,677.782,507.285,679.19,508.333,680.259Z" transform="translate(-56 -106.019)" fill="#575a89"/>
    <path id="Pfad_164" data-name="Pfad 164" d="M508.333,680.259c1.137,1.16,1.631,2.829,2.747,4.01a10.027,10.027,0,0,0,2.542,1.764l6.572,3.617a19,19,0,0,0,3.176,1.5,29.111,29.111,0,0,0,3.771.787,27.327,27.327,0,0,1,5.318,1.569c1.289.528,2.725,1.438,2.719,2.831a3.076,3.076,0,0,1-.788,1.829c-2.591,3.264-7.178,3.987-11.322,4.426-8.971.949-18.152,1.66-26.923-.455a11.485,11.485,0,0,1-4.732-2.048c-2.646-2.193-3.173-6.187-2.185-9.479a5.126,5.126,0,0,1,2.09-3.108c1.389-.8,3.12-.426,4.716-.55A14.846,14.846,0,0,0,500.9,685.4c1-.452,2.157-1.035,2.372-2.228.2-1.107-1.1-2.215-.827-3.2C503.048,677.782,507.285,679.19,508.333,680.259Z" transform="translate(-56 -106.019)" opacity="0.1"/>
    <path id="Pfad_165" data-name="Pfad 165" d="M523.581,716.157q1.381.909,2.76,1.822a4.942,4.942,0,0,1,2.006,1.979c.6,1.407-.211,3-1.111,4.234a24.353,24.353,0,0,1-10.64,8.246,15.95,15.95,0,0,1-4.621,1.152,1.967,1.967,0,0,1-1.074-.135c-.841-.444-.721-1.648-.731-2.6-.029-2.761-2.115-5-3.989-7.032s-3.785-4.526-3.356-7.254a9.016,9.016,0,0,1,2.379-4.244,17.643,17.643,0,0,1,3.618-3.413c1.95-1.276,2.637-.589,4.472.58Q518.462,712.787,523.581,716.157Z" transform="translate(-56 -106.019)" fill="#f1f1f1"/>
    <path id="Pfad_166" data-name="Pfad 166" d="M514.609,729.609a4.93,4.93,0,0,0,4.349-.981,11.07,11.07,0,0,0,2.824-3.63,30.472,30.472,0,0,0,1.748-3.849c.577-1.548,1.113-3.26,2.472-4.2,1.648-1.138,3.971-.693,5.647.406a29.62,29.62,0,0,1,4.33,4.147,29.264,29.264,0,0,0,12.3,6.841,133.7,133.7,0,0,0,13.891,2.969,7.907,7.907,0,0,1,2.673.861c1.881,1.147,2.508,3.709,1.985,5.849a13.025,13.025,0,0,1-3.461,5.544,13.855,13.855,0,0,1-4.6,3.562,14.614,14.614,0,0,1-4.661.882,79.205,79.205,0,0,1-22.979-1.8,63.035,63.035,0,0,0-8.424-1.682c-1.733-.153-3.479-.1-5.214-.222a27.3,27.3,0,0,1-9.944-2.623,3.52,3.52,0,0,1-1.813-1.5,3.745,3.745,0,0,1-.134-1.992l1.151-10.081c.1-.878.392-1.968,1.265-2.1.83-.13,1.434.72,1.956,1.378a7.121,7.121,0,0,0,8.53,1.865" transform="translate(-56 -106.019)" fill="#575a89"/>
    <path id="Pfad_167" data-name="Pfad 167" d="M447.866,602.5c5.058-.57,10.924-.665,14.344,3.1,2.1,2.312,2.734,5.55,3.46,8.586a55.817,55.817,0,0,0,5.48,14.6c1.609,2.84,3.559,5.506,4.793,8.528,1.265,3.1,1.73,6.449,2.47,9.712A58.646,58.646,0,0,0,498.949,679.7c-1.824,4.963-7.1,7.8-12.235,9.065a5.263,5.263,0,0,1-6.286-1.713,84.5,84.5,0,0,1-6.7-8.2c-7.4-9.88-14.911-19.969-18.941-31.637-1.414-4.094-2.829-8.873-6.808-10.584-2.269-.976-4.864-.671-7.3-.258a99.291,99.291,0,0,0-16.013,4.111c-5.559,1.934-11.924,4.314-17.012,1.355-3.045-1.771-4.857-5.171-5.525-8.629a37.244,37.244,0,0,1-.014-10.528,10.833,10.833,0,0,1,1.111-4.552,9.847,9.847,0,0,1,2.659-2.691,54.934,54.934,0,0,1,14.979-8.069c5.141-1.812,10.667-2.427,16.03-3.322Q442.359,603.125,447.866,602.5Z" transform="translate(-56 -106.019)" fill="#575a89"/>
    <path id="Pfad_168" data-name="Pfad 168" d="M447.866,602.5c5.058-.57,10.924-.665,14.344,3.1,2.1,2.312,2.734,5.55,3.46,8.586a55.817,55.817,0,0,0,5.48,14.6c1.609,2.84,3.559,5.506,4.793,8.528,1.265,3.1,1.73,6.449,2.47,9.712A58.646,58.646,0,0,0,498.949,679.7c-1.824,4.963-7.1,7.8-12.235,9.065a5.263,5.263,0,0,1-6.286-1.713,84.5,84.5,0,0,1-6.7-8.2c-7.4-9.88-14.911-19.969-18.941-31.637-1.414-4.094-2.829-8.873-6.808-10.584-2.269-.976-4.864-.671-7.3-.258a99.291,99.291,0,0,0-16.013,4.111c-5.559,1.934-11.924,4.314-17.012,1.355-3.045-1.771-4.857-5.171-5.525-8.629a37.244,37.244,0,0,1-.014-10.528,10.833,10.833,0,0,1,1.111-4.552,9.847,9.847,0,0,1,2.659-2.691,54.934,54.934,0,0,1,14.979-8.069c5.141-1.812,10.667-2.427,16.03-3.322Q442.359,603.125,447.866,602.5Z" transform="translate(-56 -106.019)" opacity="0.1"/>
    <path id="Pfad_169" data-name="Pfad 169" d="M476.82,638.977a26.182,26.182,0,0,1,6.391,4.54,23.1,23.1,0,0,1,4.363,7.827,9.482,9.482,0,0,1,.755,3.017,3.447,3.447,0,0,1-1.119,2.8,4.994,4.994,0,0,1-3.156.771q-2.2.017-4.4-.115a7.408,7.408,0,0,1-2.6-.493,7.277,7.277,0,0,1-2.029-1.536,28.458,28.458,0,0,1-6.227-8.409c-1.062-2.341-2.81-7.737-1.138-10.173C469.379,634.694,475,637.944,476.82,638.977Z" transform="translate(-56 -106.019)" fill="#ffbfc5"/>
    <path id="Pfad_170" data-name="Pfad 170" d="M405.907,638.142c7.48,2.4,15.443,2.67,23.263,3.4a194.28,194.28,0,0,1,38.783,7.666,20.628,20.628,0,0,1,7.312,3.4,21.751,21.751,0,0,1,4.242,5.4,91.641,91.641,0,0,1,5.573,9.745c1.421,3.036,2.5,6.218,3.825,9.3a65.368,65.368,0,0,0,20.39,26.117c1.631,1.241,3.448,2.591,3.867,4.6a6.408,6.408,0,0,1-.6,3.778c-1.928,4.491-5.932,7.758-10.132,10.259-1.806,1.076-3.793,2.167-4.681,4.072-6.384-2.636-11.129-8.255-15.08-13.92S475.211,700.2,470.149,695.5c-2.23-2.07-4.764-3.872-6.518-6.358-2.677-3.795-3.4-8.986-7.005-11.915-3.63-2.95-8.837-2.548-13.492-2.092a331.087,331.087,0,0,1-71.653-.775c-4.945-.593-10.026-1.348-14.309-3.889s-7.619-7.308-7.012-12.251c.568-4.627,4.422-8.3,8.718-10.107s9.044-2.136,13.677-2.658a144.216,144.216,0,0,0,33.354-7.316Z" transform="translate(-56 -106.019)" fill="#575a89"/>
    <path id="Pfad_171" data-name="Pfad 171" d="M337.511,647.749c.587-3.923,2.111-7.639,3.067-11.489a70.374,70.374,0,0,1,1.817-7.177c.024-.066.052-.131.076-.2a1.667,1.667,0,0,0,1.225-.7,2.058,2.058,0,0,0,.1-1.078,7.283,7.283,0,0,1,.034-1.151,82.121,82.121,0,0,1,5.121-7.591c3.239-4.589,6.045-9.466,8.845-14.336,2.3-3.992,4.6-7.991,6.5-12.185,1.425-3.145,2.624-6.4,4.2-9.468,5.608-10.937,15.688-18.992,26.531-24.781,10.4-5.553,21.643-9.3,32.578-13.711a6.518,6.518,0,0,1,.763.9c5.908,8.075,6.545,18.689,8.976,28.395.982,3.919,2.294,7.824,2.291,11.864,0,5.963-2.854,11.511-5.686,16.759a91.3,91.3,0,0,1-8.93,14.252c-1.673,2.071-3.516,4-5.2,6.063-6.893,8.452-10.873,18.844-14.742,29.041-2.24,5.9-5.9,11.14-8.364,16.955-.946,2.234-1.493,4.644-2.681,6.759s-3.257,3.977-5.684,3.988a8.32,8.32,0,0,1-2.1-.329c-8.784-2.26-16.141-8.071-23.441-13.455-1.3-.961-2.613-1.913-3.981-2.78s-2.815-1.661-4.248-2.447l-3.258-1.785c-3.559-1.95-7.124-3.9-10.832-5.553a19.505,19.505,0,0,1-3.2-1.643,19.55,19.55,0,0,1,.217-3.118Z" transform="translate(-56 -106.019)" fill="#fca310"/>
    <circle id="Ellipse_52" data-name="Ellipse 52" cx="20.24" cy="20.24" r="20.24" transform="translate(376.12 414.272)" fill="#ffbfc5"/>
    <path id="Pfad_172" data-name="Pfad 172" d="M465.974,531.06a4.8,4.8,0,0,0,4.984,2.343,6.985,6.985,0,0,0,4.652-3.318,13.2,13.2,0,0,0,1.724-5.583,5.847,5.847,0,0,0-.844-4.413,9.876,9.876,0,0,0-2.567-1.8,9.84,9.84,0,0,1-3.2-3.237c-.567-.935-.973-1.958-1.482-2.926-1.841-3.5-5.422-6.34-9.372-6.211-1.9.062-3.705.783-5.575,1.111-6.275,1.1-13.1-2.22-18.916.37a17.627,17.627,0,0,0-3.958,2.639q-2.458,2.027-4.725,4.272a9.78,9.78,0,0,0-2.88,4.192c-.791,2.969,1.09,6.287-.107,9.118a13.74,13.74,0,0,1-1.459,2.292c-1.321,1.937.114,9.5-.032,11.837a4.389,4.389,0,0,0,.81,3.243c.955,1.064,2.561,1.157,3.99,1.174l2.628.032a3.432,3.432,0,0,0,1.166-.12,3.544,3.544,0,0,0,1.322-1.02c2.185-2.3,2.659-9.833,5.833-9.805a2.326,2.326,0,0,1,1.369.355c.575.422.745,1.2,1.152,1.782a3.358,3.358,0,0,0,3.9.91,8.737,8.737,0,0,0,3.32-2.682,13.091,13.091,0,0,1,3.1-2.965c1.691-.987,3.6-1.416,5.249-2.531,1.376-.932,2.159-2.284,3.394-3.313a2.955,2.955,0,0,1,3.6-.2C465,527.624,465.086,529.29,465.974,531.06Z" transform="translate(-56 -106.019)" fill="#2f2e41"/>
    <path id="Pfad_173" data-name="Pfad 173" d="M419.21,566.72a32.237,32.237,0,0,1,14.1,1.133,7.466,7.466,0,0,1,3.93,2.332,7.134,7.134,0,0,1,1.12,2.944,23.793,23.793,0,0,1-1.707,14.336,1.884,1.884,0,0,0-.236,1.533,2.691,2.691,0,0,0,.788.78,2.786,2.786,0,0,1-.169,4.167c-.377.275-.873.515-.947.977-.08.5.392.9.76,1.25a4.493,4.493,0,0,1,1.255,4.13,9.046,9.046,0,0,0-.406,1.83,5.864,5.864,0,0,0,.66,2.176,9.515,9.515,0,0,1,.61,4.81,5.27,5.27,0,0,0-.056,2.353,5.338,5.338,0,0,0,.894,1.413c1.455,1.962,1.774,5.244-.336,6.475a4.875,4.875,0,0,1,2.6,5.03c1.26-.673,2.788.187,3.837,1.156s2.122,2.154,3.549,2.225c.995.05,2.043-.466,2.95-.057,1.38.623,1.333,2.861,2.69,3.532,1.191.588,2.849-.372,3.863.485.353.3.533.76.874,1.072.77.705,1.973.405,3.016.364a7.1,7.1,0,0,1,6.022,3.677,18.024,18.024,0,0,1,2.065,7.052,9.474,9.474,0,0,1-.078,4.053,3.481,3.481,0,0,1-2.855,2.573c-12.421.8-24.678-2.174-36.772-5.119-3.552-.865-7.165-1.877-10.128-4.02-2.692-1.947-4.671-4.7-6.6-7.4-3.559-4.984-7.141-10.007-9.689-15.577-3.278-7.169-4.74-15.011-6.174-22.762a21.13,21.13,0,0,1-.52-6.35,17.905,17.905,0,0,1,2.8-6.962,74.352,74.352,0,0,1,5.659-7.978A20.694,20.694,0,0,1,419.21,566.72Z" transform="translate(-56 -106.019)" opacity="0.1"/>
    <path id="Pfad_174" data-name="Pfad 174" d="M420.029,565.9a32.236,32.236,0,0,1,14.1,1.133,7.465,7.465,0,0,1,3.93,2.332,7.134,7.134,0,0,1,1.12,2.944,23.794,23.794,0,0,1-1.707,14.336,1.884,1.884,0,0,0-.236,1.533,2.692,2.692,0,0,0,.788.78,2.786,2.786,0,0,1-.169,4.167c-.377.276-.873.515-.947.977-.08.5.392.9.76,1.25a4.493,4.493,0,0,1,1.255,4.13,9.05,9.05,0,0,0-.406,1.83,5.865,5.865,0,0,0,.66,2.176,9.515,9.515,0,0,1,.61,4.81,5.27,5.27,0,0,0-.056,2.353,5.335,5.335,0,0,0,.894,1.413c1.455,1.962,1.774,5.244-.336,6.475a4.875,4.875,0,0,1,2.6,5.03c1.26-.673,2.788.187,3.837,1.156s2.122,2.154,3.549,2.225c.995.05,2.043-.466,2.95-.057,1.38.623,1.333,2.861,2.69,3.532,1.191.588,2.849-.372,3.863.485.353.3.533.76.874,1.072.77.705,1.973.405,3.016.364a7.1,7.1,0,0,1,6.022,3.677,18.024,18.024,0,0,1,2.065,7.052,9.474,9.474,0,0,1-.078,4.053,3.481,3.481,0,0,1-2.855,2.573c-12.421.8-24.678-2.174-36.772-5.119-3.552-.865-7.165-1.877-10.128-4.02-2.692-1.947-4.671-4.7-6.6-7.4-3.559-4.984-7.141-10.007-9.689-15.577-3.278-7.169-4.74-15.011-6.174-22.762a21.13,21.13,0,0,1-.52-6.35,17.906,17.906,0,0,1,2.8-6.962,74.334,74.334,0,0,1,5.659-7.978A20.7,20.7,0,0,1,420.029,565.9Z" transform="translate(-56 -106.019)" fill="#fca310"/>
  </g>
</svg>
