<svg xmlns="http://www.w3.org/2000/svg" xmlns:xlink="http://www.w3.org/1999/xlink" width="1023.672" height="706.668" viewBox="0 0 1023.672 706.668">
  <defs>
    <linearGradient id="linear-gradient" y1="0.5" x2="1" y2="0.5" gradientUnits="objectBoundingBox">
      <stop offset="0" stop-color="gray" stop-opacity="0.251"/>
      <stop offset="0.54" stop-color="gray" stop-opacity="0.122"/>
      <stop offset="1" stop-color="gray" stop-opacity="0.102"/>
    </linearGradient>
  </defs>
  <g id="register" transform="translate(0 0.006)">
    <path id="Pfad_473" data-name="Pfad 473" d="M595.926,143.675c-65.616.088-128.774-18.513-189.184-39.176S286.387,60.7,221.991,50.891c-41.415-6.3-88.509-5.723-120.882,17.161-31.162,22.015-40.186,58.453-44.54,92.117-3.274,25.325-4.784,51.9,7.479,75.07C72.563,251.32,87.134,264.575,97.4,279.9c35.849,53.318,14.291,121.426-20.549,175.982-16.336,25.6-35.472,50.131-47.823,77.194s-17.416,57.751-4.819,84.462c12.482,26.474,40.677,45.69,70.935,58.813,61.446,26.7,132.987,32.426,202.606,34.629,154.107,4.889,308.512-5.082,462.505-15.054,56.987-3.687,114.228-7.4,170.039-18.083,30.986-5.925,62.895-14.721,84.866-34,27.888-24.473,33.594-64.431,13.3-93.152-34.032-48.174-123.77-57.259-148.173-109.383-13.457-28.7-1.852-61.6,15.239-89.264C932.186,292.7,995.282,239.54,996.345,173.161c.729-45.584-32.084-90.054-81.091-109.866-51.369-20.751-121.409-15.414-157.4,23.262C720.846,126.4,653.861,143.614,595.926,143.675Z" transform="translate(-16.91 -47.46)" fill="#fca310" opacity="0.1"/>
    <path id="Pfad_474" data-name="Pfad 474" d="M1006.45,692.281s-10.788-7.119-21.48-2.054c0,0,3.292,6.338,16.828,5.741Z" transform="translate(-135.204 -125.783)" fill="#6c63ff"/>
    <path id="Pfad_475" data-name="Pfad 475" d="M1010,693.25s3.283,12.5-4.951,21.006c0,0-4.951-5.153,0-17.776Z" transform="translate(-137.39 -126.375)" fill="#6c63ff"/>
    <path id="Pfad_476" data-name="Pfad 476" d="M1022.827,678.491s-.8-10.63-24.807-7.1c0,0-.114,6.856,8.313,10.1S1018.622,682,1022.827,678.491Z" transform="translate(-136.799 -123.616)" fill="#6c63ff"/>
    <path id="Pfad_477" data-name="Pfad 477" d="M1027.02,679.5s10.147,3.257,1.1,25.772c0,0-6.7-1.492-7.9-10.455S1022.578,682.765,1027.02,679.5Z" transform="translate(-139.483 -124.694)" fill="#6c63ff"/>
    <path id="Pfad_478" data-name="Pfad 478" d="M1040.211,660.116s1.378-17.495-23.157-15.7c0,0-1.755,15.8,18.829,19.909Z" transform="translate(-139.121 -120.391)" fill="#6c63ff"/>
    <path id="Pfad_479" data-name="Pfad 479" d="M1058.028,637.729s-3.362-19.83-27.888-13.922c0,0-.088,17.143,23.885,18.644Z" transform="translate(-140.724 -117.755)" fill="#6c63ff"/>
    <path id="Pfad_480" data-name="Pfad 480" d="M1071.243,614.526s-5.636-19.312-29.933-13.536c0,0,5.785,17.372,28.318,17.1Z" transform="translate(-142.089 -114.969)" fill="#fca310"/>
    <path id="Pfad_481" data-name="Pfad 481" d="M1084.2,591.729s-5.5-20.04-28.968-14.045c0,0,7.83,19.04,27.414,17.433Z" transform="translate(-143.79 -112.116)" fill="#fca310"/>
    <path id="Pfad_482" data-name="Pfad 482" d="M1092.856,569.494s-4.231-24.508-26.106-19.083c0,0,6.355,22.3,24.5,22.656Z" transform="translate(-145.198 -108.824)" fill="#fca310"/>
    <path id="Pfad_483" data-name="Pfad 483" d="M1100.452,543.565s-5.082-24.7-27.212-17.556c0,0,8.673,23.349,25.641,20.936Z" transform="translate(-145.991 -105.78)" fill="#fca310"/>
    <path id="Pfad_484" data-name="Pfad 484" d="M1105.5,518.581s-8.067-24.71-25.175-24.043c0,0,8.243,26.1,23.745,28.967Z" transform="translate(-146.856 -102.091)" fill="#fca310"/>
    <path id="Pfad_485" data-name="Pfad 485" d="M1108.92,494.411s-8.778-29.74-22.7-27.449c0,0,6.074,22.735,22.208,32.084Z" transform="translate(-147.577 -98.708)" fill="#fca310"/>
    <path id="Pfad_486" data-name="Pfad 486" d="M1110.765,466.412s-8.234-24.78-21.945-25.772c0,0,5.6,24.385,21.673,32.215Z" transform="translate(-147.895 -95.506)" fill="#fca310"/>
    <path id="Pfad_487" data-name="Pfad 487" d="M1113.021,440.108S1102.76,415.3,1093.71,414.74c0,0,4.459,24.429,18.434,29.441Z" transform="translate(-148.492 -92.341)" fill="#fca310"/>
    <path id="Pfad_488" data-name="Pfad 488" d="M1114.859,415.058s-6.311-26.94-15.379-29.178c0,0,1.238,22.042,14.466,31.2Z" transform="translate(-149.197 -88.815)" fill="#fca310"/>
    <path id="Pfad_489" data-name="Pfad 489" d="M1118.953,383.554s-6.636-21.48-13.983-24.754c0,0,1.448,25.325,12.289,30Z" transform="translate(-149.868 -85.506)" fill="#fca310"/>
    <path id="Pfad_490" data-name="Pfad 490" d="M1123.361,360.728l1.334-37.868s-13.738,28.546-2.326,44.513Z" transform="translate(-151.441 -81.114)" fill="#fca310"/>
    <path id="Pfad_491" data-name="Pfad 491" d="M1135.466,319.026s9.893-27.651,12.289-29.2c0,0-19.4,17.942-17.5,41.02Z" transform="translate(-152.942 -77.078)" fill="#fca310"/>
    <path id="Pfad_492" data-name="Pfad 492" d="M1043.646,662.162s17.4-2.274,16.88,22.314c0,0-15.721,2.563-20.857-17.776Z" transform="translate(-141.889 -122.569)" fill="#6c63ff"/>
    <path id="Pfad_493" data-name="Pfad 493" d="M1062.292,639.06s20.1-.061,18.434,25.105c0,0-16.88,3.02-22.445-20.348Z" transform="translate(-144.163 -119.753)" fill="#fca310"/>
    <path id="Pfad_494" data-name="Pfad 494" d="M1075.405,618.183s18.25-8.559,29.924,13.536c0,0-16.854,7.128-31.54-9.963Z" transform="translate(-146.058 -117.002)" fill="#fca310"/>
    <path id="Pfad_495" data-name="Pfad 495" d="M1088.475,593.785s18.688-9.1,29.661,12.474c0,0-19.47,6.706-31.206-9.059Z" transform="translate(-147.664 -113.987)" fill="#fca310"/>
    <path id="Pfad_496" data-name="Pfad 496" d="M1096.1,571.815s17.986-17.179,32.338.193c0,0-18.373,14.141-33.164,3.634Z" transform="translate(-148.684 -110.61)" fill="#fca310"/>
    <path id="Pfad_497" data-name="Pfad 497" d="M1102.99,544.466s18.091-17.556,32.329.808c0,0-20.3,14.422-32.979,2.879Z" transform="translate(-149.547 -107.269)" fill="#fca310"/>
    <path id="Pfad_498" data-name="Pfad 498" d="M1106.93,518.658s13.939-21.945,30.354-17.047c0,0-14.466,23.235-30.2,22.2Z" transform="translate(-150.108 -102.87)" fill="#fca310"/>
    <path id="Pfad_499" data-name="Pfad 499" d="M1111.56,494.835s14.045-27.633,27.335-22.823c0,0-10.13,21.243-27.695,27.484Z" transform="translate(-150.629 -99.271)" fill="#fca310"/>
    <path id="Pfad_500" data-name="Pfad 500" d="M1112.524,465.671s14.44-21.752,27.967-19.092c0,0-11.806,22.059-29.371,25.386Z" transform="translate(-150.62 -96.204)" fill="#fca310"/>
    <path id="Pfad_501" data-name="Pfad 501" d="M1114,439.668s11.192-24.412,20.286-24.578c0,0-5.372,24.236-19.531,28.722Z" transform="translate(-150.972 -92.384)" fill="#fca310"/>
    <path id="Pfad_502" data-name="Pfad 502" d="M1116.5,415.072s12.438-24.719,21.787-24.772c0,0-6.364,21.137-21.375,26.94Z" transform="translate(-151.277 -89.355)" fill="#fca310"/>
    <path id="Pfad_503" data-name="Pfad 503" d="M1118.63,385.59s9.3-20.453,17.012-22.77c0,0-4.652,24.93-15.985,28.2Z" transform="translate(-151.537 -85.997)" fill="#fca310"/>
    <path id="Pfad_504" data-name="Pfad 504" d="M1124.967,360.74l20.8-31.68s-5.328,31.25-23.833,37.746Z" transform="translate(-151.941 -81.872)" fill="#fca310"/>
    <path id="Pfad_505" data-name="Pfad 505" d="M1140.248,323.3s24.166-16.678,25.044-19.373c0,0-12.289,23.358-35.112,27.484Z" transform="translate(-152.949 -78.801)" fill="#fca310"/>
    <path id="Pfad_506" data-name="Pfad 506" d="M1143.207,313.74s27.747-26.676,34.831-26.65c0,0-22.884,1.045-35.5,25.228Z" transform="translate(-154.459 -76.743)" fill="#fca310"/>
    <path id="Pfad_507" data-name="Pfad 507" d="M1118.94,383.7l1.01.132c5.214-40.809,12.816-64.957,21.4-67.916l-.333-.966C1131.914,318.11,1124.26,341.89,1118.94,383.7Z" transform="translate(-151.575 -80.147)" fill="#13213c"/>
    <path id="Pfad_508" data-name="Pfad 508" d="M1110.2,490.443l1.527.123c.325-3.81.571-7.707.737-11.6,1.457-33.778,3.713-64.8,6.68-88.052l-.878-1.1c-2.976,23.306-5.872,55.258-7.33,89.088C1110.771,482.771,1110.525,486.65,1110.2,490.443Z" transform="translate(-150.507 -89.296)" fill="#13213c"/>
    <path id="Pfad_509" data-name="Pfad 509" d="M976.885,688.866c.263-.114,27.151-12.122,55.056-40.756a221.4,221.4,0,0,0,40.247-57.057c12.9-26.273,20.769-58.558,23.4-89.922l-1.589.746c-5.925,70.4-37.974,118.5-63.456,144.706-27.633,28.379-54.222,40.265-54.485,40.379Z" transform="translate(-134.116 -102.898)" fill="#13213c"/>
    <path id="Pfad_510" data-name="Pfad 510" d="M937.847,132.69H94.384A7.514,7.514,0,0,0,86.87,140.2V162.1H945.361V140.2A7.514,7.514,0,0,0,937.847,132.69Z" transform="translate(-25.459 -57.876)" fill="#13213c"/>
    <path id="Pfad_511" data-name="Pfad 511" d="M86.87,166.19V658.848A15.151,15.151,0,0,0,102.021,674H930.21a15.151,15.151,0,0,0,15.151-15.151V166.19Z" transform="translate(-25.459 -61.969)" fill="#fff"/>
    <circle id="Ellipse_142" data-name="Ellipse 142" cx="3.511" cy="3.511" r="3.511" transform="translate(71.497 85.787)" fill="#fa5959" opacity="0.8"/>
    <circle id="Ellipse_143" data-name="Ellipse 143" cx="3.511" cy="3.511" r="3.511" transform="translate(81.153 85.787)" fill="#fed253" opacity="0.8"/>
    <circle id="Ellipse_144" data-name="Ellipse 144" cx="3.511" cy="3.511" r="3.511" transform="translate(90.809 85.787)" fill="#8ccf4d" opacity="0.8"/>
    <rect id="Rechteck_66" data-name="Rechteck 66" width="689.953" height="303.386" transform="translate(141.212 186.366)" opacity="0.05"/>
    <rect id="Rechteck_67" data-name="Rechteck 67" width="679.419" height="296.697" transform="translate(146.479 188.665)" fill="#13213c"/>
    <path id="Pfad_512" data-name="Pfad 512" d="M385.371,349.38a67.591,67.591,0,1,0,67.591,67.591,67.591,67.591,0,0,0-67.591-67.591Zm12.122,69.215v32H373.6v-32a19.794,19.794,0,1,1,23.894,0Z" transform="translate(-53.676 -84.355)" fill="#c78b28"/>
    <path id="Pfad_514" data-name="Pfad 514" d="M382.682,327.38a86.9,86.9,0,1,0,86.9,86.9,86.9,86.9,0,0,0-86.9-86.9Zm15.581,88.992v41.143H367.54V416.372a25.456,25.456,0,1,1,30.723,0Z" transform="translate(-50.987 -81.666)" fill="#fca310"/>
    <rect id="Rechteck_68" data-name="Rechteck 68" width="280.897" height="29.845" transform="translate(454.588 321.214)" fill="#fff"/>
    <rect id="Rechteck_69" data-name="Rechteck 69" width="60.568" height="29.845" transform="translate(674.916 375.637)" fill="#fca310"/>
    <path id="Pfad_515" data-name="Pfad 515" d="M564.508,429.025h-5.082l4.521-4.512a.448.448,0,0,0,0-.623.439.439,0,0,0-.623,0L558.8,428.41v-5.091a.439.439,0,0,0-.439-.439.448.448,0,0,0-.439.439v5.091l-4.512-4.547a.439.439,0,0,0-.623,0,.448.448,0,0,0,0,.623L557.31,429h-5.091a.448.448,0,0,0-.439.439.439.439,0,0,0,.439.439h5.091l-4.521,4.521a.448.448,0,0,0,0,.623.456.456,0,0,0,.623,0l4.512-4.521v5.082a.439.439,0,1,0,.878,0V430.5l4.521,4.521a.456.456,0,0,0,.623,0,.448.448,0,0,0,0-.623l-4.521-4.521h5.082a.426.426,0,1,0,0-.852Z" transform="translate(-82.27 -93.336)" fill="#6c63ff"/>
    <path id="Pfad_516" data-name="Pfad 516" d="M585.508,429.025h-5.082l4.521-4.512a.448.448,0,0,0,0-.623.439.439,0,0,0-.623,0L579.8,428.41v-5.091a.439.439,0,0,0-.439-.439.448.448,0,0,0-.439.439v5.091l-4.512-4.547a.439.439,0,0,0-.623,0,.448.448,0,0,0,0,.623L578.31,429h-5.091a.448.448,0,0,0-.439.439.439.439,0,0,0,.439.439h5.091l-4.521,4.521a.448.448,0,0,0,0,.623.456.456,0,0,0,.623,0l4.512-4.521v5.082a.439.439,0,1,0,.878,0V430.5l4.521,4.521a.456.456,0,0,0,.623,0,.448.448,0,0,0,0-.623l-4.521-4.521h5.082a.426.426,0,1,0,0-.852Z" transform="translate(-84.836 -93.336)" fill="#6c63ff"/>
    <path id="Pfad_517" data-name="Pfad 517" d="M606.508,429.025h-5.082l4.521-4.512a.448.448,0,0,0,0-.623.439.439,0,0,0-.623,0L600.8,428.41v-5.091a.439.439,0,0,0-.439-.439.448.448,0,0,0-.439.439v5.091l-4.512-4.547a.439.439,0,0,0-.623,0,.448.448,0,0,0,0,.623L599.31,429h-5.091a.448.448,0,0,0-.439.439.439.439,0,0,0,.439.439h5.091l-4.521,4.521a.448.448,0,0,0,0,.623.456.456,0,0,0,.623,0l4.512-4.521v5.082a.439.439,0,1,0,.878,0V430.5l4.521,4.521a.456.456,0,0,0,.623,0,.448.448,0,0,0,0-.623l-4.521-4.521h5.082a.426.426,0,1,0,0-.852Z" transform="translate(-87.402 -93.336)" fill="#6c63ff"/>
    <path id="Pfad_518" data-name="Pfad 518" d="M627.508,429.025h-5.082l4.521-4.512a.448.448,0,0,0,0-.623.439.439,0,0,0-.623,0L621.8,428.41v-5.091a.439.439,0,0,0-.439-.439.448.448,0,0,0-.439.439v5.091l-4.512-4.547a.439.439,0,0,0-.623,0,.448.448,0,0,0,0,.623L620.31,429h-5.091a.448.448,0,0,0-.439.439.439.439,0,0,0,.439.439h5.091l-4.521,4.521a.448.448,0,0,0,0,.623.456.456,0,0,0,.623,0l4.512-4.521v5.082a.439.439,0,1,0,.878,0V430.5l4.521,4.521a.456.456,0,0,0,.623,0,.448.448,0,0,0,0-.623l-4.521-4.521h5.082a.426.426,0,1,0,0-.852Z" transform="translate(-89.968 -93.336)" fill="#6c63ff"/>
    <path id="Pfad_519" data-name="Pfad 519" d="M648.508,429.025h-5.083l4.521-4.512a.448.448,0,0,0,0-.623.439.439,0,0,0-.623,0L642.8,428.41v-5.091a.439.439,0,0,0-.439-.439.448.448,0,0,0-.439.439v5.091l-4.512-4.547a.439.439,0,0,0-.623,0,.448.448,0,0,0,0,.623L641.31,429h-5.091a.448.448,0,0,0-.439.439.439.439,0,0,0,.439.439h5.091l-4.521,4.521a.448.448,0,0,0,0,.623.456.456,0,0,0,.623,0l4.512-4.521v5.082a.439.439,0,1,0,.878,0V430.5l4.521,4.521a.456.456,0,0,0,.623,0,.448.448,0,0,0,0-.623l-4.521-4.521h5.083a.426.426,0,1,0,0-.852Z" transform="translate(-92.534 -93.336)" fill="#6c63ff"/>
    <path id="Pfad_520" data-name="Pfad 520" d="M669.508,429.025h-5.083l4.521-4.512a.448.448,0,0,0,0-.623.439.439,0,0,0-.623,0L663.8,428.41v-5.091a.439.439,0,0,0-.439-.439.448.448,0,0,0-.439.439v5.091l-4.512-4.547a.439.439,0,0,0-.623,0,.448.448,0,0,0,0,.623L662.31,429h-5.091a.448.448,0,0,0-.439.439.439.439,0,0,0,.439.439h5.091l-4.521,4.521a.448.448,0,0,0,0,.623.456.456,0,0,0,.623,0l4.512-4.521v5.082a.439.439,0,1,0,.878,0V430.5l4.521,4.521a.456.456,0,0,0,.623,0,.448.448,0,0,0,0-.623l-4.521-4.521h5.083a.426.426,0,1,0,0-.852Z" transform="translate(-95.1 -93.336)" fill="#6c63ff"/>
    <path id="Pfad_521" data-name="Pfad 521" d="M690.508,429.025h-5.083l4.521-4.512a.448.448,0,0,0,0-.623.439.439,0,0,0-.623,0L684.8,428.41v-5.091a.439.439,0,0,0-.439-.439.448.448,0,0,0-.439.439v5.091l-4.512-4.547a.439.439,0,0,0-.623,0,.448.448,0,0,0,0,.623L683.31,429h-5.091a.448.448,0,0,0-.439.439.439.439,0,0,0,.439.439h5.091l-4.521,4.521a.448.448,0,0,0,0,.623.456.456,0,0,0,.623,0l4.512-4.521v5.082a.439.439,0,1,0,.878,0V430.5l4.521,4.521a.456.456,0,0,0,.623,0,.448.448,0,0,0,0-.623l-4.521-4.521h5.083a.426.426,0,1,0,0-.852Z" transform="translate(-97.667 -93.336)" fill="#6c63ff"/>
    <path id="Pfad_522" data-name="Pfad 522" d="M711.508,429.025h-5.082l4.521-4.512a.448.448,0,0,0,0-.623.439.439,0,0,0-.623,0L705.8,428.41v-5.091a.439.439,0,0,0-.439-.439.448.448,0,0,0-.439.439v5.091l-4.512-4.547a.439.439,0,0,0-.623,0,.448.448,0,0,0,0,.623L704.31,429h-5.091a.448.448,0,0,0-.439.439.439.439,0,0,0,.439.439h5.091l-4.521,4.521a.448.448,0,0,0,0,.623.456.456,0,0,0,.623,0l4.512-4.521v5.082a.439.439,0,1,0,.878,0V430.5l4.521,4.521a.456.456,0,0,0,.623,0,.448.448,0,0,0,0-.623l-4.521-4.521h5.082a.426.426,0,1,0,0-.852Z" transform="translate(-100.233 -93.336)" fill="#6c63ff"/>
    <path id="Pfad_523" data-name="Pfad 523" d="M732.508,429.025h-5.082l4.521-4.512a.448.448,0,0,0,0-.623.439.439,0,0,0-.623,0L726.8,428.41v-5.091a.439.439,0,0,0-.439-.439.448.448,0,0,0-.439.439v5.091l-4.512-4.547a.439.439,0,0,0-.623,0,.448.448,0,0,0,0,.623L725.31,429h-5.091a.448.448,0,0,0-.439.439.439.439,0,0,0,.439.439h5.091l-4.521,4.521a.448.448,0,0,0,0,.623.456.456,0,0,0,.623,0l4.512-4.521v5.082a.439.439,0,1,0,.878,0V430.5l4.521,4.521a.456.456,0,0,0,.623,0,.448.448,0,0,0,0-.623l-4.521-4.521h5.082a.426.426,0,1,0,0-.852Z" transform="translate(-102.799 -93.336)" fill="#6c63ff"/>
    <path id="Pfad_524" data-name="Pfad 524" d="M753.508,429.025h-5.082l4.521-4.512a.448.448,0,0,0,0-.623.439.439,0,0,0-.623,0L747.8,428.41v-5.091a.439.439,0,0,0-.439-.439.448.448,0,0,0-.439.439v5.091l-4.512-4.547a.439.439,0,0,0-.623,0,.448.448,0,0,0,0,.623L746.31,429h-5.091a.448.448,0,0,0-.439.439.439.439,0,0,0,.439.439h5.091l-4.521,4.521a.448.448,0,0,0,0,.623.456.456,0,0,0,.623,0l4.512-4.521v5.082a.439.439,0,1,0,.878,0V430.5l4.521,4.521a.456.456,0,0,0,.623,0,.448.448,0,0,0,0-.623l-4.521-4.521h5.082a.426.426,0,1,0,0-.852Z" transform="translate(-105.365 -93.336)" fill="#6c63ff"/>
    <path id="Pfad_525" data-name="Pfad 525" d="M774.508,429.025h-5.082l4.521-4.512a.448.448,0,0,0,0-.623.439.439,0,0,0-.623,0L768.8,428.41v-5.091a.439.439,0,0,0-.439-.439.448.448,0,0,0-.439.439v5.091l-4.512-4.547a.439.439,0,0,0-.623,0,.447.447,0,0,0,0,.623L767.31,429h-5.091a.448.448,0,0,0-.439.439.439.439,0,0,0,.439.439h5.091l-4.521,4.521a.447.447,0,0,0,0,.623.456.456,0,0,0,.623,0l4.512-4.521v5.082a.439.439,0,1,0,.878,0V430.5l4.521,4.521a.456.456,0,0,0,.623,0,.448.448,0,0,0,0-.623l-4.521-4.521h5.082a.426.426,0,1,0,0-.852Z" transform="translate(-107.931 -93.336)" fill="#6c63ff"/>
    <path id="Pfad_526" data-name="Pfad 526" d="M918.717,541.244a15.7,15.7,0,0,0-.4-3.151c-.79-2.967-2.572-6.557-5.5-7.453a46.205,46.205,0,0,1-8.725-3.687c-.527-9.41,1.633-19.04-.72-28.16-.878-3.336-2.326-6.531-2.712-9.945-.483-4.249.676-8.778-1.018-12.693a12.527,12.527,0,0,0-7.417-6.408,39.524,39.524,0,0,0-9.893-1.756c-4.213-.342-17.855-1.958-22.612,1.808h0a4.969,4.969,0,0,0-.878.878h0a3.514,3.514,0,0,0-.281.456l-.044.07a3.571,3.571,0,0,0-.237.571h0a4.427,4.427,0,0,0-.149.658v1.58c.061.79.176,1.58.176,2.361a5.084,5.084,0,0,1-.105,1.159,8.111,8.111,0,0,1-1.457,2.844h0l-.158.228c-.1.14-.193.272-.281.413s-.158.246-.228.369-.14.2-.2.316a4.3,4.3,0,0,0-.228.448c0,.088-.1.167-.132.255a4.336,4.336,0,0,0-.263.737,4.9,4.9,0,0,0-.053,2.335,8.69,8.69,0,0,0,1.2,2.765c.219.36.456.711.7,1.062l.614.834a18.945,18.945,0,0,0-.184,2.458,18.16,18.16,0,0,0,6.932,14.271,53.773,53.773,0,0,1-.112,11.141c-.079.772-.176,1.554-.281,2.326s-.184,1.282-.29,1.922a8.912,8.912,0,0,1-3.836-.29,18.056,18.056,0,0,0-1.756-.676c-2.554-.641-5.161,1.9-7.69,1.132a1.031,1.031,0,0,1-.114.351,3.441,3.441,0,0,0-1.756-.518c-1.5-.07-2.721-1.159-3.81-2.186l-3.344-3.151a3.691,3.691,0,0,1-.579-.649,4.558,4.558,0,0,1-.4-1.08,12.44,12.44,0,0,0-3.239-4.644,2.194,2.194,0,0,0-.957-.693,1.474,1.474,0,0,0-.439,0,3.859,3.859,0,0,0-.29-.351,8.274,8.274,0,0,0-.729-.737c-1.6-1.475-1.756-2.739-3.143-4.389a42.182,42.182,0,0,1-3.283-4.96c-.114-.922-.272-1.87-.465-2.827a36.37,36.37,0,0,0-1.922-6.408l-1.756-3.889-.2.2c-1.273-1.9-2.633-2.932-3.854-2.686-2.045.421-3.055,4.389-2.73,9.577l.7,5.267a1.626,1.626,0,0,0,.1.4,9.721,9.721,0,0,0-.193,1.9c0,.737.685,1.282,1.045,1.94a5.485,5.485,0,0,1,.878,2.993c-.044.377-.158.737-.176,1.106a4.257,4.257,0,0,0,.825,2.282l4.389,7.374.878,1.545.053.07a3.749,3.749,0,0,0,1.176,1.352,16.079,16.079,0,0,0,1.448,5.328c.149.334.316.65.492.966a31.049,31.049,0,0,0,4.143,5.381l2.089,2.344c2.063,2.3,4.126,4.608,6.364,6.733a8.523,8.523,0,0,0,2.844,1.993,3.221,3.221,0,0,0,3.2-.465q0,1.633,0,3.265a1.834,1.834,0,0,1,1.387,2.888c-1.843,4.731-3.7,9.507-6.5,13.746a29.262,29.262,0,0,1,5.442,4.152,24.462,24.462,0,0,1,2.835,3.836c.079.649.14,1.29.176,1.931.65,10.463-3.4,20.848-7.022,30.82-1.045,2.827-2.186,5.785-2.1,8.725A17.139,17.139,0,0,0,840,612.662c.72,1.878.439,3.555.36,5.565a9.858,9.858,0,0,1-.729,3.511,24.669,24.669,0,0,1-1.264,2.256c-2.274,4.012-2.774,8.778-3.23,13.36-.272,2.765.8,6.145-.456,8.62-2.168,4.249-4.091,8.778-4.389,13.5a13.531,13.531,0,0,1-.4,3.151c-.272.878-.755,1.624-1,2.484a10.632,10.632,0,0,0-.176,3.511,33.6,33.6,0,0,1-1.843,12.386c-1.1,3.134-2.309,6.487-1.448,9.708a13.685,13.685,0,0,0-3.713,8.155,12.856,12.856,0,0,1-.281,2.326,11.313,11.313,0,0,1-1.053,2.238,19.592,19.592,0,0,0-2.388,10.534c-2.633,3.573-3.95,7.979-4.731,12.359s-1.124,8.839-2.124,13.167c-1.334,5.723-3.748,11.508-4.222,17.372-2.844,1.817-4.073,5.337-4.617,8.664s-.632,6.821-2.028,9.893c-.72,1.6-1.756,3.028-2.44,4.661a21.409,21.409,0,0,0-1.053,4.012,15.655,15.655,0,0,0-.272,6.583,9.925,9.925,0,0,1-2.572,1.958c.14-.544.254-1.089.351-1.642-2.265,2.054-6.373,1.334-8.181,3.8a3.7,3.7,0,0,0,.878,5.082,7.022,7.022,0,0,0,1.817.781c4.389,1.4,8.9,2.818,13.413,2.072a4,4,0,0,0,1.519-.483,4.887,4.887,0,0,0,1.413-1.633c.676-1.071,1.352-2.142,2.019-3.213a41.7,41.7,0,0,0,4.924,1.15c.167,1.4.29,2.809.351,4.213.878.176,2.054.228,2.467-.588a2.134,2.134,0,0,0,.149-.974c0-.623.088-1.448.14-2.291h.176a16.677,16.677,0,0,0,7.769-1.571c-.939-7.777,2.159-15.379,4.846-22.735,2.835-7.742,5.267-15.625,7.716-23.508,1.756-5.548,3.7-10.92,5.416-16.476q3.248-10.534,6.522-21.067c.948-3.09,1.9-6.145,2.993-9.217a143.6,143.6,0,0,1,8.137-18.109c.878-1.659,1.756-3.3,2.475-5.021.878-2.1,1.5-4.292,2.2-6.461a100.068,100.068,0,0,1,5.513-12.974c.061-.114.105-.219.167-.325.711,2.906,1.422,5.855,1.9,8.778a33.358,33.358,0,0,1,.149,10.85c-.421,2.449-1.22,4.872-1.124,7.356.132,3.432,1.966,6.548,2.87,9.858a37.514,37.514,0,0,1,.983,7.549c.246,3.95,2.387,8.383.878,12.043-4.7,11.6-2.423,24.693-5.1,36.868-1.378,6.25-5.6,12.122-5.267,18.513q.351,6.8,1.194,13.571a12.917,12.917,0,0,0,1.1,4.117,15.11,15.11,0,0,0,1.2,1.966c-.386.149-.711.544-.992,1.378a5.416,5.416,0,0,0,1.949,6.145,8.534,8.534,0,0,0,2.537.878,13.36,13.36,0,0,0,3.669.509,8.571,8.571,0,0,0,1.15-.14,41.811,41.811,0,0,0,4.152,1.492,9,9,0,0,0,.114,1.08,1.343,1.343,0,0,0,.457.992,1.369,1.369,0,0,0,.7.123H886.4v-1.194a3.924,3.924,0,0,0,3.028-.983,4.686,4.686,0,0,0,.878-1.826q1.949-6.61,3.871-13.229a42.292,42.292,0,0,0,1.887-15.1c-1.694-16.178,2.028-32.408.816-48.63a116.492,116.492,0,0,1,1.492-29.178c.4-2.177.878-4.389,1.053-6.557.386-4.091-.088-8.225.2-12.289.1-1.422.29-2.835.465-4.249a204.032,204.032,0,0,0,1.887-26.466,83.4,83.4,0,0,0-.544-8.778,5.011,5.011,0,0,0,2.4-1.4c.781-1.018.579-2.449.571-3.748,0-3.107,1.308-6.039,2.361-8.971a106.614,106.614,0,0,0,3.318-12.342,43.09,43.09,0,0,0,1.475-10.314q0-.527-.053-1.053a2.721,2.721,0,0,0,.808-.878,5.1,5.1,0,0,0,.421-1.624c.316-2.238.641-4.486.957-6.733q.351-2.414.693-4.819l2.791-19.478c.237-1.694.483-3.38.72-5.065l.729-5.039c.079-.6.167-1.194.228-1.756C920.991,550.092,918.946,545.317,918.717,541.244Zm-23.288,72.928c-1.036-2.458-2-4.977-1.756-7.628h-.1a3.915,3.915,0,0,0-.114-2.475c-.272-.641-.746-1.185-1.036-1.826a6.687,6.687,0,0,1-.474-2.458,67.008,67.008,0,0,1,1.255-15.923c.114-.614.237-1.238.351-1.852a4.586,4.586,0,0,0,1-.781,7.119,7.119,0,0,0,1.132-1.756c.992-1.993,1.9-4.02,2.73-6.083.272-.667.667-1.44,1.343-1.606-.14,5.135.386,10.376-1.7,15.01a9.494,9.494,0,0,0-.878,2.37c-.193,1.308.351,2.633.158,3.932-.1.676-.386,1.3-.5,1.966a1.922,1.922,0,0,0,.509,1.861,1.538,1.538,0,0,0,.377.193c-.053.351-.1.711-.132,1.053-.07.72-.105,1.4-.149,1.817a56.633,56.633,0,0,0-.237,6.461c0,2.326.088,4.652.053,7.022a4.766,4.766,0,0,1-.334,1.993,3.459,3.459,0,0,1-.667.878,22.8,22.8,0,0,0-.834-2.168Z" transform="translate(-110.823 -98.771)" fill="url(#linear-gradient)"/>
    <ellipse id="Ellipse_145" data-name="Ellipse 145" cx="4.951" cy="14.019" rx="4.951" ry="14.019" transform="matrix(0.98, -0.201, 0.201, 0.98, 704.841, 387.076)" fill="#fbbebe"/>
    <path id="Pfad_527" data-name="Pfad 527" d="M878.362,839.463a5.315,5.315,0,0,0,1.949,6.083,8.674,8.674,0,0,0,2.519.878,13.284,13.284,0,0,0,3.66.5c1.519-.07,2.976-.667,4.494-.878a.7.7,0,0,1,.518.07.746.746,0,0,1,.193.614,23.219,23.219,0,0,0,.193,2.581,1.326,1.326,0,0,0,.457.992,1.369,1.369,0,0,0,.7.123h4.758a46.4,46.4,0,0,0-1.36-12.412,2.772,2.772,0,0,0-.351-.878,2.9,2.9,0,0,0-1.518-.878,8.488,8.488,0,0,0-3.678-.641,10.774,10.774,0,0,0-4.126,2.019,6.286,6.286,0,0,1-4.679,1.132C880.5,838.348,879.178,837.023,878.362,839.463Z" transform="translate(-122.144 -143.77)" fill="#3f3d56"/>
    <path id="Pfad_528" data-name="Pfad 528" d="M798,835.359a13.166,13.166,0,0,1-4.8,3.265l-.808.386a.561.561,0,0,0-.272.219.474.474,0,0,0,.088.4,5.679,5.679,0,0,0,6.443,2.344,3.414,3.414,0,0,0,1.413-.737,4.634,4.634,0,0,0,1.088-2.826,5.787,5.787,0,0,0-.132-3.239C799.8,832.418,799.352,833.665,798,835.359Z" transform="translate(-111.637 -143.52)" fill="#fbbebe"/>
    <path id="Pfad_529" data-name="Pfad 529" d="M815.492,846.244a2.134,2.134,0,0,1-.149.974c-.413.808-1.563.764-2.458.588a59.065,59.065,0,0,0-1.08-8.866c-1.7-.079-2.932,1.536-3.845,2.985l-2.353,3.731a4.862,4.862,0,0,1-1.4,1.633,4.159,4.159,0,0,1-1.518.483c-4.494.746-9.033-.667-13.369-2.072a7.079,7.079,0,0,1-1.817-.772,3.713,3.713,0,0,1-.878-5.074c1.817-2.458,5.9-1.756,8.164-3.792a20.425,20.425,0,0,1-1.159,4.187c3.029-.456,5.065-3.23,7.505-5.082a4.618,4.618,0,0,1,2.142-1.018,4.716,4.716,0,0,1,1.756.184,20.6,20.6,0,0,1,7.725,3.8c.922.729,2.361,1.756,2.765,2.879C815.949,842.355,815.492,844.813,815.492,846.244Z" transform="translate(-110.889 -143.59)" fill="#3f3d56"/>
    <circle id="Ellipse_146" data-name="Ellipse 146" cx="18.135" cy="18.135" r="18.135" transform="translate(746.852 376.761)" fill="#fbbebe"/>
    <path id="Pfad_530" data-name="Pfad 530" d="M926.472,618.514a43.01,43.01,0,0,1-1.466,10.262,105.9,105.9,0,0,1-3.318,12.289c-1.045,2.923-2.353,5.855-2.344,8.954,0,1.29.211,2.721-.579,3.739a5.461,5.461,0,0,1-2.563,1.466,3.2,3.2,0,0,0-2.159,1.922,13.563,13.563,0,0,1-1.826-4.02q-2.361-7.233-4.389-14.545a1.887,1.887,0,0,1,.123-1.756,2.177,2.177,0,0,1,.764-.43,7.9,7.9,0,0,0,2.432-1.563,3.552,3.552,0,0,0,.808-1.045,4.729,4.729,0,0,0,.342-1.984c0-2.326,0-4.644-.061-6.97a58.239,58.239,0,0,1,.246-6.434c0-.421.079-1.1.149-1.817.132-1.378.4-2.976,1.141-3.511,1.115-.746,4.451.255,5.714.43,2.177.3,4.389.65,6.513,1.062A17.389,17.389,0,0,1,926.472,618.514Z" transform="translate(-125.758 -116.544)" fill="#3f3d56"/>
    <path id="Pfad_531" data-name="Pfad 531" d="M842.905,517.931c-.7,1.4-2.388,2.08-3.687,2.967l-4.451,3.055a2.967,2.967,0,0,1-2.2.755,2.9,2.9,0,0,1-1.641-1.536.3.3,0,0,0,0-.07L830,521.556l-4.389-7.356a4.187,4.187,0,0,1-.816-2.265c0-.377.132-.729.167-1.106a5.311,5.311,0,0,0-.878-2.984c-.351-.658-1.053-1.2-1.036-1.94a7.021,7.021,0,0,1,.492-2.835,5.74,5.74,0,0,1,1.922-2.054c.413-.3.834-.579,1.273-.878a2.511,2.511,0,0,1,.764-.351c.729-.149,1.448.457,2.186.483,3.169,2.124,4.389,6.145,6.882,9.041,1.4,1.65,1.545,2.914,3.134,4.389.255.228.5.474.737.729a5.1,5.1,0,0,1,.79,1.141C841.518,516.324,843.265,517.211,842.905,517.931Z" transform="translate(-115.418 -102.731)" fill="#3f3d56"/>
    <path id="Pfad_532" data-name="Pfad 532" d="M879.992,516.142c1.308,2.765,2.326,5.8,1.949,8.839a5.523,5.523,0,0,1-.764,2.326c-1.264,1.94-3.915,2.291-6.224,2.405a3.669,3.669,0,0,0-2.7.878,2.458,2.458,0,0,0,.167,3,6.776,6.776,0,0,0,2.686,1.756c3.652,1.606,7.593,2.932,11.561,2.563,1.843-.176,3.634-.711,5.469-.983a57.429,57.429,0,0,1,6.022-.334c2.388-.088,4.766-.325,7.145-.562l6.3-.623a1.4,1.4,0,0,0,.939-.342c.465-.544-.132-1.343-.711-1.756-3.344-2.475-7.6-4.178-9.507-7.9-.878-1.756-1.15-3.845-1.8-5.741s-1.685-3.608-2.089-5.539a36.711,36.711,0,0,1-.29-5.109,6.856,6.856,0,0,0-1.755-4.67,7.319,7.319,0,0,0-4.775-1.536c-4.2-.184-8.664.816-11.64,3.775-.8.8-1.483,1.756-2.309,2.475s-1.949.93-1.4,1.879,1.615,1.536,2.195,2.37a20.194,20.194,0,0,1,1.536,2.827Z" transform="translate(-121.377 -103.102)" fill="#fbbebe"/>
    <path id="Pfad_533" data-name="Pfad 533" d="M913.1,543.949a99.737,99.737,0,0,1-5.372,19.777,74.493,74.493,0,0,0-3.16,8.866c-.676,2.721-.544,5.635-1.167,8.366-.772,3.4-1.545,6.8-2.168,10.226a67.055,67.055,0,0,0-1.247,15.888,6.647,6.647,0,0,0,.474,2.449c.29.632.755,1.176,1.027,1.826a4.388,4.388,0,0,1-.246,3.511,10.169,10.169,0,0,1-1.808,2.739c-8.181,2.44-16.933,1.641-25.456,2.159-7.856.474-15.8,2.089-23.543.746-.878-3.511.588-7.189,1.843-10.613,3.643-9.946,7.672-20.3,7.022-30.723a31.821,31.821,0,0,0-.413-3.625c-1.273-7.382.114-15.028,2.335-22.182,1.378-4.459,1.317-9.208,1-13.852a25.3,25.3,0,0,1-.061-4.538,7.979,7.979,0,0,1,1.65-4.24c0-.061.079-.123.123-.184a1.205,1.205,0,0,1,.658,0h0a.562.562,0,0,0,.439,0l.1-.061a.22.22,0,0,1,.255,0c.2.123.316.544.755.623a17.487,17.487,0,0,0,1.958.184,10.532,10.532,0,0,1,2.335.334h.105a6.855,6.855,0,0,0,3.406-.29,9.056,9.056,0,0,0,2.089-.808c.193-.211,1.4-.4,1.65-.553.8-.483.623-2.747.79-3.678a10.114,10.114,0,0,1,.658-2.721,4.635,4.635,0,0,1,3.757-2.186,20,20,0,0,1,4.5.4c3.274.465,6.627.386,9.84,1.141,1.615.378,3.38.948,4.863.211.4.1.465.448.465.878a5.624,5.624,0,0,1-.246,1.2c-.562,2.423,1.343,4.652,3.1,6.408A9.939,9.939,0,0,0,908,533.7c.878.4,1.756.571,2.633,1.01a4.793,4.793,0,0,1,1.756,1.606,6.708,6.708,0,0,1,1,2.554,15.275,15.275,0,0,1-.29,5.083Z" transform="translate(-118.732 -105.373)" fill="#e7e8eb"/>
    <path id="Pfad_534" data-name="Pfad 534" d="M914.249,545.209a99.737,99.737,0,0,1-5.372,19.777,74.464,74.464,0,0,0-3.16,8.866c-.676,2.721-.544,5.635-1.167,8.365-.772,3.4-1.545,6.8-2.168,10.226-.184.105-.377.2-.571.29a13.471,13.471,0,0,1-3.441,1.106,21.064,21.064,0,0,1-6.425-.211l-12.526-1.677c-5-.676-10.332-1.492-14.045-4.881-2.063-1.861-3.415-4.319-4.9-6.689a31.85,31.85,0,0,0-.413-3.625c-1.273-7.382.114-15.028,2.335-22.182,1.378-4.459,1.317-9.208,1-13.852a25.3,25.3,0,0,1-.062-4.538,7.979,7.979,0,0,1,1.65-4.24,6.276,6.276,0,0,1,.781-.175h0a3.9,3.9,0,0,1,.536-.07h.254a3.828,3.828,0,0,1,.878.105,15.889,15.889,0,0,1,1.755.676h.105a6.722,6.722,0,0,0,2.335.334c1.159,0,2.353-.184,3.511-.263a6.478,6.478,0,0,1,4.161.746,24.947,24.947,0,0,1,2.317,2.115A9.953,9.953,0,0,0,884.544,537a31.065,31.065,0,0,0,23.367-.492,4.573,4.573,0,0,1,2.344-.6,4.389,4.389,0,0,1,1.685.72c.527.307,1.045.606,1.58.878a6.7,6.7,0,0,1,1,2.554A15.274,15.274,0,0,1,914.249,545.209Z" transform="translate(-119.882 -106.634)" opacity="0.1"/>
    <path id="Pfad_535" data-name="Pfad 535" d="M920.839,539.164a46.846,46.846,0,0,1-10.007-4.389,4.486,4.486,0,0,0-1.685-.72,4.712,4.712,0,0,0-2.352.6,31.048,31.048,0,0,1-23.358.492,10.159,10.159,0,0,1-2.923-1.589,26.244,26.244,0,0,0-2.317-2.115c-2.888-1.87-6.882.325-10.112-.878a17.891,17.891,0,0,0-1.756-.676c-2.554-.641-5.153,1.9-7.663,1.132a42.709,42.709,0,0,0-2.063,7.83,85.379,85.379,0,0,0-.57,9.234c0,1.852-.088,3.7,0,5.557a1.822,1.822,0,0,1,1.387,2.879c-1.835,4.714-3.7,9.48-6.478,13.7a29.779,29.779,0,0,1,5.425,4.143c3.072,3.248,4.582,7.8,7.9,10.806,3.739,3.38,9.068,4.2,14.045,4.872l12.526,1.677a21.409,21.409,0,0,0,6.434.219,13.546,13.546,0,0,0,3.432-1.115,6.144,6.144,0,0,0,1.914-1.264,7.024,7.024,0,0,0,1.132-1.756c.992-1.984,1.9-4.011,2.73-6.066.29-.729.728-1.58,1.518-1.641,4.652-4.2,9.041-8.5,13.694-12.693a30.335,30.335,0,0,0,4.995-5.267c2.309-3.415.211-8.251,0-12.377a15.635,15.635,0,0,0-.395-3.134C925.536,543.632,923.763,540.05,920.839,539.164Z" transform="translate(-118.826 -106.399)" fill="#fca310"/>
    <path id="Pfad_536" data-name="Pfad 536" d="M844,519.95c-.7,1.4-2.388,2.08-3.687,2.967l-4.45,3.055a2.967,2.967,0,0,1-2.2.755,2.9,2.9,0,0,1-1.641-1.536v-.632a5.886,5.886,0,0,1,.281-2.1,6.54,6.54,0,0,1,1.966-2.528,16.1,16.1,0,0,1,5.767-3.511,1.974,1.974,0,0,1,1.053-.105,1.388,1.388,0,0,1,.386.167,5.1,5.1,0,0,1,.79,1.141C842.614,518.344,844.361,519.23,844,519.95Z" transform="translate(-116.513 -104.75)" opacity="0.1"/>
    <path id="Pfad_537" data-name="Pfad 537" d="M854.633,529.281c-1.492-.07-2.712-1.15-3.8-2.177l-3.327-3.09a3.108,3.108,0,0,1-.579-.65,4.558,4.558,0,0,1-.4-1.08,12.387,12.387,0,0,0-3.23-4.635,2.107,2.107,0,0,0-.957-.685,1.923,1.923,0,0,0-1.062.105,16.054,16.054,0,0,0-5.767,3.511,6.558,6.558,0,0,0-1.966,2.528,5.838,5.838,0,0,0-.281,2.1,16.117,16.117,0,0,0,1.527,6.706c.149.325.316.65.492.966a30.4,30.4,0,0,0,4.126,5.363l2.089,2.335c2.054,2.3,4.108,4.6,6.338,6.715a8.373,8.373,0,0,0,2.844,1.984,3.177,3.177,0,0,0,3.265-.527,4.722,4.722,0,0,0,.93-1.668c1.352-3.511,2.633-7.163,2.712-10.946a41.344,41.344,0,0,0-.193-4.538C857.258,530,856.126,529.378,854.633,529.281Z" transform="translate(-116.665 -104.829)" fill="#fca310"/>
    <path id="Pfad_538" data-name="Pfad 538" d="M903.541,665.369a202.831,202.831,0,0,1-1.879,26.4c-.175,1.413-.369,2.827-.465,4.24-.29,4.1.184,8.216-.2,12.289-.2,2.2-.658,4.389-1.045,6.54a116.281,116.281,0,0,0-1.492,29.1c1.211,16.178-2.5,32.365-.816,48.5a39.21,39.21,0,0,1-.518,9.384,39.78,39.78,0,0,1-1.36,5.671q-1.923,6.592-3.862,13.167a4.566,4.566,0,0,1-.878,1.826,4.16,4.16,0,0,1-3.292.974c-5.065-.158-9.831-2.344-14.431-4.477a5.031,5.031,0,0,1-1.448-.878c-.957-.992-.878-2.554-1.3-3.862s-1.562-2.537-2.212-3.88a12.667,12.667,0,0,1-.957-3.994q-.878-6.742-1.194-13.536c-.334-6.373,3.88-12.237,5.267-18.434,2.633-12.184.4-25.246,5.082-36.806,1.475-3.652-.667-8.076-.878-12.008a38.079,38.079,0,0,0-.983-7.532c-.878-3.3-2.73-6.408-2.862-9.831-.1-2.475.7-4.889,1.115-7.33a32.943,32.943,0,0,0-.149-10.823c-.465-2.949-1.176-5.9-1.887-8.778l-.158.325a99.186,99.186,0,0,0-5.5,12.948c-.7,2.151-1.317,4.345-2.194,6.434-.72,1.756-1.606,3.362-2.475,5.012a143.966,143.966,0,0,0-8.12,18.039c-1.088,3.037-2.045,6.145-2.993,9.19l-6.5,21.067c-1.756,5.539-3.678,10.893-5.4,16.424-2.431,7.9-4.863,15.73-7.69,23.455-2.633,7.33-5.767,14.923-4.828,22.665a16.676,16.676,0,0,1-7.751,1.571,45.379,45.379,0,0,1-13.167-3.2,10.234,10.234,0,0,1-4.547-2.7c-1.949-2.379-1.466-5.864-.878-8.892a21.482,21.482,0,0,1,1.053-4c.667-1.615,1.756-3.046,2.44-4.643,1.378-3.064,1.466-6.531,2.01-9.858s1.756-6.838,4.6-8.646c.483-5.846,2.888-11.613,4.213-17.328,1-4.328,1.334-8.778,2.124-13.167s2.063-8.778,4.714-12.333a19.549,19.549,0,0,1,2.388-10.534,11.517,11.517,0,0,0,1.045-2.238,12.865,12.865,0,0,0,.281-2.317,13.7,13.7,0,0,1,3.7-8.137c-.878-3.2.342-6.548,1.44-9.656a33.548,33.548,0,0,0,1.843-12.351,10.826,10.826,0,0,1,.167-3.511c.246-.878.728-1.624,1.009-2.467a14.046,14.046,0,0,0,.4-3.151c.342-4.749,2.265-9.226,4.389-13.465,1.264-2.475.193-5.838.456-8.594.456-4.582.957-9.322,3.23-13.316.421-.755.878-1.475,1.255-2.256a9.769,9.769,0,0,0,.729-3.511c.079-2.01.36-3.678-.36-5.548,4.7-3.906,11.1-5,17.214-5.267s12.289.29,18.267-1.01c1.756-.4,3.511-.939,5.363-1.2,4.2-.615,8.471.342,12.623,1.29-.29,2.633.676,5.161,1.756,7.61a81.7,81.7,0,0,1,6.5,31.355Z" transform="translate(-112.378 -118.025)" fill="#13213c"/>
    <path id="Pfad_539" data-name="Pfad 539" d="M892.971,673.29l-10.086,22.682c-.465-2.949-1.176-5.9-1.887-8.778l-.158.325v-.474l5.495-12.087Z" transform="translate(-122.48 -123.936)" opacity="0.1"/>
    <path id="Pfad_540" data-name="Pfad 540" d="M927.154,618.514a3.793,3.793,0,0,1-2,.746,9.735,9.735,0,0,1-3.283-.448l-7.9-1.975a3.881,3.881,0,0,1-.72-.255c.132-1.378.4-2.976,1.141-3.511,1.115-.746,4.451.255,5.715.43,2.177.3,4.389.65,6.513,1.062a17.4,17.4,0,0,1,.536,3.95Z" transform="translate(-126.44 -116.544)" opacity="0.1"/>
    <path id="Pfad_541" data-name="Pfad 541" d="M933.72,559.42c.167.729.4,1.448.544,2.186a16.675,16.675,0,0,1-.184,5.434l-.72,5.021-.72,5.047-2.783,19.426-.685,4.81-.965,6.715a4.829,4.829,0,0,1-.421,1.615,3.363,3.363,0,0,1-2.748,1.624,9.954,9.954,0,0,1-3.283-.448l-7.9-1.984a2.474,2.474,0,0,1-.966-.395,1.9,1.9,0,0,1-.509-1.852c.114-.667.4-1.29.5-1.958.193-1.3-.351-2.633-.158-3.924a9.762,9.762,0,0,1,.878-2.361c2.633-5.82,1.106-12.614,2-18.934a28.706,28.706,0,0,1,6.092-13.553,38.9,38.9,0,0,1,6.724-6.6c.983-.764,2.546-2.335,3.783-2.633C933.791,556.321,933.457,558.314,933.72,559.42Z" transform="translate(-126.326 -109.678)" fill="#fca310"/>
    <path id="Pfad_542" data-name="Pfad 542" d="M867.45,473.05c-.579,1.843.325,3.871-.088,5.75-.448,2.072-2.4,3.511-2.949,5.592-.878,3.169,1.808,6.057,3.775,8.69,7.286,9.779,6.329,23.314,3.836,35.244a181.975,181.975,0,0,1-8.3,28.09c-1.1,2.835-2.309,5.715-4.468,7.839,4.038-1.159,8.33-2.326,12.377-1.2,5.126,1.422,9.55,6.4,14.747,5.267,3.125-.693,5.32-3.467,8.128-5,5.267-2.835,11.613-1.053,17.486-.14a6.863,6.863,0,0,0,3.818-.193,6.345,6.345,0,0,0,2.317-2.133,21.646,21.646,0,0,0,4.512-11.675,14.975,14.975,0,0,0-4.31-11.526c-1.247-1.176-2.739-2.124-3.7-3.511a10.9,10.9,0,0,1-1.448-5.319c-.693-9.656,1.659-19.514-.764-28.853-.878-3.327-2.309-6.513-2.695-9.919-.483-4.24.667-8.778-1.018-12.658a12.413,12.413,0,0,0-7.4-6.39,40.537,40.537,0,0,0-9.867-1.756C886.639,468.836,869.46,466.773,867.45,473.05Z" transform="translate(-119.843 -98.922)" fill="#e7e8eb"/>
    <g id="Gruppe_8" data-name="Gruppe 8" transform="translate(739.417 372.117)" opacity="0.1">
      <path id="Pfad_543" data-name="Pfad 543" d="M872.651,530.142a181.618,181.618,0,0,1-8.251,27.976c.606-1.2,1.115-2.467,1.6-3.722a181.022,181.022,0,0,0,8.3-28.09c2.5-11.938,3.459-25.456-3.827-35.244-1.756-2.335-4.012-4.863-3.933-7.6a9.355,9.355,0,0,0-1.492,2.756c-.878,3.169,1.808,6.057,3.774,8.69C876.1,504.676,875.144,518.212,872.651,530.142Z" transform="translate(-859.888 -472.856)"/>
      <path id="Pfad_544" data-name="Pfad 544" d="M868.578,478.253a8.541,8.541,0,0,0,1.545-2.958,15.038,15.038,0,0,0-.105-3.915,4.222,4.222,0,0,0-1.457,2.01C868.042,474.944,868.639,476.629,868.578,478.253Z" transform="translate(-860.37 -471.38)"/>
      <path id="Pfad_545" data-name="Pfad 545" d="M919.784,568.861a6.319,6.319,0,0,1-2.317,2.124,6.706,6.706,0,0,1-3.818.193c-5.873-.878-12.289-2.686-17.486.149-2.818,1.527-5,4.3-8.137,5-5.188,1.159-9.612-3.818-14.738-5.267-3.634-1.01-7.461-.176-11.122.878a15.337,15.337,0,0,1-2.906,4.2c4.038-1.159,8.33-2.326,12.377-1.2,5.126,1.422,9.551,6.4,14.747,5.267,3.125-.693,5.319-3.467,8.128-5,5.267-2.835,11.613-1.053,17.486-.14a6.864,6.864,0,0,0,3.818-.193,6.346,6.346,0,0,0,2.317-2.133,23.6,23.6,0,0,0,3.634-6.952A25.528,25.528,0,0,1,919.784,568.861Z" transform="translate(-859.26 -482.915)"/>
    </g>
  </g>
</svg>
