<svg xmlns="http://www.w3.org/2000/svg" width="257.586" height="185.766" viewBox="0 0 257.586 185.766">
  <g id="Gruppe_37" data-name="Gruppe 37" transform="translate(-510 -219)">
    <circle id="Ellipse_231" data-name="Ellipse 231" cx="8.991" cy="8.991" r="8.991" transform="translate(551.488 232.092)" fill="#13213c"/>
    <path id="Pfad_898" data-name="Pfad 898" d="M235.615,533.657l5.524-19.158,1.881.588s-2.233,14.339-5.759,17.983Z" transform="translate(297.479 -184.324)" fill="#fca310"/>
    <path id="Pfad_899" data-name="Pfad 899" d="M304.542,223.148s.705,7.522-.94,9.638,1.058,6.229,1.058,6.229l4.936,5.877,7.287-3.291,1.058-6.112-.705-4.231a7.5,7.5,0,0,1-1.41-6.935C316.883,219.857,304.542,223.148,304.542,223.148Z" transform="translate(249.591 23.342)" fill="#ffb9b9"/>
    <path id="Pfad_900" data-name="Pfad 900" d="M304.542,223.148s.705,7.522-.94,9.638,1.058,6.229,1.058,6.229l4.936,5.877,7.287-3.291,1.058-6.112-.705-4.231a7.5,7.5,0,0,1-1.41-6.935C316.883,219.857,304.542,223.148,304.542,223.148Z" transform="translate(249.591 23.342)" opacity="0.1"/>
    <path id="Pfad_901" data-name="Pfad 901" d="M166.73,575.176v4.819l6.464,1.293-.588-7.992Z" transform="translate(391.634 -187.997)" fill="#ffb9b9"/>
    <path id="Pfad_902" data-name="Pfad 902" d="M230.134,571.568l-1.411,6.7,2.821,2,4.936-3.643-.588-5.759Z" transform="translate(347.624 -186.27)" fill="#ffb9b9"/>
    <path id="Pfad_903" data-name="Pfad 903" d="M319.4,724.139a4.983,4.983,0,0,0-7.052-1.557s-.823,4.613-1.646,4.966-5.407,7.052,0,7.64,8.11-1.175,8.11-1.175-1.058.91.588.44.94-3.056.94-3.056Z" transform="translate(246.016 -331.436)" fill="#13213c"/>
    <path id="Pfad_904" data-name="Pfad 904" d="M383.844,718.16s-3.644,2.586-4.231,1.41a1.606,1.606,0,0,0-1.528-1.058s-3.291,12.406-1.175,12.994a7.132,7.132,0,0,0,4.114-.213s2.821-1.975,2.821-.448,7.875,1.418,11.166,1.3,1.528-2.586,1.528-2.586l-4.349-4.231-4.936-7.17S385.019,716.162,383.844,718.16Z" transform="translate(197.674 -328.278)" fill="#13213c"/>
    <path id="Pfad_905" data-name="Pfad 905" d="M283.022,445.61l4.936,47.366s2.7,28.913,3.173,29.384,3.526,2,10.225,0l-1.528-37.846,2.821-23.507,6.464,16.22s1.528,43.605,2.586,43.605,7.522,2.116,9.05-.47,1.293-30.441,1.293-30.441-.705-43.958-5.877-45.368S283.022,445.61,283.022,445.61Z" transform="translate(263.824 -134.358)" fill="#13213c"/>
    <circle id="Ellipse_232" data-name="Ellipse 232" cx="8.11" cy="8.11" r="8.11" transform="translate(552.37 234.619)" fill="#ffb9b9"/>
    <path id="Pfad_906" data-name="Pfad 906" d="M278.7,262.533s-.823-5.054-.823-5.994-3.644-1.528-3.644-1.528-2.821-3.173-3.409-2.7-9.52,6.464-10.931,7.287-2.938,4.349-2.821,4.584,7.4,15.515,7.4,15.515,3.173,9.4.94,14.339-5.054,14.692-.94,16.69,24.095,6.347,27.738,2.586,6.229-4.819,7.17-4.819-3.879-16.337-2.821-17.865-.47-11.048-.47-11.048l5.407-15.162s-.47-8.462-11.166-10.343l-6.4-3.1Z" transform="translate(282.25 2.763)" fill="#fca310"/>
    <path id="Pfad_907" data-name="Pfad 907" d="M252.127,455.982s-.588,5.642-.588,7.287-2.821,11.283,1.293,12.459,3.761-12.811,3.761-12.811v-7.17Z" transform="translate(286.844 -142.615)" fill="#ffb9b9"/>
    <path id="Pfad_908" data-name="Pfad 908" d="M411.295,438.324s.705,5.407.353,6.582,3.408,11.4-1.645,11.989-3.761-12.224-3.761-12.224v-6.347Z" transform="translate(176.453 -130.246)" fill="#ffb9b9"/>
    <path id="Pfad_909" data-name="Pfad 909" d="M252.227,529.763l3.408-18.1h1.058a7.119,7.119,0,0,1,1.058,6.817,85.852,85.852,0,0,0-2.586,11.283Z" transform="translate(285.686 -182.311)" fill="#fca310"/>
    <path id="Pfad_910" data-name="Pfad 910" d="M252.72,291.647l-1.763,1.41s-2.351,37.376-1.763,40.2-2.116,6.817.235,7.17,5.172,1.881,6.464.94,1.528-4.349,2-5.172,1.293-10.578,1.293-10.578,2.468-9.755.94-17.042-2.938-14.692-2.938-14.692Z" transform="translate(288.366 -26.116)" fill="#fca310"/>
    <path id="Pfad_911" data-name="Pfad 911" d="M386.434,281.517l5.407,4.584,4.114,23.977s2.586,18.688.588,18.923-5.054-.353-6.347,0a2.752,2.752,0,0,1-2.351-.588s-1.41-7.522-1.41-7.64-.94-8.7-.94-8.7l-1.175-9.638,1.763-10.578Z" transform="translate(191.911 -18.925)" fill="#fca310"/>
    <path id="Pfad_912" data-name="Pfad 912" d="M213.065,596.7s-.764,2.194-1.817,5.182c-.489,1.389-1.04,2.951-1.608,4.544-.366,1.03-.737,2.072-1.1,3.09-.583,1.628-1.149,3.191-1.644,4.533-.654,1.771-1.184,3.159-1.468,3.807-1.293,2.938-24.917-1.763-26.8-2.938s-2.351-5.172-2.586-10.813c0-.029,0-.059,0-.088a20.56,20.56,0,0,1,.745-4.825c.242-.994.534-2.062.858-3.17.435-1.487.929-3.045,1.444-4.6,2.217-6.664,4.829-13.178,4.829-13.178s4.584-3.173,6.229-5.289,10.7-3.761,10.7-3.761c2.586.117,8.462,10.108,10.813,13.164S213.065,596.7,213.065,596.7Z" transform="translate(339.775 -223.158)" fill="#13213c"/>
    <circle id="Ellipse_233" data-name="Ellipse 233" cx="1.058" cy="1.058" r="1.058" transform="translate(538.618 353.564)" fill="#2f2e41"/>
    <circle id="Ellipse_234" data-name="Ellipse 234" cx="0.588" cy="0.588" r="0.588" transform="translate(540.734 355.209)" fill="#2f2e41"/>
    <path id="Pfad_913" data-name="Pfad 913" d="M215.176,656.285c-.489,1.389-1.04,2.951-1.608,4.544l-32-10.4c.435-1.487.929-3.045,1.444-4.6Z" transform="translate(335.846 -277.558)" fill="#f2f2f2"/>
    <path id="Pfad_914" data-name="Pfad 914" d="M208.537,682.927c-.583,1.628-1.149,3.191-1.644,4.533l-30.854-10.033a20.56,20.56,0,0,1,.745-4.825Z" transform="translate(339.775 -296.566)" fill="#f2f2f2"/>
    <path id="Pfad_915" data-name="Pfad 915" d="M258.305,599.588s2.351,10.343.94,19.511,3.526,17.748,3.526,17.748" transform="translate(281.371 -244.731)" fill="#fca310" stroke="#fca310" stroke-miterlimit="10" stroke-width="3"/>
    <path id="Pfad_916" data-name="Pfad 916" d="M241.829,602.425s-4.584,16.69-4.7,19.041-2,19.158-4.349,20.921" transform="translate(299.493 -246.745)" fill="#fca310" stroke="#fca310" stroke-miterlimit="10" stroke-width="3"/>
    <path id="Pfad_917" data-name="Pfad 917" d="M307.05,177.677s-1.836-4.773.826-6.333l.734,2.111s6.7-4.039,8.444-3.121l-1.652,2.2s7.8,0,8.353,3.029l-2.754.092s2.937,1.928,3.029,5.048l-5.874.367L321,182.725s-10.647,1.469-13.217-2.754Z" transform="translate(247.204 60.103)" fill="#13213c"/>
    <path id="Pfad_918" data-name="Pfad 918" d="M303.078,190.015s2.116,4.231,4.936,3.173,0-4.936,0-4.936l-1.881-.94Z" transform="translate(249.585 47.954)" fill="#13213c"/>
    <path id="Pfad_919" data-name="Pfad 919" d="M581.733,216.958l-38.362-47.939a12.88,12.88,0,0,1-6.2,3.133,13.6,13.6,0,0,1-15.753-11.016,13.914,13.914,0,0,1,4.8-13.554l-13.081-16.346-74.521,63.69,68.6,85.721Z" transform="translate(153.365 87.763)" fill="#e5e5e5"/>
    <circle id="Ellipse_235" data-name="Ellipse 235" cx="10.815" cy="10.815" r="10.815" transform="translate(676.616 236.007)" fill="#e5e5e5"/>
    <rect id="Rechteck_138" data-name="Rechteck 138" width="5.061" height="14.734" transform="translate(616.451 298.842) rotate(-49.171)" fill="#fca310"/>
    <rect id="Rechteck_139" data-name="Rechteck 139" width="5.061" height="13.06" transform="translate(688.117 367.328) rotate(-49.171)" fill="#fca310"/>
    <g id="Gruppe_4" data-name="Gruppe 4" transform="translate(483.083 140.083)">
      <path id="Ellipse_1" data-name="Ellipse 1" d="M45.417,0A45.417,45.417,0,1,1,0,45.417,45.417,45.417,0,0,1,45.417,0Z" transform="translate(133 148)" fill="#13213c"/>
      <path id="Schnittmenge_1" data-name="Schnittmenge 1" d="M399.611,149.562a1.675,1.675,0,0,0,.25-.13c-.095.183-.19.364-.287.546a.245.245,0,0,1,.037-.416Zm-1.082-.415a2.821,2.821,0,0,1-.933-.422,1.22,1.22,0,0,1-.24-.173.925.925,0,0,1-.18-.433,2.435,2.435,0,0,1-.072-.523,2.686,2.686,0,0,1,.061-.353,1.3,1.3,0,0,1,.093-.4,1.9,1.9,0,0,1,.146-.379l.025-.15a1.109,1.109,0,0,0,.048-.39l-.01-.1a1.053,1.053,0,0,0-.02-.1.879.879,0,0,0-.271-.307,4.029,4.029,0,0,1-.685-.559,1.879,1.879,0,0,1-.325-.811c-.072-.5.018-1.19-.415-1.551h0a.221.221,0,0,1-.091-.163.294.294,0,0,1-.125-.092,3.765,3.765,0,0,1-.559-3.481,7.6,7.6,0,0,0,.667-1.749,2.455,2.455,0,0,0-.559-1.461,6.22,6.22,0,0,1-.776-1.28,3.874,3.874,0,0,1-.18-1.7,4.009,4.009,0,0,0-.144-1.731,1.982,1.982,0,0,0-.866-.938,4.924,4.924,0,0,0-2.922-.433,9.19,9.19,0,0,1-3.715-.035,6.891,6.891,0,0,1-2.651-1.7c-.4-.379-.758-.794-1.118-1.208-.343-.433-.722-.848-1.028-1.317a2.155,2.155,0,0,1-.307-1.623,4.406,4.406,0,0,0,.343-1.659c-.09-.559-.415-1.082-.216-1.641a1.025,1.025,0,0,1,.644-.666,1.166,1.166,0,0,1,.131-.614c.361-.721,1.226-.884,1.858-1.28a3.275,3.275,0,0,0,.848-.721,1.509,1.509,0,0,0,.361-.523.919.919,0,0,0-.018-.541.889.889,0,0,1,.2-.956,1.4,1.4,0,0,1,.866-.2.682.682,0,0,0,.685-.415,1.55,1.55,0,0,0,.072-1.028,3.537,3.537,0,0,1-.09-2.2,1.393,1.393,0,0,1,1.533-.74,3.4,3.4,0,0,0,.866.054c.325-.054.253-.415.253-.7a2.01,2.01,0,0,0-.9-2,1.647,1.647,0,0,0-.815-.083c-.4.026-.8.051-1.079-.332-.4-.559.09-1.263.577-1.587.505-.325,1.335-.4,1.443-1.082a1.358,1.358,0,0,1,.379-.884,1.3,1.3,0,0,1,.794-.325,1.222,1.222,0,0,1,1.19,1.082c.108.559-.018,1.317.415,1.767a1.82,1.82,0,0,0,1.7.216c.361-.09.721-.216,1.082-.343.235-.072.451-.162.685-.234.126-.035.4-.09.451-.216.072-.162-.108-.325-.217-.4a1.828,1.828,0,0,0-.5-.162,4.3,4.3,0,0,1-.938-.271,1.511,1.511,0,0,1-1.046-1.317c0-.757.667-1.244,1.226-1.623.467-.316.941-.637,1.414-.962.1.129.2.258.294.388l-.088.06a.827.827,0,0,1,.166.043q.273.366.539.738v.02a.817.817,0,0,1-.021.176.832.832,0,0,1,.152.117q.119.1.238.212.832,1.2,1.587,2.455a2.936,2.936,0,0,1,.033.622q.095.214.185.43a.785.785,0,0,1,.281.285c.631,1.227,1.262,2.435,1.876,3.661.438.876.879,1.755,1.3,2.644a45.133,45.133,0,0,1,2.39,9.587q-.024.441-.079.882a.8.8,0,0,1,.159.67.9.9,0,0,1,.121.167q.075.777.124,1.561c.011,1.285.016,2.564-.012,3.854-.028,1.562-.1,3.129-.248,4.688A45.132,45.132,0,0,1,402.3,143.8c-.156.369-.315.738-.474,1.111.054-.108-.036.109-.054.144l-.108.271c-.072.162-.126.325-.18.487q-.059.185-.107.373-.245.584-.507,1.16l-.055.026q.006.036.01.073c-.109.238-.22.476-.332.712a.8.8,0,0,1-.212.1.493.493,0,0,1-.1.282.65.65,0,0,1,.1.053c-.081.165-.162.327-.244.491-.043-.071-.173-.053-.265-.027-.18.035-.361.109-.559.144a1.742,1.742,0,0,1-.685-.054Zm-.866-4.044h0a.029.029,0,0,0,0-.007l0,0Zm-.014-.033-.023-.035a.37.37,0,0,0,.023.035Zm-2.322-5.109.023-.088q-.007-.1-.01-.194Q395.328,139.819,395.328,139.96Zm4.921-2.884.022,0-.022,0Zm.286-.574.05-.012a.432.432,0,0,0-.049.012Zm2.141-.142c.023-.128.044-.258.056-.38,0-.036.035-.235.018-.108.018-.108.018-.2.035-.289s.021-.174.031-.26q-.07.52-.139,1.038ZM396,136.07q.029.065.053.131c0-.025.007-.051.012-.075l-.071-.067a.045.045,0,0,1,.007.012Zm2.8-.224c-.016.03-.01.032,0,0Zm.713-.179a.1.1,0,0,0-.011-.016Zm-.185-2.415a.373.373,0,0,0,0-.055.312.312,0,0,0,0,.055Zm1.19-1.22-.018-.007.018.007Zm2.623-1.464.008.02v-.023Zm-.575-.955a.151.151,0,0,0-.065-.047c.02.017.05.032.066.048Zm-.015-.643a.245.245,0,0,0,.03-.025l-.029.025Zm-.912-1.75c.077.012.068.011-.013,0Zm.851-1.159c-.018-.018-.018-.018-.035-.018l-.035-.009a.265.265,0,0,0,.071.027Zm-.939-.79c.035,0,.071.009-.018,0Zm-17.392-2.446h0l0,0s0,0,0,0Zm1.987-.071c.017,0,.025,0,0,0Zm-3.883-.607v.007l.026-.06-.025.052Zm0-.014a.151.151,0,0,0,.008-.039c0-.016,0-.054,0-.085v0l-.01-.03,0-.009q.007.082.006.165Zm.026-.075,0-.022-.005-.012a.244.244,0,0,1,.011.033Zm-.016-.052V122a.07.07,0,0,1-.008-.015.092.092,0,0,1,.009.023Zm-.016-.065v0Zm16.77-2.355a3.119,3.119,0,0,1,1.443.667c.343.271.811.758,1.3.559h0a.208.208,0,0,1,.217.011.755.755,0,0,0,.109-.8,2.46,2.46,0,0,0-.379-.577,2.414,2.414,0,0,0-.469-.487c-.234-.18-.433-.035-.685-.035a.878.878,0,0,1-.613-.271c-.354-.307-.72-.641-1.078-.968a2.961,2.961,0,0,0-.148.426.8.8,0,0,1-.5.487,1.155,1.155,0,0,1-1.209-.7c-.234-.433-.144-1.136-.541-1.479-.234-.217-.577-.234-.811-.433a2.141,2.141,0,0,1-.487-.7c-.126-.234-.271-.541-.541-.631-.2-.072-.307.09-.325.271-.035.5.559.776.9,1.028a1.771,1.771,0,0,1,.829,1.28,1.036,1.036,0,0,1-.721,1.046,1.365,1.365,0,0,1-.829-.18c-.307-.126-.6-.271-.9-.4-.667-.288-1.317-.577-1.966-.866a2.091,2.091,0,0,0-1.7-.2.673.673,0,0,0-.271,1.1,2.081,2.081,0,0,0,1.641.307c.631-.054,1.3-.144,1.948-.144a1.4,1.4,0,0,1,.811.2,2.424,2.424,0,0,1,.524.613,2.1,2.1,0,0,0,1.226.721,7.172,7.172,0,0,0,1.709.1c.173,0,.345-.008.517-.008A5.963,5.963,0,0,1,399.034,119.587Zm-17.06.937a.7.7,0,0,0-.008.208,1.336,1.336,0,0,1,.117-.351,1.524,1.524,0,0,1,.189-.259c-.158.038-.27.256-.3.4Zm.877-.826.044-.021A.075.075,0,0,0,382.85,119.7Zm15.2-1.61.023,0a.218.218,0,0,0,.086-.035.845.845,0,0,1-.11.033Zm-12.907-.5a.747.747,0,0,1,.08,0q.067-.074.131-.151a1.294,1.294,0,0,1,.078-.108c.035-.054.055-.09.09-.144.041-.081.091-.162.137-.243a3.942,3.942,0,0,1-.516.643Zm16.545-.643,0,0-.014-.022Zm-11.284-.937h.061l-.013-.012Zm3.359-1.072v.054a.745.745,0,0,0,.014-.081l0-.025c0,.018-.007.035-.011.052Zm.022-.029,0,.016a1.016,1.016,0,0,1,.068-.317l-.025.009a.559.559,0,0,1-.05.03.853.853,0,0,1-.007.231l0,.015a.959.959,0,0,1,.018-.115.69.69,0,0,0-.013.133Zm.047-.292c-.049.02-.078.039,0,0Zm3.231-.2h0l-.018-.018-.038-.012a.293.293,0,0,0,.056.03Zm-5.388-1.029h-.022C391.657,113.389,391.665,113.388,391.679,113.381Zm-.061-.064h0c-.015,0-.011,0,0,0Zm-1.764-2.458.016,0h-.008Zm.04-.026.03-.015a.034.034,0,0,1,0-.009c-.011.008-.022.017-.033.023Zm7.554-2.1.029-.023a.132.132,0,0,0-.029.023Zm-9.377-2.376c.016.069.016.138.033.208v-.02a1.614,1.614,0,0,1-.03-.2s0,.008,0,.013Zm2.616-1.725,0-.015,0,.015Z" transform="translate(-181.074 64.811)" fill="#fca310"/>
      <path id="Schnittmenge_2" data-name="Schnittmenge 2" d="M39.855,115.7a10.368,10.368,0,0,1-.595-1.281c-.415-.794-1.335-1.028-1.876-1.7a5.285,5.285,0,0,1-.685-2.416,3.115,3.115,0,0,0-.2-.577,3.338,3.338,0,0,0-.4-.487,1.392,1.392,0,0,1-.343-1.209,1.84,1.84,0,0,0-.09-1.317,8.337,8.337,0,0,1-.721-1.046,4.965,4.965,0,0,1-.325-2.453c.126-1.641.65-3.463-.234-5-.794-1.353-2.218-2.164-3.246-3.3a4.979,4.979,0,0,1-1.172-2.11c-.253-1.027-.181-2.11-.47-3.138a5.729,5.729,0,0,1-.433-2.94,1.941,1.941,0,0,1,1.258-1.409c-.758-1.468-2.633-1.967-4.126-2.306a13.706,13.706,0,0,1-2.543-.74,5.565,5.565,0,0,1-1.948-1.407,5.815,5.815,0,0,1-1.136-2.038c-.054-.162-.072-.4-.2-.505a1.152,1.152,0,0,0-.5-.144,6.724,6.724,0,0,1-.974-.307,5.972,5.972,0,0,1-3.207-3.523A45.373,45.373,0,0,1,23.5,60.871q.213-.194.43-.385a1.086,1.086,0,0,1,.025-.15q.843-.977,1.739-1.9.672-.617,1.371-1.2c.432-.358.882-.754,1.353-1.12a.211.211,0,0,1,.074-.213,18.281,18.281,0,0,1,1.984-1.155,4.707,4.707,0,0,1,4.22-.18,3.726,3.726,0,0,0,1.01.487,5.256,5.256,0,0,0,1.19.018,15.2,15.2,0,0,1,2.4.035,5.14,5.14,0,0,1,3.589,1.767,3.11,3.11,0,0,1,.649,1.749,6.529,6.529,0,0,1-.289,1.948,7.441,7.441,0,0,0-.307,1.894,2.356,2.356,0,0,0,.721,1.551,5.777,5.777,0,0,1,1.082,1.3,1.768,1.768,0,0,1,.162.811,1.177,1.177,0,0,0-.035.433c.054.144.252.144.361.2a1.084,1.084,0,0,1,.343,1.461A2.838,2.838,0,0,1,43.948,69.3l-2.381.974a18.839,18.839,0,0,0-2.146.938,5.646,5.646,0,0,0-1.7,1.443c-.505.613-1.028,1.208-1.587,1.767-.577.559-1.172,1.1-1.785,1.641a4.165,4.165,0,0,1-1.821,1.19,6.317,6.317,0,0,1-2.309-.361A5.2,5.2,0,0,0,27.806,77c-.4.126-1.245.6-.9,1.136.216.324.811.289,1.154.307a2.294,2.294,0,0,1,1.425.378,2,2,0,0,1,.541,1.443,2.437,2.437,0,0,0,.144.721c.126.271.415.325.667.433a1.7,1.7,0,0,1,.721.7,2.993,2.993,0,0,0,.631.631,2.948,2.948,0,0,0,1.677.541,3.619,3.619,0,0,0,1.8-.577,3.11,3.11,0,0,1,.992-.361,5.392,5.392,0,0,1,1.208.054c.811.09,1.64.126,2.434.271a1.408,1.408,0,0,1,.829.451,2.567,2.567,0,0,1,.415.794,1.991,1.991,0,0,0,.469.74,2.385,2.385,0,0,0,.758.415,4.722,4.722,0,0,1,1.587.811,4.2,4.2,0,0,1,.9,1.389,4.694,4.694,0,0,0,.848,1.371,2.52,2.52,0,0,0,1.894.469,4.7,4.7,0,0,1,2.056.325,3.8,3.8,0,0,1,1.482,1.217,2.375,2.375,0,0,1,.555,3.1,2.49,2.49,0,0,0-.253.487,2.206,2.206,0,0,0-.035.487,1.125,1.125,0,0,1-.307.848,3.845,3.845,0,0,1-.758.415.752.752,0,0,0-.288.7c.035.7.542,1.263.577,1.966a1.727,1.727,0,0,1-.956,1.5,8.486,8.486,0,0,1-2.11.559,1.4,1.4,0,0,0-.884.523,1.676,1.676,0,0,0-.217.829,11.747,11.747,0,0,1-.035,1.786,1.615,1.615,0,0,1-.884,1.24.182.182,0,0,0,0,.02,3.369,3.369,0,0,1,.144,1.263,1.036,1.036,0,0,1-.992.685,3.948,3.948,0,0,0-2.164.866,2.057,2.057,0,0,0-.234,2.489,13.667,13.667,0,0,1,1.334,2.669,2.222,2.222,0,0,1-.631,2.182,3.709,3.709,0,0,1-1.245.469c-.432.162-.7.6-1.208.6A1.429,1.429,0,0,1,39.855,115.7Zm1.117.092a.458.458,0,0,0,.208-.033c-.049,0-.1,0-.146,0a1.927,1.927,0,0,1-.2-.01.885.885,0,0,0,.134.038Zm-4.6-7.82,0-.005a.524.524,0,0,0,.049-.342c-.016.116-.036.232-.052.347Zm9.154-1.58a.393.393,0,0,0,.1-.215,1.146,1.146,0,0,1-.1.215Zm-1.279-3.871a.888.888,0,0,1,.032.092l.035-.04q.018-.134.038-.267-.049.109-.1.216Zm-.588-8.766.093-.116q-.1,0-.2-.018a1.028,1.028,0,0,1,.109.134Z" transform="translate(120.077 103.411)" fill="#fca310"/>
      <path id="Schnittmenge_3" data-name="Schnittmenge 3" d="M3.261,58.57l.015,0a.642.642,0,0,0,.18-.035l.017,0,.019-.015c.018,0,.162-.125.072-.035l.054-.054.029-.024.006-.011c.018-.036.055-.073.072-.108a.755.755,0,0,0,.055-.113c-.022.039.039-.094.053-.122a1.63,1.63,0,0,0,.108-.4l.012-.069c-.025.078.006-.111.006-.111.018-.27.018-.541.035-.811a4.048,4.048,0,0,1,.433-1.84,1.179,1.179,0,0,1,1.19-.7,5.151,5.151,0,0,1,.9.253,11.323,11.323,0,0,1,1.8.92c.541.325,1.064.685,1.623,1.01a6.132,6.132,0,0,0,1.66.7,2.8,2.8,0,0,0,1.587,0c.035-.019.315-.14.153-.058.035-.018.085-.034.118-.05a3.347,3.347,0,0,0,.343-.2c.034-.017.067-.049.1-.068l.043-.04a3.153,3.153,0,0,0,.253-.216c.09-.108.2-.216.288-.325.027-.027.054-.063.08-.1s.055-.077.063-.085l.379-.6c.271-.469.505-.938.74-1.407a10.561,10.561,0,0,1,.794-1.479,2.556,2.556,0,0,1,1.84-1.028l.379-.054c-.162.018.091-.018.108-.018.126-.035.252-.055.379-.09.072-.018.144-.055.216-.072.144-.054.053-.018.018,0a1.81,1.81,0,0,0,.415-.217.741.741,0,0,0,.2-.126c-.126.09.072-.072.072-.072l.271-.271c.018,0,.162-.2.072-.072.035-.035.055-.091.09-.126.09-.144.162-.271.234-.415a4.108,4.108,0,0,1,1.118-1.587,5.568,5.568,0,0,1,.794-.433c.072-.036.144-.091.216-.126l.053-.032.019-.022.09-.09.011-.011c0-.01.013-.024.025-.044a3.535,3.535,0,0,0,.2-.361c-.091.162.018-.055.018-.072a.87.87,0,0,0,.054-.126c.09-.253.144-.523.216-.776a6.37,6.37,0,0,1,.6-1.641,5.088,5.088,0,0,1,2.759-2.291,5.327,5.327,0,0,1,1.767-.271c.108,0,.216-.018.325-.018l.037,0,.109-.029c.03-.02.084-.053.107-.065a1.2,1.2,0,0,0,.106-.172.972.972,0,0,0,.063-.116l.045-.137a8.044,8.044,0,0,0,.415-1.8,15.32,15.32,0,0,0,.035-2.038c-.054-1.371-.216-2.742-.18-4.112a12.461,12.461,0,0,1,.721-3.986,45.894,45.894,0,0,1,3.715-7.106A24.406,24.406,0,0,0,35.949,18.8a10.425,10.425,0,0,0,.649-3.751c0-.18-.018-.379-.035-.577,0-.072-.018-.126-.018-.2,0,0-.035-.271-.018-.108-.036-.288-.072-.558-.126-.829-.108-.668-.234-1.335-.307-2a5.151,5.151,0,0,1,.721-3.607h0a.8.8,0,0,1,1.118-.271.824.824,0,0,1,.289,1.118l-.216.325a1.984,1.984,0,0,0-.108.2c-.054.144-.018.053,0,.018a3.44,3.44,0,0,0-.2.74c.035-.162,0,.055,0,.09a1.018,1.018,0,0,0-.018.234v.4a5.4,5.4,0,0,0,.054.776,1.327,1.327,0,0,0,.018.162c0,.054.018.108.018.162.018.144.055.271.072.415.054.27.09.558.144.829a12.022,12.022,0,0,1,.18,3.679,19.2,19.2,0,0,1-2.8,7.142c-.613,1.046-1.245,2.092-1.84,3.156-.288.541-.576,1.082-.829,1.641a15.094,15.094,0,0,0-.613,1.533,11.8,11.8,0,0,0-.469,1.786,1.4,1.4,0,0,1-.035.271c-.007.038-.013.064-.017.081a.031.031,0,0,1,0,.01c-.019.144-.037.307-.054.451-.018.289-.035.577-.035.866-.018,1.262.126,2.525.18,3.787a12.878,12.878,0,0,1-.289,3.806,3.946,3.946,0,0,1-.794,1.767,2.335,2.335,0,0,1-1.858.631c-.162,0-.307.018-.469.018-.054.018-.126.018-.18.035-.217.054-.451.126-.668.2-.083.033-.089.035-.032.007-.035.016-.08.031-.112.047s-.091.055-.126.072a2.934,2.934,0,0,0-.325.18l-.162.108c-.018.035-.144.125-.035.035a1.82,1.82,0,0,0-.289.234,2.183,2.183,0,0,0-.288.289.9.9,0,0,0-.126.144c.09-.109.018,0,0,.018a4.5,4.5,0,0,0-.379.631c-.035.09-.035.09,0,.018-.018.035-.018.073-.035.108l-.054.162c-.036.108-.073.234-.108.343-.054.234-.126.469-.18.7a4.506,4.506,0,0,1-.594,1.424,2.41,2.41,0,0,1-.74.74c-.216.144-.469.234-.7.361a1.154,1.154,0,0,0-.236.132l-.034.03c0,.018-.162.2-.072.072a.545.545,0,0,0-.09.126c-.126.234-.234.469-.343.7a4.3,4.3,0,0,1-1.01,1.389,4.257,4.257,0,0,1-1.605.884,5.572,5.572,0,0,1-.956.162c-.056.012-.052.014-.033.012l-.039.005c-.054.018-.108.018-.162.035a2.987,2.987,0,0,0-.345.1c.069-.021-.11.068-.141.084a.091.091,0,0,1-.024.016l-.03.038c-.035.054-.072.108-.162.253-.126.216-.234.433-.343.649-.217.415-.433.848-.649,1.28a7.338,7.338,0,0,1-1.749,2.381,4.2,4.2,0,0,1-3.463.884,9.053,9.053,0,0,1-3.373-1.515c-.487-.307-.974-.631-1.5-.9-.162-.09-.307-.162-.469-.234l-.054-.027c.01.007.007.008-.035-.008-.072-.018-.126-.054-.2-.072-.087-.034-.175-.066-.263-.094a.109.109,0,0,0-.006.022,2.612,2.612,0,0,0-.09.361c-.014.043-.005.075,0,.04,0,.053-.016.1-.016.159-.054.5-.036,1.028-.108,1.533a2.452,2.452,0,0,1-1.8,2.218,1.286,1.286,0,0,1-.173.016Q3.385,59.357,3.261,58.57Zm24.99-15.024c-.017,0-.162.018,0,0Zm1.1-1.716-.016.022.017-.022Zm-.034.022.024-.015Zm.035-.023Zm0,0,.007,0c.008-.007.011-.01.01-.01a.055.055,0,0,0-.017.014ZM5.639,56.169a.344.344,0,0,1,0,.04C5.638,56.2,5.639,56.183,5.639,56.169Zm13.126-3.256-.031,0C18.815,52.9,18.794,52.909,18.764,52.913Z" transform="translate(130.293 141.961)" fill="#e5e5e5"/>
      <path id="Schnittmenge_4" data-name="Schnittmenge 4" d="M367.309,181.367a2.517,2.517,0,0,1,.379-2.958c.307-.4.667-.722.992-1.1a3.183,3.183,0,0,0,.289-.415l.009-.014a5.311,5.311,0,0,0-1.019-.418c-1.1-.361-2.272-.505-3.373-.9a5.756,5.756,0,0,1-2.868-2,4.614,4.614,0,0,1-.523-3.679,15.934,15.934,0,0,1,.541-1.8c.108-.325.234-.667.343-.992a3.915,3.915,0,0,0,.2-.758.96.96,0,0,0-.234-.577c-.144-.216-.325-.433-.487-.667a4.037,4.037,0,0,1-.649-1.84,3.968,3.968,0,0,1,.234-1.84,5.3,5.3,0,0,0,.307-.9,1.631,1.631,0,0,0-.108-.613,3.135,3.135,0,0,1-.108-1.948,7.267,7.267,0,0,1,.829-1.623,3.6,3.6,0,0,0,.523-2.723,3.211,3.211,0,0,0-.606-1.325c-.026-.033-.086-.106-.1-.118l-.162-.162c-.09-.108-.2-.2-.289-.307a2.827,2.827,0,0,1-.541-.848,2.617,2.617,0,0,1,.361-2.092,10.59,10.59,0,0,1,.938-1.407c1.353-1.714,3.192-2.922,4.707-4.473,3.318-3.409,3.517-8.459,5.194-12.733a12.744,12.744,0,0,1,4.04-5.7c.4-.307.811-.577,1.226-.866.235-.162.451-.325.685-.487.234-.18.234-.18.451-.361.2-.162.379-.343.559-.523.072-.072.144-.162.216-.234,0,.008.03-.024.058-.056l.035-.04c.018-.025.043-.058.051-.066.072-.126.144-.234.216-.361.013-.027.076-.161.086-.179a2.949,2.949,0,0,0,.167-.65h0a.805.805,0,0,1,1.064-.523.856.856,0,0,1,.082.028q.249.4.492.8a1.117,1.117,0,0,1-.015.165,4.054,4.054,0,0,1-.6,1.479,9.146,9.146,0,0,1-2.489,2.291,14.044,14.044,0,0,0-2.543,2.038,15.405,15.405,0,0,0-3.066,6.312,48.662,48.662,0,0,1-2.381,7.413,13.3,13.3,0,0,1-2.129,3.157,32.063,32.063,0,0,1-2.579,2.363c-.451.379-.884.776-1.317,1.19-.216.2-.415.415-.613.631-.09.09-.163.18-.253.288-.054.054-.09.108-.144.162,0,0-.09.107-.035.035a6.407,6.407,0,0,0-.866,1.425.822.822,0,0,0-.09.415c0-.054.035.072.035.072-.054-.09.036.072.054.09l.019.027.053.064a1.03,1.03,0,0,0,.126.144l.325.325a5.035,5.035,0,0,1,1.262,3.517,4.832,4.832,0,0,1-.433,1.876c-.252.559-.631,1.064-.92,1.623a1.558,1.558,0,0,0-.126.307l-.054.216c0,.035-.018.216-.018.09a1.273,1.273,0,0,0,.018.289,1.956,1.956,0,0,0,.126.433,3.033,3.033,0,0,1-.035,2.146,3.394,3.394,0,0,0-.325,1.623,3.038,3.038,0,0,0,.74,1.551,2.558,2.558,0,0,1,.6,2.02,11.19,11.19,0,0,1-.6,1.912c-.4,1.173-.866,2.471-.433,3.607a3.539,3.539,0,0,0,2.2,1.786c1.19.433,2.471.577,3.661.992a10.012,10.012,0,0,1,1.01.433c.343.162.794.379.938.74a2.242,2.242,0,0,1-.559,2c-.216.271-.451.523-.685.776-.108.108-.2.216-.306.325-.036.054-.073.09-.108.144.055-.072-.035.054-.035.054a2.436,2.436,0,0,0-.271.469c.018-.054.018-.072-.018.054l-.054.217c0,.011,0,.018,0,.023s0,.029,0,.049a.1.1,0,0,0,0,.018.731.731,0,0,1,.025.073c0,.013.008.027.011.038a.66.66,0,0,1,.047.068.319.319,0,0,1,.041.073.813.813,0,0,1-.087.941l-.348.242a.836.836,0,0,1-.972-.353Z" transform="translate(-164.15 49.138)" fill="#e5e5e5"/>
    </g>
    <path id="Pfad_921" data-name="Pfad 921" d="M535.342,493.95A55.842,55.842,0,0,1,494.4,400.132l1.237,1.148a54.155,54.155,0,0,0,78.583,74.528l1.211,1.174a55.4,55.4,0,0,1-40.089,16.967Z" transform="translate(124.339 -103.133)" fill="#fca310"/>
    <rect id="Rechteck_140" data-name="Rechteck 140" width="14.171" height="14.171" transform="translate(653.608 389.636)" fill="#fca310"/>
    <line id="Linie_13" data-name="Linie 13" x2="257.586" transform="translate(510 403.766)" fill="none" stroke="#3f3d56" stroke-miterlimit="10" stroke-width="2"/>
    <circle id="Ellipse_236" data-name="Ellipse 236" cx="4.28" cy="4.28" r="4.28" transform="translate(611.989 233.653)" fill="none" stroke="#fca310" stroke-miterlimit="10" stroke-width="2"/>
    <circle id="Ellipse_237" data-name="Ellipse 237" cx="4.28" cy="4.28" r="4.28" transform="translate(738.462 315.164)" fill="none" stroke="#fca310" stroke-miterlimit="10" stroke-width="2"/>
    <circle id="Ellipse_238" data-name="Ellipse 238" cx="4.28" cy="4.28" r="4.28" transform="translate(709.242 272.523)" fill="none" stroke="#fca310" stroke-miterlimit="10" stroke-width="2"/>
  </g>
</svg>
