<svg xmlns="http://www.w3.org/2000/svg" width="894.134" height="766.609" viewBox="0 0 894.134 766.609">
  <g id="Gruppe_12" data-name="Gruppe 12" transform="translate(0 0)">
    <path id="Pfad_785" data-name="Pfad 785" d="M371.466,566.515l-1.678-1.09a53.248,53.248,0,0,0-8.76-68.317c-.81-.739-1.646-1.457-2.481-2.175a40.419,40.419,0,0,1-6.6-6.629c-2.371-3.253-4.173-8.3-2.124-12.727l1.814.842c-1.685,3.634-.11,7.914,1.925,10.707a38.336,38.336,0,0,0,6.288,6.289c.851.731,1.7,1.462,2.527,2.216a55.25,55.25,0,0,1,9.089,70.884Z" transform="translate(-152.933 -66.696)" fill="#fca310" opacity="0.314"/>
    <path id="Pfad_786" data-name="Pfad 786" d="M1011.866,806.159l-1.678-1.09a53.248,53.248,0,0,0-8.759-68.316c-.812-.741-1.649-1.46-2.486-2.179a40.447,40.447,0,0,1-6.6-6.625c-2.37-3.253-4.173-8.3-2.123-12.727l1.814.842c-1.685,3.635-.11,7.914,1.926,10.708a38.323,38.323,0,0,0,6.283,6.285c.852.732,1.705,1.465,2.532,2.22a55.247,55.247,0,0,1,9.088,70.883Z" transform="translate(-152.933 -66.696)" fill="#fca310" opacity="0.314"/>
    <path id="Pfad_787" data-name="Pfad 787" d="M643.085,748.706A102.2,102.2,0,0,0,524.2,690.9c-2.027.52-4.087,1.114-6.079,1.688-5.56,1.605-11.308,3.265-17.221,3.558-7.387.36-16.962-1.93-21.653-9.468l1.7-1.057c4.233,6.8,13.038,8.867,19.856,8.526,5.68-.281,11.315-1.908,16.765-3.48,2.006-.579,4.081-1.179,6.138-1.705A104.2,104.2,0,0,1,644.915,747.9Z" transform="translate(-152.933 -66.696)" fill="#575a89"/>
    <path id="Pfad_788" data-name="Pfad 788" d="M644.833,368.34l-1.967-.363A102.2,102.2,0,0,0,577.107,253.3c-1.968-.711-4.006-1.379-5.976-2.024-5.5-1.8-11.185-3.664-16.238-6.749-6.317-3.856-12.937-11.137-12.574-20.009l2,.082c-.328,8,5.787,14.661,11.618,18.22,4.854,2.963,10.428,4.789,15.818,6.555,1.984.65,4.037,1.322,6.033,2.044A104.2,104.2,0,0,1,644.833,368.34Z" transform="translate(-152.933 -66.696)" fill="#575a89"/>
    <path id="Pfad_789" data-name="Pfad 789" d="M394.585,458.238c-8.434,15.557-24.421,22.549-37.471,17.193-.185-.073-.372-.152-.553-.233l-.208.721a.527.527,0,0,1-.027.08,2.794,2.794,0,0,1-4.276,1.535l-3.346-2.2a3.376,3.376,0,0,1-.856-4.811l.048-.06.561-.717.125-.162c-9.85-10.246-11.571-28.527-3.332-43.723,9.348-17.242,27.967-23.972,41.593-15.031S403.933,441,394.585,458.238Z" transform="translate(-152.933 -66.696)" fill="#fca310" opacity="0.314"/>
    <ellipse id="Ellipse_187" data-name="Ellipse 187" cx="8.538" cy="3.091" rx="8.538" ry="3.091" transform="translate(200.242 351.446) rotate(-30.313)" fill="#fff" opacity="0.2"/>
    <path id="Pfad_790" data-name="Pfad 790" d="M356.353,475.919a.527.527,0,0,1-.027.08l-8.43-5.531.561-.717,8.657,5.681c-.185-.073-.372-.152-.553-.233Z" transform="translate(-152.933 -66.696)" fill="#575a89"/>
    <ellipse id="Ellipse_188" data-name="Ellipse 188" cx="447.067" cy="28.061" rx="447.067" ry="28.061" transform="translate(0 710.486)" fill="#fca310" opacity="0.314"/>
    <path id="Pfad_791" data-name="Pfad 791" d="M733.2,684.585l1.1,20.894,23.092-2.2-2.2-20.893Z" fill="#fbbebe"/>
    <path id="Pfad_792" data-name="Pfad 792" d="M644.126,660.393l1.1,20.893,23.092-2.2-2.2-20.893Z" fill="#fbbebe"/>
    <path id="Pfad_793" data-name="Pfad 793" d="M902.076,467.02l-83.574,14.3L813,633.068l-21.993,96.77,35.189,15.4,34.089-95.67,12.1-84.673,8.8,84.673,1.1,106.667,53.883-3.3L923.283,544.052a194.329,194.329,0,0,0-21.207-77.032Z" transform="translate(-152.933 -66.696)" fill="#13213c"/>
    <path id="Pfad_794" data-name="Pfad 794" d="M889.43,764.477s-7.7-8.8-7.7-5.5-4.4,35.189-4.4,35.189,29.691,8.8,29.691,14.3,42.887,14.3,41.787,3.3-38.488-52.783-38.488-52.783S894.928,756.779,889.43,764.477Z" transform="translate(-152.933 -66.696)" fill="#13213c"/>
    <path id="Pfad_795" data-name="Pfad 795" d="M801.7,740.417s-2.344-11.452-3.974-8.584-21.215,28.417-21.215,28.417,21.463,22.321,18.746,27.1,30.218,33.623,34.7,23.52-7.372-64.908-7.372-64.908S810.28,736.443,801.7,740.417Z" transform="translate(-152.933 -66.696)" fill="#13213c"/>
    <path id="Pfad_796" data-name="Pfad 796" d="M647.077,279.1l60.88,5.821,20.293-55.3-58.282-14.039Z" fill="#2f2e41"/>
    <circle id="Ellipse_189" data-name="Ellipse 189" cx="30.79" cy="30.79" r="30.79" transform="translate(666.119 206.236)" fill="#fbbebe"/>
    <path id="Pfad_797" data-name="Pfad 797" d="M832.248,322.416s0,20.893-16.495,29.691S855.341,370.8,855.341,370.8l5.5-18.694s-16.495-7.7-2.2-25.292Z" transform="translate(-152.933 -66.696)" fill="#fbbebe"/>
    <path id="Pfad_798" data-name="Pfad 798" d="M858.64,346.608s-20.14,12.475-37.011,1.289l-6.975-1.289-20.893,4.4-9.9,37.388,37.388,93.471s64.88,11,78.076-13.2l-7.7-98.969-20.893-25.292Z" transform="translate(-152.933 -66.696)" fill="#575a89"/>
    <path id="Pfad_799" data-name="Pfad 799" d="M715.6,281.012l36.288-50.584-3.3-5.5-47.285-24.193v-15.4l73.677,19.794,4.985,7.9L736.5,307.4Z" fill="#575a89"/>
    <path id="Pfad_800" data-name="Pfad 800" d="M643.026,285.411l-2.2-1.1-54.983-2.2,41.787-36.289-13.2-16.495-62.68,47.285v11L640.827,325Z" fill="#575a89"/>
    <path id="Pfad_801" data-name="Pfad 801" d="M766.819,300.972l7.7-4.4s16.495-21.993,23.093-13.2-15.4,25.292-15.4,25.292l-12.1,4.4Z" transform="translate(-152.933 -66.696)" fill="#fbbebe"/>
    <path id="Pfad_802" data-name="Pfad 802" d="M857.54,255.337l-12.1-6.6s-36.289,3.3-31.89,11,29.691,1.1,29.691,1.1l14.3,4.4Z" transform="translate(-152.933 -66.696)" fill="#fbbebe"/>
    <path id="Pfad_803" data-name="Pfad 803" d="M826.205,274s-14.134,4.711-14.852,23.317a33,33,0,0,0,.981,8.835c.8,3.373,1.307,10.63-4.86,20.114a199.128,199.128,0,0,0-11.3,19.438l-.044.088,15.523,1.94,3.3-25.73a128.125,128.125,0,0,1,10.174-36.122l.107-.24s6.791,12.612,20.374,12.612l-4.851-4.851s21.344,8.732,29.105,8.732c0,0,5.821,3.881,0,9.7s-17.463,19.4-10.672,30.076.97,13.582.97,13.582l10.672-5.821,4.851-2.911v3.881l25.225-2.911s6.791-.97-7.761-17.463c0,0-3.843-6.4-2.162-11.929a27.864,27.864,0,0,0,1.059-13.031C888.785,287.127,875.994,250.967,826.205,274Z" transform="translate(-152.933 -66.696)" fill="#13213c"/>
    <path id="Pfad_804" data-name="Pfad 804" d="M650.918,777.42c-.12-.2-2.952-4.924-3.933-14.742-.9-9.008-.321-24.19,7.553-45.369,14.917-40.122-3.438-72.495-3.625-72.817l.906-.525a80.358,80.358,0,0,1,7.582,21.478,93.7,93.7,0,0,1-3.881,52.229c-14.892,40.053-3.82,59.014-3.707,59.2Z" transform="translate(-152.933 -66.696)" fill="#fca310" opacity="0.314"/>
    <circle id="Ellipse_190" data-name="Ellipse 190" cx="6.803" cy="6.803" r="6.803" transform="translate(485.349 561.834)" fill="#fca310" opacity="0.314"/>
    <circle id="Ellipse_191" data-name="Ellipse 191" cx="6.803" cy="6.803" r="6.803" transform="translate(506.804 586.953)" fill="#fca310" opacity="0.314"/>
    <circle id="Ellipse_192" data-name="Ellipse 192" cx="6.803" cy="6.803" r="6.803" transform="translate(492.152 603.698)" fill="#fca310" opacity="0.314"/>
    <circle id="Ellipse_193" data-name="Ellipse 193" cx="6.803" cy="6.803" r="6.803" transform="translate(509.944 617.828)" fill="#fca310" opacity="0.314"/>
    <circle id="Ellipse_194" data-name="Ellipse 194" cx="6.803" cy="6.803" r="6.803" transform="translate(486.919 639.806)" fill="#fca310" opacity="0.314"/>
    <path id="Pfad_805" data-name="Pfad 805" d="M655.028,777.671s-6.8-16.746,13.606-29.3Z" transform="translate(-152.933 -66.696)" fill="#fca310" opacity="0.314"/>
    <path id="Pfad_806" data-name="Pfad 806" d="M646.661,777.367s-3.1-17.808-27.059-17.655Z" transform="translate(-152.933 -66.696)" fill="#fca310" opacity="0.314"/>
    <path id="Pfad_807" data-name="Pfad 807" d="M244.861,592.316l6,45s-19,56,1,110l7,39h26l3-13s-12-10-12-33l10-103,2-53Z" transform="translate(-152.933 -66.696)" fill="#a0616a"/>
    <path id="Pfad_808" data-name="Pfad 808" d="M267.861,782.316s-10-6-11,0-13,34-2,34,29-5,29-5,11-8,24-8,16-16,14-20-7-10-12-9a66.12,66.12,0,0,1-11,1l-15.786-7.848S280.861,783.316,267.861,782.316Z" transform="translate(-152.933 -66.696)" fill="#13213c"/>
    <path id="Pfad_809" data-name="Pfad 809" d="M308.669,583.489l25.9,37.283s8.7,58.493,51.165,97.382l24.051,31.489,23.125-11.883-3.273-12.934s-15.244-3.41-25.756-23.867L365.7,604.775l-22.445-48.055Z" transform="translate(-152.933 -66.696)" fill="#a0616a"/>
    <path id="Pfad_810" data-name="Pfad 810" d="M415.965,741.971s-11.637-.766-9.784,5.028,3.977,36.183,13.761,31.155,23.509-17.7,23.509-17.7,6.127-12.143,17.69-18.085,6.918-21.544,3.311-24.187-10.8-5.7-14.787-2.52a66.114,66.114,0,0,1-9.327,5.917l-17.627.235S427.985,736.919,415.965,741.971Z" transform="translate(-152.933 -66.696)" fill="#13213c"/>
    <circle id="Ellipse_195" data-name="Ellipse 195" cx="28" cy="28" r="28" transform="translate(94.428 199.121)" fill="#a0616a"/>
    <path id="Pfad_811" data-name="Pfad 811" d="M100.928,239.621l-23,31,28,10,13-29Z" fill="#a0616a"/>
    <path id="Pfad_812" data-name="Pfad 812" d="M294.861,348.316l-1.152-1.063a34.71,34.71,0,0,0-27.848-8.937h0s1.7-13.51-26.65-12.255l-13.35,11.255s-18.5,18.5-13.5,46.5,5.5,98.5,5.5,98.5l15,123s113-5,134-51l-64-134Z" transform="translate(-152.933 -66.696)" fill="#13213c"/>
    <path id="Pfad_813" data-name="Pfad 813" d="M268.861,378.316l11,60,46,76s0,36,19,32-2-37-2-37l-41-81-8-50Z" transform="translate(-152.933 -66.696)" fill="#a0616a"/>
    <path id="Pfad_814" data-name="Pfad 814" d="M112.928,286.621l2,34,31-3.045-5-33.955Z" fill="#2f2e41"/>
    <path id="Pfad_815" data-name="Pfad 815" d="M304.808,285.755s16.521-31.782-22.461-33.672c0,0-23.294-13.744-42.944,14.492L219.1,296.281l4.849-.717.373,4.81,5.941,4.061L235.1,299.9l-1.122,7.253,51.683,25.025s-18.814-23.022-9.854-48.628l2.8,6.515Z" transform="translate(-152.933 -66.696)" fill="#13213c"/>
    <path id="Pfad_816" data-name="Pfad 816" d="M579.516,609.412c-11.536,43.731-47.357,73.054-83.459,70.642-.51-.026-1.029-.067-1.534-.116l-.075,1.881a1.313,1.313,0,0,1-.02.211,7.81,7.81,0,0,1-9.788,7.045l-9.766-2.576a7.814,7.814,0,0,1-5.135-10.777l.084-.182.965-2.152L471,672.9c-31.1-16.591-46.761-58.76-35.492-101.479,12.785-48.468,55.382-79.252,95.153-68.761S592.3,560.945,579.516,609.412Z" transform="translate(-152.933 -66.696)" fill="#fca310"/>
    <ellipse id="Ellipse_196" data-name="Ellipse 196" cx="22.592" cy="7.563" rx="22.592" ry="7.563" transform="translate(297.83 479.776) rotate(-45.222)" fill="#fff" opacity="0.2"/>
    <path id="Pfad_817" data-name="Pfad 817" d="M494.448,681.82a1.314,1.314,0,0,1-.02.211l-24.605-6.491.965-2.152,25.269,6.666c-.51-.026-1.029-.067-1.534-.116Z" transform="translate(-152.933 -66.696)" fill="#575a89"/>
    <path id="Pfad_818" data-name="Pfad 818" d="M779.439,166.482c34.658,23.821,48.451,63.5,34.185,93.192-.195.422-.405.847-.618,1.257l1.633.669a1.263,1.263,0,0,1,.18.085,6.913,6.913,0,0,1,2.916,10.53l-5.554,7.412a7.578,7.578,0,0,1-11.224.863l-.132-.13-1.572-1.507-.356-.336c-25.079,20.9-67.507,20.54-101.363-2.73-38.412-26.4-51.215-72.268-28.595-102.455S741.027,140.081,779.439,166.482Z" transform="translate(-152.933 -66.696)" fill="#fca310"/>
    <ellipse id="Ellipse_197" data-name="Ellipse 197" cx="7.079" cy="20.566" rx="7.079" ry="20.566" transform="matrix(0.902, -0.431, 0.431, 0.902, 510.211, 151.265)" fill="#fff" opacity="0.2"/>
    <path id="Pfad_819" data-name="Pfad 819" d="M814.639,261.6a1.26,1.26,0,0,1,.18.085l-13.995,18.676-1.572-1.507,14.372-19.18c-.195.422-.405.847-.618,1.257Z" transform="translate(-152.933 -66.696)" fill="#575a89"/>
    <path id="Pfad_820" data-name="Pfad 820" d="M564.609,114.8c20.921,36.427,16.2,78.12-9.477,98.7-.358.3-.731.588-1.1.865l1.181,1.308a1.256,1.256,0,0,1,.125.154,6.905,6.905,0,0,1-1.923,10.744l-8.2,4.276a7.57,7.57,0,0,1-10.481-4.072l-.063-.174-.765-2.037-.176-.456c-31.617,7.99-69.671-10.668-90.108-46.252-23.187-40.373-14.9-87.212,18.513-104.625S541.422,74.425,564.609,114.8Z" transform="translate(-152.933 -66.696)" fill="#fca310"/>
    <ellipse id="Ellipse_198" data-name="Ellipse 198" cx="20.543" cy="7.071" rx="20.543" ry="7.071" transform="translate(284.627 85.303) rotate(-89.897)" fill="#fff" opacity="0.2"/>
    <path id="Pfad_821" data-name="Pfad 821" d="M555.214,215.669a1.257,1.257,0,0,1,.125.154L534.667,226.6l-.765-2.037,21.23-11.064c-.358.3-.731.588-1.1.865Z" transform="translate(-152.933 -66.696)" fill="#575a89"/>
    <path id="Pfad_822" data-name="Pfad 822" d="M1037.026,700.262c-8.3,15.317-24.046,22.2-36.895,16.928-.182-.072-.366-.15-.545-.229l-.2.71a.525.525,0,0,1-.027.078,2.751,2.751,0,0,1-4.21,1.511l-3.294-2.162a3.324,3.324,0,0,1-.843-4.737l.048-.06.552-.706.123-.16c-9.7-10.088-11.393-28.088-3.281-43.05,9.2-16.977,27.537-23.6,40.953-14.8S1046.23,683.286,1037.026,700.262Z" transform="translate(-152.933 -66.696)" fill="#fca310" opacity="0.314"/>
    <ellipse id="Ellipse_199" data-name="Ellipse 199" cx="8.407" cy="3.044" rx="8.407" ry="3.044" transform="translate(843.323 594.089) rotate(-30.313)" fill="#fff" opacity="0.2"/>
    <path id="Pfad_823" data-name="Pfad 823" d="M999.383,717.671a.525.525,0,0,1-.027.078l-8.3-5.446.552-.706,8.524,5.593c-.182-.072-.366-.15-.545-.229Z" transform="translate(-152.933 -66.696)" fill="#575a89"/>
  </g>
</svg>
