<svg id="Gruppe_1" data-name="Gruppe 1" xmlns="http://www.w3.org/2000/svg" width="832" height="690.689" viewBox="0 0 832 690.689">
  <ellipse id="Ellipse_1" data-name="Ellipse 1" cx="416" cy="24" rx="416" ry="24" transform="translate(0 642.689)" fill="rgba(49,49,49,0.13)"/>
  <path id="Pfad_1" data-name="Pfad 1" d="M838.124,336.988s-12.4-4.429-20.375,13.288-20.375,37.206-20.375,37.206l7.087,1.772s1.772-12.4,6.2-14.174l-1.772,15.946s53.152,18.6,77.07-1.772l-.886-6.2s3.543.886,3.543,6.2l2.658-2.658s-2.658-5.315-10.63-12.4c-5.233-4.652-7.031-13.5-7.649-19.034a23.033,23.033,0,0,0-5.3-12.543C862.4,336.477,852.741,329.95,838.124,336.988Z" transform="translate(-184 -104.655)" fill="#2f2e41"/>
  <path id="Pfad_2" data-name="Pfad 2" d="M581.286,384.321l11.6,14.761,7.38-8.435L593.938,380.1Z" fill="#fbbebe"/>
  <path id="Pfad_3" data-name="Pfad 3" d="M577.069,611l-4.217,22.14L583.4,638.41l7.38-5.272V611Z" fill="#fbbebe"/>
  <path id="Pfad_4" data-name="Pfad 4" d="M650.87,611l4.218,22.14-10.543,5.272-7.381-5.272V611Z" fill="#fbbebe"/>
  <path id="Pfad_5" data-name="Pfad 5" d="M607.644,411.733l-14.76,105.431L571.8,613.106l25.3,3.163,20.032-89.616,25.3-75.91-3.163,90.67L634,616.269h18.977l13.706-101.213L681.841,439.8l-.4-28.072Z" fill="#2f2e41"/>
  <path id="Pfad_6" data-name="Pfad 6" d="M764.232,735.685s-5.272-6.326-8.434-3.163-10.543,15.815-10.543,15.815-16.869,9.489-3.163,11.6,17.923,0,17.923-1.054,2.109-4.217,2.109-4.217l5.272,1.054,7.38-2.109s3.163-19.426,0-18.675S765.286,738.848,764.232,735.685Z" transform="translate(-184 -104.655)" fill="#2f2e41"/>
  <path id="Pfad_7" data-name="Pfad 7" d="M831.708,735.685s5.272-6.326,8.434-3.163,10.543,15.815,10.543,15.815,16.869,9.489,3.163,11.6-17.923,0-17.923-1.054-2.109-4.217-2.109-4.217l-5.272,1.054-7.38-2.109s-3.163-19.426,0-18.675S830.653,738.848,831.708,735.685Z" transform="translate(-184 -104.655)" fill="#2f2e41"/>
  <circle id="Ellipse_2" data-name="Ellipse 2" cx="21.086" cy="21.086" r="21.086" transform="translate(636.637 244.625)" fill="#fbbebe"/>
  <path id="Pfad_8" data-name="Pfad 8" d="M855.957,383.546s-2.109,17.923-1.054,22.14,3.163,10.543,3.163,10.543L824.327,409.9s9.489-20.032,7.38-23.195S855.957,383.546,855.957,383.546Z" transform="translate(-184 -104.655)" fill="#fbbebe"/>
  <path id="Pfad_9" data-name="Pfad 9" d="M859.12,408.849l-34.792-7.38L804.3,523.769a45.675,45.675,0,0,1,27.412,1.054c14.76,5.272,34.792,0,34.792,0L862.283,409.9Z" transform="translate(-184 -104.655)" fill="#fca310"/>
  <path id="Pfad_10" data-name="Pfad 10" d="M831.414,391.783l-12.358,6.523-15.815,3.163-16.869,40.064L788.481,470s-17.923,32.684-20.032,50.607c0,0,2.109,27.412,36.9,26.358l23.195-64.313s9.489-48.5,0-62.2C828.545,420.447,835.337,394.748,831.414,391.783Z" transform="translate(-184 -104.655)" fill="#2f2e41"/>
  <path id="Pfad_11" data-name="Pfad 11" d="M809.567,401.469l-3.414-.582-2.912.582s-7.38,1.054-15.815,8.434-36.9,30.575-39.009,36.9-1.054,16.869,2.109,23.195,9.489,14.76,9.489,14.76l3.163,7.38,17.923-5.272s-11.6-22.14-10.543-31.629l21.086-16.869Z" transform="translate(-184 -104.655)" fill="#2f2e41"/>
  <path id="Pfad_12" data-name="Pfad 12" d="M854.789,396.549l15.928,19.68,8.434,10.543-10.543,35.846-5.272,30.575s12.652,48.5,2.109,63.259c0,0-6.326,7.38-8.434-1.054s-2.109-48.5-2.109-48.5-8.434-52.715-4.217-66.421S850.459,399.01,854.789,396.549Z" transform="translate(-184 -104.655)" fill="#2f2e41"/>
  <path id="Pfad_13" data-name="Pfad 13" d="M869.663,549.072v10.543s-2.109,34.792,8.434,30.575,3.163-30.575,3.163-30.575l-1.054-11.6Z" transform="translate(-184 -104.655)" fill="#fbbebe"/>
  <path id="Pfad_14" data-name="Pfad 14" d="M818.218,371.491c8.019-5.8,14.51-12.488,18.8-20.439,0,0,14.716,16.351,23.709,17.169s.818-19.621.818-19.621L845.2,344.512l-15.534,1.635L817.4,354.322Z" transform="translate(-184 -104.655)" fill="#2f2e41"/>
  <path id="Pfad_15" data-name="Pfad 15" d="M686.717,318.954l8.434,3.163,1.055,10.543,4.217,64.313-2.109,48.5L682.5,446.526l-5.272-53.77-2.108-59.041Z" fill="#2f2e41"/>
  <path id="Pfad_16" data-name="Pfad 16" d="M614,263.086h-3.663V162.735a58.08,58.08,0,0,0-58.08-58.08H339.651a58.08,58.08,0,0,0-58.08,58.08V713.265a58.08,58.08,0,0,0,58.08,58.08H552.257a58.08,58.08,0,0,0,58.08-58.08V334.517H614Z" transform="translate(-184 -104.655)" fill="#13213c"/>
  <path id="Pfad_17" data-name="Pfad 17" d="M597.975,163.141V712.86A43.376,43.376,0,0,1,554.6,756.235H340.974A43.376,43.376,0,0,1,297.6,712.861V163.141a43.376,43.376,0,0,1,43.375-43.375h25.916a20.617,20.617,0,0,0,19.081,28.389h121.8a20.617,20.617,0,0,0,19.082-28.389H554.6a43.376,43.376,0,0,1,43.375,43.375Z" transform="translate(-184 -104.655)" fill="#fca310"/>
  <path id="Pfad_18" data-name="Pfad 18" d="M212.286,474.693h-4.493l1.5-87.756h1.5Z" fill="#13213c"/>
  <path id="Pfad_19" data-name="Pfad 19" d="M400.029,436.342l7.252-11.207a168.035,168.035,0,0,0-7.44-17.416l-4.689,3.788,3.713-5.738c-3.539-6.965-6.323-11.354-6.323-11.354S378,417.332,373.139,441.6l9.306,14.382-10.3-8.321a67.979,67.979,0,0,0-.565,8.524c0,28.739,9.386,52.036,20.964,52.036s20.964-23.3,20.964-52.036c0-8.909-2.016-18.23-4.8-26.853Z" transform="translate(-184 -104.655)" fill="#13213c"/>
  <path id="Pfad_20" data-name="Pfad 20" d="M329.245,474.693h-4.493l1.5-87.756h1.5Z" fill="#13213c"/>
  <path id="Pfad_21" data-name="Pfad 21" d="M516.988,436.342l7.252-11.207a168.022,168.022,0,0,0-7.44-17.416l-4.689,3.788,3.713-5.738c-3.539-6.965-6.323-11.354-6.323-11.354s-14.544,22.919-19.4,47.185L499.4,455.98l-10.3-8.321a67.979,67.979,0,0,0-.565,8.524c0,28.739,9.386,52.036,20.964,52.036s20.964-23.3,20.964-52.036c0-8.909-2.016-18.23-4.8-26.853Z" transform="translate(-184 -104.655)" fill="#13213c"/>
  <circle id="Ellipse_3" data-name="Ellipse 3" cx="41.28" cy="41.28" r="41.28" transform="translate(167.587 101.238)" fill="#13213c"/>
  <path id="Pfad_22" data-name="Pfad 22" d="M266.043,461.916H256.78l3.088-180.945h3.087Z" fill="#13213c"/>
  <path id="Pfad_23" data-name="Pfad 23" d="M457.762,271.706,472.715,248.6a346.45,346.45,0,0,0-15.341-35.911l-9.669,7.809,7.656-11.832c-7.3-14.362-13.037-23.411-13.037-23.411s-29.988,47.256-40.007,97.29L421.5,312.2l-21.242-17.157a140.16,140.16,0,0,0-1.165,17.576c0,59.257,19.353,107.294,43.226,107.294s43.226-48.037,43.226-107.294c0-18.37-4.156-37.589-9.889-55.368Z" transform="translate(-184 -104.655)" fill="#13213c"/>
  <path id="Pfad_24" data-name="Pfad 24" d="M604.206,592.653V715.661a45.176,45.176,0,0,1-45.174,45.175H336.542a45.176,45.176,0,0,1-45.175-45.175V604.645a212.73,212.73,0,0,1,312.84-11.993Z" transform="translate(-184 -104.655)" fill="#13213c"/>
  <circle id="Ellipse_4" data-name="Ellipse 4" cx="63.208" cy="63.208" r="63.208" transform="translate(200.812 482.922)" fill="#fca310" opacity="0.2"/>
  <circle id="Ellipse_5" data-name="Ellipse 5" cx="50.895" cy="50.895" r="50.895" transform="translate(213.125 495.235)" fill="#fca310"/>
  <path id="Pfad_25" data-name="Pfad 25" d="M258.084,567.89l-17.937-23.061,10.431-8.113,8.492,10.919,28.689-30.284,9.594,9.088Z" fill="#fff"/>
</svg>
