<svg xmlns="http://www.w3.org/2000/svg" width="930" height="609.874" viewBox="0 0 930 609.874"><g transform="translate(0 0)"><path d="M176.062,706.849a24.215,24.215,0,0,0,23.383-4.119c8.19-6.874,10.758-18.2,12.847-28.682l6.18-31.017-12.938,8.908c-9.3,6.406-18.818,13.019-25.26,22.3s-9.252,21.947-4.078,31.988" transform="translate(-135 -145.063)" fill="#e6e6e6"/><path d="M178.06,746.559c-1.628-11.864-3.3-23.881-2.159-35.872,1.015-10.649,4.264-21.049,10.878-29.579a49.2,49.2,0,0,1,12.625-11.44c1.262-.8,2.424,1.2,1.167,2a46.779,46.779,0,0,0-18.5,22.326c-4.029,10.246-4.675,21.416-3.982,32.3.419,6.582,1.311,13.121,2.206,19.653a1.2,1.2,0,0,1-.808,1.422,1.163,1.163,0,0,1-1.423-.808Z" transform="translate(-135 -145.063)" fill="#f2f2f2"/><path d="M189.781,727.523a17.825,17.825,0,0,0,15.531,8.019c7.864-.373,14.418-5.86,20.317-11.07l17.452-15.409-11.55-.553c-8.306-.4-16.827-.771-24.738,1.793s-15.208,8.726-16.654,16.915" transform="translate(-135 -145.063)" fill="#e6e6e6"/><path d="M173.457,753.379c7.84-13.871,16.932-29.288,33.181-34.216a37.027,37.027,0,0,1,13.955-1.441c1.482.128,1.112,2.412-.367,2.284a34.4,34.4,0,0,0-22.272,5.892c-6.28,4.275-11.17,10.218-15.308,16.519-2.535,3.861-4.806,7.884-7.076,11.9C174.845,755.606,172.723,754.678,173.457,753.379Z" transform="translate(-135 -145.063)" fill="#f2f2f2"/><rect width="344" height="293" transform="translate(241.602 315.468)" fill="#fff"/><path d="M721.6,754.531h-346v-295h346Zm-344-2h342v-291h-342Z" transform="translate(-135 -145.063)" fill="#3f3d56"/><rect width="86" height="236" transform="translate(370.602 372.468)" fill="#0a84ff"/><rect width="86" height="236" transform="translate(370.602 372.468)" fill="#0a84ff"/><path d="M242.6,336.968v47.538l343,21.962-1.011-58.658Z" opacity="0.2"/><rect width="384" height="84" transform="translate(221.602 288.468)" fill="#fff"/><path d="M741.6,518.531h-386v-86h386Zm-384-2h382v-82h-382Z" transform="translate(-135 -145.063)" fill="#3f3d56"/><rect width="86" height="91" transform="translate(370.602 280.468)" fill="#0a84ff"/><path d="M539.394,346.188c22.7,33.652,1.312,87.775,1.312,87.775s-58.2-.436-80.9-34.088S458.5,312.1,458.5,312.1,516.693,312.536,539.394,346.188Z" transform="translate(-135 -145.063)" fill="#0a84ff"/><path d="M549.81,346.188c-22.7,33.652-1.312,87.775-1.312,87.775s58.2-.436,80.9-34.088,1.312-87.775,1.312-87.775S572.512,312.536,549.81,346.188Z" transform="translate(-135 -145.063)" fill="#0a84ff"/><circle cx="9" cy="9" r="9" transform="translate(344.602 208.468)" fill="#3f3d56"/><circle cx="9" cy="9" r="9" transform="translate(398.602 299.468)" fill="#3f3d56"/><circle cx="9" cy="9" r="9" transform="translate(398.602 496.468)" fill="#3f3d56"/><circle cx="6" cy="6" r="6" transform="translate(371.602 244.468)" fill="#3f3d56"/><circle cx="6" cy="6" r="6" transform="translate(461.602 193.468)" fill="#3f3d56"/><circle cx="6" cy="6" r="6" transform="translate(422.602 334.468)" fill="#3f3d56"/><circle cx="6" cy="6" r="6" transform="translate(386.602 412.468)" fill="#3f3d56"/><circle cx="6" cy="6" r="6" transform="translate(417.602 439.468)" fill="#3f3d56"/><circle cx="6" cy="6" r="6" transform="translate(410.602 552.468)" fill="#3f3d56"/><path d="M786.636,597.422H775.663l-5.221-42.326h16.2Z" fill="#ffb7b7"/><path d="M924.434,753.122H889.052v-.448A13.773,13.773,0,0,1,902.823,738.9h21.612Z" transform="translate(-135 -145.063)" fill="#2f2e41"/><path d="M813.437,597.422h10.974l5.22-42.326h-16.2Z" fill="#ffb7b7"/><path d="M945.638,738.9H967.25a13.772,13.772,0,0,1,13.772,13.771v.448H945.639Z" transform="translate(-135 -145.063)" fill="#2f2e41"/><circle cx="19.18" cy="19.18" r="19.18" transform="translate(741.307 266.77) rotate(-63.58)" fill="#ffb7b7"/><path d="M887.9,535.13s-6.057,25.236-3.028,37.35,12.113,94.889,12.113,94.889l6.057,65.615L927.266,735l-3.028-76.719,3.028-66.624,17.161,64.605v76.947l25.694,1.009.552-100.165s2.019-78.737-11.1-88.832-15.142-12.113-15.142-12.113Z" transform="translate(-135 -145.063)" fill="#2f2e41"/><path d="M924.471,424.09,947.455,436.2l3.028,104.983s-13.123-8.076-33.312,2.019-33.312,3.028-33.312,3.028l12.113-45.425-5.047-60.567,7.219-6.552Z" transform="translate(-135 -145.063)" fill="#cbcbcb"/><path d="M898.147,431.779l-4.193,3.416S867.708,448.317,866.7,457.4l18.17,49.463s5.047,11.1,1.009,15.142-8.076,14.132-7.066,19.18-6.057,26.246,2.019,26.246,27.255-48.454,26.246-67.633S905.369,430.382,898.147,431.779Z" transform="translate(-135 -145.063)" fill="#2f2e41"/><path d="M915.793,425.228l9.246-1.539s34.321,9.085,39.369,24.227l-14.132,35.331s10.095,64.605,7.066,64.605h-3.028s8.076,6.057,3.028,8.076-17.161,18.17-20.189,11.1-21.2-90.851-19.18-109.021S914,427.131,915.793,425.228Z" transform="translate(-135 -145.063)" fill="#2f2e41"/><path d="M919.805,384.407l.9-1.808-4.52-2.246s-4.986-8.113-14.009-5.833-13.083,3.645-13.083,3.645l-4.509,2.269,2.263,2.251-4.06,1.365L885.5,385.4l-3.156,1.814,1.7,9.3s2.821-7.052,8.245-4.357,15.346-1.393,15.346-1.393l8.62,16.682s1.778-5.848,4.949-4.288C921.2,403.151,929.3,390.252,919.805,384.407Z" transform="translate(-135 -145.063)" fill="#2f2e41"/><path d="M947.882,561.54a9,9,0,0,1,6.433-12.21l3.886-31.748,12.661,10.768-5.631,28.5a9.049,9.049,0,0,1-17.349,4.693Z" transform="translate(-135 -145.063)" fill="#ffb7b7"/><path d="M893.729,559.356a9,9,0,0,0-7.692-11.459l-7.23-31.157-11.448,12.05,8.621,27.74a9.049,9.049,0,0,0,17.749,2.826Z" transform="translate(-135 -145.063)" fill="#ffb7b7"/><path d="M948.37,439.69s13.123-5.047,17.161,10.095,9.085,45.425,9.085,45.425c.251,16.84-.644,16.84,0,33.312l-3.028,15.142-17.161-2.019.748-38.546-8.824-39.182Z" transform="translate(-135 -145.063)" fill="#2f2e41"/><path d="M875.784,451.346l-6.222.666s-5.891,4.382-5.891,14.476-1.009,40.378-1.009,40.378-.573.708,4.038,26.246c2.247,12.447,6.13,18.321,6.13,18.321L885.36,539.8l-1.5-29.9,4.038-16.151Z" transform="translate(-135 -145.063)" fill="#2f2e41"/><path d="M1064,754.531H136a1,1,0,0,1,0-2h928a1,1,0,0,1,0,2Z" transform="translate(-135 -145.063)" fill="#3f3d56"/><circle cx="22.028" cy="22.028" r="22.028" transform="translate(208.621 268.177)" fill="#ffb8b8"/><path d="M357.7,565.61q-.416,0-.836-.037A9.868,9.868,0,0,1,348,553.81a9.242,9.242,0,0,1,.242-.938l-32.511-38.451a7.663,7.663,0,0,1-.533-9.134l.059-.072,29.264-28.855A8.459,8.459,0,1,1,356.4,488.407l-.111.108L335.1,508.664l23.2,37.241a9.4,9.4,0,0,1,1.309.161A9.868,9.868,0,0,1,357.7,565.61Z" transform="translate(-135 -145.063)" fill="#ffb8b8"/><path d="M266.928,596.776h11l5.23-42.41H266.926Z" fill="#ffb8b8"/><path d="M399.124,738.25h21.654a13.8,13.8,0,0,1,13.8,13.8v.449H399.124Z" transform="translate(-135 -145.063)" fill="#2f2e41"/><path d="M157.641,581.575l9.448,5.625,26.192-33.764-13.943-8.3Z" fill="#ffb8b8"/><path d="M292.068,722.118,310.673,733.2h0a13.8,13.8,0,0,1,4.8,18.916h0l-.229.385-30.463-18.138Z" transform="translate(-135 -145.063)" fill="#2f2e41"/><path d="M415.518,726.86H403.206a4.029,4.029,0,0,1-4.013-3.609L386.78,606.573a1.346,1.346,0,0,0-2.564-.412l-22.393,49.584L322.179,720.39a4.055,4.055,0,0,1-5.066,1.583l-15.838-6.968a4.037,4.037,0,0,1-1.839-5.765l36.445-61.023L347.058,596.8c-3.515-22.3,11.555-55.447,11.708-55.779l.075-.162,41.512-16.225.208.255c16.371,53.724,26.347,111.54,18.981,198.271a4.063,4.063,0,0,1-4.023,3.7Z" transform="translate(-135 -145.063)" fill="#2f2e41"/><path d="M357.168,546.294l-.193-.406c-.092-.194-9.323-19.663-16.438-40.47a30.691,30.691,0,0,1,2.128-24.6,31.026,31.026,0,0,1,19.785-15.214h0a31.064,31.064,0,0,1,36.055,18.6c5.644,14.114,3.845,29.179,2.152,41.027l-.034.237-.216.1Z" transform="translate(-135 -145.063)" fill="#31d158"/><path d="M392.357,422.825H357.379V407.579c7.677-3.05,15.19-5.644,19.731,0a15.247,15.247,0,0,1,15.247,15.246Z" transform="translate(-135 -145.063)" fill="#2f2e41"/><path d="M355.443,404.888c-20.91,0-26.763,26.21-26.763,41,0,8.246,3.729,11.2,9.59,12.194l2.07-11.038,4.847,11.513c1.646.008,3.375-.024,5.168-.057L352,455.112l3.665,3.323c14.679.022,26.542,2.162,26.542-12.551C382.205,431.1,377.072,404.888,355.443,404.888Z" transform="translate(-135 -145.063)" fill="#2f2e41"/><path d="M448.387,434.222q.2.365.369.751a9.868,9.868,0,0,1-6.077,13.412,9.243,9.243,0,0,1-.939.237l-18.157,46.966a7.663,7.663,0,0,1-7.76,4.847l-.091-.017-39.353-11.847a8.459,8.459,0,0,1,4.878-16.2l.147.046,27.844,8.94L430.8,443.14a9.391,9.391,0,0,1-.486-1.226,9.868,9.868,0,0,1,18.069-7.692Z" transform="translate(-135 -145.063)" fill="#ffb8b8"/><path d="M798.219,314.932c-14.711-19.687-41.636-24.438-55.016-14.44s-16.453,37.166-1.742,56.853c13.617,18.223,38.288,23.193,51.876,16.366a1.706,1.706,0,0,0-.008.647l.766,3.787a1.728,1.728,0,0,0,2.758,1.019l6.487-5.068a1.728,1.728,0,0,0-.321-2.923l-3.49-1.66a1.71,1.71,0,0,0-.384-.121C809.62,358.319,811.865,333.194,798.219,314.932Z" transform="translate(-135 -145.063)" fill="#ccc"/><path d="M766.04,307.5a28.432,28.432,0,0,1,23.812,31.085c-.158,1.66,2.435,1.649,2.592,0A31.088,31.088,0,0,0,766.729,305C765.1,304.722,764.4,307.219,766.04,307.5Z" transform="translate(-135 -145.063)" fill="#fff"/><path d="M307.2,339.624c12.862-20.942,7.332-47.719-6.9-56.46s-40.615-1.563-53.476,19.379c-11.905,19.385-7.412,44.147,3.952,54.253a1.707,1.707,0,0,0-.6.232l-3.237,2.111a1.728,1.728,0,0,0,.071,2.939l7.106,4.157a1.728,1.728,0,0,0,2.6-1.378L256.96,361a1.711,1.711,0,0,0-.03-.4C271.089,366.244,295.267,359.051,307.2,339.624Z" transform="translate(-135 -145.063)" fill="#ccc"/><path d="M302.22,306.975a28.432,28.432,0,0,1-20.092,33.609c-1.6.466-.633,2.872.957,2.409a31.088,31.088,0,0,0,21.712-36.3C304.452,305.073,301.873,305.344,302.22,306.975Z" transform="translate(-135 -145.063)" fill="#fff"/><path d="M950.265,187.99c-1.076-24.553-20.654-43.638-37.34-42.907s-34.521,21.454-33.446,46.007c1,22.727,18.588,40.723,33.662,42.73a1.706,1.706,0,0,0-.371.53l-1.5,3.562a1.728,1.728,0,0,0,1.705,2.395l8.215-.537a1.728,1.728,0,0,0,1.38-2.6l-1.95-3.336a1.714,1.714,0,0,0-.25-.316C935.262,230.267,951.262,210.767,950.265,187.99Z" transform="translate(-135 -145.063)" fill="#31d158"/><path d="M927.854,163.732a28.432,28.432,0,0,1,2.181,39.1c-1.065,1.283,1.084,2.734,2.142,1.459a31.088,31.088,0,0,0-2.347-42.234C928.638,160.906,926.652,162.575,927.854,163.732Z" transform="translate(-135 -145.063)" fill="#fff"/><path d="M796.775,258.872a40.784,40.784,0,0,1-31.9-18.9c-.966-1.544-2.226-3.24-1.558-5.141a3.38,3.38,0,0,1,3.5-2.339c1.971.24,3.243,2.168,3.486,4.016.275,2.1-1.2,3.741-3.029,4.52-4.461,1.9-8.962-1.038-12.6-3.385-8.28-5.348-17.387-10.184-27.42-10.794-9.283-.564-19.237,3.076-24.4,11.126-.9,1.408,1.339,2.71,2.238,1.308,5.121-7.983,15.472-10.851,24.473-9.617a47.576,47.576,0,0,1,15.313,5.2c2.474,1.284,4.873,2.707,7.224,4.2a46.1,46.1,0,0,0,7.085,4.062c4.132,1.7,9.6,1.565,12.487-2.343,2.692-3.645.612-9.715-3.892-10.739a6.085,6.085,0,0,0-7.128,7.239c.449,2.147,2.066,4.248,3.317,6a43.38,43.38,0,0,0,32.8,18.17c1.667.082,1.663-2.51,0-2.592Z" transform="translate(-135 -145.063)" fill="#ccc"/></g></svg>