<svg id="welcome" xmlns="http://www.w3.org/2000/svg" width="839.362" height="517.188" viewBox="0 0 839.362 517.188">
  <path id="Pfad_824" data-name="Pfad 824" d="M558.064,651.792l-1.058-1.1c.209-.2,21.026-20.585,28.959-58.676,7.327-35.174,4.852-93.086-48.542-169.222-22.309-31.811-37.523-61.867-45.219-89.332-6.288-22.441-7.619-43.3-3.957-62.006,7.24-36.977,31.85-53.211,32.1-53.37l.827,1.282c-.243.156-24.338,16.085-31.437,52.428-8.144,41.7,8.321,92.2,48.937,150.121,23.717,33.82,39.505,66.936,46.926,98.43,5.944,25.229,6.563,49.479,1.841,72.078C579.389,630.941,558.276,651.588,558.064,651.792Z" transform="translate(-164.045 -138.242)" fill="#f2f2f2"/>
  <circle id="Ellipse_200" data-name="Ellipse 200" cx="59.071" cy="59.071" r="59.071" transform="translate(283.715 46.868)" fill="#f2f2f2"/>
  <path id="Pfad_825" data-name="Pfad 825" d="M506.488,274.42a80.486,80.486,0,1,1,80.485-80.486,80.486,80.486,0,0,1-80.485,80.486Zm0-159.445a78.959,78.959,0,1,0,78.959,78.959A78.959,78.959,0,0,0,506.488,114.975Z" transform="translate(-149.774 -113.449)" fill="#f2f2f2"/>
  <circle id="Ellipse_201" data-name="Ellipse 201" cx="48.986" cy="48.986" r="48.986" transform="translate(352.872 190.944)" fill="#f2f2f2"/>
  <circle id="Ellipse_202" data-name="Ellipse 202" cx="48.986" cy="48.986" r="48.986" transform="translate(327.899 360.955)" fill="#f2f2f2"/>
  <rect id="Rechteck_116" data-name="Rechteck 116" width="179.318" height="116.748" transform="translate(403.215 86.988)" fill="#fca310"/>
  <path id="Pfad_826" data-name="Pfad 826" d="M1089.345,760.689H923.272s-3.366-49.373,16.551-49.934,17.673,21.881,42.64-8.977,55.264-29.175,59.191-10.941-7.574,32.822,13.465,28.333S1106.457,726.465,1089.345,760.689Z" transform="translate(-267.548 -247.152)" fill="#f2f2f2"/>
  <path id="Pfad_827" data-name="Pfad 827" d="M1028.312,760.61l-.561-.023c1.307-32.507,8.115-53.393,13.6-65.189,5.951-12.809,11.686-17.994,11.743-18.045l.373.419c-.056.05-5.724,5.184-11.628,17.907C1036.385,707.426,1029.614,728.226,1028.312,760.61Z" transform="translate(-292.354 -247.062)" fill="#fff"/>
  <path id="Pfad_828" data-name="Pfad 828" d="M1107.088,775.183l-.538-.157a87.031,87.031,0,0,1,21.912-36.455l.377.415a86.444,86.444,0,0,0-21.75,36.2Z" transform="translate(-311.025 -261.567)" fill="#fff"/>
  <path id="Pfad_829" data-name="Pfad 829" d="M953.046,771.329l-.556-.077a61.107,61.107,0,0,0-5.5-35.716,49.18,49.18,0,0,0-8.674-12.657l.388-.4a49.8,49.8,0,0,1,8.789,12.814A61.668,61.668,0,0,1,953.046,771.329Z" transform="translate(-271.164 -257.753)" fill="#fff"/>
  <path id="Pfad_830" data-name="Pfad 830" d="M147.2,758.955l-.383-.787c-.117-.239-11.589-24.222-5.193-47.868s28.4-38.575,28.617-38.722l.727-.487.383.787c.117.239,11.589,24.222,5.192,47.868s-28.4,38.575-28.616,38.722Zm23.153-85.587c-3.851,2.8-21.669,16.682-27.255,37.33-5.59,20.664,2.8,41.621,4.718,45.98,3.851-2.8,21.669-16.682,27.255-37.33h0C180.665,698.684,172.271,677.728,170.357,673.369Z" transform="translate(-81.934 -245.579)" fill="#e5e5e5"/>
  <path id="Pfad_831" data-name="Pfad 831" d="M110.174,719.9c6.4,23.644,28.3,38.287,28.3,38.287s11.538-23.691,5.142-47.335-28.3-38.287-28.3-38.287S103.777,696.252,110.174,719.9Z" transform="translate(-74.483 -245.927)" fill="#fca310"/>
  <path id="Pfad_832" data-name="Pfad 832" d="M129.738,766.09l-.873-.048c-.266-.014-26.8-1.65-44.354-18.737s-19.9-43.568-19.923-43.834l-.071-.871.873.048c.266.014,26.8,1.65,44.353,18.737s19.9,43.568,19.923,43.834ZM66.207,704.245c.576,4.727,4.041,27.047,19.369,41.967S123.307,764,128.048,764.446c-.576-4.728-4.041-27.046-19.369-41.967h0C93.341,707.547,70.947,704.692,66.207,704.245Z" transform="translate(-64.123 -253.044)" fill="#e5e5e5"/>
  <path id="Pfad_833" data-name="Pfad 833" d="M168.6,722.184c-17.551,17.085-19.695,43.349-19.695,43.349s26.312-1.437,43.863-18.522,19.695-43.349,19.695-43.349S186.146,705.1,168.6,722.184Z" transform="translate(-84.117 -253.296)" fill="#e5e5e5"/>
  <path id="Pfad_834" data-name="Pfad 834" d="M355.6,528.184c-17.551,17.085-19.695,43.349-19.695,43.349s26.312-1.437,43.863-18.522,19.695-43.349,19.695-43.349S373.146,511.1,355.6,528.184Z" transform="translate(-128.425 -207.329)" fill="#e5e5e5"/>
  <circle id="Ellipse_203" data-name="Ellipse 203" cx="11.446" cy="11.446" r="11.446" transform="translate(52.972 399.842)" fill="#fca310"/>
  <path id="Pfad_835" data-name="Pfad 835" d="M312.589,678.4l-1.058-1.1c.166-.159,16.677-16.333,22.965-46.552,5.808-27.91,3.835-73.865-38.543-134.293-32.5-46.345-45.654-86.836-39.092-120.347,5.765-29.44,25.371-42.373,25.569-42.5l.827,1.282c-.192.124-19.284,12.752-24.907,41.559-6.457,33.08,6.615,73.161,38.854,119.13,18.853,26.884,31.4,53.211,37.3,78.249,4.727,20.065,5.22,39.353,1.463,57.328C329.565,661.8,312.758,678.238,312.589,678.4Z" transform="translate(-109.309 -165.614)" fill="#e5e5e5"/>
  <ellipse id="Ellipse_204" data-name="Ellipse 204" cx="137.35" cy="23.563" rx="137.35" ry="23.563" transform="translate(58.314 158.898)" fill="#fca310"/>
  <path id="Pfad_836" data-name="Pfad 836" d="M234.2,355.967c-95.2,0-169.78-13.072-169.78-29.759S139,296.449,234.2,296.449s169.78,13.072,169.78,29.759S329.4,355.967,234.2,355.967Zm0-57.992c-91.2,0-168.254,12.929-168.254,28.233S143,354.441,234.2,354.441s168.254-12.929,168.254-28.233S325.4,297.975,234.2,297.975Z" transform="translate(-64.1 -156.809)" fill="#e5e5e5"/>
  <path id="Pfad_837" data-name="Pfad 837" d="M328.328,183.741s-20.353-5.733-26.374,22.073-1.433,41.854-1.433,41.854l45.437-5.3S358.858,192.2,328.328,183.741Z" transform="translate(-119.646 -129.988)" fill="#fff"/>
  <path id="Pfad_838" data-name="Pfad 838" d="M289.758,341.729S259.9,344.7,265.221,356.755s5.318,13.117,5.318,13.117l26.233,46.795,8.508-8.863s-9.572-20.916-9.572-27.651-9.926-18.434-9.926-18.434l17.371-1.418Z" transform="translate(-111.528 -167.538)" fill="#a0616a"/>
  <path id="Pfad_839" data-name="Pfad 839" d="M397.969,360.052l9.926,21.625s7.445,7.445,15.6,37.223,9.926,28.715,9.926,28.715L421.012,450.1s-13.826-32.26-18.434-34.742-10.281-25.17-10.281-25.17l-16.307-20.561,4.963-10.99Z" transform="translate(-137.924 -171.544)" fill="#a0616a"/>
  <path id="Pfad_840" data-name="Pfad 840" d="M366.1,325.549l15.244,28.361s-19.143-8.863-21.979,10.635l-17.371-13.471s-24.106,7.8-38.641,4.963c0,0,4.254-13.471-10.99-19.5l34.387-4.254-1.418-7.445,3.545-7.09Z" transform="translate(-118.109 -161.857)" fill="#13213c"/>
  <path id="Pfad_841" data-name="Pfad 841" d="M307.224,428.43s-9.572-1.418-7.09,7.09l4.963,17.016s-6.381,17.371,3.545,13.471S324.95,438,324.95,438s4.254-18.434,0-18.434-17.725-2.836-16.307,0S307.224,428.43,307.224,428.43Z" transform="translate(-119.853 -185.683)" fill="#13213c"/>
  <path id="Pfad_842" data-name="Pfad 842" d="M444.44,468.427s-12.408-3.191-15.244,1.772-2.127,21.27-2.127,21.625,4.254,3.9,5.672,3.9S443.022,511.677,455.075,506,444.44,468.427,444.44,468.427Z" transform="translate(-150.008 -197.319)" fill="#13213c"/>
  <circle id="Ellipse_205" data-name="Ellipse 205" cx="13.826" cy="13.826" r="13.826" transform="translate(191.271 69.394)" fill="#a0616a"/>
  <path id="Pfad_843" data-name="Pfad 843" d="M343.075,226.227s2.836,14.889,5.318,17.016S329.6,248.56,329.6,248.56s3.191-10.281-.709-15.6S343.075,226.227,343.075,226.227Z" transform="translate(-126.635 -140.171)" fill="#a0616a"/>
  <path id="Pfad_844" data-name="Pfad 844" d="M375.391,314.011c-2.414,0-8.561-1-15.453-2.287-5.963-1.113-12.489-2.435-17.637-3.506-5.512-1.149-9.451-2.007-9.451-2.007s-1.418,8.863-6.027,7.8c-3.97-.915-15.836-42.36-19.044-53.814a3.985,3.985,0,0,1,1.762-4.477l16.3-9.951,4.176,1.6s7.055-5.452,11.149-5.562,11.185-1.173,11.185-1.173,8.154.709,9.572,6.736,2.127,43.6,7.445,50.34S382.126,314.011,375.391,314.011Z" transform="translate(-121.727 -143.583)" fill="#d0cde1"/>
  <path id="Pfad_845" data-name="Pfad 845" d="M331.389,361.824s0,13.826,9.217,11.7.709-14.889.709-14.889Z" transform="translate(-127.356 -171.544)" fill="#a0616a"/>
  <path id="Pfad_846" data-name="Pfad 846" d="M360.827,363.683s-3.191,16.307-9.926,13.826,0-17.016,0-17.016Z" transform="translate(-131.27 -171.984)" fill="#a0616a"/>
  <path id="Pfad_847" data-name="Pfad 847" d="M376.939,304.677s-3.471,8.281-6.236,15.084c-5.963-1.113-12.489-2.435-17.637-3.506a10.152,10.152,0,0,1,1.539-2.715c2.482-2.836,1.064-3.545,1.064-3.545-2.127-4.254-.354-9.926-.354-9.926-4.254-11.344,2.127-25.524,2.127-25.524Z" transform="translate(-132.492 -151.619)" opacity="0.15"/>
  <path id="Pfad_848" data-name="Pfad 848" d="M357.441,271.463s-6.381,14.18-2.127,25.524c0,0-1.773,5.672.355,9.926,0,0,1.418.709-1.064,3.545s-4.609,12.762-2.836,14.889-2.482,6.027-1.418,8.154-1.773,4.963-1.773,4.963,10.635,2.127,12.408,5.318c0,0,2.127-2.482,1.063-5.318s-.354-3.9.709-5.672,4.254-5.672,4.609-7.445,9.572-23.752,9.572-23.752l-4.323-40.054Z" transform="translate(-131.429 -148.538)" fill="#d0cde1"/>
  <path id="Pfad_849" data-name="Pfad 849" d="M310.654,261.535l-.662.12a3.985,3.985,0,0,0-3.274,3.95c.025,3.559.226,9.876,1.1,18.618,1.418,14.18,6.381,35.451,7.445,37.578a113.154,113.154,0,0,0,5.672,10.99c3.19,5.318,3.9,3.545,3.19,6.027a3.734,3.734,0,0,0,1.064,3.9s6.381-7.09,12.762-3.19a7.9,7.9,0,0,0,.709-3.191c0-1.773,1.064-3.545-.709-4.609s1.064-5.672-1.773-8.154-3.191-2.127-2.836-4.609a10.561,10.561,0,0,0-.709-4.963Z" transform="translate(-121.51 -148.537)" fill="#d0cde1"/>
  <path id="Pfad_850" data-name="Pfad 850" d="M332.7,199.235s-5.733,15.193-19.78,21.5l-2.293-13.473Z" transform="translate(-122.437 -133.775)" fill="#fff"/>
  <ellipse id="Ellipse_206" data-name="Ellipse 206" cx="1.95" cy="3.722" rx="1.95" ry="3.722" transform="translate(216.618 74.18)" fill="#a0616a"/>
  <circle id="Ellipse_207" data-name="Ellipse 207" cx="24.765" cy="24.765" r="24.765" transform="translate(594.695 224.302)" fill="#fff"/>
  <circle id="Ellipse_208" data-name="Ellipse 208" cx="8.226" cy="8.226" r="8.226" transform="translate(607.926 208.314)" fill="#fff"/>
  <path id="Pfad_851" data-name="Pfad 851" d="M858.391,400.486a8.226,8.226,0,0,1,.7-11.011q-.345.222-.674.482a8.226,8.226,0,0,0,10.233,12.882,8.088,8.088,0,0,0,.621-.547A8.227,8.227,0,0,1,858.391,400.486Z" transform="translate(-251.496 -178.851)" fill="#fff"/>
  <path id="Pfad_852" data-name="Pfad 852" d="M813.887,557.219l-14.333,12.128s-21.5,6.615-11.026,13.782,16.539-8.821,16.539-8.821l17.641-11.026Z" transform="translate(-234.99 -218.597)" fill="#ffb9b9"/>
  <path id="Pfad_853" data-name="Pfad 853" d="M852.157,487.52l-1.654-1.1s-6.615,0-7.718,6.615-4.41,20.4-4.41,20.4-11.026,6.615-9.923,18.744L816.875,542.1s13.782,4.41,11.026,8.269l20.4-18.744.551-35.834Z" transform="translate(-242.389 -201.821)" fill="#f2f2f2"/>
  <circle id="Ellipse_209" data-name="Ellipse 209" cx="14.333" cy="14.333" r="14.333" transform="translate(602.051 244.352)" fill="#ffb9b9"/>
  <path id="Pfad_854" data-name="Pfad 854" d="M864.8,463.411s8.821,9.923,3.308,15.436-7.167,32.526-7.167,32.526L885.2,474.437s-6.615-13.231-6.064-17.641Z" transform="translate(-252.831 -194.802)" fill="#ffb9b9"/>
  <path id="Pfad_855" data-name="Pfad 855" d="M845.85,506.391s13.231-29.06,20.4-31.069l18.744,4.607S870.106,531.2,871.76,536.16s11.026,12.128,7.718,55.68c0,0,42.449,77.731,31.974,90.962s-49.615,23.154-50.167,19.3-18.193-63.4-15.436-81.59c0,0,0,78.834-3.308,80.488s-56.231,13.782-54.577,4.41S816.08,592.943,816.08,592.943l20.4-63.949.551-9.372s-8.821-6.064-2.205-19.846,8.821-15.987,8.821-15.987l7.942-1.491S844.2,502.532,845.85,506.391Z" transform="translate(-235.53 -199.192)" fill="#fca310"/>
  <path id="Pfad_856" data-name="Pfad 856" d="M897.9,570.223l-6.615,14.333s-17.09,18.192-4.962,18.744,13.231-16.539,13.231-16.539l8.821-16.539Z" transform="translate(-257.814 -221.678)" fill="#ffb9b9"/>
  <path id="Pfad_857" data-name="Pfad 857" d="M903.818,481.974h7.167s2.205-3.308,4.41,10.474,1.1,34.731,1.1,34.731l-3.308,27.564s-11.577-4.41-14.333-3.308,0-.551,0-.551l4.962-18.744-6.064-27.013Z" transform="translate(-261.523 -200.686)" fill="#f2f2f2"/>
  <path id="Pfad_858" data-name="Pfad 858" d="M865.385,424.446c-9.362,2.544-15.749,9.033-14.265,14.495.664,2.444,2.8,4.263,5.783,5.3l2.621-3.251.119,3.945c.414.071.835.134,1.269.18l3.33-7.013,1.9,6.987a29.5,29.5,0,0,0,4.618-.87c9.362-2.544,15.749-9.033,14.265-14.495S874.748,421.9,865.385,424.446Z" transform="translate(-250.452 -186.895)" fill="#fff"/>
  <ellipse id="Ellipse_210" data-name="Ellipse 210" cx="1.654" cy="2.756" rx="1.654" ry="2.756" transform="translate(629.339 252.897)" fill="#ffb9b9"/>
  <ellipse id="Ellipse_211" data-name="Ellipse 211" cx="12.972" cy="5.723" rx="12.972" ry="5.723" transform="translate(561.931 502.091)" fill="#13213c"/>
  <ellipse id="Ellipse_212" data-name="Ellipse 212" cx="17.394" cy="7.631" rx="17.394" ry="7.631" transform="translate(623.533 502.991) rotate(-21.513)" fill="#13213c"/>
  <path id="Pfad_859" data-name="Pfad 859" d="M784.071,512.131c-.227-.056-22.857-5.816-31.469-28.7-9.815-26.077,1.724-62.85,34.3-109.3,39.786-56.731,41.946-75.793,36.753-81.794-6.569-7.591-27.184,2.688-27.39,2.792l-.688-1.362c.89-.45,21.886-10.916,29.232-2.43,8.073,9.326-4.261,37.476-36.656,83.67-17.651,25.169-29.188,47.761-34.291,67.149-4.137,15.718-4.082,29.415.163,40.712,8.315,22.126,30.191,27.719,30.411,27.773Z" transform="translate(-226.357 -154.816)" fill="#e5e5e5"/>
  <path id="Pfad_860" data-name="Pfad 860" d="M751.948,317.59H560.421V192.449H751.948Zm-190-1.526H750.422V193.975H561.947Z" transform="translate(-181.624 -132.167)" fill="#e5e5e5"/>
  <circle id="Ellipse_213" data-name="Ellipse 213" cx="8.037" cy="8.037" r="8.037" transform="translate(450.525 123.376)" fill="rgba(93,65,18,0.23)"/>
  <circle id="Ellipse_214" data-name="Ellipse 214" cx="8.037" cy="8.037" r="8.037" transform="translate(519.15 123.376)" fill="rgba(93,65,18,0.23)"/>
  <path id="Pfad_861" data-name="Pfad 861" d="M733.387,328.323c0,2.39-15.5,9.274-34.622,9.274s-34.622-6.884-34.622-9.274,15.5.618,34.622.618S733.387,325.933,733.387,328.323Z" transform="translate(-206.2 -164.143)" fill="rgba(93,65,18,0.23)"/>
  <rect id="Rechteck_117" data-name="Rechteck 117" width="839.362" height="1.526" transform="translate(0 512.432)" fill="#3f3d56"/>
</svg>
