<svg xmlns="http://www.w3.org/2000/svg" width="244.95" height="248.4" viewBox="0 0 244.95 248.4"><g transform="translate(-194.427 -213.965)"><g transform="translate(175.965 65.965)"><path d="M60.535,0A60.535,60.535,0,1,1,0,60.535,60.535,60.535,0,0,1,60.535,0Z" transform="translate(133 148)" fill="#13213c"/><path d="M405.7,165.727a2.235,2.235,0,0,0,.333-.174c-.126.244-.253.485-.382.727a.327.327,0,0,1,.049-.554Zm-1.443-.553a3.76,3.76,0,0,1-1.243-.562,1.626,1.626,0,0,1-.32-.231,1.232,1.232,0,0,1-.24-.577,3.245,3.245,0,0,1-.1-.7,3.581,3.581,0,0,1,.081-.47,1.736,1.736,0,0,1,.124-.533,2.527,2.527,0,0,1,.194-.5q.016-.1.033-.2a1.479,1.479,0,0,0,.064-.52l-.013-.133a1.4,1.4,0,0,0-.027-.14,1.172,1.172,0,0,0-.361-.409,5.369,5.369,0,0,1-.914-.745,2.5,2.5,0,0,1-.433-1.081c-.1-.673.024-1.587-.553-2.067h0a.294.294,0,0,1-.121-.217.392.392,0,0,1-.166-.123,5.019,5.019,0,0,1-.745-4.64,10.134,10.134,0,0,0,.89-2.332,3.273,3.273,0,0,0-.745-1.947,8.29,8.29,0,0,1-1.034-1.707,5.162,5.162,0,0,1-.24-2.26,5.343,5.343,0,0,0-.192-2.308,2.642,2.642,0,0,0-1.154-1.25,6.563,6.563,0,0,0-3.895-.577,12.248,12.248,0,0,1-4.952-.047,9.185,9.185,0,0,1-3.534-2.26c-.529-.506-1.01-1.058-1.49-1.611-.457-.577-.962-1.13-1.37-1.755a2.873,2.873,0,0,1-.409-2.163,5.873,5.873,0,0,0,.457-2.212c-.12-.745-.553-1.442-.288-2.188a1.366,1.366,0,0,1,.858-.888,1.554,1.554,0,0,1,.175-.818c.481-.962,1.635-1.178,2.476-1.707a4.365,4.365,0,0,0,1.13-.962,2.011,2.011,0,0,0,.481-.7,1.225,1.225,0,0,0-.023-.721,1.186,1.186,0,0,1,.264-1.274,1.869,1.869,0,0,1,1.154-.264.91.91,0,0,0,.914-.553,2.066,2.066,0,0,0,.1-1.37,4.714,4.714,0,0,1-.12-2.933,1.856,1.856,0,0,1,2.043-.986,4.535,4.535,0,0,0,1.154.072c.433-.072.337-.553.337-.938A2.68,2.68,0,0,0,391.3,110a2.2,2.2,0,0,0-1.087-.11c-.54.034-1.068.068-1.438-.443-.529-.745.12-1.683.769-2.116.673-.433,1.779-.529,1.923-1.442a1.81,1.81,0,0,1,.5-1.178,1.73,1.73,0,0,1,1.058-.433,1.629,1.629,0,0,1,1.587,1.442c.144.745-.024,1.755.553,2.356a2.426,2.426,0,0,0,2.26.288c.481-.12.962-.288,1.442-.457.313-.1.6-.216.914-.312.168-.047.529-.12.6-.288.1-.217-.144-.433-.289-.529a2.436,2.436,0,0,0-.673-.216,5.726,5.726,0,0,1-1.25-.361,2.014,2.014,0,0,1-1.395-1.755c0-1.009.89-1.658,1.635-2.163.623-.421,1.255-.85,1.885-1.282.131.171.263.344.392.517l-.118.08a1.1,1.1,0,0,1,.221.058q.363.488.718.984v.027a1.09,1.09,0,0,1-.028.235,1.108,1.108,0,0,1,.2.156q.158.138.317.282,1.109,1.6,2.116,3.273a3.915,3.915,0,0,1,.044.829q.126.285.247.573a1.046,1.046,0,0,1,.375.38c.841,1.636,1.683,3.245,2.5,4.88.584,1.167,1.172,2.339,1.731,3.524A60.16,60.16,0,0,1,412.2,129.58q-.032.588-.106,1.175a1.06,1.06,0,0,1,.212.893,1.2,1.2,0,0,1,.162.223q.1,1.036.166,2.081c.015,1.713.021,3.418-.016,5.137-.038,2.082-.134,4.17-.331,6.248a60.156,60.156,0,0,1-3,12.7c-.209.492-.42.984-.632,1.481.072-.144-.049.145-.072.192l-.145.361c-.1.216-.168.433-.24.649q-.078.247-.143.5-.327.778-.675,1.546l-.073.035q.008.048.013.1c-.145.317-.293.635-.443.949a1.059,1.059,0,0,1-.282.138.657.657,0,0,1-.138.376.866.866,0,0,1,.137.071c-.108.22-.216.436-.326.654-.057-.094-.231-.071-.354-.036-.241.047-.481.145-.745.192a2.322,2.322,0,0,1-.914-.072Zm-1.154-5.391h0a.038.038,0,0,0,0-.009l0-.006Zm-.018-.044-.031-.047a.492.492,0,0,0,.031.047Zm-3.094-6.81.031-.118q-.01-.13-.014-.259Q399.988,152.741,399.987,152.929Zm6.559-3.844.029,0-.03,0Zm.382-.765.067-.016a.577.577,0,0,0-.066.016Zm2.854-.19c.031-.17.058-.344.074-.507,0-.048.047-.313.024-.144.024-.144.024-.264.047-.385s.028-.232.041-.347q-.094.693-.185,1.383Zm-8.893-.387q.039.086.071.174c0-.034.009-.067.016-.1l-.094-.089a.06.06,0,0,1,.009.016Zm3.736-.3c-.021.04-.013.043,0,0Zm.95-.238a.128.128,0,0,0-.014-.022Zm-.247-3.218a.5.5,0,0,0,.006-.073.413.413,0,0,0,0,.073Zm1.586-1.626-.024-.009.025.01Zm3.5-1.951.011.026v-.031Zm-.766-1.273a.2.2,0,0,0-.087-.063c.027.022.067.043.088.064Zm-.02-.857a.329.329,0,0,0,.04-.033.479.479,0,0,0-.039.033Zm-1.216-2.333c.1.016.091.014-.017-.007Zm1.134-1.545c-.023-.023-.023-.023-.047-.023l-.047-.012a.352.352,0,0,0,.1.035Zm-1.251-1.053c.047.005.094.012-.024,0Zm-23.181-3.26h0l0,0s0,0,0,0Zm2.649-.094c.022,0,.033,0,0,0Zm-5.176-.809v.01c.012-.027.024-.053.035-.08-.015.032-.026.055-.034.07Zm0-.018a.2.2,0,0,0,.011-.052c0-.021,0-.072,0-.113v0c-.005-.016-.01-.031-.013-.04l-.005-.012q.009.11.008.221Zm.035-.1-.007-.029-.007-.016a.331.331,0,0,1,.015.044ZM382.6,129v-.011a.094.094,0,0,1-.011-.02.122.122,0,0,1,.012.03Zm-.021-.086v0Zm22.352-3.139a4.158,4.158,0,0,1,1.923.89c.457.361,1.081,1.01,1.731.745h0a.278.278,0,0,1,.289.014,1.006,1.006,0,0,0,.145-1.071,3.278,3.278,0,0,0-.5-.769,3.217,3.217,0,0,0-.625-.649c-.312-.239-.577-.047-.913-.047a1.171,1.171,0,0,1-.818-.361c-.471-.41-.96-.855-1.437-1.29a3.944,3.944,0,0,0-.2.568,1.063,1.063,0,0,1-.673.649,1.539,1.539,0,0,1-1.611-.938c-.312-.577-.192-1.514-.721-1.971-.312-.289-.769-.312-1.081-.577a2.853,2.853,0,0,1-.649-.938c-.168-.312-.361-.721-.721-.841-.264-.1-.41.12-.433.361-.047.673.745,1.034,1.2,1.37a2.361,2.361,0,0,1,1.1,1.707,1.382,1.382,0,0,1-.961,1.394,1.819,1.819,0,0,1-1.1-.24c-.409-.168-.793-.361-1.2-.529-.89-.384-1.755-.769-2.621-1.154a2.787,2.787,0,0,0-2.26-.264.9.9,0,0,0-.361,1.466,2.773,2.773,0,0,0,2.187.409c.841-.072,1.731-.192,2.6-.192a1.859,1.859,0,0,1,1.081.264,3.232,3.232,0,0,1,.7.817,2.8,2.8,0,0,0,1.634.962,9.559,9.559,0,0,0,2.278.132c.23-.005.46-.01.69-.01A7.949,7.949,0,0,1,404.927,125.774Zm-22.739,1.249a.936.936,0,0,0-.01.277,1.782,1.782,0,0,1,.156-.468,2.032,2.032,0,0,1,.252-.346c-.21.051-.36.341-.4.536Zm1.168-1.1.058-.028A.1.1,0,0,0,383.356,125.922Zm20.265-2.146.031,0a.29.29,0,0,0,.115-.047,1.127,1.127,0,0,1-.146.044Zm-17.2-.669a1,1,0,0,1,.106.006q.09-.1.174-.2a1.726,1.726,0,0,1,.1-.143c.047-.072.073-.12.12-.192.054-.108.121-.216.182-.324a5.253,5.253,0,0,1-.688.856Zm22.053-.857,0,0-.019-.029ZM393.43,121h.081l-.017-.016Zm4.477-1.429v.072a.99.99,0,0,0,.019-.108c0-.011,0-.022,0-.033,0,.023-.01.047-.015.069Zm.029-.039.006.021a1.353,1.353,0,0,1,.091-.423l-.033.012a.752.752,0,0,1-.067.039,1.138,1.138,0,0,1-.009.307l.006.02a1.278,1.278,0,0,1,.024-.154.922.922,0,0,0-.018.177Zm.063-.39c-.066.027-.1.052,0,0Zm4.307-.269h0a.334.334,0,0,0-.025-.024.487.487,0,0,0-.051-.016.391.391,0,0,0,.074.04Zm-7.182-1.372h-.03C395.094,117.512,395.1,117.51,395.124,117.5Zm-.082-.086h0c-.02,0-.015,0,0,0Zm-2.351-3.276.021-.006H392.7Zm.053-.034.04-.02a.044.044,0,0,1,0-.012c-.015.011-.029.022-.044.031Zm10.069-2.8a.481.481,0,0,0,.039-.03.176.176,0,0,0-.039.03Zm-12.5-3.167c.021.092.022.184.044.277v-.027a2.155,2.155,0,0,1-.04-.267c0,.006,0,.011,0,.017Zm3.487-2.3,0-.02,0,.02Z" transform="translate(-158.685 70.742)" fill="#fca310"/><path d="M47.9,136.2a13.819,13.819,0,0,1-.793-1.707c-.553-1.058-1.779-1.37-2.5-2.259-.745-.913-.673-2.116-.914-3.221a4.152,4.152,0,0,0-.264-.769,4.449,4.449,0,0,0-.529-.649,1.855,1.855,0,0,1-.457-1.611,2.452,2.452,0,0,0-.12-1.755,11.112,11.112,0,0,1-.962-1.395,6.618,6.618,0,0,1-.433-3.269c.168-2.188.866-4.615-.312-6.659-1.058-1.8-2.957-2.885-4.327-4.4a6.637,6.637,0,0,1-1.563-2.812c-.338-1.369-.241-2.812-.627-4.183-.336-1.274-.938-2.6-.577-3.918A2.588,2.588,0,0,1,35.2,95.71c-1.011-1.957-3.51-2.622-5.5-3.074a18.268,18.268,0,0,1-3.389-.986,7.417,7.417,0,0,1-2.6-1.875A7.751,7.751,0,0,1,22.2,87.059c-.072-.217-.1-.528-.264-.673a1.536,1.536,0,0,0-.673-.192,8.961,8.961,0,0,1-1.3-.409,7.96,7.96,0,0,1-4.274-4.7A60.477,60.477,0,0,1,26.1,63.112q.284-.259.573-.513a1.448,1.448,0,0,1,.034-.2q1.124-1.3,2.318-2.536.9-.823,1.827-1.6c.575-.477,1.175-1,1.8-1.493a.281.281,0,0,1,.1-.284A24.367,24.367,0,0,1,35.4,54.945a6.274,6.274,0,0,1,5.625-.24,4.966,4.966,0,0,0,1.346.649,7.006,7.006,0,0,0,1.587.024,20.264,20.264,0,0,1,3.2.047,6.851,6.851,0,0,1,4.784,2.356,4.145,4.145,0,0,1,.865,2.332,8.7,8.7,0,0,1-.385,2.6,9.918,9.918,0,0,0-.409,2.524,3.14,3.14,0,0,0,.962,2.068,7.7,7.7,0,0,1,1.442,1.73,2.356,2.356,0,0,1,.216,1.081,1.569,1.569,0,0,0-.047.577c.072.192.336.192.481.264a1.444,1.444,0,0,1,.457,1.947,3.782,3.782,0,0,1-2.163,1.442l-3.174,1.3a25.11,25.11,0,0,0-2.861,1.25,7.526,7.526,0,0,0-2.26,1.923c-.674.817-1.371,1.611-2.116,2.356-.769.745-1.562,1.466-2.38,2.187a5.552,5.552,0,0,1-2.428,1.587,8.42,8.42,0,0,1-3.077-.481,6.934,6.934,0,0,0-3.221.144c-.529.168-1.659.793-1.2,1.514.288.432,1.081.385,1.538.409a3.057,3.057,0,0,1,1.9.5,2.668,2.668,0,0,1,.721,1.923,3.249,3.249,0,0,0,.192.962c.168.361.553.433.89.577a2.262,2.262,0,0,1,.962.938,3.99,3.99,0,0,0,.841.841A3.929,3.929,0,0,0,39.917,93a4.824,4.824,0,0,0,2.4-.769,4.146,4.146,0,0,1,1.322-.481,7.187,7.187,0,0,1,1.611.072c1.081.12,2.186.168,3.244.361a1.876,1.876,0,0,1,1.1.6,3.422,3.422,0,0,1,.553,1.058,2.654,2.654,0,0,0,.625.986,3.179,3.179,0,0,0,1.011.553,6.294,6.294,0,0,1,2.116,1.081,5.592,5.592,0,0,1,1.2,1.851,6.256,6.256,0,0,0,1.13,1.827,3.359,3.359,0,0,0,2.524.625,6.262,6.262,0,0,1,2.74.433,5.071,5.071,0,0,1,1.976,1.622,3.165,3.165,0,0,1,.739,4.125,3.318,3.318,0,0,0-.337.649,2.94,2.94,0,0,0-.047.649,1.5,1.5,0,0,1-.409,1.13,5.125,5.125,0,0,1-1.01.553,1,1,0,0,0-.384.938c.047.938.722,1.683.769,2.621a2.3,2.3,0,0,1-1.274,2,11.312,11.312,0,0,1-2.813.745,1.869,1.869,0,0,0-1.178.7,2.233,2.233,0,0,0-.289,1.1,15.657,15.657,0,0,1-.047,2.38,2.152,2.152,0,0,1-1.178,1.652.243.243,0,0,0,0,.027,4.491,4.491,0,0,1,.192,1.683,1.381,1.381,0,0,1-1.322.913,5.262,5.262,0,0,0-2.885,1.154,2.741,2.741,0,0,0-.312,3.317c.553,1.2,1.49,2.236,1.779,3.558a2.962,2.962,0,0,1-.841,2.909,4.943,4.943,0,0,1-1.659.625c-.576.217-.938.793-1.611.793A1.9,1.9,0,0,1,47.9,136.2Zm1.489.122a.61.61,0,0,0,.278-.043c-.065,0-.13.007-.194.007a2.568,2.568,0,0,1-.264-.013,1.18,1.18,0,0,0,.179.05Zm-6.136-10.423,0-.007a.7.7,0,0,0,.066-.455c-.021.155-.047.31-.07.463Zm12.2-2.106a.524.524,0,0,0,.136-.287,1.528,1.528,0,0,1-.135.287Zm-1.7-5.159a1.184,1.184,0,0,1,.042.122l.047-.054q.024-.178.051-.356-.066.145-.139.288Zm-.784-11.684.125-.155q-.134-.007-.269-.024a1.37,1.37,0,0,1,.145.179Z" transform="translate(120.999 106.589)" fill="#fca310"/><path d="M3.261,75.626l.02,0a.856.856,0,0,0,.24-.047l.022,0,.025-.02c.024,0,.216-.167.1-.047l.072-.072.039-.032.008-.015c.024-.048.073-.1.1-.144a1.007,1.007,0,0,0,.074-.151c-.029.051.051-.125.071-.162a2.173,2.173,0,0,0,.144-.529l.016-.092c-.033.1.008-.148.008-.148.024-.36.024-.721.047-1.081a5.4,5.4,0,0,1,.577-2.452A1.572,1.572,0,0,1,6.4,69.689a6.865,6.865,0,0,1,1.2.337,15.092,15.092,0,0,1,2.4,1.226c.721.433,1.418.913,2.163,1.346a8.174,8.174,0,0,0,2.212.938,3.727,3.727,0,0,0,2.116,0c.047-.025.42-.187.2-.078.047-.024.113-.045.157-.067a4.46,4.46,0,0,0,.457-.264c.045-.022.09-.065.134-.09l.058-.053a4.2,4.2,0,0,0,.337-.288c.12-.144.264-.288.384-.433.035-.036.072-.085.107-.127s.073-.1.084-.114l.5-.793c.361-.625.674-1.25.986-1.875a14.077,14.077,0,0,1,1.058-1.971,3.407,3.407,0,0,1,2.452-1.37l.5-.072c-.216.024.121-.024.144-.024.168-.047.336-.073.5-.12.1-.024.192-.073.288-.1.192-.072.071-.024.024,0a2.413,2.413,0,0,0,.553-.289.987.987,0,0,0,.264-.168c-.168.12.1-.1.1-.1l.361-.361c.024,0,.216-.264.1-.1.047-.047.073-.121.12-.168.12-.192.217-.361.312-.553a5.476,5.476,0,0,1,1.49-2.116,7.421,7.421,0,0,1,1.058-.577c.1-.048.192-.121.288-.168.032-.02.055-.034.071-.043l.025-.03.12-.12.014-.014c.007-.014.017-.032.033-.058a4.712,4.712,0,0,0,.264-.481c-.121.216.024-.073.024-.1a1.16,1.16,0,0,0,.072-.168c.12-.337.192-.7.288-1.034a8.49,8.49,0,0,1,.793-2.187,6.782,6.782,0,0,1,3.678-3.053,7.1,7.1,0,0,1,2.356-.361c.144,0,.288-.024.433-.024l.05-.005.145-.038c.04-.027.112-.071.143-.087a1.6,1.6,0,0,0,.141-.229,1.3,1.3,0,0,0,.083-.154l.061-.182a10.722,10.722,0,0,0,.553-2.4,20.421,20.421,0,0,0,.047-2.716c-.072-1.827-.288-3.654-.24-5.481a16.609,16.609,0,0,1,.962-5.313c1.2-3.389,3.2-6.371,4.952-9.471a32.531,32.531,0,0,0,2.236-4.736,13.9,13.9,0,0,0,.865-5c0-.24-.024-.5-.047-.769,0-.1-.024-.168-.024-.264,0,0-.047-.361-.024-.144-.048-.384-.1-.744-.168-1.1-.144-.89-.312-1.779-.409-2.669a6.866,6.866,0,0,1,.962-4.808h0a1.065,1.065,0,0,1,1.49-.361,1.1,1.1,0,0,1,.385,1.49l-.288.433a2.646,2.646,0,0,0-.144.264c-.072.192-.024.071,0,.024a4.586,4.586,0,0,0-.264.986c.047-.217,0,.073,0,.12a1.357,1.357,0,0,0-.024.312v.529a7.2,7.2,0,0,0,.072,1.034,1.77,1.77,0,0,0,.024.216c0,.072.024.144.024.216.024.192.073.361.1.553.072.36.12.744.192,1.1a16.024,16.024,0,0,1,.24,4.9,25.589,25.589,0,0,1-3.726,9.52C45.244,30.6,44.4,32,43.61,33.414c-.384.721-.768,1.442-1.1,2.187a20.12,20.12,0,0,0-.818,2.043,15.734,15.734,0,0,0-.625,2.38,1.864,1.864,0,0,1-.047.361c-.01.051-.017.085-.022.107a.041.041,0,0,1,0,.013c-.025.192-.049.409-.072.6-.024.385-.047.769-.047,1.154-.024,1.683.168,3.366.24,5.048a17.165,17.165,0,0,1-.385,5.072,5.26,5.26,0,0,1-1.058,2.356,3.112,3.112,0,0,1-2.476.841c-.217,0-.409.024-.625.024-.072.024-.168.024-.24.047-.289.072-.6.168-.89.264-.111.043-.119.047-.043.009-.047.022-.107.042-.149.063s-.122.073-.168.1a3.91,3.91,0,0,0-.433.24l-.216.144c-.024.047-.191.167-.047.047a2.426,2.426,0,0,0-.385.312,2.909,2.909,0,0,0-.384.385,1.193,1.193,0,0,0-.168.192c.12-.145.024,0,0,.024a6,6,0,0,0-.5.841c-.047.12-.047.12,0,.024-.024.047-.024.1-.047.144l-.072.216c-.048.144-.1.312-.144.457-.072.312-.168.625-.24.938a6.006,6.006,0,0,1-.792,1.9,3.213,3.213,0,0,1-.986.986c-.288.192-.625.312-.938.481a1.539,1.539,0,0,0-.315.176c-.017.015-.037.031-.045.039,0,.024-.216.264-.1.1a.727.727,0,0,0-.12.168c-.168.312-.312.625-.457.938a5.736,5.736,0,0,1-1.346,1.851A5.674,5.674,0,0,1,25.2,67.858a7.426,7.426,0,0,1-1.274.216c-.074.016-.069.018-.044.016l-.052.007c-.072.024-.144.024-.216.047a3.982,3.982,0,0,0-.46.129c.092-.028-.146.091-.188.112a.121.121,0,0,1-.032.022l-.04.051c-.047.072-.1.144-.217.337-.168.288-.312.577-.457.865-.289.553-.577,1.13-.865,1.707a9.781,9.781,0,0,1-2.332,3.174,5.6,5.6,0,0,1-4.615,1.178,12.066,12.066,0,0,1-4.5-2.019c-.649-.409-1.3-.841-2-1.2-.217-.12-.409-.216-.625-.312l-.072-.036c.013.009.009.011-.047-.011-.1-.024-.168-.073-.264-.1-.115-.046-.233-.087-.351-.125a.145.145,0,0,0-.008.029,3.482,3.482,0,0,0-.12.481c-.019.058-.007.1,0,.053-.006.071-.021.133-.021.212-.072.673-.048,1.37-.144,2.043-.192,1.274-.986,2.765-2.4,2.957a1.714,1.714,0,0,1-.231.021Q3.426,76.676,3.261,75.626ZM36.57,55.6c-.023,0-.216.024,0,0Zm1.46-2.287a.277.277,0,0,0-.022.029l.022-.029Zm-.045.029.032-.02Zm.047-.03Zm.006-.006.009-.005c.011-.009.014-.013.013-.013a.074.074,0,0,0-.023.019ZM6.43,72.426a.458.458,0,0,1,0,.053C6.429,72.462,6.43,72.444,6.43,72.426Zm17.5-4.34-.041,0c.109-.015.081-.01.041,0Z" transform="translate(130.477 142.392)" fill="#e5e5e5"/><path d="M369.481,201.784c-.89-1.25-.337-2.861.5-3.943.409-.529.89-.962,1.322-1.466a4.242,4.242,0,0,0,.385-.553l.012-.019a7.079,7.079,0,0,0-1.358-.558c-1.466-.481-3.029-.673-4.5-1.2a7.672,7.672,0,0,1-3.822-2.668,6.15,6.15,0,0,1-.7-4.9,21.243,21.243,0,0,1,.721-2.4c.144-.433.312-.889.457-1.322a5.219,5.219,0,0,0,.264-1.01,1.28,1.28,0,0,0-.312-.769c-.192-.288-.433-.577-.649-.889a5.38,5.38,0,0,1-.865-2.452,5.289,5.289,0,0,1,.312-2.452,7.067,7.067,0,0,0,.409-1.2,2.175,2.175,0,0,0-.144-.817,4.179,4.179,0,0,1-.145-2.6,9.685,9.685,0,0,1,1.1-2.163,4.8,4.8,0,0,0,.7-3.63,4.28,4.28,0,0,0-.808-1.766c-.035-.044-.115-.141-.13-.157l-.216-.217c-.12-.144-.264-.264-.385-.409a3.768,3.768,0,0,1-.721-1.13,3.489,3.489,0,0,1,.481-2.789,14.117,14.117,0,0,1,1.25-1.875c1.8-2.284,4.255-3.895,6.275-5.962,4.423-4.543,4.687-11.274,6.923-16.972a16.986,16.986,0,0,1,5.385-7.6c.53-.409,1.081-.769,1.635-1.154.313-.216.6-.433.914-.649.312-.24.312-.24.6-.481.264-.216.5-.457.745-.7.1-.1.192-.216.288-.312,0,.01.04-.032.078-.075l.047-.053c.024-.033.057-.077.068-.088.1-.168.192-.312.288-.481.018-.035.1-.215.114-.239a3.931,3.931,0,0,0,.222-.867h0a1.073,1.073,0,0,1,1.418-.7,1.138,1.138,0,0,1,.11.037q.332.529.656,1.065a1.486,1.486,0,0,1-.02.22,5.4,5.4,0,0,1-.793,1.971,12.191,12.191,0,0,1-3.317,3.053,18.718,18.718,0,0,0-3.39,2.716c-2.116,2.308-3.221,5.385-4.087,8.414-.962,3.318-1.683,6.73-3.174,9.88a17.728,17.728,0,0,1-2.837,4.207,42.729,42.729,0,0,1-3.438,3.15c-.6.505-1.178,1.034-1.755,1.587-.288.264-.553.553-.817.841-.12.12-.217.24-.337.384-.072.072-.12.144-.192.217,0,0-.119.143-.047.047a8.539,8.539,0,0,0-1.154,1.9,1.1,1.1,0,0,0-.12.553c0-.072.047.1.047.1-.072-.12.049.1.072.12l.025.036.071.085a1.375,1.375,0,0,0,.168.192l.433.433a6.712,6.712,0,0,1,1.683,4.688,6.441,6.441,0,0,1-.577,2.5c-.336.745-.841,1.418-1.226,2.163a2.076,2.076,0,0,0-.168.409l-.072.288c0,.047-.024.288-.024.12a1.7,1.7,0,0,0,.023.385,2.607,2.607,0,0,0,.168.577,4.043,4.043,0,0,1-.047,2.861,4.524,4.524,0,0,0-.433,2.163,4.049,4.049,0,0,0,.986,2.067,3.409,3.409,0,0,1,.793,2.692,14.914,14.914,0,0,1-.793,2.548c-.53,1.564-1.154,3.293-.577,4.808a4.717,4.717,0,0,0,2.933,2.38c1.587.577,3.293.769,4.88,1.322a13.35,13.35,0,0,1,1.346.577c.457.216,1.058.5,1.25.986a2.988,2.988,0,0,1-.745,2.668c-.288.361-.6.7-.914,1.034-.144.144-.264.288-.409.433-.048.072-.1.12-.144.192.073-.1-.047.072-.047.072a3.245,3.245,0,0,0-.361.625c.023-.072.023-.1-.024.072l-.072.289c0,.014,0,.023-.005.031s0,.039.005.065a.13.13,0,0,0,0,.023.969.969,0,0,1,.033.1c.005.018.011.036.015.051a.877.877,0,0,1,.063.091.426.426,0,0,1,.055.1,1.083,1.083,0,0,1-.115,1.254c-.154.108-.309.216-.464.322a1.115,1.115,0,0,1-1.3-.47Z" transform="translate(-142.967 56.186)" fill="#e5e5e5"/></g><path d="M378.8,606.755s.865-18.608,18.6-16.445" transform="translate(-142.972 -207.681)" fill="#fca310"/><path d="M377.816,744.271c-.022-.195-2.116-19.585,6.361-29.847a17.252,17.252,0,0,1,12.459-6.3l.057.731a16.545,16.545,0,0,0-11.949,6.038c-8.278,10.02-6.221,29.107-6.2,29.3Z" transform="translate(-142.197 -282.142)" fill="#fca310"/><rect width="0.738" height="81.527" transform="translate(234.902 380.047)" fill="#fca310"/><circle cx="6.056" cy="6.056" r="6.056" transform="translate(229.771 368.353)" fill="#fca310"/><circle cx="6.018" cy="6.018" r="6.018" transform="translate(248.449 420.326)" fill="#fca310"/><circle cx="11.436" cy="11.436" r="11.436" transform="translate(340.927 308.323)" fill="#e5e5e5"/><path d="M671.569,435.847s-3.725,8.248-4.789,8.514,8.78,5.055,8.78,5.055,1.862-10.11,2.661-10.642S671.569,435.847,671.569,435.847Z" transform="translate(-324.666 -110.31)" fill="#ffb9b9"/><path d="M341.633,520.784l-6.918,19.422,7.45,2.927,12.771-25.276Z" transform="translate(-16.812 -127.669)" fill="#ffb9b9"/><path d="M685.67,616.164S699.5,635.586,700.3,635.852s6.385-4.523,6.385-4.523-6.917-16.762-9.046-17.56S685.67,616.164,685.67,616.164Z" transform="translate(-336.638 -222.516)" fill="#ffb9b9"/><path d="M569.272,662.31l-10.908,28.468s.8,1.6,0,1.862-2.661,4.523-2.661,4.789-1.862.532-1.862,1.33-1.6,7.184-1.6,7.184,2.927,6.385,4.789,4.523,2.661-5.587,2.661-5.587l2.661-6.918s-.266-3.725,1.6-4.257,2.927-7.184,2.927-7.184,2.927-2.927,3.459-3.725,9.844-14.9,9.046-15.165S569.272,662.31,569.272,662.31Z" transform="translate(-252.433 -253.231)" fill="#13213c"/><path d="M721.009,663.3l7.982-5.321s13.835,25.276,13.835,25.808-.532,2.128,0,2.661,5.055,9.046,7.982,9.844,3.459,3.991,1.064,4.523-5.587,1.862-6.385,0a29.3,29.3,0,0,0-1.6-3.193s-2.661.8-2.927.266a24.488,24.488,0,0,1-.8-2.395s-2.128-3.725-2.128-5.055a1.665,1.665,0,0,0-1.33-1.6s-2.927-6.917-4.789-7.982-3.459-6.385-3.459-6.385Z" transform="translate(-358.941 -250.5)" fill="#13213c"/><circle cx="7.716" cy="7.716" r="7.716" transform="translate(344.775 316.225)" fill="#ffb9b9"/><path d="M615.954,558.454s-11.419,30.336-9.823,30.336,45.76.961,47.09-1.168-11.459-23.315-11.991-23.581S615.954,558.454,615.954,558.454Z" transform="translate(-286.344 -187.688)" fill="#13213c"/><path d="M581.186,347.49,573.2,335.251s1.974-12.839-.687-10.444-3.5,12.064-3.5,12.064l9.244,14.077Z" transform="translate(-263.017 -40.045)" fill="#ffb9b9"/><path d="M797.27,435.01l7.184-.532s8.514-9.046,9.046-6.119-6.918,9.312-6.918,9.312l-9.844,1.064Z" transform="translate(-406.733 -105.217)" fill="#ffb9b9"/><path d="M613.691,409.981V407.32s-6.918-4.523-6.651-5.321a1.242,1.242,0,0,0-.532-1.33,5.816,5.816,0,0,1-.8-1.33c0-.266-1.064-.532-1.064-.532l-6.651-7.716s-3.725-7.45-4.523-7.184-5.055,1.862-4.523,2.927,15.431,23.945,15.431,23.945.8,5.055,2.128,5.055S613.691,409.981,613.691,409.981Z" transform="translate(-275.568 -77.527)" fill="#13213c"/><path d="M702.6,452.528s5.853-.266,6.119,0,3.991,0,3.991,0,10.11-2.395,10.908-3.193,14.1-4.257,14.633-2.661,1.862,4.789.532,5.321-37.248,9.578-37.248,9.578Z" transform="translate(-346.651 -116.882)" fill="#13213c"/><circle cx="4.732" cy="4.732" r="4.732" transform="translate(343.63 302.991)" fill="#e5e5e5"/><path d="M665.064,372.515a4.733,4.733,0,0,1,4.239-4.706,4.785,4.785,0,0,0-.493-.026,4.732,4.732,0,1,0,0,9.464,4.792,4.792,0,0,0,.493-.026,4.732,4.732,0,0,1-4.239-4.706Z" transform="translate(-323.012 -67.355)" fill="#2f2e41"/><ellipse cx="7.887" cy="4.732" rx="7.887" ry="4.732" transform="translate(345.806 312.602)" fill="#e5e5e5"/><path d="M642.087,446.571s-2.395,1.862-2.927,2.128-3.725-2.395-4.257-2.395-7.45,7.982-7.45,7.982,1.286,1.481,0,9.046c-.482,2.837-1.439,14.967-1.439,16.563s-5.213,5.519-.424,8.978,27.67,7.184,27.936,5.055-2.661-7.716-1.33-10.376,1.33-12.5,1.33-12.5l1.6-10.376,1.33-8.248s-6.252-1.729-6.784-1.729S646.743,454.419,642.087,446.571Z" transform="translate(-297.445 -116.91)" fill="#13213c"/><rect width="244.95" height="0.827" transform="translate(194.427 461.538)" fill="#3f3d56"/></g></svg>